<?xml version="1.0" encoding="UTF-8" standalone="no"?> <svg xmlns="http://www.w3.org/2000/svg" xmlns:xlink="http://www.w3.org/1999/xlink" xmlns:serif="http://www.serif.com/" width="100%" height="100%" viewBox="0 0 32 32" xml:space="preserve" style="fill-rule:evenodd;clip-rule:evenodd;stroke-linejoin:round;stroke-miterlimit:2;"> <g transform="matrix(1,0,0,1,-17,-16)"> <g id="_32"> <path d="M28.55,25.717C28.425,25.583 28.402,25.382 28.493,25.223C28.511,25.193 28.532,25.165 28.557,25.14L37.085,16.599C37.241,16.442 37.454,16.354 37.675,16.354C37.907,16.354 38.13,16.452 38.288,16.622C40.79,19.328 42.593,22.606 43.54,26.167L43.54,26.168L38.378,32L30.701,29.596C30.309,28.148 29.571,26.816 28.55,25.717L28.55,25.717Z" style="fill:rgb(40,168,234);fill-rule:nonzero;"></path> <path d="M47.627,25.962C47.539,25.588 47.202,25.321 46.818,25.321C46.745,25.321 46.672,25.331 46.601,25.35L30.7,29.597C31.123,31.181 31.124,32.848 30.703,34.432L36.006,41.039L43.555,37.887L46.597,38.704C46.668,38.723 46.741,38.733 46.815,38.733C47.199,38.733 47.535,38.467 47.624,38.093C48.55,34.103 48.551,29.953 47.627,25.962Z" style="fill:rgb(0,120,212);fill-rule:nonzero;"></path> <path d="M30.703,34.432C30.316,35.876 29.585,37.206 28.573,38.306C28.417,38.469 28.42,38.73 28.579,38.89L37.104,47.402C37.261,47.558 37.473,47.646 37.693,47.646C37.925,47.646 38.147,47.549 38.304,47.379C40.801,44.69 42.603,41.431 43.555,37.886L30.703,34.432Z" style="fill:rgb(3,88,167);fill-rule:nonzero;"></path> <path d="M35,40.667L35,24.333C34.998,23.603 34.397,23.002 33.667,23L30.673,23L28.557,25.119C28.532,25.144 28.511,25.172 28.493,25.202C28.402,25.361 28.425,25.562 28.55,25.696C29.571,26.795 30.309,28.127 30.701,29.575L30.704,29.575L30.7,29.576C31.531,32.649 30.727,35.942 28.573,38.285C28.417,38.448 28.42,38.71 28.579,38.869L31.715,42L33.667,42C34.397,41.998 34.998,41.397 35,40.667Z" style="fill-opacity:0.1;fill-rule:nonzero;"></path> <path d="M34,41.667L34,25.333C33.998,24.603 33.397,24.002 32.667,24L29.674,24L28.557,25.119C28.532,25.144 28.511,25.172 28.493,25.202C28.402,25.361 28.425,25.562 28.55,25.696C29.571,26.795 30.309,28.127 30.701,29.575L30.704,29.575L30.7,29.576C31.531,32.649 30.727,35.942 28.573,38.285C28.417,38.448 28.42,38.71 28.579,38.869L32.716,42.999C33.427,42.971 33.998,42.379 34,41.667Z" style="fill-opacity:0.2;fill-rule:nonzero;"></path> <path d="M34,39.667L34,25.333C33.998,24.603 33.397,24.002 32.667,24L29.674,24L28.557,25.119C28.532,25.144 28.511,25.172 28.493,25.202C28.402,25.361 28.425,25.562 28.55,25.696C29.571,26.795 30.309,28.127 30.701,29.575L30.704,29.575L30.7,29.576C31.531,32.649 30.727,35.942 28.573,38.285C28.417,38.448 28.42,38.71 28.579,38.869L30.714,41L32.667,41C33.397,40.998 33.998,40.397 34,39.667Z" style="fill-opacity:0.2;fill-rule:nonzero;"></path> <path d="M33,39.667L33,25.333C32.998,24.603 32.397,24.002 31.667,24L29.674,24L28.557,25.119C28.532,25.144 28.511,25.172 28.493,25.202C28.402,25.361 28.425,25.562 28.55,25.696C29.571,26.795 30.309,28.127 30.701,29.575L30.704,29.575L30.7,29.576C31.531,32.649 30.727,35.942 28.573,38.285C28.417,38.448 28.42,38.71 28.579,38.869L30.714,41L31.667,41C32.397,40.998 32.998,40.397 33,39.667Z" style="fill-opacity:0.2;fill-rule:nonzero;"></path> <path id="Back_Plate" d="M18.333,24L31.667,24C32.398,24 33,24.602 33,25.333L33,38.667C33,39.398 32.398,40 31.667,40L18.333,40C17.602,40 17,39.398 17,38.667L17,25.333C17,24.602 17.602,24 18.333,24Z" style="fill:rgb(0,120,212);fill-rule:nonzero;"></path> <path d="M24.825,31.35C24.919,31.543 24.994,31.745 25.049,31.952L25.07,31.952C25.121,31.749 25.194,31.552 25.287,31.364L27.318,27.54C27.472,27.249 27.776,27.066 28.106,27.066C28.596,27.066 28.999,27.469 28.999,27.959C28.999,28.115 28.958,28.268 28.88,28.403L26.071,33.293C25.993,33.428 25.952,33.581 25.952,33.737L25.952,36.212C25.952,36.701 25.549,37.104 25.06,37.104L24.878,37.104C24.388,37.104 23.985,36.701 23.985,36.212L23.985,33.767C23.985,33.614 23.946,33.464 23.872,33.331L21.115,28.394C21.04,28.261 21.001,28.111 21.001,27.959C21.001,27.469 21.404,27.066 21.894,27.066L22.069,27.066C22.403,27.066 22.71,27.253 22.863,27.549L24.825,31.35Z" style="fill:rgb(249,247,247);fill-rule:nonzero;"></path> <rect x="17" y="16" width="32" height="32" style="fill:none;"></rect> </g> </g> </svg> 