<?xml version="1.0" encoding="UTF-8"?>
<svg xmlns="http://www.w3.org/2000/svg" xmlns:xlink="http://www.w3.org/1999/xlink" width="70pt" height="70pt" viewBox="0 0 70 70" version="1.1">
<defs>
<linearGradient id="linear0" gradientUnits="userSpaceOnUse" x1="9" y1="-0.88" x2="9" y2="16.01" gradientTransform="matrix(3.888889,0,0,3.888889,0,0)">
<stop offset="0.22" style="stop-color:rgb(19.607843%,83.137255%,96.078431%);stop-opacity:1;"/>
<stop offset="0.43" style="stop-color:rgb(19.215686%,81.960784%,94.901961%);stop-opacity:1;"/>
<stop offset="0.6" style="stop-color:rgb(17.647059%,77.647059%,91.372549%);stop-opacity:1;"/>
<stop offset="0.76" style="stop-color:rgb(15.686275%,70.980392%,85.098039%);stop-opacity:1;"/>
<stop offset="0.91" style="stop-color:rgb(12.156863%,61.568627%,76.862745%);stop-opacity:1;"/>
<stop offset="1" style="stop-color:rgb(9.803922%,54.117647%,70.196078%);stop-opacity:1;"/>
</linearGradient>
</defs>
<g id="surface1">
<path style=" stroke:none;fill-rule:nonzero;fill:url(#linear0);" d="M 68.054688 36.710938 C 67.914063 29.347656 62.441406 23.179688 55.144531 22.167969 C 54.828125 11.824219 46.238281 3.671875 35.894531 3.890625 C 27.648438 3.804688 20.242188 8.933594 17.421875 16.683594 C 8.652344 17.800781 2.027344 25.1875 1.867188 34.027344 C 2.140625 44.039063 10.484375 51.925781 20.496094 51.644531 C 21.039063 51.683594 21.585938 51.683594 22.128906 51.644531 L 52.265625 51.644531 C 52.523438 51.683594 52.785156 51.683594 53.042969 51.644531 C 61.269531 51.5625 67.929688 44.9375 68.054688 36.710938 Z M 68.054688 36.710938 "/>
<path style=" stroke:none;fill-rule:nonzero;fill:rgb(21.568627%,76.078431%,69.411765%);fill-opacity:1;" d="M 56.503906 58.878906 L 48.726563 67.199219 C 48.460938 67.46875 48.066406 67.5625 47.707031 67.449219 C 47.347656 67.332031 47.082031 67.027344 47.015625 66.65625 L 42.3125 43.710938 C 42.28125 43.335938 42.460938 42.976563 42.777344 42.777344 L 47.910156 40.679688 C 48.40625 40.484375 48.964844 40.703125 49.195313 41.183594 L 56.777344 57.90625 C 56.886719 58.253906 56.777344 58.636719 56.503906 58.878906 Z M 56.503906 58.878906 "/>
<path style=" stroke:none;fill-rule:nonzero;fill:rgb(25.882353%,90.980392%,79.215686%);fill-opacity:1;" d="M 31.109375 58.878906 L 38.890625 67.199219 C 39.15625 67.46875 39.550781 67.5625 39.910156 67.449219 C 40.269531 67.332031 40.535156 67.027344 40.601563 66.65625 L 45.304688 43.710938 C 45.382813 43.257813 45.140625 42.808594 44.722656 42.621094 L 39.589844 40.523438 C 39.09375 40.328125 38.535156 40.546875 38.304688 41.027344 L 30.722656 57.75 C 30.5625 58.171875 30.726563 58.644531 31.109375 58.878906 Z M 31.109375 58.878906 "/>
<path style=" stroke:none;fill-rule:nonzero;fill:rgb(0%,35.686275%,63.137255%);fill-opacity:1;" d="M 45.035156 23.332031 L 46.042969 22.476563 C 46.714844 21.929688 47.695313 22.015625 48.261719 22.671875 C 48.378906 22.808594 48.472656 22.96875 48.535156 23.140625 L 49 24.382813 C 49.28125 25.085938 50.003906 25.503906 50.75 25.394531 L 52.035156 25.160156 C 52.890625 25.019531 53.703125 25.589844 53.859375 26.445313 C 53.898438 26.625 53.898438 26.808594 53.859375 26.988281 L 53.628906 28.273438 C 53.519531 29.019531 53.9375 29.742188 54.640625 30.023438 L 55.882813 30.449219 C 56.695313 30.777344 57.109375 31.683594 56.816406 32.511719 C 56.742188 32.675781 56.648438 32.832031 56.542969 32.976563 L 55.6875 33.949219 C 55.222656 34.542969 55.222656 35.378906 55.6875 35.972656 L 56.542969 36.984375 C 56.8125 37.304688 56.9375 37.722656 56.894531 38.140625 C 56.851563 38.558594 56.640625 38.941406 56.3125 39.199219 C 56.183594 39.3125 56.039063 39.40625 55.882813 39.472656 L 54.640625 39.9375 C 53.917969 40.195313 53.488281 40.9375 53.628906 41.6875 L 53.859375 42.972656 C 53.941406 43.382813 53.847656 43.804688 53.605469 44.144531 C 53.363281 44.480469 52.992188 44.703125 52.578125 44.761719 C 52.398438 44.800781 52.210938 44.800781 52.035156 44.761719 L 50.75 44.761719 C 49.996094 44.621094 49.253906 45.050781 49 45.773438 L 48.535156 46.976563 C 48.394531 47.371094 48.101563 47.695313 47.71875 47.871094 C 47.339844 48.046875 46.902344 48.0625 46.511719 47.910156 C 46.339844 47.851563 46.179688 47.757813 46.042969 47.640625 L 45.070313 46.667969 C 44.488281 46.167969 43.632813 46.167969 43.050781 46.667969 L 42.039063 47.484375 C 41.722656 47.757813 41.308594 47.890625 40.890625 47.851563 C 40.472656 47.816406 40.085938 47.613281 39.820313 47.289063 C 39.6875 47.164063 39.59375 47 39.550781 46.820313 L 39.082031 45.617188 C 38.84375 44.882813 38.089844 44.449219 37.332031 44.605469 L 36.050781 44.839844 C 35.179688 44.980469 34.363281 44.386719 34.222656 43.515625 C 34.183594 43.351563 34.183594 43.175781 34.222656 43.011719 L 34.457031 41.726563 C 34.59375 40.976563 34.167969 40.234375 33.445313 39.976563 L 32.238281 39.511719 C 31.40625 39.265625 30.910156 38.410156 31.109375 37.566406 C 31.1875 37.402344 31.277344 37.246094 31.382813 37.101563 L 32.238281 36.089844 C 32.707031 35.496094 32.707031 34.660156 32.238281 34.066406 L 31.382813 33.09375 C 31.113281 32.765625 30.984375 32.339844 31.027344 31.917969 C 31.074219 31.496094 31.285156 31.105469 31.617188 30.839844 C 31.746094 30.714844 31.90625 30.636719 32.082031 30.605469 L 33.289063 30.140625 C 33.988281 29.859375 34.40625 29.136719 34.300781 28.390625 L 34.222656 27.222656 C 34.082031 26.363281 34.652344 25.550781 35.503906 25.394531 L 36.050781 25.394531 L 37.332031 25.628906 C 38.082031 25.75 38.816406 25.328125 39.082031 24.617188 L 39.550781 23.332031 C 39.859375 22.523438 40.757813 22.109375 41.570313 22.398438 L 42.039063 22.671875 L 43.050781 23.527344 C 43.675781 23.933594 44.5 23.855469 45.035156 23.332031 Z M 45.035156 23.332031 "/>
<path style=" stroke:none;fill-rule:nonzero;fill:rgb(100%,79.215686%,0%);fill-opacity:1;" d="M 53.238281 35.078125 C 53.238281 40.148438 49.128906 44.253906 44.0625 44.253906 C 38.992188 44.253906 34.882813 40.148438 34.882813 35.078125 C 34.882813 30.007813 38.992188 25.898438 44.0625 25.898438 C 49.128906 25.898438 53.238281 30.007813 53.238281 35.078125 Z M 53.238281 35.078125 "/>
</g>
</svg>
