<?xml version="1.0" encoding="UTF-8"?>
<svg xmlns="http://www.w3.org/2000/svg" xmlns:xlink="http://www.w3.org/1999/xlink" width="70pt" height="70pt" viewBox="0 0 70 70" version="1.1">
<defs>
<linearGradient id="linear0" gradientUnits="userSpaceOnUse" x1="9" y1="17.2" x2="9" y2="-3.28" gradientTransform="matrix(3.888889,0,0,3.888889,0,0)">
<stop offset="0" style="stop-color:rgb(36.862745%,58.823529%,14.117647%);stop-opacity:1;"/>
<stop offset="0.18" style="stop-color:rgb(38.431373%,61.176471%,14.509804%);stop-opacity:1;"/>
<stop offset="0.44" style="stop-color:rgb(42.745098%,68.235294%,16.470588%);stop-opacity:1;"/>
<stop offset="0.73" style="stop-color:rgb(49.803922%,79.607843%,18.823529%);stop-opacity:1;"/>
<stop offset="0.82" style="stop-color:rgb(52.54902%,83.921569%,20%);stop-opacity:1;"/>
</linearGradient>
</defs>
<g id="surface1">
<path style=" stroke:none;fill-rule:nonzero;fill:url(#linear0);" d="M 68.054688 9.722656 L 68.054688 51.839844 C 68.054688 53.085938 67.046875 54.09375 65.800781 54.09375 L 48.222656 54.09375 C 47.914063 54.09375 47.660156 54.332031 47.640625 54.640625 L 47.640625 61.445313 C 47.648438 61.863281 47.417969 62.253906 47.046875 62.445313 C 46.671875 62.632813 46.222656 62.59375 45.890625 62.339844 L 35.3125 54.210938 L 4.199219 54.210938 C 2.953125 54.210938 1.945313 53.203125 1.945313 51.957031 L 1.945313 9.722656 C 1.933594 9.117188 2.167969 8.535156 2.589844 8.101563 C 3.015625 7.671875 3.59375 7.425781 4.199219 7.429688 L 65.800781 7.429688 C 66.40625 7.425781 66.984375 7.671875 67.410156 8.101563 C 67.832031 8.535156 68.066406 9.117188 68.054688 9.722656 Z M 68.054688 9.722656 "/>
<path style=" stroke:none;fill-rule:nonzero;fill:rgb(100%,100%,100%);fill-opacity:1;" d="M 37.101563 37.449219 L 32.589844 37.449219 C 32.21875 37.472656 31.851563 37.34375 31.574219 37.09375 C 31.296875 36.847656 31.132813 36.5 31.109375 36.128906 L 30.332031 13.339844 C 30.324219 12.972656 30.460938 12.613281 30.71875 12.351563 C 30.972656 12.085938 31.328125 11.9375 31.695313 11.9375 L 38.304688 11.9375 C 38.679688 11.9375 39.039063 12.09375 39.296875 12.363281 C 39.554688 12.636719 39.6875 13.003906 39.667969 13.378906 L 38.460938 36.167969 C 38.417969 36.886719 37.824219 37.453125 37.101563 37.449219 Z M 37.101563 37.449219 "/>
<path style=" stroke:none;fill-rule:nonzero;fill:rgb(100%,100%,100%);fill-opacity:1;" d="M 33.988281 41.300781 L 35.816406 41.300781 C 37.125 41.300781 38.1875 42.363281 38.1875 43.671875 L 38.1875 45.5 C 38.1875 46.808594 37.125 47.871094 35.816406 47.871094 L 33.988281 47.871094 C 32.679688 47.871094 31.617188 46.808594 31.617188 45.5 L 31.617188 43.671875 C 31.617188 42.363281 32.679688 41.300781 33.988281 41.300781 Z M 33.988281 41.300781 "/>
</g>
</svg>
