<?xml version="1.0" encoding="UTF-8"?>
<svg xmlns="http://www.w3.org/2000/svg" xmlns:xlink="http://www.w3.org/1999/xlink" width="70pt" height="70pt" viewBox="0 0 70 70" version="1.1">
<defs>
<linearGradient id="linear0" gradientUnits="userSpaceOnUse" x1="8.88" y1="17.09" x2="8.88" y2="1.09" gradientTransform="matrix(3.888889,0,0,3.888889,0,0)">
<stop offset="0" style="stop-color:rgb(36.862745%,58.823529%,14.117647%);stop-opacity:1;"/>
<stop offset="0.01" style="stop-color:rgb(36.862745%,59.215686%,14.117647%);stop-opacity:1;"/>
<stop offset="0.35" style="stop-color:rgb(42.352941%,67.058824%,16.078431%);stop-opacity:1;"/>
<stop offset="0.68" style="stop-color:rgb(45.098039%,72.156863%,17.254902%);stop-opacity:1;"/>
<stop offset="1" style="stop-color:rgb(46.27451%,73.72549%,17.647059%);stop-opacity:1;"/>
</linearGradient>
</defs>
<g id="surface1">
<path style=" stroke:none;fill-rule:nonzero;fill:url(#linear0);" d="M 25.199219 47.792969 L 43.867188 47.792969 L 43.867188 66.460938 L 25.199219 66.460938 Z M 3.421875 22.90625 L 22.089844 22.90625 L 22.089844 4.238281 L 6.027344 4.238281 C 4.589844 4.238281 3.421875 5.40625 3.421875 6.84375 Z M 6.027344 66.460938 L 22.089844 66.460938 L 22.089844 47.792969 L 3.421875 47.792969 L 3.421875 63.855469 C 3.421875 65.292969 4.589844 66.460938 6.027344 66.460938 Z M 3.421875 44.683594 L 22.089844 44.683594 L 22.089844 26.015625 L 3.421875 26.015625 Z M 46.976563 66.460938 L 63.078125 66.460938 C 64.5 66.441406 65.644531 65.28125 65.644531 63.855469 L 65.644531 47.792969 L 46.976563 47.792969 Z M 25.199219 44.683594 L 43.867188 44.683594 L 43.867188 26.015625 L 25.199219 26.015625 Z M 46.976563 44.683594 L 65.644531 44.683594 L 65.644531 26.015625 L 46.976563 26.015625 Z M 46.976563 4.238281 L 46.976563 22.90625 L 65.644531 22.90625 L 65.644531 6.84375 C 65.644531 5.421875 64.5 4.261719 63.078125 4.238281 Z M 25.199219 22.90625 L 43.867188 22.90625 L 43.867188 4.238281 L 25.199219 4.238281 Z M 25.199219 22.90625 "/>
</g>
</svg>
