<?xml version="1.0" encoding="UTF-8"?>
<svg xmlns="http://www.w3.org/2000/svg" xmlns:xlink="http://www.w3.org/1999/xlink" width="70pt" height="70pt" viewBox="0 0 70 70" version="1.1">
<defs>
<linearGradient id="linear0" gradientUnits="userSpaceOnUse" x1="8.956" y1="14.347" x2="8.956" y2="1.59" gradientTransform="matrix(3.888889,0,0,3.888889,0,0)">
<stop offset="0" style="stop-color:rgb(0%,47.058824%,83.137255%);stop-opacity:1;"/>
<stop offset="1" style="stop-color:rgb(36.862745%,62.745098%,93.72549%);stop-opacity:1;"/>
</linearGradient>
<linearGradient id="linear1" gradientUnits="userSpaceOnUse" x1="9.014" y1="15.941" x2="9.014" y2="12.602" gradientTransform="matrix(3.888889,0,0,3.888889,0,0)">
<stop offset="0" style="stop-color:rgb(46.27451%,73.72549%,17.647059%);stop-opacity:1;"/>
<stop offset="0.817" style="stop-color:rgb(52.54902%,83.921569%,20%);stop-opacity:1;"/>
</linearGradient>
<filter id="alpha" filterUnits="objectBoundingBox" x="0%" y="0%" width="100%" height="100%">
  <feColorMatrix type="matrix" in="SourceGraphic" values="0 0 0 0 1 0 0 0 0 1 0 0 0 0 1 0 0 0 1 0"/>
</filter>
<mask id="mask0">
  <g filter="url(#alpha)">
<rect x="0" y="0" width="70" height="70" style="fill:rgb(0%,0%,0%);fill-opacity:0.6;stroke:none;"/>
  </g>
</mask>
<clipPath id="clip1">
  <rect x="0" y="0" width="70" height="70"/>
</clipPath>
<g id="surface5" clip-path="url(#clip1)">
<path style=" stroke:none;fill-rule:nonzero;fill:rgb(100%,100%,100%);fill-opacity:1;" d="M 52.394531 56.171875 L 54.355469 56.171875 C 54.792969 56.171875 55.148438 56.527344 55.148438 56.964844 L 55.148438 58.925781 C 55.148438 59.363281 54.792969 59.71875 54.355469 59.71875 L 52.394531 59.71875 C 51.957031 59.71875 51.601563 59.363281 51.601563 58.925781 L 51.601563 56.964844 C 51.601563 56.527344 51.957031 56.171875 52.394531 56.171875 Z M 52.394531 56.171875 "/>
</g>
</defs>
<g id="surface1">
<path style=" stroke:none;fill-rule:nonzero;fill:url(#linear0);" d="M 69.828125 40.257813 C 69.597656 32.554688 63.820313 26.152344 56.179688 25.136719 C 55.703125 14.304688 46.617188 5.863281 35.777344 6.183594 C 27.136719 6.019531 19.335938 11.339844 16.332031 19.445313 C 7.128906 20.558594 0.117188 28.226563 -0.171875 37.492188 C 0.238281 47.980469 9.050781 56.160156 19.539063 55.792969 C 20.125 55.792969 20.703125 55.765625 21.277344 55.71875 L 53.191406 55.71875 C 53.484375 55.722656 53.773438 55.6875 54.054688 55.609375 C 62.574219 55.542969 69.53125 48.773438 69.828125 40.257813 Z M 69.828125 40.257813 "/>
<path style=" stroke:none;fill-rule:nonzero;fill:rgb(100%,100%,100%);fill-opacity:1;" d="M 44.933594 30.628906 C 44.953125 25.824219 41.507813 21.707031 36.777344 20.882813 C 32.042969 20.054688 27.40625 22.761719 25.800781 27.289063 C 24.191406 31.816406 26.082031 36.839844 30.273438 39.183594 L 30.273438 51.9375 L 39.730469 51.9375 L 39.730469 39.277344 C 42.925781 37.574219 44.925781 34.25 44.933594 30.628906 Z M 36.8125 49 L 33.191406 49 L 33.191406 40.289063 C 33.8125 40.410156 34.445313 40.476563 35.082031 40.480469 C 35.664063 40.472656 36.242188 40.414063 36.8125 40.304688 Z M 36.8125 37.308594 C 36.25 37.464844 35.667969 37.546875 35.082031 37.554688 C 34.441406 37.546875 33.804688 37.445313 33.191406 37.257813 Z M 39.730469 35.753906 L 30.273438 35.609375 C 28.210938 33.636719 27.566406 30.605469 28.648438 27.964844 C 29.730469 25.324219 32.316406 23.613281 35.171875 23.652344 C 38.023438 23.691406 40.5625 25.476563 41.566406 28.144531 C 42.574219 30.816406 41.84375 33.828125 39.730469 35.742188 Z M 39.730469 35.753906 "/>
<path style=" stroke:none;fill-rule:nonzero;fill:url(#linear1);" d="M 12.894531 49.007813 L 57.210938 49.007813 C 58.085938 49.007813 58.796875 49.71875 58.796875 50.59375 L 58.796875 60.402344 C 58.796875 61.277344 58.085938 61.988281 57.210938 61.988281 L 12.894531 61.988281 C 12.019531 61.988281 11.308594 61.277344 11.308594 60.402344 L 11.308594 50.59375 C 11.308594 49.71875 12.019531 49.007813 12.894531 49.007813 Z M 12.894531 49.007813 "/>
<path style=" stroke:none;fill-rule:nonzero;fill:rgb(100%,100%,100%);fill-opacity:1;" d="M 52.394531 51.277344 L 54.355469 51.277344 C 54.792969 51.277344 55.148438 51.632813 55.148438 52.070313 L 55.148438 54.03125 C 55.148438 54.46875 54.792969 54.824219 54.355469 54.824219 L 52.394531 54.824219 C 51.957031 54.824219 51.601563 54.46875 51.601563 54.03125 L 51.601563 52.070313 C 51.601563 51.632813 51.957031 51.277344 52.394531 51.277344 Z M 52.394531 51.277344 "/>
<use xlink:href="#surface5" mask="url(#mask0)"/>
<path style=" stroke:none;fill-rule:nonzero;fill:rgb(46.27451%,73.72549%,17.647059%);fill-opacity:1;" d="M 42 30.628906 C 42.019531 27.039063 39.296875 24.027344 35.722656 23.6875 C 32.148438 23.347656 28.90625 25.792969 28.25 29.320313 C 27.59375 32.847656 29.734375 36.296875 33.191406 37.265625 L 33.191406 49 L 36.8125 49 L 36.8125 37.332031 C 39.867188 36.542969 42.003906 33.785156 42 30.628906 Z M 42 30.628906 "/>
</g>
</svg>
