<?xml version="1.0" encoding="UTF-8"?>
<svg xmlns="http://www.w3.org/2000/svg" xmlns:xlink="http://www.w3.org/1999/xlink" width="70pt" height="70pt" viewBox="0 0 70 70" version="1.1">
<defs>
<linearGradient id="linear0" gradientUnits="userSpaceOnUse" x1="9" y1="15.563" x2="9" y2="-2.323" gradientTransform="matrix(3.888889,0,0,3.888889,0,0)">
<stop offset="0" style="stop-color:rgb(0%,47.058824%,83.137255%);stop-opacity:1;"/>
<stop offset="1" style="stop-color:rgb(36.862745%,62.745098%,93.72549%);stop-opacity:1;"/>
</linearGradient>
<filter id="alpha" filterUnits="objectBoundingBox" x="0%" y="0%" width="100%" height="100%">
  <feColorMatrix type="matrix" in="SourceGraphic" values="0 0 0 0 1 0 0 0 0 1 0 0 0 0 1 0 0 0 1 0"/>
</filter>
<mask id="mask0">
  <g filter="url(#alpha)">
<rect x="0" y="0" width="70" height="70" style="fill:rgb(0%,0%,0%);fill-opacity:0.8;stroke:none;"/>
  </g>
</mask>
<clipPath id="clip1">
  <rect x="0" y="0" width="70" height="70"/>
</clipPath>
<g id="surface5" clip-path="url(#clip1)">
<path style=" stroke:none;fill-rule:nonzero;fill:rgb(100%,100%,100%);fill-opacity:1;" d="M 33.804688 43.863281 L 59.730469 43.863281 C 60.375 43.863281 60.894531 44.386719 60.894531 45.03125 L 60.894531 49.292969 C 60.894531 49.9375 60.375 50.457031 59.730469 50.457031 L 33.804688 50.457031 C 33.160156 50.457031 32.640625 49.9375 32.640625 49.292969 L 32.640625 45.03125 C 32.640625 44.386719 33.160156 43.863281 33.804688 43.863281 Z M 33.804688 43.863281 "/>
</g>
<mask id="mask1">
  <g filter="url(#alpha)">
<rect x="0" y="0" width="70" height="70" style="fill:rgb(0%,0%,0%);fill-opacity:0.6;stroke:none;"/>
  </g>
</mask>
<clipPath id="clip2">
  <rect x="0" y="0" width="70" height="70"/>
</clipPath>
<g id="surface8" clip-path="url(#clip2)">
<path style=" stroke:none;fill-rule:nonzero;fill:rgb(100%,100%,100%);fill-opacity:1;" d="M 33.804688 54.523438 L 59.730469 54.523438 C 60.375 54.523438 60.894531 55.042969 60.894531 55.6875 L 60.894531 59.949219 C 60.894531 60.59375 60.375 61.117188 59.730469 61.117188 L 33.804688 61.117188 C 33.160156 61.117188 32.640625 60.59375 32.640625 59.949219 L 32.640625 55.6875 C 32.640625 55.042969 33.160156 54.523438 33.804688 54.523438 Z M 33.804688 54.523438 "/>
</g>
</defs>
<g id="surface1">
<path style=" stroke:none;fill-rule:nonzero;fill:url(#linear0);" d="M 70 36.945313 C 69.828125 29.164063 64.054688 22.648438 56.351563 21.539063 C 55.992188 10.589844 46.886719 1.96875 35.933594 2.210938 C 27.207031 2.097656 19.367188 7.523438 16.394531 15.726563 C 7.132813 16.957031 0.164063 24.777344 0 34.117188 C 0.289063 44.714844 9.113281 53.070313 19.707031 52.785156 C 20.296875 52.785156 20.875 52.757813 21.445313 52.707031 L 53.363281 52.707031 C 53.648438 52.703125 53.933594 52.660156 54.207031 52.578125 C 62.808594 52.4375 69.773438 45.542969 70 36.945313 Z M 70 36.945313 "/>
<path style=" stroke:none;fill-rule:nonzero;fill:rgb(31.372549%,90.196078%,100%);fill-opacity:1;" d="M 30.917969 28.261719 L 61.25 28.261719 C 62.539063 28.261719 63.582031 29.304688 63.582031 30.59375 L 63.582031 60.925781 C 63.582031 62.214844 62.539063 63.261719 61.25 63.261719 L 30.917969 63.261719 C 29.628906 63.261719 28.582031 62.214844 28.582031 60.925781 L 28.582031 30.59375 C 28.582031 29.304688 29.628906 28.261719 30.917969 28.261719 Z M 30.917969 28.261719 "/>
<path style=" stroke:none;fill-rule:nonzero;fill:rgb(31.372549%,90.196078%,100%);fill-opacity:1;" d="M 29.222656 27.972656 L 62.941406 27.972656 C 64.230469 27.972656 65.273438 29.015625 65.273438 30.304688 L 65.273438 64.027344 C 65.273438 65.316406 64.230469 66.359375 62.941406 66.359375 L 29.222656 66.359375 C 27.933594 66.359375 26.886719 65.316406 26.886719 64.027344 L 26.886719 30.304688 C 26.886719 29.015625 27.933594 27.972656 29.222656 27.972656 Z M 29.222656 27.972656 "/>
<path style=" stroke:none;fill-rule:nonzero;fill:rgb(100%,100%,100%);fill-opacity:1;" d="M 33.804688 33.203125 L 59.730469 33.203125 C 60.375 33.203125 60.894531 33.726563 60.894531 34.371094 L 60.894531 38.632813 C 60.894531 39.277344 60.375 39.800781 59.730469 39.800781 L 33.804688 39.800781 C 33.160156 39.800781 32.640625 39.277344 32.640625 38.632813 L 32.640625 34.371094 C 32.640625 33.726563 33.160156 33.203125 33.804688 33.203125 Z M 33.804688 33.203125 "/>
<use xlink:href="#surface5" mask="url(#mask0)"/>
<use xlink:href="#surface8" mask="url(#mask1)"/>
</g>
</svg>
