<?xml version="1.0" encoding="UTF-8"?>
<svg xmlns="http://www.w3.org/2000/svg" xmlns:xlink="http://www.w3.org/1999/xlink" width="70pt" height="70pt" viewBox="0 0 70 70" version="1.1">
<defs>
<linearGradient id="linear0" gradientUnits="userSpaceOnUse" x1="9" y1="15.342" x2="9" y2="2.658" gradientTransform="matrix(3.888889,0,0,3.888889,0,0)">
<stop offset="0" style="stop-color:rgb(0%,47.058824%,83.137255%);stop-opacity:1;"/>
<stop offset="0.817" style="stop-color:rgb(36.862745%,62.745098%,93.72549%);stop-opacity:1;"/>
</linearGradient>
<filter id="alpha" filterUnits="objectBoundingBox" x="0%" y="0%" width="100%" height="100%">
  <feColorMatrix type="matrix" in="SourceGraphic" values="0 0 0 0 1 0 0 0 0 1 0 0 0 0 1 0 0 0 1 0"/>
</filter>
<mask id="mask0">
  <g filter="url(#alpha)">
<rect x="0" y="0" width="70" height="70" style="fill:rgb(0%,0%,0%);fill-opacity:0.74902;stroke:none;"/>
  </g>
</mask>
<clipPath id="clip1">
  <rect x="0" y="0" width="70" height="70"/>
</clipPath>
<g id="surface5" clip-path="url(#clip1)">
<path style=" stroke:none;fill-rule:nonzero;fill:rgb(100%,100%,100%);fill-opacity:1;" d="M 5.152344 45.683594 L 12.082031 51.410156 C 12.277344 51.574219 12.550781 51.609375 12.78125 51.5 C 13.011719 51.390625 13.160156 51.160156 13.160156 50.90625 L 13.160156 48.414063 L 29.699219 48.414063 L 29.699219 44.523438 L 5.589844 44.523438 C 5.308594 44.515625 5.054688 44.683594 4.953125 44.945313 C 4.855469 45.210938 4.9375 45.503906 5.152344 45.683594 Z M 5.152344 45.683594 "/>
</g>
</defs>
<g id="surface1">
<path style=" stroke:none;fill-rule:nonzero;fill:url(#linear0);" d="M 69.792969 44.210938 C 69.566406 36.554688 63.820313 30.191406 56.226563 29.1875 C 55.761719 18.40625 46.710938 10.003906 35.925781 10.335938 C 27.339844 10.183594 19.597656 15.464844 16.605469 23.511719 C 7.457031 24.628906 0.492188 32.25 0.207031 41.464844 C 0.605469 51.894531 9.367188 60.035156 19.796875 59.664063 C 20.382813 59.664063 20.964844 59.632813 21.523438 59.585938 L 53.277344 59.585938 C 53.5625 59.582031 53.84375 59.539063 54.113281 59.460938 C 62.578125 59.390625 69.488281 52.671875 69.792969 44.210938 Z M 69.792969 44.210938 "/>
<path style=" stroke:none;fill-rule:nonzero;fill:rgb(31.372549%,90.196078%,100%);fill-opacity:1;" d="M 36.820313 41.007813 C 36.625 30.945313 28.339844 22.925781 18.277344 23.058594 C 8.210938 23.191406 0.140625 31.421875 0.207031 41.484375 C 0.273438 51.550781 8.449219 59.675781 18.515625 59.675781 C 18.722656 59.675781 18.902344 59.675781 19.125 59.675781 L 36.828125 59.675781 L 36.828125 41.007813 Z M 36.820313 41.007813 "/>
<use xlink:href="#surface5" mask="url(#mask0)"/>
<path style=" stroke:none;fill-rule:nonzero;fill:rgb(100%,100%,100%);fill-opacity:1;" d="M 30.957031 39.878906 L 23.878906 34.136719 C 23.683594 33.976563 23.410156 33.941406 23.179688 34.050781 C 22.953125 34.160156 22.804688 34.390625 22.804688 34.640625 L 22.804688 37.15625 L 7.816406 37.15625 L 7.816406 41.042969 L 30.539063 41.042969 C 30.816406 41.046875 31.066406 40.871094 31.160156 40.609375 C 31.253906 40.347656 31.171875 40.054688 30.957031 39.878906 Z M 30.957031 39.878906 "/>
</g>
</svg>
