<?xml version="1.0" encoding="UTF-8"?>
<svg xmlns="http://www.w3.org/2000/svg" xmlns:xlink="http://www.w3.org/1999/xlink" width="70pt" height="70pt" viewBox="0 0 70 70" version="1.1">
<defs>
<linearGradient id="linear0" gradientUnits="userSpaceOnUse" x1="9" y1="17.826" x2="9" y2="0.826" gradientTransform="matrix(3.888889,0,0,3.888889,0,0)">
<stop offset="0" style="stop-color:rgb(9.803922%,54.117647%,70.196078%);stop-opacity:1;"/>
<stop offset="0.442" style="stop-color:rgb(15.686275%,71.764706%,85.882353%);stop-opacity:1;"/>
<stop offset="0.775" style="stop-color:rgb(19.607843%,83.137255%,96.078431%);stop-opacity:1;"/>
</linearGradient>
<linearGradient id="linear1" gradientUnits="userSpaceOnUse" x1="5.75" y1="-3114.591" x2="12.303" y2="-3119.908" gradientTransform="matrix(3.888889,0,0,3.888889,0,0)">
<stop offset="0" style="stop-color:rgb(100%,100%,100%);stop-opacity:0.901961;"/>
<stop offset="1" style="stop-color:rgb(100%,100%,100%);stop-opacity:0.8;"/>
</linearGradient>
</defs>
<g id="surface1">
<path style=" stroke:none;fill-rule:nonzero;fill:url(#linear0);" d="M 68.054688 36.269531 C 68.054688 54.523438 53.257813 69.324219 35 69.324219 C 16.742188 69.324219 1.945313 54.523438 1.945313 36.269531 C 1.945313 18.011719 16.742188 3.210938 35 3.210938 C 53.257813 3.210938 68.054688 18.011719 68.054688 36.269531 Z M 68.054688 36.269531 "/>
<path style=" stroke:none;fill-rule:nonzero;fill:url(#linear1);" d="M 34.261719 58.59375 C 30.476563 56.261719 18.117188 47.910156 18.117188 38.15625 L 18.117188 25.6875 L 19.445313 25.605469 C 22.714844 25.617188 25.910156 24.609375 28.582031 22.71875 C 30.425781 21.339844 32.703125 20.664063 35 20.816406 C 37.292969 20.675781 39.5625 21.34375 41.410156 22.710938 C 44.082031 24.605469 47.28125 25.613281 50.554688 25.605469 L 51.878906 25.6875 L 51.878906 38.15625 C 51.878906 47.910156 39.519531 56.265625 35.730469 58.59375 L 35 59.046875 Z M 34.261719 58.59375 "/>
<path style=" stroke:none;fill-rule:nonzero;fill:rgb(31.372549%,90.196078%,100%);fill-opacity:1;" d="M 35 56.945313 C 27.664063 52.390625 19.90625 45.109375 19.90625 38.15625 L 19.90625 27.367188 C 23.375 27.304688 26.742188 26.207031 29.574219 24.207031 C 31.121094 23.019531 33.054688 22.449219 35 22.605469 C 36.941406 22.46875 38.867188 23.035156 40.421875 24.203125 C 43.257813 26.203125 46.625 27.304688 50.09375 27.367188 L 50.09375 38.15625 C 50.09375 45.109375 42.335938 52.390625 35 56.945313 Z M 35 56.945313 "/>
<path style=" stroke:none;fill-rule:nonzero;fill:rgb(100%,100%,100%);fill-opacity:1;" d="M 64.738281 54.765625 C 64.738281 57.5625 62.472656 59.832031 59.675781 59.832031 C 56.878906 59.832031 54.613281 57.5625 54.613281 54.765625 C 54.613281 51.972656 56.878906 49.703125 59.675781 49.703125 C 62.472656 49.703125 64.738281 51.972656 64.738281 54.765625 Z M 64.738281 54.765625 "/>
<path style=" stroke:none;fill-rule:nonzero;fill:rgb(70.196078%,70.196078%,70.196078%);fill-opacity:1;" d="M 59.675781 49.703125 C 62.46875 49.703125 64.730469 51.96875 64.730469 54.757813 C 64.730469 57.550781 62.46875 59.816406 59.675781 59.816406 C 56.882813 59.816406 54.621094 57.550781 54.621094 54.757813 C 54.621094 51.96875 56.882813 49.703125 59.675781 49.703125 M 59.675781 47.171875 C 55.476563 47.175781 52.078125 50.578125 52.078125 54.773438 C 52.082031 58.972656 55.484375 62.371094 59.683594 62.371094 C 63.878906 62.367188 67.28125 58.964844 67.277344 54.765625 C 67.269531 50.574219 63.875 47.179688 59.683594 47.171875 Z M 59.675781 47.171875 "/>
<path style=" stroke:none;fill-rule:nonzero;fill:rgb(100%,100%,100%);fill-opacity:1;" d="M 15.386719 54.765625 C 15.386719 57.5625 13.121094 59.832031 10.324219 59.832031 C 7.527344 59.832031 5.261719 57.5625 5.261719 54.765625 C 5.261719 51.972656 7.527344 49.703125 10.324219 49.703125 C 13.121094 49.703125 15.386719 51.972656 15.386719 54.765625 Z M 15.386719 54.765625 "/>
<path style=" stroke:none;fill-rule:nonzero;fill:rgb(70.196078%,70.196078%,70.196078%);fill-opacity:1;" d="M 10.324219 49.703125 C 13.117188 49.703125 15.378906 51.96875 15.378906 54.757813 C 15.378906 57.550781 13.117188 59.816406 10.324219 59.816406 C 7.53125 59.816406 5.269531 57.550781 5.269531 54.757813 C 5.269531 51.96875 7.53125 49.703125 10.324219 49.703125 M 10.324219 47.171875 C 6.128906 47.171875 2.722656 50.570313 2.722656 54.769531 C 2.722656 58.96875 6.125 62.371094 10.324219 62.371094 C 14.519531 62.371094 17.921875 58.964844 17.921875 54.765625 C 17.914063 50.574219 14.519531 47.175781 10.324219 47.171875 Z M 10.324219 47.171875 "/>
<path style=" stroke:none;fill-rule:nonzero;fill:rgb(100%,100%,100%);fill-opacity:1;" d="M 40.0625 8.277344 C 40.0625 11.070313 37.796875 13.339844 35 13.339844 C 32.203125 13.339844 29.9375 11.070313 29.9375 8.277344 C 29.9375 5.480469 32.203125 3.210938 35 3.210938 C 37.796875 3.210938 40.0625 5.480469 40.0625 8.277344 Z M 40.0625 8.277344 "/>
<path style=" stroke:none;fill-rule:nonzero;fill:rgb(70.196078%,70.196078%,70.196078%);fill-opacity:1;" d="M 35 3.210938 C 37.792969 3.210938 40.054688 5.476563 40.054688 8.269531 C 40.054688 11.058594 37.792969 13.324219 35 13.324219 C 32.207031 13.324219 29.945313 11.058594 29.945313 8.269531 C 29.945313 5.476563 32.207031 3.210938 35 3.210938 M 35 0.675781 C 30.804688 0.675781 27.398438 4.074219 27.398438 8.273438 C 27.394531 12.46875 30.796875 15.875 34.996094 15.875 C 39.191406 15.875 42.59375 12.472656 42.59375 8.277344 C 42.589844 4.082031 39.195313 0.683594 35 0.675781 Z M 35 0.675781 "/>
</g>
</svg>
