<?xml version="1.0" encoding="UTF-8"?>
<svg xmlns="http://www.w3.org/2000/svg" xmlns:xlink="http://www.w3.org/1999/xlink" width="70pt" height="70pt" viewBox="0 0 70 70" version="1.1">
<defs>
<linearGradient id="linear0" gradientUnits="userSpaceOnUse" x1="-481.386" y1="-747.701" x2="-463.782" y2="-778.247" gradientTransform="matrix(1.944444,3.367778,-3.367778,1.944444,-1632.096667,3088.088889)">
<stop offset="0" style="stop-color:rgb(0%,35.686275%,63.137255%);stop-opacity:1;"/>
<stop offset="0.366" style="stop-color:rgb(0%,30.588235%,56.078431%);stop-opacity:1;"/>
<stop offset="1" style="stop-color:rgb(0%,18.823529%,40.392157%);stop-opacity:1;"/>
</linearGradient>
<linearGradient id="linear1" gradientUnits="userSpaceOnUse" x1="-1395.588" y1="671.239" x2="-1374.204" y2="633.738" gradientTransform="matrix(-1.944444,-3.367778,3.367778,-1.944444,-4858.101111,-3338.206667)">
<stop offset="0" style="stop-color:rgb(0%,35.686275%,63.137255%);stop-opacity:1;"/>
<stop offset="0.451" style="stop-color:rgb(0%,27.45098%,52.156863%);stop-opacity:1;"/>
<stop offset="1" style="stop-color:rgb(0%,18.823529%,40.392157%);stop-opacity:1;"/>
</linearGradient>
<linearGradient id="linear2" gradientUnits="userSpaceOnUse" x1="6.003" y1="14.447" x2="7.447" y2="6.204" gradientTransform="matrix(3.888889,0,0,3.888889,0,0)">
<stop offset="0.26" style="stop-color:rgb(31.372549%,90.196078%,100%);stop-opacity:1;"/>
<stop offset="0.42" style="stop-color:rgb(47.45098%,91.764706%,100%);stop-opacity:1;"/>
<stop offset="0.58" style="stop-color:rgb(60%,92.941176%,100%);stop-opacity:1;"/>
<stop offset="0.733" style="stop-color:rgb(69.019608%,93.72549%,100%);stop-opacity:1;"/>
<stop offset="0.876" style="stop-color:rgb(74.509804%,94.509804%,100%);stop-opacity:1;"/>
<stop offset="1" style="stop-color:rgb(76.470588%,94.509804%,100%);stop-opacity:1;"/>
</linearGradient>
</defs>
<g id="surface1">
<path style=" stroke:none;fill-rule:nonzero;fill:url(#linear0);" d="M 35.945313 15.273438 L 52.945313 25.050781 L 64.800781 18.207031 C 59.535156 8.84375 50.171875 2.5 39.519531 1.078125 C 28.871094 -0.339844 18.175781 3.328125 10.636719 10.980469 C 19.316406 9.511719 28.234375 11.023438 35.945313 15.273438 Z M 35.945313 15.273438 "/>
<path style=" stroke:none;fill-rule:nonzero;fill:rgb(0%,47.058824%,83.137255%);fill-opacity:1;" d="M 52.726563 25.050781 L 52.457031 48.519531 L 64.777344 51.828125 C 69.949219 42.703125 70.644531 31.707031 66.667969 22.003906 C 62.691406 12.296875 54.480469 4.957031 44.390625 2.085938 C 49.460938 8.703125 52.371094 16.722656 52.726563 25.050781 Z M 52.726563 25.050781 "/>
<path style=" stroke:none;fill-rule:nonzero;fill:rgb(36.862745%,62.745098%,93.72549%);fill-opacity:1;" d="M 52.703125 45.289063 L 35 55.519531 L 35.277344 69.128906 C 54.121094 69.050781 69.359375 53.753906 69.359375 34.90625 C 69.328125 32.160156 68.949219 29.429688 68.238281 26.777344 C 65.261719 34.503906 59.796875 41.019531 52.703125 45.289063 Z M 52.703125 45.289063 "/>
<path style=" stroke:none;fill-rule:nonzero;fill:url(#linear1);" d="M 35 55.519531 L 17.285156 45.289063 L 5.542969 52.335938 C 10.832031 61.371094 19.976563 67.476563 30.351563 68.90625 C 40.722656 70.332031 51.175781 66.921875 58.710938 59.652344 C 50.570313 60.839844 42.257813 59.390625 35 55.519531 Z M 35 55.519531 "/>
<path style=" stroke:none;fill-rule:nonzero;fill:rgb(0%,47.058824%,83.137255%);fill-opacity:1;" d="M 17.273438 45.289063 L 17.542969 21.035156 L 5.421875 17.84375 C 2.378906 23.046875 0.777344 28.96875 0.777344 35 C 0.847656 50.480469 11.246094 64.011719 26.191406 68.054688 C 20.894531 61.597656 17.773438 53.628906 17.273438 45.289063 Z M 17.273438 45.289063 "/>
<path style=" stroke:none;fill-rule:nonzero;fill:rgb(36.862745%,62.745098%,93.72549%);fill-opacity:1;" d="M 17.890625 24.5 L 35 14.609375 C 27.9375 10.773438 19.902344 9.089844 11.890625 9.769531 C 4.796875 16.238281 0.761719 25.398438 0.777344 35 C 0.789063 38.046875 1.203125 41.082031 2 44.023438 C 5.046875 35.96875 10.621094 29.121094 17.890625 24.5 Z M 17.890625 24.5 "/>
<path style=" stroke:none;fill-rule:nonzero;fill:rgb(76.470588%,94.509804%,100%);fill-opacity:1;" d="M 52.703125 45.289063 L 52.703125 24.835938 L 34.988281 14.609375 L 17.273438 24.835938 L 17.273438 45.289063 L 34.988281 55.519531 Z M 52.703125 45.289063 "/>
<path style=" stroke:none;fill-rule:nonzero;fill:url(#linear2);" d="M 35.011719 35.277344 L 35.011719 55.519531 L 17.273438 45.289063 L 17.273438 24.90625 Z M 35.011719 35.277344 "/>
<path style=" stroke:none;fill-rule:nonzero;fill:rgb(31.372549%,90.196078%,100%);fill-opacity:1;" d="M 34.988281 35.277344 L 34.988281 55.519531 L 52.726563 45.289063 L 52.726563 24.90625 Z M 34.988281 35.277344 "/>
</g>
</svg>
