<?xml version="1.0" encoding="UTF-8"?>
<svg xmlns="http://www.w3.org/2000/svg" xmlns:xlink="http://www.w3.org/1999/xlink" width="70pt" height="70pt" viewBox="0 0 70 70" version="1.1">
<defs>
<linearGradient id="linear0" gradientUnits="userSpaceOnUse" x1="9.09" y1="17.5" x2="9.09" y2="1.36" gradientTransform="matrix(3.888889,0,0,3.888889,0,0)">
<stop offset="0" style="stop-color:rgb(93.72549%,44.313725%,0%);stop-opacity:1;"/>
<stop offset="0.13" style="stop-color:rgb(94.901961%,49.019608%,2.745098%);stop-opacity:1;"/>
<stop offset="0.43" style="stop-color:rgb(96.470588%,56.862745%,7.45098%);stop-opacity:1;"/>
<stop offset="0.72" style="stop-color:rgb(97.647059%,61.960784%,10.588235%);stop-opacity:1;"/>
<stop offset="1" style="stop-color:rgb(98.039216%,63.529412%,11.372549%);stop-opacity:1;"/>
</linearGradient>
</defs>
<g id="surface1">
<path style=" stroke:none;fill-rule:nonzero;fill:url(#linear0);" d="M 52.382813 5.367188 C 44.839844 4.734375 37.828125 9.296875 35.351563 16.449219 C 32.84375 9.300781 25.828125 4.746094 18.277344 5.367188 C 2.917969 6.570313 2.101563 21.777344 2.332031 27.609375 C 2.449219 31.773438 3.265625 44.878906 35 67.667969 L 35 68.054688 L 35.273438 67.859375 L 35.542969 68.054688 L 35.542969 67.667969 C 67.433594 44.878906 68.25 31.539063 68.367188 27.222656 C 68.601563 21.542969 67.746094 6.570313 52.382813 5.367188 Z M 52.382813 5.367188 "/>
<path style=" stroke:none;fill-rule:nonzero;fill:rgb(100%,89.411765%,32.156863%);fill-opacity:1;" d="M 66.109375 14.777344 C 67.394531 19.957031 66.972656 25.414063 64.90625 30.332031 C 61.484375 38.109375 54.015625 44.332031 43.167969 48.921875 C 42.164063 47.839844 40.753906 47.230469 39.277344 47.25 C 36.351563 47.230469 33.957031 49.574219 33.914063 52.5 C 33.871094 55.429688 36.199219 57.839844 39.125 57.902344 C 42.050781 57.96875 44.480469 55.660156 44.566406 52.734375 C 53.042969 49.214844 60.464844 43.558594 66.109375 36.320313 C 67.945313 32.363281 68.671875 27.984375 68.210938 23.644531 C 68.015625 20.59375 67.304688 17.59375 66.109375 14.777344 Z M 66.109375 14.777344 "/>
<path style=" stroke:none;fill-rule:nonzero;fill:rgb(100%,89.411765%,32.156863%);fill-opacity:1;" d="M 26.714844 46.433594 L 25.199219 47.988281 C 14.503906 37.449219 11.121094 29.089844 15.554688 24.734375 C 19.988281 20.378906 28.273438 23.761719 38.890625 34.339844 L 37.371094 35.894531 C 36.988281 36.273438 36.769531 36.792969 36.769531 37.332031 C 36.769531 37.875 36.988281 38.390625 37.371094 38.773438 C 37.746094 39.167969 38.265625 39.390625 38.8125 39.390625 C 39.355469 39.390625 39.875 39.167969 40.25 38.773438 L 43.128906 35.894531 C 43.910156 35.09375 43.910156 33.816406 43.128906 33.015625 L 41.6875 31.578125 C 34.496094 24.34375 22.246094 15.59375 14.464844 20.765625 C 12.289063 18.71875 10.910156 15.960938 10.578125 12.988281 C 10.339844 10.726563 10.980469 8.453125 12.367188 6.648438 C 10.128906 7.640625 8.15625 9.148438 6.609375 11.042969 C 5.949219 15.84375 7.871094 20.636719 11.667969 23.644531 C 6.609375 31.421875 15.320313 43.632813 22.515625 50.867188 L 23.957031 52.34375 C 24.757813 53.125 26.03125 53.125 26.832031 52.34375 L 29.75 49.429688 C 30.53125 48.628906 30.53125 47.351563 29.75 46.550781 C 29.382813 46.097656 28.839844 45.828125 28.257813 45.804688 C 27.679688 45.785156 27.117188 46.011719 26.714844 46.433594 Z M 26.714844 46.433594 "/>
</g>
</svg>
