<?xml version="1.0" encoding="UTF-8"?>
<svg xmlns="http://www.w3.org/2000/svg" xmlns:xlink="http://www.w3.org/1999/xlink" width="70pt" height="70pt" viewBox="0 0 70 70" version="1.1">
<defs>
<linearGradient id="linear0" gradientUnits="userSpaceOnUse" x1="12.805" y1="15.237" x2="12.805" y2="7.962" gradientTransform="matrix(3.888889,0,0,3.888889,0,0)">
<stop offset="0" style="stop-color:rgb(0%,47.058824%,83.137255%);stop-opacity:1;"/>
<stop offset="0.156" style="stop-color:rgb(7.45098%,50.196078%,85.490196%);stop-opacity:1;"/>
<stop offset="0.528" style="stop-color:rgb(23.529412%,56.862745%,89.803922%);stop-opacity:1;"/>
<stop offset="0.822" style="stop-color:rgb(33.333333%,61.176471%,92.54902%);stop-opacity:1;"/>
<stop offset="1" style="stop-color:rgb(36.862745%,62.745098%,93.72549%);stop-opacity:1;"/>
</linearGradient>
</defs>
<g id="surface1">
<path style=" stroke:none;fill-rule:nonzero;fill:rgb(58.039216%,58.039216%,58.039216%);fill-opacity:1;" d="M 60.667969 22.167969 L 0.261719 22.167969 L 0.261719 11.628906 C 0.261719 11.140625 0.652344 10.75 1.140625 10.75 L 59.773438 10.75 C 60.257813 10.75 60.652344 11.140625 60.65625 11.628906 Z M 60.667969 22.167969 "/>
<path style=" stroke:none;fill-rule:nonzero;fill:rgb(74.901961%,74.901961%,74.901961%);fill-opacity:1;" d="M 0.246094 22.167969 L 60.640625 22.167969 L 60.640625 58.15625 C 60.640625 58.652344 60.238281 59.054688 59.742188 59.054688 L 1.144531 59.054688 C 0.648438 59.054688 0.246094 58.652344 0.246094 58.15625 Z M 0.246094 22.167969 "/>
<path style=" stroke:none;fill-rule:nonzero;fill:rgb(0%,35.686275%,63.137255%);fill-opacity:1;" d="M 4.414063 25.277344 L 56.410156 25.277344 L 56.410156 54.714844 L 4.414063 54.714844 Z M 4.414063 25.277344 "/>
<path style=" stroke:none;fill-rule:nonzero;fill:rgb(100%,100%,100%);fill-opacity:1;" d="M 18.816406 41.757813 L 27.804688 41.757813 C 28.371094 41.757813 28.828125 42.21875 28.828125 42.78125 L 28.828125 42.785156 C 28.828125 43.351563 28.371094 43.808594 27.804688 43.808594 L 18.816406 43.808594 C 18.253906 43.808594 17.796875 43.351563 17.796875 42.785156 L 17.796875 42.78125 C 17.796875 42.21875 18.253906 41.757813 18.816406 41.757813 Z M 18.816406 41.757813 "/>
<path style=" stroke:none;fill-rule:nonzero;fill:rgb(100%,100%,100%);fill-opacity:1;" d="M 10.402344 43.613281 L 16.917969 37.101563 C 17.042969 36.976563 17.117188 36.804688 17.117188 36.628906 C 17.117188 36.449219 17.042969 36.277344 16.917969 36.15625 L 10.304688 29.804688 C 10.175781 29.679688 10 29.617188 9.824219 29.621094 C 9.644531 29.628906 9.476563 29.710938 9.355469 29.84375 L 8.867188 30.332031 C 8.628906 30.601563 8.648438 31.003906 8.90625 31.25 L 14.089844 36.167969 C 14.214844 36.292969 14.285156 36.460938 14.285156 36.636719 C 14.285156 36.8125 14.214844 36.984375 14.089844 37.109375 L 9.035156 42.292969 C 8.78125 42.550781 8.78125 42.960938 9.035156 43.222656 L 9.421875 43.609375 C 9.546875 43.75 9.726563 43.828125 9.910156 43.828125 C 10.097656 43.828125 10.277344 43.75 10.402344 43.613281 Z M 10.402344 43.613281 "/>
<path style=" stroke:none;fill-rule:nonzero;fill:url(#linear0);" d="M 69.753906 50.390625 C 69.632813 46 66.335938 42.347656 61.976563 41.773438 C 61.710938 35.589844 56.519531 30.769531 50.332031 30.964844 C 45.414063 30.867188 40.96875 33.890625 39.246094 38.5 C 33.996094 39.136719 29.996094 43.511719 29.835938 48.796875 C 30.066406 54.78125 35.09375 59.449219 41.074219 59.234375 L 42.066406 59.195313 L 60.277344 59.195313 C 60.441406 59.195313 60.601563 59.167969 60.761719 59.121094 C 65.609375 59.085938 69.570313 55.242188 69.753906 50.394531 Z M 69.753906 50.390625 "/>
</g>
</svg>
