<?xml version="1.0" encoding="UTF-8"?>
<svg xmlns="http://www.w3.org/2000/svg" xmlns:xlink="http://www.w3.org/1999/xlink" width="70pt" height="70pt" viewBox="0 0 70 70" version="1.1">
<defs>
<linearGradient id="linear0" gradientUnits="userSpaceOnUse" x1="3.439" y1="6.801" x2="3.439" y2="1.432" gradientTransform="matrix(3.888889,0,0,3.888889,0,0)">
<stop offset="0.2" style="stop-color:rgb(0%,47.058824%,83.137255%);stop-opacity:1;"/>
<stop offset="0.287" style="stop-color:rgb(7.45098%,50.196078%,85.490196%);stop-opacity:1;"/>
<stop offset="0.759" style="stop-color:rgb(36.862745%,62.745098%,93.72549%);stop-opacity:1;"/>
</linearGradient>
<linearGradient id="linear1" gradientUnits="userSpaceOnUse" x1="3.439" y1="11.998" x2="3.439" y2="6.628" gradientTransform="matrix(3.888889,0,0,3.888889,0,0)">
<stop offset="0.2" style="stop-color:rgb(0%,47.058824%,83.137255%);stop-opacity:1;"/>
<stop offset="0.287" style="stop-color:rgb(7.45098%,50.196078%,85.490196%);stop-opacity:1;"/>
<stop offset="0.759" style="stop-color:rgb(36.862745%,62.745098%,93.72549%);stop-opacity:1;"/>
</linearGradient>
<linearGradient id="linear2" gradientUnits="userSpaceOnUse" x1="3.439" y1="17.194" x2="3.439" y2="11.824" gradientTransform="matrix(3.888889,0,0,3.888889,0,0)">
<stop offset="0.2" style="stop-color:rgb(0%,47.058824%,83.137255%);stop-opacity:1;"/>
<stop offset="0.287" style="stop-color:rgb(7.45098%,50.196078%,85.490196%);stop-opacity:1;"/>
<stop offset="0.759" style="stop-color:rgb(36.862745%,62.745098%,93.72549%);stop-opacity:1;"/>
</linearGradient>
</defs>
<g id="surface1">
<path style=" stroke:none;fill-rule:nonzero;fill:url(#linear0);" d="M 25.03125 7.21875 L 23.898438 6.082031 C 23.136719 5.324219 21.90625 5.324219 21.148438 6.082031 L 10.132813 17.078125 L 5.605469 12.558594 C 4.84375 11.796875 3.613281 11.796875 2.855469 12.558594 L 1.714844 13.695313 C 0.957031 14.457031 0.957031 15.6875 1.714844 16.445313 L 8.761719 23.503906 C 9.128906 23.867188 9.621094 24.074219 10.136719 24.070313 C 10.652344 24.070313 11.148438 23.867188 11.511719 23.503906 L 25.03125 9.96875 C 25.792969 9.207031 25.792969 7.976563 25.03125 7.21875 Z M 25.03125 7.21875 "/>
<path style=" stroke:none;fill-rule:nonzero;fill:rgb(63.921569%,63.921569%,63.921569%);fill-opacity:1;" d="M 32.128906 11.46875 L 65.261719 11.46875 C 67.246094 11.46875 68.851563 13.074219 68.851563 15.058594 L 68.851563 15.25 C 68.851563 17.230469 67.246094 18.835938 65.261719 18.835938 L 32.128906 18.835938 C 30.148438 18.835938 28.539063 17.230469 28.539063 15.25 L 28.539063 15.058594 C 28.539063 13.074219 30.148438 11.46875 32.128906 11.46875 Z M 32.128906 11.46875 "/>
<path style=" stroke:none;fill-rule:nonzero;fill:rgb(63.921569%,63.921569%,63.921569%);fill-opacity:1;" d="M 32.128906 31.394531 L 65.261719 31.394531 C 67.246094 31.394531 68.851563 33.003906 68.851563 34.984375 L 68.851563 35.175781 C 68.851563 37.15625 67.246094 38.765625 65.261719 38.765625 L 32.128906 38.765625 C 30.148438 38.765625 28.539063 37.15625 28.539063 35.175781 L 28.539063 34.984375 C 28.539063 33.003906 30.148438 31.394531 32.128906 31.394531 Z M 32.128906 31.394531 "/>
<path style=" stroke:none;fill-rule:nonzero;fill:rgb(63.921569%,63.921569%,63.921569%);fill-opacity:1;" d="M 32.128906 51.316406 L 65.261719 51.316406 C 67.246094 51.316406 68.851563 52.925781 68.851563 54.90625 L 68.851563 55.097656 C 68.851563 57.082031 67.246094 58.6875 65.261719 58.6875 L 32.128906 58.6875 C 30.148438 58.6875 28.539063 57.082031 28.539063 55.097656 L 28.539063 54.90625 C 28.539063 52.925781 30.148438 51.316406 32.128906 51.316406 Z M 32.128906 51.316406 "/>
<path style=" stroke:none;fill-rule:nonzero;fill:url(#linear1);" d="M 25.03125 27.429688 L 23.898438 26.289063 C 23.136719 25.53125 21.90625 25.53125 21.148438 26.289063 L 10.132813 37.285156 L 5.605469 32.765625 C 4.84375 32.003906 3.613281 32.003906 2.855469 32.765625 L 1.714844 33.902344 C 0.957031 34.664063 0.957031 35.894531 1.714844 36.652344 L 8.761719 43.710938 C 9.125 44.078125 9.621094 44.28125 10.136719 44.28125 C 10.652344 44.28125 11.148438 44.074219 11.511719 43.710938 L 25.03125 30.179688 C 25.792969 29.417969 25.792969 28.1875 25.03125 27.429688 Z M 25.03125 27.429688 "/>
<path style=" stroke:none;fill-rule:nonzero;fill:url(#linear2);" d="M 25.03125 47.636719 L 23.898438 46.496094 C 23.53125 46.132813 23.035156 45.925781 22.519531 45.929688 C 22.003906 45.925781 21.511719 46.128906 21.148438 46.496094 L 10.132813 57.492188 L 5.605469 52.96875 C 4.84375 52.210938 3.613281 52.210938 2.855469 52.96875 L 1.714844 54.105469 C 0.957031 54.867188 0.957031 56.097656 1.714844 56.855469 L 8.761719 63.914063 C 9.519531 64.671875 10.75 64.671875 11.511719 63.914063 L 25.03125 50.378906 C 25.789063 49.621094 25.789063 48.394531 25.03125 47.636719 Z M 25.03125 47.636719 "/>
</g>
</svg>
