<?xml version="1.0" encoding="UTF-8"?>
<svg xmlns="http://www.w3.org/2000/svg" xmlns:xlink="http://www.w3.org/1999/xlink" width="70pt" height="70pt" viewBox="0 0 70 70" version="1.1">
<defs>
<linearGradient id="linear0" gradientUnits="userSpaceOnUse" x1="9" y1="15.834" x2="9" y2="5.788" gradientTransform="matrix(3.888889,0,0,3.888889,0,0)">
<stop offset="0" style="stop-color:rgb(19.607843%,74.509804%,86.666667%);stop-opacity:1;"/>
<stop offset="0.775" style="stop-color:rgb(19.607843%,83.137255%,96.078431%);stop-opacity:1;"/>
</linearGradient>
</defs>
<g id="surface1">
<path style=" stroke:none;fill-rule:nonzero;fill:url(#linear0);" d="M 1.945313 22.507813 L 68.054688 22.507813 L 68.054688 59.367188 C 68.054688 60.585938 67.066406 61.578125 65.847656 61.578125 L 4.152344 61.578125 C 2.933594 61.578125 1.945313 60.585938 1.945313 59.367188 Z M 1.945313 22.507813 "/>
<path style=" stroke:none;fill-rule:nonzero;fill:rgb(0%,47.058824%,83.137255%);fill-opacity:1;" d="M 4.164063 8.421875 L 65.835938 8.421875 C 67.054688 8.421875 68.042969 9.414063 68.042969 10.632813 L 68.042969 22.507813 L 1.945313 22.507813 L 1.945313 10.632813 C 1.945313 10.042969 2.179688 9.480469 2.59375 9.066406 C 3.011719 8.652344 3.578125 8.421875 4.164063 8.421875 Z M 4.164063 8.421875 "/>
<path style=" stroke:none;fill-rule:nonzero;fill:rgb(0%,47.058824%,83.137255%);fill-opacity:1;" d="M 10.152344 27.414063 L 32.378906 27.414063 C 32.988281 27.414063 33.480469 27.90625 33.480469 28.511719 L 33.480469 39.566406 C 33.480469 40.171875 32.988281 40.667969 32.378906 40.667969 L 10.152344 40.667969 C 9.546875 40.667969 9.054688 40.171875 9.054688 39.566406 L 9.054688 28.511719 C 9.054688 27.90625 9.546875 27.414063 10.152344 27.414063 Z M 10.152344 27.414063 "/>
<path style=" stroke:none;fill-rule:nonzero;fill:rgb(100%,100%,100%);fill-opacity:1;" d="M 37.40625 27.414063 L 59.632813 27.414063 C 60.238281 27.414063 60.734375 27.90625 60.734375 28.511719 L 60.734375 39.566406 C 60.734375 40.171875 60.238281 40.667969 59.632813 40.667969 L 37.40625 40.667969 C 36.800781 40.667969 36.308594 40.171875 36.308594 39.566406 L 36.308594 28.511719 C 36.308594 27.90625 36.800781 27.414063 37.40625 27.414063 Z M 37.40625 27.414063 "/>
<path style=" stroke:none;fill-rule:nonzero;fill:rgb(0%,47.058824%,83.137255%);fill-opacity:1;" d="M 10.03125 43.277344 L 32.253906 43.277344 C 32.863281 43.277344 33.355469 43.769531 33.355469 44.375 L 33.355469 55.429688 C 33.355469 56.035156 32.863281 56.527344 32.253906 56.527344 L 10.03125 56.527344 C 9.421875 56.527344 8.929688 56.035156 8.929688 55.429688 L 8.929688 44.375 C 8.929688 43.769531 9.421875 43.277344 10.03125 43.277344 Z M 10.03125 43.277344 "/>
<path style=" stroke:none;fill-rule:nonzero;fill:rgb(0%,47.058824%,83.137255%);fill-opacity:1;" d="M 37.28125 43.277344 L 59.507813 43.277344 C 60.117188 43.277344 60.609375 43.769531 60.609375 44.375 L 60.609375 55.429688 C 60.609375 56.035156 60.117188 56.527344 59.507813 56.527344 L 37.28125 56.527344 C 36.675781 56.527344 36.183594 56.035156 36.183594 55.429688 L 36.183594 44.375 C 36.183594 43.769531 36.675781 43.277344 37.28125 43.277344 Z M 37.28125 43.277344 "/>
</g>
</svg>
