<?xml version="1.0" encoding="UTF-8"?>
<svg xmlns="http://www.w3.org/2000/svg" xmlns:xlink="http://www.w3.org/1999/xlink" width="70pt" height="70pt" viewBox="0 0 70 70" version="1.1">
<defs>
<linearGradient id="linear0" gradientUnits="userSpaceOnUse" x1="9" y1="15.834" x2="9" y2="5.788" gradientTransform="matrix(3.888889,0,0,3.888889,0,0)">
<stop offset="0" style="stop-color:rgb(19.607843%,74.509804%,86.666667%);stop-opacity:1;"/>
<stop offset="0.775" style="stop-color:rgb(19.607843%,83.137255%,96.078431%);stop-opacity:1;"/>
</linearGradient>
</defs>
<g id="surface1">
<path style=" stroke:none;fill-rule:nonzero;fill:url(#linear0);" d="M 1.945313 22.507813 L 68.054688 22.507813 L 68.054688 59.367188 C 68.054688 60.585938 67.066406 61.578125 65.847656 61.578125 L 4.152344 61.578125 C 2.933594 61.578125 1.945313 60.585938 1.945313 59.367188 Z M 1.945313 22.507813 "/>
<path style=" stroke:none;fill-rule:nonzero;fill:rgb(9.803922%,54.117647%,70.196078%);fill-opacity:1;" d="M 4.164063 8.421875 L 65.835938 8.421875 C 67.054688 8.421875 68.042969 9.414063 68.042969 10.632813 L 68.042969 22.507813 L 1.945313 22.507813 L 1.945313 10.632813 C 1.945313 10.042969 2.179688 9.480469 2.59375 9.066406 C 3.011719 8.652344 3.578125 8.421875 4.164063 8.421875 Z M 4.164063 8.421875 "/>
<path style=" stroke:none;fill-rule:nonzero;fill:rgb(100%,100%,100%);fill-opacity:1;" d="M 49.847656 27.007813 L 37.867188 27.007813 C 37.34375 27.007813 36.921875 27.429688 36.921875 27.953125 L 36.921875 53.800781 C 36.921875 54.320313 37.34375 54.742188 37.867188 54.742188 L 58.632813 54.742188 C 58.882813 54.746094 59.125 54.644531 59.304688 54.46875 C 59.480469 54.292969 59.582031 54.050781 59.582031 53.800781 L 59.582031 36.6875 C 59.582031 36.164063 59.15625 35.738281 58.632813 35.738281 L 51.742188 35.738281 C 51.492188 35.738281 51.25 35.640625 51.070313 35.460938 C 50.894531 35.28125 50.796875 35.042969 50.796875 34.789063 L 50.796875 27.953125 C 50.796875 27.703125 50.695313 27.460938 50.519531 27.285156 C 50.339844 27.105469 50.097656 27.007813 49.847656 27.007813 Z M 49.847656 27.007813 "/>
<path style=" stroke:none;fill-rule:nonzero;fill:rgb(76.470588%,94.509804%,100%);fill-opacity:1;" d="M 49.414063 28.21875 L 49.414063 34.707031 C 49.414063 36.023438 50.480469 37.085938 51.792969 37.089844 L 58.332031 37.089844 L 58.332031 53.535156 L 38.167969 53.535156 L 38.167969 28.21875 L 49.414063 28.21875 M 49.871094 26.796875 L 37.722656 26.796875 C 37.191406 26.796875 36.761719 27.226563 36.761719 27.757813 L 36.761719 53.992188 C 36.761719 54.523438 37.191406 54.953125 37.722656 54.953125 L 58.800781 54.953125 C 59.332031 54.953125 59.761719 54.523438 59.761719 53.992188 L 59.761719 36.628906 C 59.757813 36.101563 59.328125 35.671875 58.800781 35.667969 L 51.800781 35.667969 C 51.269531 35.667969 50.839844 35.238281 50.839844 34.707031 L 50.839844 27.757813 C 50.839844 27.226563 50.410156 26.796875 49.878906 26.796875 Z M 49.871094 26.796875 "/>
<path style=" stroke:none;fill-rule:nonzero;fill:rgb(31.372549%,90.196078%,100%);fill-opacity:1;" d="M 59.382813 35.859375 L 50.5 27.007813 L 50.5 34.222656 C 50.496094 34.652344 50.667969 35.070313 50.96875 35.375 C 51.273438 35.683594 51.6875 35.855469 52.117188 35.859375 Z M 59.382813 35.859375 "/>
<path style=" stroke:none;fill-rule:nonzero;fill:rgb(100%,100%,100%);fill-opacity:1;" d="M 24.308594 27.007813 L 12.324219 27.007813 C 11.800781 27.007813 11.378906 27.429688 11.378906 27.953125 L 11.378906 53.800781 C 11.378906 54.320313 11.800781 54.742188 12.324219 54.742188 L 33.09375 54.742188 C 33.617188 54.742188 34.039063 54.320313 34.039063 53.800781 L 34.039063 36.6875 C 34.039063 36.4375 33.941406 36.195313 33.765625 36.015625 C 33.585938 35.839844 33.347656 35.738281 33.09375 35.738281 L 26.199219 35.738281 C 25.949219 35.738281 25.707031 35.640625 25.53125 35.460938 C 25.351563 35.28125 25.253906 35.042969 25.253906 34.789063 L 25.253906 27.953125 C 25.253906 27.429688 24.832031 27.007813 24.308594 27.007813 Z M 24.308594 27.007813 "/>
<path style=" stroke:none;fill-rule:nonzero;fill:rgb(76.470588%,94.509804%,100%);fill-opacity:1;" d="M 23.871094 28.21875 L 23.871094 34.707031 C 23.871094 36.023438 24.9375 37.085938 26.25 37.089844 L 32.792969 37.089844 L 32.792969 53.535156 L 12.632813 53.535156 L 12.632813 28.21875 L 23.871094 28.21875 M 24.328125 26.796875 L 12.171875 26.796875 C 11.917969 26.796875 11.671875 26.898438 11.492188 27.078125 C 11.3125 27.257813 11.210938 27.503906 11.210938 27.757813 L 11.210938 53.992188 C 11.210938 54.25 11.3125 54.492188 11.492188 54.671875 C 11.671875 54.855469 11.917969 54.953125 12.171875 54.953125 L 33.246094 54.953125 C 33.5 54.953125 33.746094 54.855469 33.925781 54.671875 C 34.105469 54.492188 34.207031 54.25 34.207031 53.992188 L 34.207031 36.628906 C 34.207031 36.097656 33.777344 35.667969 33.246094 35.667969 L 26.25 35.667969 C 25.992188 35.671875 25.746094 35.570313 25.5625 35.390625 C 25.382813 35.210938 25.277344 34.964844 25.277344 34.707031 L 25.277344 27.757813 C 25.277344 27.503906 25.179688 27.257813 24.996094 27.078125 C 24.816406 26.898438 24.574219 26.796875 24.316406 26.796875 Z M 24.328125 26.796875 "/>
<path style=" stroke:none;fill-rule:nonzero;fill:rgb(31.372549%,90.196078%,100%);fill-opacity:1;" d="M 33.832031 35.859375 L 24.957031 27.007813 L 24.957031 34.222656 C 24.957031 34.652344 25.125 35.070313 25.429688 35.375 C 25.730469 35.683594 26.144531 35.855469 26.578125 35.859375 Z M 33.832031 35.859375 "/>
</g>
</svg>
