<?xml version="1.0" encoding="UTF-8"?>
<svg xmlns="http://www.w3.org/2000/svg" xmlns:xlink="http://www.w3.org/1999/xlink" width="70pt" height="70pt" viewBox="0 0 70 70" version="1.1">
<defs>
<linearGradient id="linear0" gradientUnits="userSpaceOnUse" x1="9" y1="19.848" x2="9" y2="-1.014" gradientTransform="matrix(3.888889,-0.000000000000000009,0.000000000000000009,3.888889,-0.000517415,-0.00021432)">
<stop offset="0" style="stop-color:rgb(0%,47.058824%,83.137255%);stop-opacity:1;"/>
<stop offset="0.502" style="stop-color:rgb(25.098039%,57.647059%,90.196078%);stop-opacity:1;"/>
<stop offset="0.775" style="stop-color:rgb(36.862745%,62.745098%,93.72549%);stop-opacity:1;"/>
</linearGradient>
</defs>
<g id="surface1">
<path style=" stroke:none;fill-rule:nonzero;fill:url(#linear0);" d="M 0.679688 33.351563 L 33.347656 0.683594 C 34.257813 -0.226563 35.734375 -0.226563 36.648438 0.683594 L 69.3125 33.351563 C 70.222656 34.261719 70.222656 35.738281 69.3125 36.648438 L 36.648438 69.316406 C 35.734375 70.226563 34.257813 70.226563 33.347656 69.316406 L 0.679688 36.648438 C -0.230469 35.738281 -0.230469 34.261719 0.679688 33.351563 Z M 0.679688 33.351563 "/>
<path style=" stroke:none;fill-rule:nonzero;fill:rgb(76.470588%,94.509804%,100%);fill-opacity:1;" d="M 57.277344 33.96875 L 50.695313 28.035156 C 49.800781 27.144531 49.398438 27.367188 49.398438 28.703125 L 49.398438 31.332031 C 49.394531 31.789063 49.023438 32.15625 48.566406 32.15625 C 44.328125 32.710938 40.25 30.328125 38.65625 26.363281 L 38.65625 14.078125 C 38.65625 13.453125 38.148438 12.945313 37.523438 12.945313 L 31.855469 12.945313 C 31.230469 12.945313 30.722656 13.453125 30.722656 14.078125 L 30.722656 45.109375 C 30.722656 45.417969 30.472656 45.667969 30.167969 45.667969 L 23.722656 45.667969 C 23.5 45.671875 23.296875 45.808594 23.214844 46.015625 C 23.128906 46.222656 23.175781 46.460938 23.332031 46.621094 L 33.8125 57.121094 C 34.046875 57.355469 34.367188 57.488281 34.695313 57.488281 C 35.027344 57.488281 35.347656 57.355469 35.578125 57.121094 L 46.078125 46.640625 C 46.238281 46.480469 46.285156 46.242188 46.199219 46.035156 C 46.113281 45.828125 45.914063 45.691406 45.691406 45.6875 L 39.210938 45.6875 C 39.0625 45.6875 38.917969 45.625 38.8125 45.515625 C 38.707031 45.410156 38.648438 45.261719 38.65625 45.109375 L 38.65625 34.675781 C 41.605469 36.570313 45.0625 37.519531 48.5625 37.398438 C 48.785156 37.394531 48.996094 37.480469 49.15625 37.632813 C 49.3125 37.789063 49.398438 38 49.398438 38.21875 L 49.398438 41.058594 C 49.398438 42.171875 50 42.425781 50.695313 41.726563 L 57.277344 35.328125 C 57.5 35.175781 57.636719 34.917969 57.636719 34.648438 C 57.636719 34.375 57.5 34.121094 57.277344 33.96875 Z M 57.277344 33.96875 "/>
</g>
</svg>
