<?xml version="1.0" encoding="UTF-8"?>
<svg xmlns="http://www.w3.org/2000/svg" xmlns:xlink="http://www.w3.org/1999/xlink" width="70pt" height="70pt" viewBox="0 0 70 70" version="1.1">
<defs>
<linearGradient id="linear0" gradientUnits="userSpaceOnUse" x1="9" y1="15.834" x2="9" y2="5.788" gradientTransform="matrix(3.888889,0,0,3.888889,0,0)">
<stop offset="0" style="stop-color:rgb(19.607843%,74.509804%,86.666667%);stop-opacity:1;"/>
<stop offset="0.175" style="stop-color:rgb(19.607843%,79.215686%,91.764706%);stop-opacity:1;"/>
<stop offset="0.41" style="stop-color:rgb(19.607843%,82.352941%,94.901961%);stop-opacity:1;"/>
<stop offset="0.775" style="stop-color:rgb(19.607843%,83.137255%,96.078431%);stop-opacity:1;"/>
</linearGradient>
</defs>
<g id="surface1">
<path style=" stroke:none;fill-rule:nonzero;fill:url(#linear0);" d="M 1.945313 22.507813 L 68.054688 22.507813 L 68.054688 59.367188 C 68.054688 60.585938 67.066406 61.578125 65.847656 61.578125 L 4.152344 61.578125 C 2.933594 61.578125 1.945313 60.585938 1.945313 59.367188 Z M 1.945313 22.507813 "/>
<path style=" stroke:none;fill-rule:nonzero;fill:rgb(0%,47.058824%,83.137255%);fill-opacity:1;" d="M 4.164063 8.421875 L 65.835938 8.421875 C 67.054688 8.421875 68.042969 9.414063 68.042969 10.632813 L 68.042969 22.507813 L 1.945313 22.507813 L 1.945313 10.632813 C 1.945313 10.042969 2.179688 9.480469 2.59375 9.066406 C 3.011719 8.652344 3.578125 8.421875 4.164063 8.421875 Z M 4.164063 8.421875 "/>
<path style=" stroke:none;fill-rule:nonzero;fill:rgb(94.901961%,94.901961%,94.901961%);fill-opacity:1;" d="M 11.941406 12.632813 L 58.058594 12.632813 C 58.667969 12.632813 59.160156 13.125 59.160156 13.734375 L 59.160156 17.199219 C 59.160156 17.808594 58.667969 18.304688 58.058594 18.304688 L 11.941406 18.304688 C 11.332031 18.304688 10.839844 17.808594 10.839844 17.199219 L 10.839844 13.734375 C 10.839844 13.125 11.332031 12.632813 11.941406 12.632813 Z M 11.941406 12.632813 "/>
</g>
</svg>
