<?xml version="1.0" encoding="UTF-8"?>
<svg xmlns="http://www.w3.org/2000/svg" xmlns:xlink="http://www.w3.org/1999/xlink" width="70pt" height="70pt" viewBox="0 0 70 70" version="1.1">
<defs>
<linearGradient id="linear0" gradientUnits="userSpaceOnUse" x1="8.916" y1="17.5" x2="8.916" y2="2.605" gradientTransform="matrix(3.888889,0,0,3.888889,0,0)">
<stop offset="0" style="stop-color:rgb(46.666667%,22.745098%,86.27451%);stop-opacity:1;"/>
<stop offset="1" style="stop-color:rgb(65.098039%,47.843137%,95.686275%);stop-opacity:1;"/>
</linearGradient>
</defs>
<g id="surface1">
<path style=" stroke:none;fill-rule:nonzero;fill:rgb(46.666667%,22.745098%,86.27451%);fill-opacity:1;" d="M 35 18.507813 C 34.496094 18.507813 34.015625 18.28125 33.695313 17.890625 L 22.808594 4.667969 C 22.289063 3.949219 22.417969 2.953125 23.105469 2.390625 C 23.792969 1.832031 24.796875 1.902344 25.394531 2.554688 L 34.980469 14.195313 L 44.417969 2.5625 C 45 1.84375 46.054688 1.734375 46.773438 2.316406 C 47.488281 2.898438 47.597656 3.953125 47.015625 4.671875 L 36.289063 17.890625 C 35.972656 18.277344 35.5 18.503906 35 18.507813 Z M 35 18.507813 "/>
<path style=" stroke:none;fill-rule:nonzero;fill:rgb(46.666667%,22.745098%,86.27451%);fill-opacity:1;" d="M 6.304688 34.367188 C 5.378906 34.367188 4.632813 33.617188 4.632813 32.695313 L 4.632813 27.714844 C 4.632813 27.070313 5.007813 26.480469 5.59375 26.203125 L 23.167969 17.960938 C 23.992188 17.613281 24.949219 17.980469 25.332031 18.792969 C 25.714844 19.605469 25.382813 20.574219 24.585938 20.988281 L 7.976563 28.765625 L 7.976563 32.695313 C 7.972656 33.617188 7.226563 34.363281 6.304688 34.367188 Z M 6.304688 34.367188 "/>
<path style=" stroke:none;fill-rule:nonzero;fill:rgb(46.666667%,22.745098%,86.27451%);fill-opacity:1;" d="M 6.304688 49.546875 C 5.859375 49.550781 5.433594 49.375 5.121094 49.058594 C 4.804688 48.746094 4.628906 48.320313 4.632813 47.875 L 4.632813 42.902344 C 4.628906 42.253906 5.003906 41.664063 5.59375 41.390625 L 23.167969 33.144531 C 24.003906 32.753906 25 33.113281 25.390625 33.949219 C 25.78125 34.785156 25.421875 35.78125 24.585938 36.175781 L 7.976563 43.953125 L 7.976563 47.863281 C 7.980469 48.308594 7.804688 48.738281 7.492188 49.054688 C 7.175781 49.371094 6.75 49.546875 6.304688 49.546875 Z M 6.304688 49.546875 "/>
<path style=" stroke:none;fill-rule:nonzero;fill:rgb(46.666667%,22.745098%,86.27451%);fill-opacity:1;" d="M 6.304688 65.507813 C 5.378906 65.507813 4.632813 64.757813 4.632813 63.835938 L 4.632813 58.859375 C 4.632813 58.210938 5.007813 57.621094 5.59375 57.34375 L 23.167969 49.105469 C 23.992188 48.753906 24.949219 49.121094 25.332031 49.933594 C 25.714844 50.75 25.382813 51.71875 24.585938 52.128906 L 7.976563 59.910156 L 7.976563 63.824219 C 7.976563 64.269531 7.804688 64.699219 7.488281 65.011719 C 7.175781 65.328125 6.75 65.507813 6.304688 65.507813 Z M 6.304688 65.507813 "/>
<path style=" stroke:none;fill-rule:nonzero;fill:rgb(46.666667%,22.745098%,86.27451%);fill-opacity:1;" d="M 63.695313 34.367188 C 62.773438 34.363281 62.027344 33.617188 62.023438 32.695313 L 62.023438 28.777344 L 45.414063 21 C 44.617188 20.585938 44.285156 19.617188 44.667969 18.804688 C 45.050781 17.992188 46.007813 17.625 46.832031 17.972656 L 64.40625 26.214844 C 64.992188 26.492188 65.367188 27.078125 65.367188 27.726563 L 65.367188 32.707031 C 65.363281 33.625 64.613281 34.367188 63.695313 34.367188 Z M 63.695313 34.367188 "/>
<path style=" stroke:none;fill-rule:nonzero;fill:rgb(46.666667%,22.745098%,86.27451%);fill-opacity:1;" d="M 63.695313 49.546875 C 62.773438 49.546875 62.023438 48.800781 62.023438 47.875 L 62.023438 43.964844 L 45.414063 36.1875 C 44.578125 35.792969 44.21875 34.796875 44.609375 33.960938 C 45 33.125 45.996094 32.765625 46.832031 33.15625 L 64.40625 41.402344 C 64.996094 41.675781 65.371094 42.265625 65.367188 42.914063 L 65.367188 47.886719 C 65.363281 48.808594 64.617188 49.550781 63.695313 49.546875 Z M 63.695313 49.546875 "/>
<path style=" stroke:none;fill-rule:nonzero;fill:rgb(46.666667%,22.745098%,86.27451%);fill-opacity:1;" d="M 63.695313 65.507813 C 62.773438 65.507813 62.027344 64.757813 62.023438 63.835938 L 62.023438 59.921875 L 45.414063 52.140625 C 44.617188 51.730469 44.285156 50.761719 44.667969 49.945313 C 45.050781 49.132813 46.007813 48.765625 46.832031 49.117188 L 64.40625 57.355469 C 64.992188 57.632813 65.367188 58.222656 65.367188 58.871094 L 65.367188 63.847656 C 65.363281 64.765625 64.613281 65.507813 63.695313 65.507813 Z M 63.695313 65.507813 "/>
<path style=" stroke:none;fill-rule:nonzero;fill:url(#linear0);" d="M 51.898438 27.355469 C 51.992188 21.140625 48.730469 15.355469 43.363281 12.222656 C 37.996094 9.089844 31.355469 9.089844 25.988281 12.222656 C 20.621094 15.355469 17.359375 21.140625 17.453125 27.355469 L 17.453125 50.835938 C 17.59375 60.246094 25.265625 67.800781 34.675781 67.800781 C 44.085938 67.800781 51.753906 60.246094 51.898438 50.835938 Z M 51.898438 27.355469 "/>
<path style=" stroke:none;fill-rule:nonzero;fill:rgb(71.764706%,58.823529%,97.647059%);fill-opacity:1;" d="M 49.84375 19.199219 C 48.242188 16.234375 45.808594 13.800781 42.84375 12.199219 C 41.414063 14.195313 41.636719 16.933594 43.375 18.667969 C 45.109375 20.40625 47.847656 20.628906 49.84375 19.199219 Z M 49.84375 19.199219 "/>
<path style=" stroke:none;fill-rule:nonzero;fill:rgb(71.764706%,58.823529%,97.647059%);fill-opacity:1;" d="M 19.507813 19.199219 C 21.503906 20.628906 24.242188 20.40625 25.976563 18.667969 C 27.710938 16.933594 27.9375 14.195313 26.507813 12.199219 C 23.539063 13.800781 21.105469 16.234375 19.507813 19.199219 Z M 19.507813 19.199219 "/>
</g>
</svg>
