<?xml version="1.0" encoding="UTF-8"?>
<svg xmlns="http://www.w3.org/2000/svg" xmlns:xlink="http://www.w3.org/1999/xlink" width="70pt" height="70pt" viewBox="0 0 70 70" version="1.1">
<defs>
<linearGradient id="linear0" gradientUnits="userSpaceOnUse" x1="-4199.359" y1="990.275" x2="-4199.359" y2="982.921" gradientTransform="matrix(-3.888889,0.000000000000000476,-0.000000000000000476,-3.888889,-16295.315556,3853.146111)">
<stop offset="0.265" style="stop-color:rgb(65.098039%,47.843137%,95.686275%);stop-opacity:1;"/>
<stop offset="0.45" style="stop-color:rgb(61.960784%,43.529412%,94.117647%);stop-opacity:1;"/>
<stop offset="0.771" style="stop-color:rgb(53.72549%,32.156863%,89.803922%);stop-opacity:1;"/>
<stop offset="1" style="stop-color:rgb(46.666667%,22.745098%,86.27451%);stop-opacity:1;"/>
</linearGradient>
<linearGradient id="linear1" gradientUnits="userSpaceOnUse" x1="9" y1="17.466" x2="9" y2="12.672" gradientTransform="matrix(3.888889,0,0,3.888889,0,0)">
<stop offset="0" style="stop-color:rgb(46.666667%,22.745098%,86.27451%);stop-opacity:1;"/>
<stop offset="0.735" style="stop-color:rgb(65.098039%,47.843137%,95.686275%);stop-opacity:1;"/>
</linearGradient>
</defs>
<g id="surface1">
<path style=" stroke:none;fill-rule:nonzero;fill:url(#linear0);" d="M 48.074219 18.703125 L 36.5 30.273438 C 35.960938 30.808594 35.097656 30.808594 34.558594 30.273438 L 22.980469 18.703125 C 22.804688 18.523438 22.75 18.261719 22.847656 18.03125 C 22.941406 17.800781 23.164063 17.648438 23.414063 17.648438 L 30.53125 17.648438 C 30.871094 17.648438 31.144531 17.371094 31.144531 17.035156 L 31.144531 2.570313 C 31.144531 2.296875 31.367188 2.078125 31.640625 2.078125 L 39.417969 2.078125 C 39.546875 2.078125 39.671875 2.128906 39.765625 2.222656 C 39.859375 2.3125 39.910156 2.441406 39.90625 2.570313 L 39.90625 17.035156 C 39.910156 17.375 40.1875 17.648438 40.527344 17.648438 L 47.644531 17.648438 C 47.890625 17.652344 48.113281 17.800781 48.207031 18.03125 C 48.300781 18.261719 48.25 18.527344 48.074219 18.703125 Z M 48.074219 18.703125 "/>
<path style=" stroke:none;fill-rule:nonzero;fill:url(#linear1);" d="M 3.9375 49.28125 L 66.0625 49.28125 C 67.164063 49.28125 68.054688 50.171875 68.054688 51.273438 L 68.054688 65.925781 C 68.054688 67.027344 67.164063 67.917969 66.0625 67.917969 L 3.9375 67.917969 C 2.835938 67.917969 1.945313 67.027344 1.945313 65.925781 L 1.945313 51.273438 C 1.945313 50.171875 2.835938 49.28125 3.9375 49.28125 Z M 3.9375 49.28125 "/>
<path style=" stroke:none;fill-rule:nonzero;fill:rgb(52.54902%,83.921569%,20%);fill-opacity:1;" d="M 17.023438 36.199219 L 25.117188 36.199219 C 25.554688 36.199219 25.90625 36.550781 25.90625 36.988281 L 25.90625 45.082031 C 25.90625 45.519531 25.554688 45.875 25.117188 45.875 L 17.023438 45.875 C 16.585938 45.875 16.230469 45.519531 16.230469 45.082031 L 16.230469 36.988281 C 16.230469 36.550781 16.585938 36.199219 17.023438 36.199219 Z M 17.023438 36.199219 "/>
<path style=" stroke:none;fill-rule:nonzero;fill:rgb(52.54902%,83.921569%,20%);fill-opacity:1;" d="M 31.476563 36.199219 L 39.574219 36.199219 C 40.007813 36.199219 40.363281 36.550781 40.363281 36.988281 L 40.363281 45.082031 C 40.363281 45.519531 40.007813 45.875 39.574219 45.875 L 31.476563 45.875 C 31.039063 45.875 30.6875 45.519531 30.6875 45.082031 L 30.6875 36.988281 C 30.6875 36.550781 31.039063 36.199219 31.476563 36.199219 Z M 31.476563 36.199219 "/>
<path style=" stroke:none;fill-rule:nonzero;fill:rgb(52.54902%,83.921569%,20%);fill-opacity:1;" d="M 45.933594 36.199219 L 54.027344 36.199219 C 54.464844 36.199219 54.816406 36.550781 54.816406 36.988281 L 54.816406 45.082031 C 54.816406 45.519531 54.464844 45.875 54.027344 45.875 L 45.933594 45.875 C 45.496094 45.875 45.140625 45.519531 45.140625 45.082031 L 45.140625 36.988281 C 45.140625 36.550781 45.496094 36.199219 45.933594 36.199219 Z M 45.933594 36.199219 "/>
<path style=" stroke:none;fill-rule:nonzero;fill:rgb(70.588235%,92.54902%,21.176471%);fill-opacity:1;" d="M 24.25 53.457031 L 32.347656 53.457031 C 32.785156 53.457031 33.136719 53.808594 33.136719 54.246094 L 33.136719 62.34375 C 33.136719 62.777344 32.785156 63.132813 32.347656 63.132813 L 24.25 63.132813 C 23.816406 63.132813 23.460938 62.777344 23.460938 62.34375 L 23.460938 54.246094 C 23.460938 53.808594 23.816406 53.457031 24.25 53.457031 Z M 24.25 53.457031 "/>
<path style=" stroke:none;fill-rule:nonzero;fill:rgb(70.588235%,92.54902%,21.176471%);fill-opacity:1;" d="M 38.707031 53.457031 L 46.804688 53.457031 C 47.238281 53.457031 47.59375 53.808594 47.59375 54.246094 L 47.59375 62.34375 C 47.59375 62.777344 47.238281 63.132813 46.804688 63.132813 L 38.707031 63.132813 C 38.269531 63.132813 37.917969 62.777344 37.917969 62.34375 L 37.917969 54.246094 C 37.917969 53.808594 38.269531 53.457031 38.707031 53.457031 Z M 38.707031 53.457031 "/>
</g>
</svg>
