<?xml version="1.0" encoding="UTF-8"?>
<svg xmlns="http://www.w3.org/2000/svg" xmlns:xlink="http://www.w3.org/1999/xlink" width="70pt" height="70pt" viewBox="0 0 70 70" version="1.1">
<defs>
<linearGradient id="linear0" gradientUnits="userSpaceOnUse" x1="-2.113" y1="12.211" x2="10.011" y2="12.211" gradientTransform="matrix(3.888876,0.00997745,-0.00997745,3.888876,10.496111,-9.850556)">
<stop offset="0" style="stop-color:rgb(0%,35.686275%,63.137255%);stop-opacity:1;"/>
<stop offset="0.068" style="stop-color:rgb(0%,37.647059%,66.27451%);stop-opacity:1;"/>
<stop offset="0.356" style="stop-color:rgb(0%,44.313725%,78.431373%);stop-opacity:1;"/>
<stop offset="0.517" style="stop-color:rgb(0%,47.058824%,83.137255%);stop-opacity:1;"/>
<stop offset="0.642" style="stop-color:rgb(0%,45.490196%,80.392157%);stop-opacity:1;"/>
<stop offset="0.82" style="stop-color:rgb(0%,41.568627%,73.333333%);stop-opacity:1;"/>
<stop offset="1" style="stop-color:rgb(0%,35.686275%,63.137255%);stop-opacity:1;"/>
</linearGradient>
<linearGradient id="linear1" gradientUnits="userSpaceOnUse" x1="6.563" y1="15.274" x2="14.785" y2="15.274" gradientTransform="matrix(3.888876,0.00997745,-0.00997745,3.888876,10.496111,-9.850556)">
<stop offset="0" style="stop-color:rgb(19.607843%,74.509804%,86.666667%);stop-opacity:1;"/>
<stop offset="0.322" style="stop-color:rgb(27.843137%,85.490196%,96.078431%);stop-opacity:1;"/>
<stop offset="0.517" style="stop-color:rgb(31.372549%,90.196078%,100%);stop-opacity:1;"/>
<stop offset="0.664" style="stop-color:rgb(29.411765%,87.45098%,97.647059%);stop-opacity:1;"/>
<stop offset="0.872" style="stop-color:rgb(23.921569%,80.392157%,91.764706%);stop-opacity:1;"/>
<stop offset="1" style="stop-color:rgb(19.607843%,74.509804%,86.666667%);stop-opacity:1;"/>
</linearGradient>
</defs>
<g id="surface1">
<path style=" stroke:none;fill-rule:nonzero;fill:url(#linear0);" d="M 25.78125 19.121094 C 12.757813 19.089844 2.214844 15.21875 2.226563 10.472656 L 2.113281 56.164063 C 2.113281 60.867188 12.46875 64.71875 25.339844 64.8125 L 25.667969 64.8125 C 38.6875 64.847656 49.253906 61.027344 49.265625 56.285156 L 49.390625 10.59375 C 49.367188 15.335938 38.800781 19.15625 25.78125 19.121094 Z M 25.78125 19.121094 "/>
<path style=" stroke:none;fill-rule:nonzero;fill:rgb(90.196078%,90.196078%,90.196078%);fill-opacity:1;" d="M 49.390625 10.59375 C 49.390625 15.335938 38.8125 19.148438 25.792969 19.121094 C 12.769531 19.09375 2.214844 15.21875 2.226563 10.472656 C 2.238281 5.726563 12.804688 1.910156 25.824219 1.945313 C 38.847656 1.980469 49.394531 5.832031 49.378906 10.59375 "/>
<path style=" stroke:none;fill-rule:nonzero;fill:rgb(31.372549%,90.196078%,100%);fill-opacity:1;" d="M 43.878906 9.886719 C 43.878906 12.898438 35.769531 15.328125 25.792969 15.300781 C 15.8125 15.269531 7.722656 12.808594 7.730469 9.792969 C 7.738281 6.773438 15.839844 4.347656 25.816406 4.375 C 35.796875 4.402344 43.886719 6.867188 43.878906 9.886719 "/>
<path style=" stroke:none;fill-rule:nonzero;fill:rgb(9.803922%,54.117647%,70.196078%);fill-opacity:1;" d="M 25.804688 11.09375 C 20.949219 10.96875 16.105469 11.660156 11.480469 13.132813 C 16.089844 14.675781 20.929688 15.410156 25.792969 15.300781 C 30.648438 15.441406 35.496094 14.738281 40.113281 13.222656 C 35.496094 11.71875 30.660156 11 25.804688 11.09375 Z M 25.804688 11.09375 "/>
<path style=" stroke:none;fill-rule:nonzero;fill:url(#linear1);" d="M 51.890625 37.074219 C 43.058594 37.050781 35.910156 34.425781 35.917969 31.207031 L 35.835938 62.191406 C 35.835938 65.378906 42.863281 67.988281 51.589844 68.054688 L 51.808594 68.054688 C 60.640625 68.078125 67.804688 65.488281 67.8125 62.273438 L 67.886719 31.289063 C 67.878906 34.507813 60.71875 37.097656 51.890625 37.074219 Z M 51.890625 37.074219 "/>
<path style=" stroke:none;fill-rule:nonzero;fill:rgb(90.196078%,90.196078%,90.196078%);fill-opacity:1;" d="M 67.886719 31.289063 C 67.886719 34.507813 60.71875 37.097656 51.890625 37.074219 C 43.0625 37.050781 35.910156 34.425781 35.917969 31.207031 C 35.925781 27.992188 43.089844 25.402344 51.917969 25.425781 C 60.746094 25.449219 67.898438 28.074219 67.886719 31.289063 "/>
<path style=" stroke:none;fill-rule:nonzero;fill:rgb(31.372549%,90.196078%,100%);fill-opacity:1;" d="M 64.167969 30.808594 C 64.167969 32.851563 58.671875 34.496094 51.902344 34.480469 C 45.128906 34.464844 39.652344 32.792969 39.660156 30.746094 C 39.667969 28.699219 45.152344 27.054688 51.921875 27.074219 C 58.6875 27.09375 64.171875 28.761719 64.167969 30.808594 "/>
<path style=" stroke:none;fill-rule:nonzero;fill:rgb(9.803922%,54.117647%,70.196078%);fill-opacity:1;" d="M 51.902344 31.628906 C 48.605469 31.542969 45.320313 32.011719 42.179688 33.007813 C 45.304688 34.058594 48.585938 34.554688 51.882813 34.480469 C 55.179688 34.574219 58.46875 34.09375 61.605469 33.058594 C 58.472656 32.046875 55.191406 31.5625 51.902344 31.628906 Z M 51.902344 31.628906 "/>
<path style=" stroke:none;fill-rule:nonzero;fill:rgb(94.901961%,94.901961%,94.901961%);fill-opacity:1;" d="M 54.617188 41.179688 C 54.554688 41.144531 54.484375 41.128906 54.414063 41.128906 C 54.269531 41.144531 54.140625 41.21875 54.054688 41.332031 L 45.3125 54.054688 C 45.222656 54.191406 45.203125 54.363281 45.261719 54.515625 C 45.347656 54.660156 45.5 54.753906 45.671875 54.765625 L 50.90625 54.765625 L 48.570313 62.445313 C 48.492188 62.640625 48.582031 62.863281 48.773438 62.949219 C 48.832031 62.988281 48.90625 63.007813 48.976563 63 C 49.117188 62.984375 49.246094 62.910156 49.335938 62.796875 L 58.332031 49.921875 C 58.382813 49.820313 58.433594 49.769531 58.433594 49.667969 C 58.433594 49.546875 58.386719 49.429688 58.300781 49.34375 C 58.21875 49.257813 58.101563 49.210938 57.980469 49.210938 L 52.582031 49.210938 L 54.832031 41.6875 C 54.871094 41.59375 54.871094 41.484375 54.832031 41.386719 C 54.789063 41.292969 54.710938 41.21875 54.617188 41.179688 Z M 54.617188 41.179688 "/>
</g>
</svg>
