<?xml version="1.0" encoding="UTF-8"?>
<svg xmlns="http://www.w3.org/2000/svg" xmlns:xlink="http://www.w3.org/1999/xlink" width="70pt" height="70pt" viewBox="0 0 70 70" version="1.1">
<defs>
<linearGradient id="linear0" gradientUnits="userSpaceOnUse" x1="9" y1="15.834" x2="9" y2="5.788" gradientTransform="matrix(3.888889,0,0,3.888889,0,0)">
<stop offset="0" style="stop-color:rgb(0%,47.058824%,83.137255%);stop-opacity:1;"/>
<stop offset="0.502" style="stop-color:rgb(25.098039%,57.647059%,90.196078%);stop-opacity:1;"/>
<stop offset="0.775" style="stop-color:rgb(36.862745%,62.745098%,93.72549%);stop-opacity:1;"/>
</linearGradient>
<linearGradient id="linear1" gradientUnits="userSpaceOnUse" x1="3.754" y1="11.614" x2="6.975" y2="11.614" gradientTransform="matrix(3.888889,0.000000000000000119,-0.000000000000000119,3.888889,0.00211993,0.00319108)">
<stop offset="0" style="stop-color:rgb(36.862745%,62.745098%,93.72549%);stop-opacity:1;"/>
<stop offset="0.372" style="stop-color:rgb(62.352941%,77.647059%,96.078431%);stop-opacity:1;"/>
<stop offset="0.8" style="stop-color:rgb(89.411765%,93.72549%,98.823529%);stop-opacity:1;"/>
<stop offset="1" style="stop-color:rgb(100%,100%,100%);stop-opacity:1;"/>
</linearGradient>
<linearGradient id="linear2" gradientUnits="userSpaceOnUse" x1="10.83" y1="11.614" x2="14.05" y2="11.614" gradientTransform="matrix(3.888889,-0.000000000000000178,0.000000000000000178,3.888889,-0.000194229,0.00400323)">
<stop offset="0" style="stop-color:rgb(100%,100%,100%);stop-opacity:1;"/>
<stop offset="0.2" style="stop-color:rgb(89.411765%,93.72549%,98.823529%);stop-opacity:1;"/>
<stop offset="0.628" style="stop-color:rgb(62.352941%,77.647059%,96.078431%);stop-opacity:1;"/>
<stop offset="1" style="stop-color:rgb(36.862745%,62.745098%,93.72549%);stop-opacity:1;"/>
</linearGradient>
</defs>
<g id="surface1">
<path style=" stroke:none;fill-rule:nonzero;fill:url(#linear0);" d="M 1.945313 22.507813 L 68.054688 22.507813 L 68.054688 59.367188 C 68.054688 60.585938 67.066406 61.578125 65.847656 61.578125 L 4.152344 61.578125 C 2.933594 61.578125 1.945313 60.585938 1.945313 59.367188 Z M 1.945313 22.507813 "/>
<path style=" stroke:none;fill-rule:nonzero;fill:rgb(0%,47.058824%,83.137255%);fill-opacity:1;" d="M 4.164063 8.421875 L 65.835938 8.421875 C 67.054688 8.421875 68.042969 9.414063 68.042969 10.632813 L 68.042969 22.507813 L 1.945313 22.507813 L 1.945313 10.632813 C 1.945313 10.042969 2.179688 9.480469 2.59375 9.066406 C 3.011719 8.652344 3.578125 8.421875 4.164063 8.421875 Z M 4.164063 8.421875 "/>
<path style=" stroke:none;fill-rule:nonzero;fill:url(#linear1);" d="M 14.960938 39.988281 L 16.3125 38.640625 L 26.933594 49.292969 C 27.171875 49.53125 27.171875 49.917969 26.933594 50.15625 L 25.582031 51.503906 C 25.34375 51.742188 24.957031 51.742188 24.71875 51.5 L 14.957031 41.710938 C 14.480469 41.234375 14.480469 40.460938 14.960938 39.984375 Z M 14.960938 39.988281 "/>
<path style=" stroke:none;fill-rule:nonzero;fill:rgb(94.901961%,94.901961%,94.901961%);fill-opacity:1;" d="M 16.292969 43.0625 L 14.945313 41.714844 C 14.46875 41.238281 14.472656 40.464844 14.949219 39.988281 L 24.910156 30.054688 C 25.148438 29.816406 25.535156 29.816406 25.773438 30.058594 L 27.117188 31.40625 C 27.355469 31.644531 27.355469 32.03125 27.117188 32.269531 Z M 16.292969 43.0625 "/>
<path style=" stroke:none;fill-rule:nonzero;fill:url(#linear2);" d="M 43.648438 51.511719 L 42.296875 50.167969 C 42.058594 49.929688 42.058594 49.542969 42.296875 49.304688 L 52.929688 38.640625 L 54.28125 39.984375 C 54.757813 40.460938 54.757813 41.234375 54.285156 41.710938 L 44.507813 51.515625 C 44.269531 51.753906 43.882813 51.753906 43.644531 51.515625 Z M 43.648438 51.511719 "/>
<path style=" stroke:none;fill-rule:nonzero;fill:rgb(94.901961%,94.901961%,94.901961%);fill-opacity:1;" d="M 42.09375 31.414063 L 43.4375 30.0625 C 43.675781 29.824219 44.0625 29.824219 44.300781 30.0625 L 54.261719 39.996094 C 54.738281 40.472656 54.738281 41.246094 54.265625 41.722656 L 52.917969 43.070313 L 42.101563 32.285156 C 41.984375 32.171875 41.914063 32.015625 41.914063 31.851563 C 41.910156 31.6875 41.976563 31.53125 42.09375 31.414063 Z M 42.09375 31.414063 "/>
<path style=" stroke:none;fill-rule:nonzero;fill:rgb(94.901961%,94.901961%,94.901961%);fill-opacity:1;" d="M 38.253906 26.019531 L 40.410156 26.710938 C 40.640625 26.785156 40.765625 27.027344 40.691406 27.257813 L 31.90625 54.703125 C 31.832031 54.933594 31.585938 55.058594 31.359375 54.984375 L 29.203125 54.292969 C 28.972656 54.222656 28.847656 53.976563 28.921875 53.746094 L 37.707031 26.300781 C 37.78125 26.074219 38.027344 25.945313 38.253906 26.019531 Z M 38.253906 26.019531 "/>
</g>
</svg>
