<?xml version="1.0" encoding="UTF-8"?>
<svg xmlns="http://www.w3.org/2000/svg" xmlns:xlink="http://www.w3.org/1999/xlink" width="70pt" height="70pt" viewBox="0 0 70 70" version="1.1">
<defs>
<linearGradient id="linear0" gradientUnits="userSpaceOnUse" x1="9" y1="9.387" x2="9" y2="0.486" gradientTransform="matrix(3.888889,0,0,3.888889,0,0)">
<stop offset="0" style="stop-color:rgb(46.666667%,22.745098%,86.27451%);stop-opacity:1;"/>
<stop offset="0.229" style="stop-color:rgb(53.72549%,32.156863%,89.803922%);stop-opacity:1;"/>
<stop offset="0.55" style="stop-color:rgb(61.960784%,43.529412%,94.117647%);stop-opacity:1;"/>
<stop offset="0.735" style="stop-color:rgb(65.098039%,47.843137%,95.686275%);stop-opacity:1;"/>
</linearGradient>
<linearGradient id="linear1" gradientUnits="userSpaceOnUse" x1="9" y1="17.514" x2="9" y2="11.713" gradientTransform="matrix(3.888889,0,0,3.888889,0,0)">
<stop offset="0" style="stop-color:rgb(46.666667%,22.745098%,86.27451%);stop-opacity:1;"/>
<stop offset="0.735" style="stop-color:rgb(65.098039%,47.843137%,95.686275%);stop-opacity:1;"/>
</linearGradient>
</defs>
<g id="surface1">
<path style=" stroke:none;fill-rule:nonzero;fill:url(#linear0);" d="M 19.832031 16.382813 L 33.832031 2.378906 C 34.484375 1.726563 35.542969 1.726563 36.199219 2.378906 L 50.199219 16.378906 C 50.410156 16.59375 50.476563 16.914063 50.359375 17.191406 C 50.246094 17.472656 49.976563 17.65625 49.671875 17.65625 L 41.046875 17.65625 C 40.847656 17.65625 40.660156 17.730469 40.519531 17.871094 C 40.378906 18.011719 40.300781 18.199219 40.300781 18.398438 L 40.300781 35.898438 C 40.296875 36.226563 40.035156 36.492188 39.707031 36.492188 L 30.292969 36.492188 C 29.964844 36.492188 29.703125 36.226563 29.699219 35.898438 L 29.699219 18.398438 C 29.699219 18.199219 29.621094 18.011719 29.480469 17.871094 C 29.339844 17.730469 29.152344 17.65625 28.953125 17.65625 L 20.339844 17.65625 C 20.042969 17.644531 19.78125 17.460938 19.671875 17.183594 C 19.558594 16.910156 19.625 16.59375 19.832031 16.382813 Z M 19.832031 16.382813 "/>
<path style=" stroke:none;fill-rule:nonzero;fill:url(#linear1);" d="M 2.257813 45.550781 L 67.742188 45.550781 C 68.988281 45.550781 70 46.5625 70 47.808594 L 70 65.851563 C 70 67.097656 68.988281 68.109375 67.742188 68.109375 L 2.257813 68.109375 C 1.011719 68.109375 0 67.097656 0 65.851563 L 0 47.808594 C 0 46.5625 1.011719 45.550781 2.257813 45.550781 Z M 2.257813 45.550781 "/>
<path style=" stroke:none;fill-rule:nonzero;fill:rgb(100%,100%,100%);fill-opacity:1;" d="M 12.601563 51.261719 L 22.40625 51.261719 C 22.933594 51.261719 23.359375 51.691406 23.359375 52.214844 L 23.359375 62.023438 C 23.359375 62.550781 22.933594 62.976563 22.40625 62.976563 L 12.601563 62.976563 C 12.074219 62.976563 11.648438 62.550781 11.648438 62.023438 L 11.648438 52.214844 C 11.648438 51.691406 12.074219 51.261719 12.601563 51.261719 Z M 12.601563 51.261719 "/>
<path style=" stroke:none;fill-rule:nonzero;fill:rgb(70.588235%,92.54902%,21.176471%);fill-opacity:1;" d="M 30.097656 51.261719 L 39.902344 51.261719 C 40.429688 51.261719 40.855469 51.691406 40.855469 52.214844 L 40.855469 62.023438 C 40.855469 62.550781 40.429688 62.976563 39.902344 62.976563 L 30.097656 62.976563 C 29.570313 62.976563 29.144531 62.550781 29.144531 62.023438 L 29.144531 52.214844 C 29.144531 51.691406 29.570313 51.261719 30.097656 51.261719 Z M 30.097656 51.261719 "/>
<path style=" stroke:none;fill-rule:nonzero;fill:rgb(70.588235%,92.54902%,21.176471%);fill-opacity:1;" d="M 47.59375 51.261719 L 57.398438 51.261719 C 57.925781 51.261719 58.351563 51.691406 58.351563 52.214844 L 58.351563 62.023438 C 58.351563 62.550781 57.925781 62.976563 57.398438 62.976563 L 47.59375 62.976563 C 47.066406 62.976563 46.640625 62.550781 46.640625 62.023438 L 46.640625 52.214844 C 46.640625 51.691406 47.066406 51.261719 47.59375 51.261719 Z M 47.59375 51.261719 "/>
</g>
</svg>
