<?xml version="1.0" encoding="UTF-8"?>
<svg xmlns="http://www.w3.org/2000/svg" xmlns:xlink="http://www.w3.org/1999/xlink" width="70pt" height="70pt" viewBox="0 0 70 70" version="1.1">
<defs>
<radialGradient id="radial0" gradientUnits="userSpaceOnUse" cx="46.42" cy="43.21" fx="46.42" fy="43.21" r="9" gradientTransform="matrix(3.655556,0,0,3.655556,-135.488889,-123.705556)">
<stop offset="0.18" style="stop-color:rgb(36.862745%,62.745098%,93.72549%);stop-opacity:1;"/>
<stop offset="0.56" style="stop-color:rgb(36.078431%,62.352941%,93.333333%);stop-opacity:1;"/>
<stop offset="0.69" style="stop-color:rgb(33.333333%,61.176471%,92.941176%);stop-opacity:1;"/>
<stop offset="0.78" style="stop-color:rgb(29.019608%,59.215686%,91.372549%);stop-opacity:1;"/>
<stop offset="0.86" style="stop-color:rgb(22.352941%,56.470588%,89.411765%);stop-opacity:1;"/>
<stop offset="0.93" style="stop-color:rgb(13.72549%,52.941176%,87.058824%);stop-opacity:1;"/>
<stop offset="0.99" style="stop-color:rgb(3.137255%,48.235294%,83.921569%);stop-opacity:1;"/>
<stop offset="1" style="stop-color:rgb(0%,47.058824%,83.137255%);stop-opacity:1;"/>
</radialGradient>
<clipPath id="clip1">
  <path d="M 34 17 L 51 17 L 51 46 L 34 46 Z M 34 17 "/>
</clipPath>
<clipPath id="clip2">
  <path d="M 41.144531 32.433594 L 50.554688 42.464844 C 50.863281 42.796875 50.863281 43.304688 50.554688 43.632813 L 48.726563 45.539063 C 48.582031 45.707031 48.367188 45.800781 48.144531 45.800781 C 47.921875 45.800781 47.707031 45.707031 47.5625 45.539063 L 35 32.433594 C 34.800781 32.269531 34.6875 32.027344 34.6875 31.773438 C 34.6875 31.515625 34.800781 31.273438 35 31.109375 L 47.25 18.199219 C 47.398438 18.03125 47.609375 17.9375 47.832031 17.9375 C 48.054688 17.9375 48.269531 18.03125 48.417969 18.199219 L 50.246094 20.105469 C 50.554688 20.445313 50.554688 20.96875 50.246094 21.3125 L 41.144531 31.109375 C 40.945313 31.273438 40.832031 31.515625 40.832031 31.773438 C 40.832031 32.027344 40.945313 32.269531 41.144531 32.433594 Z M 41.144531 32.433594 "/>
</clipPath>
<clipPath id="clip3">
  <path d="M 37 31 L 51 31 L 51 46 L 37 46 Z M 37 31 "/>
</clipPath>
<clipPath id="clip4">
  <path d="M 41.144531 32.433594 L 50.554688 42.464844 C 50.863281 42.796875 50.863281 43.304688 50.554688 43.632813 L 48.726563 45.539063 C 48.582031 45.707031 48.367188 45.800781 48.144531 45.800781 C 47.921875 45.800781 47.707031 45.707031 47.5625 45.539063 L 35 32.433594 C 34.800781 32.269531 34.6875 32.027344 34.6875 31.773438 C 34.6875 31.515625 34.800781 31.273438 35 31.109375 L 47.25 18.199219 C 47.398438 18.03125 47.609375 17.9375 47.832031 17.9375 C 48.054688 17.9375 48.269531 18.03125 48.417969 18.199219 L 50.246094 20.105469 C 50.554688 20.445313 50.554688 20.96875 50.246094 21.3125 L 41.144531 31.109375 C 40.945313 31.273438 40.832031 31.515625 40.832031 31.773438 C 40.832031 32.027344 40.945313 32.269531 41.144531 32.433594 Z M 41.144531 32.433594 "/>
</clipPath>
<clipPath id="clip5">
  <path d="M 17 24 L 34 24 L 34 52 L 17 52 Z M 17 24 "/>
</clipPath>
<clipPath id="clip6">
  <path d="M 27.648438 38.539063 L 18.199219 48.535156 C 17.886719 48.875 17.886719 49.398438 18.199219 49.738281 L 20.027344 51.644531 C 20.175781 51.8125 20.386719 51.90625 20.609375 51.90625 C 20.835938 51.90625 21.046875 51.8125 21.195313 51.644531 L 33.640625 38.539063 C 33.945313 38.210938 33.945313 37.699219 33.640625 37.371094 L 21.390625 24.460938 C 21.242188 24.292969 21.027344 24.199219 20.804688 24.199219 C 20.582031 24.199219 20.371094 24.292969 20.222656 24.460938 L 18.394531 26.367188 C 18.089844 26.695313 18.089844 27.203125 18.394531 27.535156 L 27.648438 37.371094 C 27.816406 37.519531 27.914063 37.730469 27.914063 37.957031 C 27.914063 38.179688 27.816406 38.390625 27.648438 38.539063 Z M 27.648438 38.539063 "/>
</clipPath>
<clipPath id="clip7">
  <path d="M 17 37 L 32 37 L 32 52 L 17 52 Z M 17 37 "/>
</clipPath>
<clipPath id="clip8">
  <path d="M 27.648438 38.539063 L 18.199219 48.535156 C 17.886719 48.875 17.886719 49.398438 18.199219 49.738281 L 20.027344 51.644531 C 20.175781 51.8125 20.386719 51.90625 20.609375 51.90625 C 20.835938 51.90625 21.046875 51.8125 21.195313 51.644531 L 33.640625 38.539063 C 33.945313 38.210938 33.945313 37.699219 33.640625 37.371094 L 21.390625 24.460938 C 21.242188 24.292969 21.027344 24.199219 20.804688 24.199219 C 20.582031 24.199219 20.371094 24.292969 20.222656 24.460938 L 18.394531 26.367188 C 18.089844 26.695313 18.089844 27.203125 18.394531 27.535156 L 27.648438 37.371094 C 27.816406 37.519531 27.914063 37.730469 27.914063 37.957031 C 27.914063 38.179688 27.816406 38.390625 27.648438 38.539063 Z M 27.648438 38.539063 "/>
</clipPath>
</defs>
<g id="surface1">
<path style=" stroke:none;fill-rule:nonzero;fill:url(#radial0);" d="M 68.054688 35 C 68.054688 53.257813 53.257813 68.054688 35 68.054688 C 16.742188 68.054688 1.945313 53.257813 1.945313 35 C 1.945313 16.742188 16.742188 1.945313 35 1.945313 C 53.257813 1.945313 68.054688 16.742188 68.054688 35 Z M 68.054688 35 "/>
<path style=" stroke:none;fill-rule:nonzero;fill:rgb(100%,100%,100%);fill-opacity:1;" d="M 63.777344 35 C 63.777344 50.894531 50.894531 63.777344 35 63.777344 C 19.105469 63.777344 6.222656 50.894531 6.222656 35 C 6.222656 19.105469 19.105469 6.222656 35 6.222656 C 50.894531 6.222656 63.777344 19.105469 63.777344 35 Z M 63.777344 35 "/>
<g clip-path="url(#clip1)" clip-rule="nonzero">
<g clip-path="url(#clip2)" clip-rule="nonzero">
<path style=" stroke:none;fill-rule:nonzero;fill:rgb(36.862745%,58.823529%,14.117647%);fill-opacity:1;" d="M 40.5625 31.851563 L 51.179688 43.050781 L 48.183594 46.160156 L 34.570313 31.851563 L 47.988281 17.734375 L 50.984375 20.84375 Z M 40.5625 31.851563 "/>
</g>
</g>
<g clip-path="url(#clip3)" clip-rule="nonzero">
<g clip-path="url(#clip4)" clip-rule="nonzero">
<path style=" stroke:none;fill-rule:nonzero;fill:rgb(52.54902%,83.921569%,20%);fill-opacity:1;" d="M 51.179688 43.050781 L 40.5625 31.851563 L 37.605469 34.960938 L 48.183594 46.160156 Z M 51.179688 43.050781 "/>
</g>
</g>
<g clip-path="url(#clip5)" clip-rule="nonzero">
<g clip-path="url(#clip6)" clip-rule="nonzero">
<path style=" stroke:none;fill-rule:nonzero;fill:rgb(36.862745%,58.823529%,14.117647%);fill-opacity:1;" d="M 28.234375 37.957031 L 17.65625 49.15625 L 20.609375 52.265625 L 34.222656 37.957031 L 20.804688 23.839844 L 17.8125 26.949219 Z M 28.234375 37.957031 "/>
</g>
</g>
<g clip-path="url(#clip7)" clip-rule="nonzero">
<g clip-path="url(#clip8)" clip-rule="nonzero">
<path style=" stroke:none;fill-rule:nonzero;fill:rgb(52.54902%,83.921569%,20%);fill-opacity:1;" d="M 17.65625 49.15625 L 28.234375 37.957031 L 31.1875 41.066406 L 20.609375 52.265625 Z M 17.65625 49.15625 "/>
</g>
</g>
</g>
</svg>
