<?xml version="1.0" encoding="UTF-8"?>
<svg xmlns="http://www.w3.org/2000/svg" xmlns:xlink="http://www.w3.org/1999/xlink" width="70pt" height="70pt" viewBox="0 0 70 70" version="1.1">
<defs>
<linearGradient id="linear0" gradientUnits="userSpaceOnUse" x1="-655.644" y1="751.401" x2="-655.644" y2="763.239" gradientTransform="matrix(0.000000000000000238,-3.888889,3.888889,0.000000000000000238,-2898.151667,-2493.431111)">
<stop offset="0" style="stop-color:rgb(46.27451%,73.72549%,17.647059%);stop-opacity:1;"/>
<stop offset="0.312" style="stop-color:rgb(44.705882%,71.372549%,17.254902%);stop-opacity:1;"/>
<stop offset="1" style="stop-color:rgb(36.862745%,58.823529%,14.117647%);stop-opacity:1;"/>
</linearGradient>
<linearGradient id="linear1" gradientUnits="userSpaceOnUse" x1="-650.227" y1="759.495" x2="-650.227" y2="763.239" gradientTransform="matrix(0.000000000000000238,-3.888889,3.888889,0.000000000000000238,-2898.155556,-2493.431111)">
<stop offset="0" style="stop-color:rgb(46.27451%,73.72549%,17.647059%);stop-opacity:1;"/>
<stop offset="0.312" style="stop-color:rgb(44.705882%,71.372549%,17.254902%);stop-opacity:1;"/>
<stop offset="1" style="stop-color:rgb(36.862745%,58.823529%,14.117647%);stop-opacity:1;"/>
</linearGradient>
<linearGradient id="linear2" gradientUnits="userSpaceOnUse" x1="-644.724" y1="751.401" x2="-644.724" y2="763.239" gradientTransform="matrix(0.000000000000000238,-3.888889,3.888889,0.000000000000000238,-2898.155556,-2493.431111)">
<stop offset="0" style="stop-color:rgb(46.27451%,73.72549%,17.647059%);stop-opacity:1;"/>
<stop offset="0.312" style="stop-color:rgb(44.705882%,71.372549%,17.254902%);stop-opacity:1;"/>
<stop offset="1" style="stop-color:rgb(36.862745%,58.823529%,14.117647%);stop-opacity:1;"/>
</linearGradient>
</defs>
<g id="surface1">
<path style=" stroke:none;fill-rule:nonzero;fill:rgb(36.862745%,58.823529%,14.117647%);fill-opacity:1;" d="M 0 58.828125 L 0 53.765625 C 0 52.484375 1.039063 51.445313 2.316406 51.445313 L 67.683594 51.445313 C 68.960938 51.445313 70 52.484375 70 53.765625 L 70 58.828125 C 70 60.105469 68.960938 61.144531 67.683594 61.144531 L 2.316406 61.144531 C 1.039063 61.144531 0 60.105469 0 58.828125 Z M 0 58.828125 "/>
<path style=" stroke:none;fill-rule:nonzero;fill:rgb(36.862745%,58.823529%,14.117647%);fill-opacity:1;" d="M 0 37.761719 L 0 32.699219 C 0 31.417969 1.039063 30.378906 2.316406 30.378906 L 67.683594 30.378906 C 68.960938 30.378906 70 31.417969 70 32.699219 L 70 37.761719 C 70 39.042969 68.960938 40.078125 67.683594 40.078125 L 2.316406 40.078125 C 1.039063 40.078125 0 39.042969 0 37.761719 Z M 0 37.761719 "/>
<path style=" stroke:none;fill-rule:nonzero;fill:rgb(36.862745%,58.823529%,14.117647%);fill-opacity:1;" d="M 0 16.359375 L 0 11.296875 C 0 10.015625 1.039063 8.980469 2.316406 8.980469 L 67.683594 8.980469 C 68.960938 8.980469 70 10.015625 70 11.296875 L 70 16.359375 C 70 17.640625 68.960938 18.679688 67.683594 18.679688 L 2.316406 18.679688 C 1.039063 18.679688 0 17.640625 0 16.359375 Z M 0 16.359375 "/>
<path style=" stroke:none;fill-rule:nonzero;fill:url(#linear0);" d="M 23.964844 58.828125 L 23.964844 53.765625 C 23.964844 52.484375 25 51.445313 26.28125 51.445313 L 67.683594 51.445313 C 68.960938 51.445313 70 52.484375 70 53.765625 L 70 58.828125 C 70 60.105469 68.960938 61.144531 67.683594 61.144531 L 26.28125 61.144531 C 25 61.144531 23.964844 60.105469 23.964844 58.828125 Z M 23.964844 58.828125 "/>
<path style=" stroke:none;fill-rule:nonzero;fill:url(#linear1);" d="M 55.4375 37.761719 L 55.4375 32.699219 C 55.4375 31.417969 56.472656 30.378906 57.753906 30.378906 L 67.679688 30.378906 C 68.957031 30.378906 69.996094 31.417969 69.996094 32.699219 L 69.996094 37.761719 C 69.996094 39.042969 68.957031 40.078125 67.679688 40.078125 L 57.753906 40.078125 C 56.472656 40.078125 55.4375 39.042969 55.4375 37.761719 Z M 55.4375 37.761719 "/>
<path style=" stroke:none;fill-rule:nonzero;fill:url(#linear2);" d="M 23.964844 16.359375 L 23.964844 11.296875 C 23.964844 10.015625 25 8.980469 26.28125 8.980469 L 67.683594 8.980469 C 68.960938 8.980469 70 10.015625 70 11.296875 L 70 16.359375 C 70 17.640625 68.960938 18.679688 67.683594 18.679688 L 26.28125 18.679688 C 25 18.679688 23.964844 17.640625 23.964844 16.359375 Z M 23.964844 16.359375 "/>
<path style=" stroke:none;fill-rule:nonzero;fill:rgb(90.196078%,90.196078%,90.196078%);fill-opacity:1;" d="M 23.464844 61.203125 L 23.464844 51.140625 C 23.464844 49.875 24.492188 48.847656 25.757813 48.847656 C 27.019531 48.847656 28.046875 49.875 28.046875 51.140625 L 28.046875 61.203125 C 28.046875 62.46875 27.019531 63.492188 25.757813 63.492188 C 24.492188 63.492188 23.464844 62.46875 23.464844 61.203125 Z M 23.464844 61.203125 "/>
<path style=" stroke:none;fill-rule:nonzero;fill:rgb(90.196078%,90.196078%,90.196078%);fill-opacity:1;" d="M 54.308594 40.0625 L 54.308594 30 C 54.308594 28.734375 55.332031 27.707031 56.597656 27.707031 C 57.863281 27.707031 58.890625 28.734375 58.890625 30 L 58.890625 40.0625 C 58.890625 41.328125 57.863281 42.355469 56.597656 42.355469 C 55.332031 42.355469 54.308594 41.328125 54.308594 40.0625 Z M 54.308594 40.0625 "/>
<path style=" stroke:none;fill-rule:nonzero;fill:rgb(90.196078%,90.196078%,90.196078%);fill-opacity:1;" d="M 23.464844 18.859375 L 23.464844 8.796875 C 23.464844 7.53125 24.492188 6.507813 25.757813 6.507813 C 27.019531 6.507813 28.046875 7.53125 28.046875 8.796875 L 28.046875 18.859375 C 28.046875 20.125 27.019531 21.152344 25.757813 21.152344 C 24.492188 21.152344 23.464844 20.125 23.464844 18.859375 Z M 23.464844 18.859375 "/>
</g>
</svg>
