<?xml version="1.0" encoding="UTF-8"?>
<svg xmlns="http://www.w3.org/2000/svg" xmlns:xlink="http://www.w3.org/1999/xlink" width="70pt" height="70pt" viewBox="0 0 70 70" version="1.1">
<defs>
<linearGradient id="linear0" gradientUnits="userSpaceOnUse" x1="3.524" y1="6.162" x2="3.524" y2="18" gradientTransform="matrix(3.888889,0,0,3.888889,0,0)">
<stop offset="0.17" style="stop-color:rgb(31.372549%,90.196078%,100%);stop-opacity:1;"/>
<stop offset="0.635" style="stop-color:rgb(23.921569%,80.392157%,91.764706%);stop-opacity:1;"/>
<stop offset="1" style="stop-color:rgb(19.607843%,74.509804%,86.666667%);stop-opacity:1;"/>
</linearGradient>
<linearGradient id="linear1" gradientUnits="userSpaceOnUse" x1="8.941" y1="14.256" x2="8.941" y2="0" gradientTransform="matrix(3.888889,0,0,3.888889,0,0)">
<stop offset="0.17" style="stop-color:rgb(31.372549%,90.196078%,100%);stop-opacity:1;"/>
<stop offset="0.635" style="stop-color:rgb(23.921569%,80.392157%,91.764706%);stop-opacity:1;"/>
<stop offset="1" style="stop-color:rgb(19.607843%,74.509804%,86.666667%);stop-opacity:1;"/>
</linearGradient>
<linearGradient id="linear2" gradientUnits="userSpaceOnUse" x1="14.444" y1="6.162" x2="14.444" y2="0" gradientTransform="matrix(3.888889,0,0,3.888889,0,0)">
<stop offset="0.17" style="stop-color:rgb(31.372549%,90.196078%,100%);stop-opacity:1;"/>
<stop offset="0.635" style="stop-color:rgb(23.921569%,80.392157%,91.764706%);stop-opacity:1;"/>
<stop offset="1" style="stop-color:rgb(19.607843%,74.509804%,86.666667%);stop-opacity:1;"/>
</linearGradient>
</defs>
<g id="surface1">
<path style=" stroke:none;fill-rule:nonzero;fill:rgb(0%,47.058824%,83.137255%);fill-opacity:1;" d="M 11.167969 0 L 16.230469 0 C 17.511719 0 18.550781 1.039063 18.550781 2.316406 L 18.550781 67.683594 C 18.550781 68.960938 17.511719 70 16.230469 70 L 11.167969 70 C 9.890625 70 8.851563 68.960938 8.851563 67.683594 L 8.851563 2.316406 C 8.851563 1.039063 9.890625 0 11.167969 0 Z M 11.167969 0 "/>
<path style=" stroke:none;fill-rule:nonzero;fill:rgb(0%,47.058824%,83.137255%);fill-opacity:1;" d="M 32.234375 0 L 37.296875 0 C 38.578125 0 39.617188 1.039063 39.617188 2.316406 L 39.617188 67.683594 C 39.617188 68.960938 38.578125 70 37.296875 70 L 32.234375 70 C 30.953125 70 29.917969 68.960938 29.917969 67.683594 L 29.917969 2.316406 C 29.917969 1.039063 30.953125 0 32.234375 0 Z M 32.234375 0 "/>
<path style=" stroke:none;fill-rule:nonzero;fill:rgb(0%,47.058824%,83.137255%);fill-opacity:1;" d="M 53.640625 0 L 58.703125 0 C 59.984375 0 61.019531 1.039063 61.019531 2.316406 L 61.019531 67.683594 C 61.019531 68.960938 59.984375 70 58.703125 70 L 53.640625 70 C 52.359375 70 51.320313 68.960938 51.320313 67.683594 L 51.320313 2.316406 C 51.320313 1.039063 52.359375 0 53.640625 0 Z M 53.640625 0 "/>
<path style=" stroke:none;fill-rule:nonzero;fill:url(#linear0);" d="M 11.167969 23.964844 L 16.230469 23.964844 C 17.511719 23.964844 18.550781 25 18.550781 26.28125 L 18.550781 67.683594 C 18.550781 68.960938 17.511719 70 16.230469 70 L 11.167969 70 C 9.890625 70 8.851563 68.960938 8.851563 67.683594 L 8.851563 26.28125 C 8.851563 25 9.890625 23.964844 11.167969 23.964844 Z M 11.167969 23.964844 "/>
<path style=" stroke:none;fill-rule:nonzero;fill:url(#linear1);" d="M 32.234375 55.441406 L 37.296875 55.441406 C 38.578125 55.441406 39.617188 56.476563 39.617188 57.757813 L 39.617188 67.683594 C 39.617188 68.960938 38.578125 70 37.296875 70 L 32.234375 70 C 30.953125 70 29.917969 68.960938 29.917969 67.683594 L 29.917969 57.757813 C 29.917969 56.476563 30.953125 55.441406 32.234375 55.441406 Z M 32.234375 55.441406 "/>
<path style=" stroke:none;fill-rule:nonzero;fill:url(#linear2);" d="M 53.640625 23.964844 L 58.703125 23.964844 C 59.984375 23.964844 61.019531 25 61.019531 26.28125 L 61.019531 67.683594 C 61.019531 68.960938 59.984375 70 58.703125 70 L 53.640625 70 C 52.359375 70 51.320313 68.960938 51.320313 67.683594 L 51.320313 26.28125 C 51.320313 25 52.359375 23.964844 53.640625 23.964844 Z M 53.640625 23.964844 "/>
<path style=" stroke:none;fill-rule:nonzero;fill:rgb(90.196078%,90.196078%,90.196078%);fill-opacity:1;" d="M 8.796875 23.464844 L 18.859375 23.464844 C 20.125 23.464844 21.152344 24.492188 21.152344 25.757813 C 21.152344 27.019531 20.125 28.046875 18.859375 28.046875 L 8.796875 28.046875 C 7.53125 28.046875 6.507813 27.019531 6.507813 25.757813 C 6.507813 24.492188 7.53125 23.464844 8.796875 23.464844 Z M 8.796875 23.464844 "/>
<path style=" stroke:none;fill-rule:nonzero;fill:rgb(90.196078%,90.196078%,90.196078%);fill-opacity:1;" d="M 29.9375 54.308594 L 40 54.308594 C 41.265625 54.308594 42.292969 55.332031 42.292969 56.597656 C 42.292969 57.863281 41.265625 58.890625 40 58.890625 L 29.9375 58.890625 C 28.671875 58.890625 27.644531 57.863281 27.644531 56.597656 C 27.644531 55.332031 28.671875 54.308594 29.9375 54.308594 Z M 29.9375 54.308594 "/>
<path style=" stroke:none;fill-rule:nonzero;fill:rgb(90.196078%,90.196078%,90.196078%);fill-opacity:1;" d="M 51.140625 23.464844 L 61.203125 23.464844 C 62.46875 23.464844 63.492188 24.492188 63.492188 25.757813 C 63.492188 27.019531 62.46875 28.046875 61.203125 28.046875 L 51.140625 28.046875 C 49.875 28.046875 48.847656 27.019531 48.847656 25.757813 C 48.847656 24.492188 49.875 23.464844 51.140625 23.464844 Z M 51.140625 23.464844 "/>
</g>
</svg>
