<?xml version="1.0" encoding="UTF-8"?>
<svg xmlns="http://www.w3.org/2000/svg" xmlns:xlink="http://www.w3.org/1999/xlink" width="70pt" height="70pt" viewBox="0 0 70 70" version="1.1">
<defs>
<radialGradient id="radial0" gradientUnits="userSpaceOnUse" cx="9.477" cy="9.576" fx="9.477" fy="9.576" r="7.889" gradientTransform="matrix(3.888889,0,0,3.888889,0,0)">
<stop offset="0.669" style="stop-color:rgb(46.27451%,73.72549%,17.647059%);stop-opacity:1;"/>
<stop offset="0.787" style="stop-color:rgb(43.921569%,69.803922%,16.862745%);stop-opacity:1;"/>
<stop offset="0.985" style="stop-color:rgb(37.254902%,59.607843%,14.509804%);stop-opacity:1;"/>
<stop offset="1" style="stop-color:rgb(36.862745%,58.823529%,14.117647%);stop-opacity:1;"/>
</radialGradient>
</defs>
<g id="surface1">
<path style=" stroke:none;fill-rule:nonzero;fill:rgb(46.27451%,73.72549%,17.647059%);fill-opacity:1;" d="M 45.144531 38.1875 C 43.246094 36.410156 40.976563 35.070313 38.5 34.261719 L 38.5 26.949219 C 40.628906 27.25 42.671875 27.972656 44.515625 29.078125 C 44.675781 29.171875 44.875 29.171875 45.039063 29.078125 C 45.199219 28.988281 45.300781 28.816406 45.300781 28.628906 L 45.300781 22.746094 C 45.300781 22.558594 45.199219 22.386719 45.039063 22.296875 C 42.992188 21.328125 40.761719 20.808594 38.5 20.777344 L 38.5 17.300781 C 38.5 17.164063 38.445313 17.03125 38.351563 16.933594 C 38.253906 16.835938 38.121094 16.785156 37.984375 16.785156 L 34.8125 16.785156 C 34.675781 16.785156 34.542969 16.835938 34.445313 16.933594 C 34.347656 17.03125 34.296875 17.164063 34.296875 17.300781 L 34.296875 20.882813 C 31.992188 21.152344 29.835938 22.160156 28.152344 23.757813 C 26.453125 25.375 25.507813 27.632813 25.550781 29.980469 C 25.453125 32.164063 26.21875 34.296875 27.675781 35.921875 C 29.574219 37.6875 31.828125 39.019531 34.289063 39.832031 L 34.289063 46.832031 C 33 46.660156 31.738281 46.34375 30.523438 45.886719 C 29.242188 45.488281 28.035156 44.886719 26.949219 44.097656 C 26.792969 43.984375 26.582031 43.96875 26.410156 44.054688 C 26.238281 44.144531 26.128906 44.320313 26.128906 44.515625 L 26.128906 50.554688 C 26.128906 50.75 26.234375 50.925781 26.40625 51.015625 C 28.84375 52.289063 31.539063 52.992188 34.289063 53.070313 L 34.289063 57.167969 C 34.289063 57.304688 34.34375 57.433594 34.441406 57.53125 C 34.539063 57.628906 34.667969 57.679688 34.804688 57.679688 L 37.960938 57.679688 C 38.101563 57.6875 38.238281 57.636719 38.339844 57.539063 C 38.441406 57.441406 38.5 57.308594 38.5 57.167969 L 38.5 52.890625 C 40.882813 52.667969 43.128906 51.691406 44.917969 50.105469 C 46.542969 48.472656 47.417969 46.234375 47.324219 43.929688 C 47.382813 41.804688 46.601563 39.738281 45.144531 38.1875 Z M 40.535156 44.171875 L 40.535156 44.207031 C 40.609375 45.445313 39.714844 46.53125 38.484375 46.691406 L 38.484375 41.554688 C 39.828125 42.296875 40.519531 43.167969 40.535156 44.171875 Z M 32.328125 29.613281 C 32.253906 28.398438 33.097656 27.320313 34.296875 27.101563 L 34.296875 32.492188 C 33.160156 31.96875 32.402344 30.863281 32.328125 29.613281 Z M 32.328125 29.613281 "/>
<path style=" stroke:none;fill-rule:nonzero;fill:rgb(96.862745%,55.294118%,11.764706%);fill-opacity:1;" d="M 13.820313 33.039063 C 13.820313 36.320313 11.164063 38.976563 7.882813 38.976563 C 4.601563 38.976563 1.945313 36.320313 1.945313 33.039063 C 1.945313 29.761719 4.601563 27.101563 7.882813 27.101563 C 11.164063 27.101563 13.820313 29.761719 13.820313 33.039063 Z M 13.820313 33.039063 "/>
<path style=" stroke:none;fill-rule:nonzero;fill:rgb(96.862745%,55.294118%,11.764706%);fill-opacity:1;" d="M 21.890625 15.292969 C 21.890625 18.570313 19.230469 21.230469 15.953125 21.230469 C 12.671875 21.230469 10.015625 18.570313 10.015625 15.292969 C 10.015625 12.011719 12.671875 9.351563 15.953125 9.351563 C 19.230469 9.351563 21.890625 12.011719 21.890625 15.292969 Z M 21.890625 15.292969 "/>
<path style=" stroke:none;fill-rule:nonzero;fill:url(#radial0);" d="M 45.25 7.355469 C 44.039063 7.019531 42.8125 6.757813 41.566406 6.574219 C 41.855469 8.132813 41.5 9.738281 40.589844 11.03125 C 52.804688 12.726563 62.242188 22.613281 63.371094 34.894531 C 64.5 47.175781 57.023438 58.613281 45.320313 62.507813 C 33.617188 66.398438 20.773438 61.71875 14.324219 51.207031 L 16.65625 50.332031 C 16.828125 50.269531 16.953125 50.117188 16.984375 49.9375 C 17.015625 49.753906 16.945313 49.570313 16.804688 49.453125 L 8.445313 42.5625 C 8.304688 42.445313 8.109375 42.414063 7.933594 42.476563 C 7.761719 42.542969 7.636719 42.695313 7.605469 42.878906 L 5.863281 53.5625 C 5.835938 53.742188 5.902344 53.929688 6.046875 54.046875 C 6.191406 54.164063 6.382813 54.195313 6.558594 54.128906 L 9.992188 52.839844 C 17 65.023438 31.308594 70.992188 44.898438 67.402344 C 58.488281 63.816406 67.984375 51.5625 68.066406 37.507813 C 68.148438 23.449219 58.796875 11.085938 45.25 7.339844 Z M 45.25 7.355469 "/>
<path style=" stroke:none;fill-rule:nonzero;fill:rgb(96.862745%,55.294118%,11.764706%);fill-opacity:1;" d="M 39.25 7.496094 C 39.25 10.777344 36.59375 13.4375 33.3125 13.4375 C 30.03125 13.4375 27.375 10.777344 27.375 7.496094 C 27.375 4.21875 30.03125 1.558594 33.3125 1.558594 C 36.59375 1.558594 39.25 4.21875 39.25 7.496094 Z M 39.25 7.496094 "/>
</g>
</svg>
