<?xml version="1.0" encoding="UTF-8"?>
<svg xmlns="http://www.w3.org/2000/svg" xmlns:xlink="http://www.w3.org/1999/xlink" width="70pt" height="70pt" viewBox="0 0 70 70" version="1.1">
<defs>
<filter id="alpha" filterUnits="objectBoundingBox" x="0%" y="0%" width="100%" height="100%">
  <feColorMatrix type="matrix" in="SourceGraphic" values="0 0 0 0 1 0 0 0 0 1 0 0 0 0 1 0 0 0 1 0"/>
</filter>
<mask id="mask0">
  <g filter="url(#alpha)">
<rect x="0" y="0" width="70" height="70" style="fill:rgb(0%,0%,0%);fill-opacity:0.74902;stroke:none;"/>
  </g>
</mask>
<clipPath id="clip1">
  <rect x="0" y="0" width="70" height="70"/>
</clipPath>
<g id="surface5" clip-path="url(#clip1)">
<path style=" stroke:none;fill-rule:nonzero;fill:rgb(100%,100%,100%);fill-opacity:1;" d="M 28.183594 17.703125 L 41.855469 17.703125 C 42.515625 17.703125 43.050781 18.238281 43.050781 18.894531 L 43.050781 51.101563 C 43.050781 51.757813 42.515625 52.292969 41.855469 52.292969 L 28.183594 52.292969 C 27.523438 52.292969 26.988281 51.757813 26.988281 51.101563 L 26.988281 18.894531 C 26.988281 18.238281 27.523438 17.703125 28.183594 17.703125 Z M 28.183594 17.703125 "/>
</g>
<mask id="mask1">
  <g filter="url(#alpha)">
<rect x="0" y="0" width="70" height="70" style="fill:rgb(0%,0%,0%);fill-opacity:0.501961;stroke:none;"/>
  </g>
</mask>
<clipPath id="clip2">
  <rect x="0" y="0" width="70" height="70"/>
</clipPath>
<g id="surface8" clip-path="url(#clip2)">
<path style=" stroke:none;fill-rule:nonzero;fill:rgb(100%,100%,100%);fill-opacity:1;" d="M 47.949219 17.703125 L 61.625 17.703125 C 62.28125 17.703125 62.816406 18.238281 62.816406 18.894531 L 62.816406 51.101563 C 62.816406 51.757813 62.28125 52.292969 61.625 52.292969 L 47.949219 52.292969 C 47.289063 52.292969 46.757813 51.757813 46.757813 51.101563 L 46.757813 18.894531 C 46.757813 18.238281 47.289063 17.703125 47.949219 17.703125 Z M 47.949219 17.703125 "/>
</g>
</defs>
<g id="surface1">
<path style=" stroke:none;fill-rule:nonzero;fill:rgb(0%,47.058824%,83.137255%);fill-opacity:1;" d="M 68.054688 22.507813 L 68.054688 10.632813 C 68.054688 9.414063 67.066406 8.421875 65.847656 8.421875 L 4.164063 8.421875 C 3.578125 8.421875 3.011719 8.652344 2.59375 9.066406 C 2.179688 9.480469 1.945313 10.042969 1.945313 10.632813 L 1.945313 59.367188 C 1.945313 60.585938 2.933594 61.578125 4.152344 61.578125 L 65.847656 61.578125 C 67.066406 61.578125 68.054688 60.585938 68.054688 59.367188 Z M 68.054688 22.507813 "/>
<path style=" stroke:none;fill-rule:nonzero;fill:rgb(100%,100%,100%);fill-opacity:1;" d="M 8.414063 17.703125 L 22.089844 17.703125 C 22.75 17.703125 23.28125 18.238281 23.28125 18.894531 L 23.28125 51.101563 C 23.28125 51.757813 22.75 52.292969 22.089844 52.292969 L 8.414063 52.292969 C 7.757813 52.292969 7.222656 51.757813 7.222656 51.101563 L 7.222656 18.894531 C 7.222656 18.238281 7.757813 17.703125 8.414063 17.703125 Z M 8.414063 17.703125 "/>
<use xlink:href="#surface5" mask="url(#mask0)"/>
<use xlink:href="#surface8" mask="url(#mask1)"/>
<path style=" stroke:none;fill-rule:nonzero;fill:rgb(0%,47.058824%,83.137255%);fill-opacity:1;" d="M 15.167969 43.167969 C 11.417969 43.167969 9.542969 40.535156 9.542969 35.269531 C 9.402344 33.082031 9.929688 30.902344 11.0625 29.023438 C 12.066406 27.59375 13.730469 26.78125 15.472656 26.875 C 19.132813 26.875 20.960938 29.554688 20.964844 34.90625 C 21.097656 37.054688 20.574219 39.191406 19.464844 41.035156 C 18.496094 42.441406 16.871094 43.246094 15.167969 43.167969 Z M 15.316406 29.554688 C 13.816406 29.554688 13.066406 31.433594 13.066406 35.195313 C 13.066406 38.75 13.804688 40.523438 15.277344 40.523438 C 16.75 40.519531 17.464844 38.6875 17.429688 35.03125 C 17.429688 31.378906 16.726563 29.554688 15.316406 29.554688 Z M 15.316406 29.554688 "/>
<path style=" stroke:none;fill-rule:nonzero;fill:rgb(0%,47.058824%,83.137255%);fill-opacity:1;" d="M 34.652344 43.167969 C 30.90625 43.167969 29.03125 40.535156 29.03125 35.269531 C 28.890625 33.078125 29.421875 30.898438 30.554688 29.023438 C 31.554688 27.59375 33.222656 26.78125 34.964844 26.875 C 38.625 26.875 40.457031 29.554688 40.457031 34.90625 C 40.589844 37.054688 40.066406 39.191406 38.953125 41.035156 C 37.984375 42.441406 36.359375 43.246094 34.652344 43.167969 Z M 34.808594 29.554688 C 33.308594 29.554688 32.558594 31.441406 32.558594 35.210938 C 32.558594 38.765625 33.292969 40.539063 34.765625 40.539063 C 36.238281 40.535156 36.957031 38.703125 36.917969 35.046875 C 36.917969 31.386719 36.214844 29.554688 34.808594 29.554688 Z M 34.808594 29.554688 "/>
<path style=" stroke:none;fill-rule:nonzero;fill:rgb(94.901961%,94.901961%,94.901961%);fill-opacity:1;" d="M 57.554688 26.984375 L 57.554688 43.089844 L 54.09375 43.089844 L 54.09375 30.898438 C 53.886719 31.078125 53.660156 31.238281 53.417969 31.371094 C 53.152344 31.527344 52.875 31.664063 52.589844 31.78125 C 52.292969 31.902344 51.984375 32.003906 51.675781 32.085938 C 51.367188 32.167969 51.058594 32.230469 50.742188 32.269531 L 50.742188 29.34375 C 51.621094 29.09375 52.476563 28.753906 53.289063 28.339844 C 54.050781 27.949219 54.773438 27.5 55.457031 26.984375 Z M 57.554688 26.984375 "/>
</g>
</svg>
