<?xml version="1.0" encoding="UTF-8"?>
<svg xmlns="http://www.w3.org/2000/svg" xmlns:xlink="http://www.w3.org/1999/xlink" width="70pt" height="70pt" viewBox="0 0 70 70" version="1.1">
<g id="surface1">
<path style=" stroke:none;fill-rule:nonzero;fill:rgb(46.27451%,73.72549%,17.647059%);fill-opacity:1;" d="M 50.816406 10.867188 L 50.816406 29.496094 L 34.710938 38.863281 L 34.710938 20.199219 Z M 50.816406 10.867188 "/>
<path style=" stroke:none;fill-rule:nonzero;fill:rgb(70.588235%,92.54902%,21.176471%);fill-opacity:1;" d="M 50.816406 10.867188 L 34.710938 20.226563 L 18.609375 10.863281 L 34.710938 1.5 Z M 50.816406 10.867188 "/>
<path style=" stroke:none;fill-rule:nonzero;fill:rgb(52.54902%,83.921569%,20%);fill-opacity:1;" d="M 34.710938 20.226563 L 34.710938 38.863281 L 18.609375 29.496094 L 18.609375 10.863281 Z M 34.710938 20.226563 "/>
<path style=" stroke:none;fill-rule:nonzero;fill:rgb(46.27451%,73.72549%,17.647059%);fill-opacity:1;" d="M 34.152344 40.507813 L 34.152344 59.136719 L 18.046875 68.5 L 18.046875 49.839844 Z M 34.152344 40.507813 "/>
<path style=" stroke:none;fill-rule:nonzero;fill:rgb(70.588235%,92.54902%,21.176471%);fill-opacity:1;" d="M 34.152344 40.507813 L 18.046875 49.863281 L 1.945313 40.503906 L 18.046875 31.136719 Z M 34.152344 40.507813 "/>
<path style=" stroke:none;fill-rule:nonzero;fill:rgb(52.54902%,83.921569%,20%);fill-opacity:1;" d="M 18.046875 49.863281 L 18.046875 68.5 L 1.945313 59.136719 L 1.945313 40.503906 Z M 18.046875 49.863281 "/>
<path style=" stroke:none;fill-rule:nonzero;fill:rgb(46.27451%,73.72549%,17.647059%);fill-opacity:1;" d="M 68.054688 40.507813 L 68.054688 59.136719 L 51.953125 68.5 L 51.953125 49.839844 Z M 68.054688 40.507813 "/>
<path style=" stroke:none;fill-rule:nonzero;fill:rgb(70.588235%,92.54902%,21.176471%);fill-opacity:1;" d="M 68.054688 40.507813 L 51.957031 49.863281 L 35.847656 40.503906 L 51.957031 31.136719 Z M 68.054688 40.507813 "/>
<path style=" stroke:none;fill-rule:nonzero;fill:rgb(52.54902%,83.921569%,20%);fill-opacity:1;" d="M 51.953125 49.863281 L 51.953125 68.5 L 35.847656 59.136719 L 35.847656 40.503906 Z M 51.953125 49.863281 "/>
</g>
</svg>
