<?xml version="1.0" encoding="UTF-8"?>
<svg xmlns="http://www.w3.org/2000/svg" xmlns:xlink="http://www.w3.org/1999/xlink" width="70pt" height="70pt" viewBox="0 0 70 70" version="1.1">
<defs>
<linearGradient id="linear0" gradientUnits="userSpaceOnUse" x1="9" y1="790.787" x2="9" y2="774.125" gradientTransform="matrix(3.888889,0,0,-3.888889,0,3078.117778)">
<stop offset="0" style="stop-color:rgb(42.352941%,77.647059%,72.54902%);stop-opacity:1;"/>
<stop offset="0.46" style="stop-color:rgb(41.568627%,76.862745%,71.764706%);stop-opacity:1;"/>
<stop offset="0.64" style="stop-color:rgb(38.431373%,74.117647%,69.019608%);stop-opacity:1;"/>
<stop offset="0.77" style="stop-color:rgb(33.72549%,69.411765%,64.313725%);stop-opacity:1;"/>
<stop offset="1" style="stop-color:rgb(14.509804%,50.980392%,46.666667%);stop-opacity:1;"/>
</linearGradient>
<filter id="alpha" filterUnits="objectBoundingBox" x="0%" y="0%" width="100%" height="100%">
  <feColorMatrix type="matrix" in="SourceGraphic" values="0 0 0 0 1 0 0 0 0 1 0 0 0 0 1 0 0 0 1 0"/>
</filter>
<mask id="mask0">
  <g filter="url(#alpha)">
<rect x="0" y="0" width="70" height="70" style="fill:rgb(0%,0%,0%);fill-opacity:0.901961;stroke:none;"/>
  </g>
</mask>
<clipPath id="clip1">
  <rect x="0" y="0" width="70" height="70"/>
</clipPath>
<g id="surface5" clip-path="url(#clip1)">
<path style=" stroke:none;fill-rule:nonzero;fill:rgb(100%,100%,100%);fill-opacity:1;" d="M 49.023438 16.355469 L 53.835938 16.355469 C 54.152344 16.355469 54.410156 16.613281 54.410156 16.929688 L 54.410156 52.140625 C 54.410156 52.457031 54.152344 52.714844 53.835938 52.714844 L 49.023438 52.714844 C 48.707031 52.714844 48.453125 52.457031 48.453125 52.140625 L 48.453125 16.929688 C 48.453125 16.613281 48.707031 16.355469 49.023438 16.355469 Z M 49.023438 16.355469 "/>
</g>
<mask id="mask1">
  <g filter="url(#alpha)">
<rect x="0" y="0" width="70" height="70" style="fill:rgb(0%,0%,0%);fill-opacity:0.6;stroke:none;"/>
  </g>
</mask>
<clipPath id="clip2">
  <rect x="0" y="0" width="70" height="70"/>
</clipPath>
<g id="surface8" clip-path="url(#clip2)">
<path style=" stroke:none;fill-rule:nonzero;fill:rgb(100%,100%,100%);fill-opacity:1;" d="M 6.949219 45.222656 L 39.046875 45.222656 C 39.390625 45.222656 39.667969 45.5 39.667969 45.84375 L 39.667969 52.136719 C 39.667969 52.480469 39.390625 52.757813 39.046875 52.757813 L 6.949219 52.757813 C 6.609375 52.757813 6.332031 52.480469 6.332031 52.136719 L 6.332031 45.84375 C 6.332031 45.5 6.609375 45.222656 6.949219 45.222656 Z M 6.949219 45.222656 "/>
</g>
<mask id="mask2">
  <g filter="url(#alpha)">
<rect x="0" y="0" width="70" height="70" style="fill:rgb(0%,0%,0%);fill-opacity:0.901961;stroke:none;"/>
  </g>
</mask>
<clipPath id="clip3">
  <rect x="0" y="0" width="70" height="70"/>
</clipPath>
<g id="surface11" clip-path="url(#clip3)">
<path style=" stroke:none;fill-rule:nonzero;fill:rgb(100%,100%,100%);fill-opacity:1;" d="M 58.027344 31.230469 L 63.105469 31.230469 C 63.347656 31.230469 63.542969 31.429688 63.542969 31.671875 L 63.542969 52.273438 C 63.542969 52.515625 63.347656 52.714844 63.105469 52.714844 L 58.027344 52.714844 C 57.785156 52.714844 57.585938 52.515625 57.585938 52.273438 L 57.585938 31.671875 C 57.585938 31.429688 57.785156 31.230469 58.027344 31.230469 Z M 58.027344 31.230469 "/>
</g>
</defs>
<g id="surface1">
<path style=" stroke:none;fill-rule:nonzero;fill:url(#linear0);" d="M 2.136719 10.25 L 67.902344 10.25 C 69.003906 10.203125 69.9375 11.050781 70 12.152344 L 70 57.847656 C 69.9375 58.949219 69.003906 59.796875 67.902344 59.75 L 2.136719 59.75 C 1.027344 59.796875 0.0820313 58.953125 0 57.847656 L 0 12.230469 C 0.0429688 11.09375 0.996094 10.210938 2.132813 10.25 Z M 2.136719 10.25 "/>
<use xlink:href="#surface5" mask="url(#mask0)"/>
<use xlink:href="#surface8" mask="url(#mask1)"/>
<use xlink:href="#surface11" mask="url(#mask2)"/>
<path style=" stroke:none;fill-rule:nonzero;fill:rgb(100%,100%,100%);fill-opacity:1;" d="M 35.453125 18.558594 L 27.171875 33.296875 L 18.410156 24.371094 L 9.378906 36.082031 L 11.496094 37.742188 L 18.660156 28.5 L 27.75 37.78125 L 37.800781 19.90625 Z M 35.453125 18.558594 "/>
<path style=" stroke:none;fill-rule:nonzero;fill:rgb(100%,100%,100%);fill-opacity:1;" d="M 21.921875 26.425781 C 21.921875 24.53125 20.394531 23 18.515625 23 C 16.632813 23 15.109375 24.53125 15.109375 26.425781 C 15.109375 28.316406 16.632813 29.851563 18.515625 29.851563 C 20.394531 29.851563 21.921875 28.316406 21.921875 26.425781 Z M 21.921875 26.425781 "/>
<path style=" stroke:none;fill-rule:nonzero;fill:rgb(100%,100%,100%);fill-opacity:1;" d="M 31.15625 34.917969 C 31.15625 33.027344 29.632813 31.492188 27.75 31.492188 C 25.871094 31.492188 24.34375 33.027344 24.34375 34.917969 C 24.34375 36.808594 25.871094 38.34375 27.75 38.34375 C 29.632813 38.34375 31.15625 36.808594 31.15625 34.917969 Z M 31.15625 34.917969 "/>
<path style=" stroke:none;fill-rule:nonzero;fill:rgb(100%,100%,100%);fill-opacity:1;" d="M 39.734375 19.660156 C 39.734375 17.765625 38.207031 16.230469 36.324219 16.230469 C 34.445313 16.230469 32.917969 17.765625 32.917969 19.660156 C 32.917969 21.550781 34.445313 23.085938 36.324219 23.085938 C 38.207031 23.085938 39.734375 21.550781 39.734375 19.660156 Z M 39.734375 19.660156 "/>
<path style=" stroke:none;fill-rule:nonzero;fill:rgb(100%,100%,100%);fill-opacity:1;" d="M 14.199219 36.410156 C 14.199219 34.519531 12.671875 32.984375 10.792969 32.984375 C 8.910156 32.984375 7.386719 34.519531 7.386719 36.410156 C 7.386719 38.304688 8.910156 39.835938 10.792969 39.835938 C 12.671875 39.835938 14.199219 38.304688 14.199219 36.410156 Z M 14.199219 36.410156 "/>
</g>
</svg>
