<?xml version="1.0" encoding="UTF-8"?>
<svg xmlns="http://www.w3.org/2000/svg" xmlns:xlink="http://www.w3.org/1999/xlink" width="70pt" height="70pt" viewBox="0 0 70 70" version="1.1">
<defs>
<linearGradient id="linear0" gradientUnits="userSpaceOnUse" x1="0.5" y1="9.99" x2="11.43" y2="9.99" gradientTransform="matrix(3.888889,0,0,3.888889,0,0)">
<stop offset="0" style="stop-color:rgb(0%,35.686275%,63.137255%);stop-opacity:1;"/>
<stop offset="0.07" style="stop-color:rgb(0%,37.647059%,66.27451%);stop-opacity:1;"/>
<stop offset="0.36" style="stop-color:rgb(0%,44.313725%,78.431373%);stop-opacity:1;"/>
<stop offset="0.52" style="stop-color:rgb(0%,47.058824%,83.137255%);stop-opacity:1;"/>
<stop offset="0.64" style="stop-color:rgb(0%,45.490196%,80.392157%);stop-opacity:1;"/>
<stop offset="0.82" style="stop-color:rgb(0%,41.568627%,73.333333%);stop-opacity:1;"/>
<stop offset="1" style="stop-color:rgb(0%,35.686275%,63.137255%);stop-opacity:1;"/>
</linearGradient>
</defs>
<g id="surface1">
<path style=" stroke:none;fill-rule:nonzero;fill:rgb(58.039216%,58.039216%,58.039216%);fill-opacity:1;" d="M 62.222656 18.628906 L 59.382813 17.226563 L 50.789063 34.882813 L 43.4375 34.882813 L 43.4375 37.996094 L 50.867188 37.996094 L 59.382813 55.496094 L 62.222656 54.09375 L 53.589844 36.359375 Z M 62.222656 18.628906 "/>
<path style=" stroke:none;fill-rule:nonzero;fill:rgb(100%,100%,100%);fill-opacity:1;" d="M 60.785156 23.878906 C 59.664063 23.886719 58.566406 23.5625 57.632813 22.945313 C 56.234375 22.085938 55.273438 20.671875 54.988281 19.054688 C 54.585938 17.292969 55.007813 15.441406 56.136719 14.027344 C 57.265625 12.609375 58.972656 11.785156 60.785156 11.785156 C 61.914063 11.78125 63.019531 12.105469 63.972656 12.714844 C 65.332031 13.605469 66.273438 15.007813 66.578125 16.605469 C 66.964844 18.363281 66.539063 20.203125 65.410156 21.609375 C 64.285156 23.015625 62.585938 23.835938 60.785156 23.839844 Z M 60.785156 23.878906 "/>
<path style=" stroke:none;fill-rule:nonzero;fill:rgb(19.607843%,74.509804%,86.666667%);fill-opacity:1;" d="M 60.785156 13.300781 C 61.667969 13.304688 62.527344 13.5625 63.273438 14.039063 C 64.304688 14.6875 65.035156 15.726563 65.292969 16.917969 C 65.574219 18.113281 65.363281 19.375 64.710938 20.417969 C 63.855469 21.734375 62.394531 22.535156 60.820313 22.554688 C 59.941406 22.566406 59.078125 22.324219 58.332031 21.855469 C 57.285156 21.195313 56.546875 20.144531 56.273438 18.9375 C 55.980469 17.570313 56.320313 16.144531 57.191406 15.050781 C 58.066406 13.957031 59.382813 13.316406 60.785156 13.300781 M 60.785156 10.65625 C 57.160156 10.65625 54.09375 13.320313 53.582031 16.90625 C 53.074219 20.488281 55.277344 23.902344 58.757813 24.914063 C 62.234375 25.921875 65.925781 24.21875 67.414063 20.914063 C 68.898438 17.613281 67.730469 13.71875 64.671875 11.785156 C 63.511719 11.042969 62.160156 10.652344 60.785156 10.65625 Z M 60.785156 10.65625 "/>
<path style=" stroke:none;fill-rule:nonzero;fill:rgb(100%,100%,100%);fill-opacity:1;" d="M 60.785156 60.746094 C 59.664063 60.753906 58.566406 60.429688 57.632813 59.8125 C 56.292969 58.984375 55.339844 57.65625 54.988281 56.121094 C 54.636719 54.582031 54.917969 52.972656 55.765625 51.644531 C 56.601563 50.300781 57.9375 49.347656 59.480469 48.996094 C 61.019531 48.644531 62.640625 48.925781 63.972656 49.777344 C 66.199219 51.199219 67.222656 53.917969 66.484375 56.457031 C 65.75 58.992188 63.425781 60.738281 60.785156 60.746094 Z M 60.785156 60.746094 "/>
<path style=" stroke:none;fill-rule:nonzero;fill:rgb(19.607843%,74.509804%,86.666667%);fill-opacity:1;" d="M 60.785156 50.167969 C 61.667969 50.171875 62.527344 50.429688 63.273438 50.90625 C 64.304688 51.554688 65.035156 52.589844 65.292969 53.785156 C 65.574219 54.980469 65.363281 56.242188 64.710938 57.285156 C 63.855469 58.601563 62.394531 59.402344 60.820313 59.421875 C 59.941406 59.433594 59.078125 59.1875 58.332031 58.722656 C 57.285156 58.0625 56.546875 57.011719 56.273438 55.804688 C 55.980469 54.4375 56.320313 53.011719 57.191406 51.917969 C 58.066406 50.824219 59.382813 50.183594 60.785156 50.167969 M 60.785156 47.523438 C 57.160156 47.523438 54.09375 50.1875 53.582031 53.769531 C 53.074219 57.355469 55.277344 60.769531 58.757813 61.777344 C 62.234375 62.789063 65.925781 61.082031 67.414063 57.78125 C 68.898438 54.480469 67.730469 50.585938 64.671875 48.648438 C 63.511719 47.910156 62.160156 47.519531 60.785156 47.523438 Z M 60.785156 47.523438 "/>
<path style=" stroke:none;fill-rule:nonzero;fill:url(#linear0);" d="M 23.332031 22.246094 C 11.667969 22.246094 1.945313 18.785156 1.945313 14.542969 L 1.945313 55.457031 C 1.945313 59.695313 11.316406 63.234375 22.90625 63.234375 L 23.332031 63.234375 C 35 63.234375 44.605469 59.8125 44.605469 55.457031 L 44.605469 14.542969 C 44.449219 18.785156 35 22.246094 23.332031 22.246094 Z M 23.332031 22.246094 "/>
<path style=" stroke:none;fill-rule:nonzero;fill:rgb(90.980392%,90.980392%,90.980392%);fill-opacity:1;" d="M 44.449219 14.542969 C 44.449219 18.785156 34.921875 22.320313 23.179688 22.320313 C 11.433594 22.320313 1.945313 18.785156 1.945313 14.542969 C 1.945313 10.304688 11.667969 6.84375 23.332031 6.84375 C 35 6.84375 44.605469 10.265625 44.605469 14.621094 "/>
<path style=" stroke:none;fill-rule:nonzero;fill:rgb(31.372549%,90.196078%,100%);fill-opacity:1;" d="M 39.472656 13.921875 C 39.472656 16.605469 32.199219 18.785156 23.179688 18.785156 C 14.15625 18.785156 6.882813 16.605469 6.882813 13.921875 C 6.882813 11.238281 14.195313 9.023438 23.332031 9.023438 C 32.472656 9.023438 39.628906 11.199219 39.628906 13.921875 "/>
<path style=" stroke:none;fill-rule:nonzero;fill:rgb(9.803922%,54.117647%,70.196078%);fill-opacity:1;" d="M 23.332031 15.050781 C 18.972656 14.941406 14.621094 15.558594 10.460938 16.878906 C 14.609375 18.257813 18.964844 18.902344 23.332031 18.785156 C 27.714844 18.898438 32.082031 18.253906 36.246094 16.878906 C 32.070313 15.554688 27.707031 14.9375 23.332031 15.050781 Z M 23.332031 15.050781 "/>
</g>
</svg>
