<?xml version="1.0" encoding="UTF-8"?>
<svg xmlns="http://www.w3.org/2000/svg" xmlns:xlink="http://www.w3.org/1999/xlink" width="70pt" height="70pt" viewBox="0 0 70 70" version="1.1">
<defs>
<linearGradient id="linear0" gradientUnits="userSpaceOnUse" x1="10.646" y1="12.18" x2="10.646" y2="1.846" gradientTransform="matrix(3.888889,0,0,3.888889,0,0)">
<stop offset="0" style="stop-color:rgb(0%,35.686275%,63.137255%);stop-opacity:1;"/>
<stop offset="0.192" style="stop-color:rgb(11.764706%,44.313725%,70.980392%);stop-opacity:1;"/>
<stop offset="0.567" style="stop-color:rgb(33.333333%,59.607843%,85.490196%);stop-opacity:1;"/>
<stop offset="0.848" style="stop-color:rgb(46.27451%,69.019608%,94.117647%);stop-opacity:1;"/>
<stop offset="1" style="stop-color:rgb(51.372549%,72.54902%,97.647059%);stop-opacity:1;"/>
</linearGradient>
</defs>
<g id="surface1">
<path style=" stroke:none;fill-rule:nonzero;fill:rgb(100%,100%,100%);fill-opacity:1;" d="M 61.496094 27.273438 C 61.496094 38.371094 52.5 47.367188 41.402344 47.367188 C 30.304688 47.367188 21.308594 38.371094 21.308594 27.273438 C 21.308594 16.175781 30.304688 7.179688 41.402344 7.179688 C 52.5 7.179688 61.496094 16.175781 61.496094 27.273438 Z M 61.496094 27.273438 "/>
<path style=" stroke:none;fill-rule:nonzero;fill:rgb(46.27451%,46.27451%,46.27451%);fill-opacity:1;" d="M 4.128906 60.683594 L 24.882813 39.929688 C 26.433594 38.378906 28.949219 38.378906 30.5 39.929688 L 30.890625 40.320313 C 32.441406 41.871094 32.441406 44.382813 30.890625 45.933594 L 10.132813 66.691406 C 8.582031 68.242188 6.070313 68.242188 4.519531 66.691406 L 4.128906 66.300781 C 2.578125 64.75 2.578125 62.234375 4.128906 60.683594 Z M 4.128906 60.683594 "/>
<path style=" stroke:none;fill-rule:nonzero;fill:rgb(63.921569%,63.921569%,63.921569%);fill-opacity:1;" d="M 67.035156 27.726563 C 67.035156 41.859375 55.582031 53.3125 41.453125 53.3125 C 27.320313 53.3125 15.867188 41.859375 15.867188 27.726563 C 15.867188 13.597656 27.320313 2.144531 41.453125 2.144531 C 55.582031 2.144531 67.035156 13.597656 67.035156 27.726563 Z M 67.035156 27.726563 "/>
<path style=" stroke:none;fill-rule:nonzero;fill:url(#linear0);" d="M 61.496094 27.273438 C 61.496094 38.371094 52.5 47.367188 41.402344 47.367188 C 30.304688 47.367188 21.308594 38.371094 21.308594 27.273438 C 21.308594 16.175781 30.304688 7.179688 41.402344 7.179688 C 52.5 7.179688 61.496094 16.175781 61.496094 27.273438 Z M 61.496094 27.273438 "/>
<path style=" stroke:none;fill-rule:nonzero;fill:rgb(94.901961%,94.901961%,94.901961%);fill-opacity:1;" d="M 56.582031 23.226563 C 57.765625 26.398438 56.152344 29.925781 52.980469 31.105469 C 49.8125 32.289063 46.285156 30.675781 45.101563 27.507813 Z M 56.582031 23.226563 "/>
<path style=" stroke:none;fill-rule:nonzero;fill:rgb(94.901961%,94.901961%,94.901961%);fill-opacity:1;" d="M 37.722656 27.507813 C 36.539063 30.675781 33.011719 32.289063 29.84375 31.105469 C 26.671875 29.925781 25.0625 26.398438 26.242188 23.226563 Z M 37.722656 27.507813 "/>
</g>
</svg>
