<?xml version="1.0" encoding="UTF-8"?>
<svg xmlns="http://www.w3.org/2000/svg" xmlns:xlink="http://www.w3.org/1999/xlink" width="70pt" height="70pt" viewBox="0 0 70 70" version="1.1">
<defs>
<linearGradient id="linear0" gradientUnits="userSpaceOnUse" x1="8.15" y1="17.49" x2="8.15" y2="2.09" gradientTransform="matrix(3.888889,0,0,3.888889,0,0)">
<stop offset="0" style="stop-color:rgb(36.862745%,58.823529%,14.117647%);stop-opacity:1;"/>
<stop offset="0.31" style="stop-color:rgb(41.176471%,65.882353%,15.686275%);stop-opacity:1;"/>
<stop offset="0.93" style="stop-color:rgb(52.54902%,83.921569%,20%);stop-opacity:1;"/>
</linearGradient>
</defs>
<g id="surface1">
<path style=" stroke:none;fill-rule:nonzero;fill:rgb(36.862745%,58.823529%,14.117647%);fill-opacity:1;" d="M 59.109375 1.945313 L 13.960938 1.945313 C 13.304688 1.9375 12.675781 2.222656 12.25 2.722656 L 7.503906 8.207031 L 59.539063 60.9375 L 51.761719 68.054688 L 55.648438 68.054688 C 56.304688 68.054688 56.941406 67.820313 57.4375 67.394531 L 61.988281 63.234375 C 62.457031 62.800781 62.722656 62.195313 62.726563 61.5625 L 62.726563 5.171875 C 62.761719 4.234375 62.375 3.332031 61.675781 2.710938 C 60.976563 2.085938 60.039063 1.804688 59.109375 1.945313 Z M 59.109375 1.945313 "/>
<path style=" stroke:none;fill-rule:nonzero;fill:rgb(100%,100%,100%);fill-opacity:1;" d="M 11.316406 8.167969 L 14.195313 4.898438 C 14.535156 4.492188 15.023438 4.238281 15.554688 4.199219 L 57.867188 4.199219 C 58.984375 4.199219 59.890625 5.105469 59.890625 6.222656 L 59.890625 59.8125 C 59.882813 60.375 59.644531 60.910156 59.226563 61.289063 L 54.753906 65.410156 "/>
<path style=" stroke:none;fill-rule:nonzero;fill:url(#linear0);" d="M 54.445313 8.128906 L 7.777344 8.128906 C 7.664063 8.148438 7.582031 8.246094 7.582031 8.359375 L 7.582031 66.695313 C 7.582031 67.511719 8.246094 68.171875 9.0625 68.171875 L 54.445313 68.171875 C 55.261719 68.171875 55.921875 67.511719 55.921875 66.695313 L 55.921875 9.644531 C 55.933594 9.246094 55.78125 8.859375 55.503906 8.574219 C 55.226563 8.289063 54.84375 8.128906 54.445313 8.128906 Z M 54.445313 8.128906 "/>
<path style=" stroke:none;fill-rule:nonzero;fill:rgb(100%,100%,100%);fill-opacity:1;" d="M 48.609375 30.410156 C 48.632813 30.015625 48.492188 29.628906 48.21875 29.34375 C 47.945313 29.054688 47.566406 28.894531 47.171875 28.894531 L 39.976563 28.894531 C 39.730469 28.886719 39.503906 29.023438 39.394531 29.246094 L 36.398438 34.609375 L 31.5 24.695313 L 26.949219 38.890625 L 23.0625 28.777344 L 17.929688 38.265625 C 17.816406 38.492188 17.59375 38.640625 17.34375 38.65625 L 15.011719 38.65625 C 14.273438 38.652344 13.652344 39.207031 13.570313 39.9375 C 13.527344 40.347656 13.660156 40.753906 13.933594 41.058594 C 14.210938 41.363281 14.601563 41.535156 15.011719 41.535156 L 18.898438 41.535156 C 19.164063 41.53125 19.40625 41.382813 19.523438 41.144531 L 22.554688 35.429688 L 27.261719 47.09375 L 32.042969 32.082031 L 36.246094 40.601563 L 40.949219 32.160156 C 41.058594 31.9375 41.285156 31.800781 41.535156 31.8125 L 47.171875 31.8125 C 47.953125 31.8125 48.589844 31.191406 48.609375 30.410156 Z M 48.609375 30.410156 "/>
</g>
</svg>
