<?xml version="1.0" encoding="UTF-8"?>
<svg xmlns="http://www.w3.org/2000/svg" xmlns:xlink="http://www.w3.org/1999/xlink" width="70pt" height="70pt" viewBox="0 0 70 70" version="1.1">
<defs>
<linearGradient id="linear0" gradientUnits="userSpaceOnUse" x1="-4014.225" y1="-119.864" x2="-4014.225" y2="-127.984" gradientTransform="matrix(-3.888889,0.000000000000000476,-0.000000000000000476,-3.888889,-15575.867222,-464.193333)">
<stop offset="0" style="stop-color:rgb(41.960784%,72.54902%,94.901961%);stop-opacity:1;"/>
<stop offset="1" style="stop-color:rgb(10.588235%,57.647059%,92.156863%);stop-opacity:1;"/>
</linearGradient>
<filter id="alpha" filterUnits="objectBoundingBox" x="0%" y="0%" width="100%" height="100%">
  <feColorMatrix type="matrix" in="SourceGraphic" values="0 0 0 0 1 0 0 0 0 1 0 0 0 0 1 0 0 0 1 0"/>
</filter>
<mask id="mask0">
  <g filter="url(#alpha)">
<rect x="0" y="0" width="70" height="70" style="fill:rgb(0%,0%,0%);fill-opacity:0.501961;stroke:none;"/>
  </g>
</mask>
<clipPath id="clip1">
  <rect x="0" y="0" width="70" height="70"/>
</clipPath>
<g id="surface5" clip-path="url(#clip1)">
<path style=" stroke:none;fill-rule:nonzero;fill:rgb(60%,60%,60%);fill-opacity:1;" d="M 17.0625 34.492188 L 19.878906 34.492188 C 20.222656 34.492188 20.503906 34.769531 20.503906 35.113281 L 20.503906 42.984375 L 17.691406 42.984375 C 17 42.984375 16.441406 42.425781 16.441406 41.734375 L 16.441406 35.117188 C 16.441406 34.949219 16.507813 34.792969 16.625 34.675781 C 16.738281 34.554688 16.898438 34.492188 17.0625 34.492188 Z M 17.0625 34.492188 "/>
</g>
<mask id="mask1">
  <g filter="url(#alpha)">
<rect x="0" y="0" width="70" height="70" style="fill:rgb(0%,0%,0%);fill-opacity:0.501961;stroke:none;"/>
  </g>
</mask>
<clipPath id="clip2">
  <rect x="0" y="0" width="70" height="70"/>
</clipPath>
<g id="surface8" clip-path="url(#clip2)">
<path style=" stroke:none;fill-rule:nonzero;fill:rgb(60%,60%,60%);fill-opacity:1;" d="M 50.117188 34.492188 L 52.933594 34.492188 C 53.273438 34.492188 53.554688 34.769531 53.554688 35.113281 L 53.554688 41.722656 C 53.554688 42.414063 52.996094 42.972656 52.304688 42.972656 L 49.488281 42.972656 L 49.488281 35.117188 C 49.488281 34.949219 49.554688 34.789063 49.671875 34.671875 C 49.789063 34.554688 49.949219 34.488281 50.117188 34.492188 Z M 50.117188 34.492188 "/>
</g>
</defs>
<g id="surface1">
<path style=" stroke:none;fill-rule:nonzero;fill:rgb(12.156863%,33.72549%,63.921569%);fill-opacity:1;" d="M 49.191406 64.675781 C 41.800781 63.683594 41.933594 58.941406 41.96875 51.25 L 28.144531 51.25 C 28.179688 58.941406 28.304688 63.695313 20.925781 64.675781 C 19.097656 64.804688 17.628906 66.234375 17.449219 68.054688 L 52.6875 68.054688 C 52.496094 66.230469 51.023438 64.804688 49.191406 64.675781 Z M 49.191406 64.675781 "/>
<path style=" stroke:none;fill-rule:nonzero;fill:rgb(7.843137%,56.470588%,87.45098%);fill-opacity:1;" d="M 5.382813 6.476563 L 64.617188 6.476563 C 65.808594 6.476563 66.773438 7.441406 66.773438 8.628906 L 66.773438 49.320313 C 66.773438 50.507813 65.808594 51.472656 64.617188 51.472656 L 5.382813 51.472656 C 4.191406 51.472656 3.226563 50.507813 3.226563 49.320313 L 3.226563 8.628906 C 3.226563 7.441406 4.191406 6.476563 5.382813 6.476563 Z M 5.382813 6.476563 "/>
<path style=" stroke:none;fill-rule:nonzero;fill:rgb(100%,100%,100%);fill-opacity:1;" d="M 7.960938 9.960938 L 61.941406 9.960938 C 62.539063 9.960938 63.019531 10.441406 63.019531 11.035156 L 63.019531 46.21875 C 63.019531 46.8125 62.539063 47.296875 61.941406 47.296875 L 7.960938 47.296875 C 7.367188 47.296875 6.882813 46.8125 6.882813 46.21875 L 6.882813 11.035156 C 6.882813 10.441406 7.367188 9.960938 7.960938 9.960938 Z M 7.960938 9.960938 "/>
<path style=" stroke:none;fill-rule:nonzero;fill:url(#linear0);" d="M 48.863281 20.300781 L 36.085938 33.074219 C 35.488281 33.667969 34.527344 33.667969 33.929688 33.074219 L 21.15625 20.300781 C 20.957031 20.105469 20.898438 19.808594 21.003906 19.554688 C 21.109375 19.296875 21.359375 19.132813 21.636719 19.132813 L 29.492188 19.132813 C 29.871094 19.132813 30.175781 18.828125 30.175781 18.453125 L 30.175781 2.488281 C 30.171875 2.34375 30.230469 2.203125 30.332031 2.101563 C 30.4375 2 30.578125 1.941406 30.722656 1.945313 L 39.304688 1.945313 C 39.449219 1.945313 39.585938 2 39.6875 2.105469 C 39.789063 2.207031 39.847656 2.34375 39.84375 2.488281 L 39.84375 18.457031 C 39.847656 18.832031 40.152344 19.136719 40.53125 19.136719 L 48.386719 19.136719 C 48.660156 19.136719 48.910156 19.304688 49.011719 19.558594 C 49.117188 19.8125 49.058594 20.105469 48.863281 20.300781 Z M 48.863281 20.300781 "/>
<path style=" stroke:none;fill-rule:nonzero;fill:rgb(60%,60%,60%);fill-opacity:1;" d="M 17.0625 34.492188 L 19.878906 34.492188 C 20.222656 34.492188 20.503906 34.769531 20.503906 35.113281 L 20.503906 42.984375 L 17.691406 42.984375 C 17 42.984375 16.441406 42.425781 16.441406 41.734375 L 16.441406 35.117188 C 16.441406 34.949219 16.507813 34.792969 16.625 34.675781 C 16.738281 34.554688 16.898438 34.492188 17.0625 34.492188 Z M 17.0625 34.492188 "/>
<use xlink:href="#surface5" mask="url(#mask0)"/>
<path style=" stroke:none;fill-rule:nonzero;fill:rgb(60%,60%,60%);fill-opacity:1;" d="M 50.117188 34.492188 L 52.933594 34.492188 C 53.273438 34.492188 53.554688 34.769531 53.554688 35.113281 L 53.554688 41.722656 C 53.554688 42.414063 52.996094 42.972656 52.304688 42.972656 L 49.488281 42.972656 L 49.488281 35.117188 C 49.488281 34.949219 49.554688 34.789063 49.671875 34.671875 C 49.789063 34.554688 49.949219 34.488281 50.117188 34.492188 Z M 50.117188 34.492188 "/>
<use xlink:href="#surface8" mask="url(#mask1)"/>
<path style=" stroke:none;fill-rule:nonzero;fill:rgb(58.039216%,58.039216%,58.039216%);fill-opacity:1;" d="M 16.441406 41.746094 L 16.441406 39.023438 L 53.558594 39.023438 L 53.558594 41.746094 C 53.558594 42.425781 53.007813 42.980469 52.328125 42.984375 L 17.679688 42.984375 C 16.996094 42.984375 16.441406 42.429688 16.441406 41.746094 Z M 16.441406 41.746094 "/>
</g>
</svg>
