<?xml version="1.0" encoding="UTF-8"?>
<svg xmlns="http://www.w3.org/2000/svg" xmlns:xlink="http://www.w3.org/1999/xlink" width="70pt" height="70pt" viewBox="0 0 70 70" version="1.1">
<defs>
<linearGradient id="linear0" gradientUnits="userSpaceOnUse" x1="9" y1="-7205.66" x2="9" y2="-7219.44" gradientTransform="matrix(3.888889,0,0,-3.888889,0,-28025.472222)">
<stop offset="0.13" style="stop-color:rgb(46.666667%,22.745098%,86.27451%);stop-opacity:1;"/>
<stop offset="0.23" style="stop-color:rgb(50.980392%,28.627451%,88.627451%);stop-opacity:1;"/>
<stop offset="0.43" style="stop-color:rgb(58.823529%,39.215686%,92.54902%);stop-opacity:1;"/>
<stop offset="0.6" style="stop-color:rgb(63.529412%,45.490196%,94.901961%);stop-opacity:1;"/>
<stop offset="0.74" style="stop-color:rgb(65.098039%,47.843137%,95.686275%);stop-opacity:1;"/>
</linearGradient>
</defs>
<g id="surface1">
<path style=" stroke:none;fill-rule:nonzero;fill:rgb(46.666667%,22.745098%,86.27451%);fill-opacity:1;" d="M 56.195313 34.222656 L 14.3125 34.222656 L 14.3125 53.082031 C 14.3125 57.984375 23.683594 61.988281 35.464844 61.988281 C 47.25 61.988281 56.621094 58.101563 56.621094 53.082031 Z M 56.195313 34.222656 "/>
<path style=" stroke:none;fill-rule:nonzero;fill:url(#linear0);" d="M 32.628906 8.398438 L 1.515625 24.304688 C 0.277344 25.074219 -0.148438 26.675781 0.542969 27.960938 C 0.75 28.414063 1.085938 28.796875 1.515625 29.050781 L 32.628906 42.582031 C 33.535156 42.96875 34.558594 42.96875 35.464844 42.582031 L 68.445313 28.972656 C 69.710938 28.226563 70.183594 26.632813 69.535156 25.316406 C 69.3125 24.816406 68.925781 24.40625 68.445313 24.148438 L 35.542969 8.320313 C 34.613281 7.898438 33.535156 7.929688 32.628906 8.398438 Z M 32.628906 8.398438 "/>
<path style=" stroke:none;fill-rule:nonzero;fill:rgb(31.372549%,90.196078%,100%);fill-opacity:1;" d="M 61.601563 39.667969 C 61.460938 38.933594 61.152344 38.242188 60.707031 37.644531 C 58.492188 33.746094 55.042969 30.695313 50.90625 28.972656 L 37.371094 23.332031 L 33.054688 26.40625 L 46.667969 32.199219 C 51.40625 34.136719 55.203125 37.847656 57.246094 42.542969 C 57.84375 44.675781 58.207031 46.867188 58.332031 49.078125 M 58.957031 49.078125 L 60.589844 45.851563 L 62.648438 48.496094 L 63.039063 48.496094 C 63.238281 45.476563 62.734375 42.453125 61.5625 39.667969 Z M 58.957031 49.078125 "/>
<path style=" stroke:none;fill-rule:nonzero;fill:rgb(33.333333%,18.431373%,60%);fill-opacity:1;" d="M 39.976563 25.121094 C 39.976563 23.660156 37.644531 22.476563 34.765625 22.476563 C 31.886719 22.476563 29.554688 23.660156 29.554688 25.121094 C 29.554688 26.582031 31.886719 27.765625 34.765625 27.765625 C 37.644531 27.765625 39.976563 26.582031 39.976563 25.121094 Z M 39.976563 25.121094 "/>
</g>
</svg>
