<?xml version="1.0" encoding="UTF-8"?>
<svg xmlns="http://www.w3.org/2000/svg" xmlns:xlink="http://www.w3.org/1999/xlink" width="70pt" height="70pt" viewBox="0 0 70 70" version="1.1">
<defs>
<filter id="alpha" filterUnits="objectBoundingBox" x="0%" y="0%" width="100%" height="100%">
  <feColorMatrix type="matrix" in="SourceGraphic" values="0 0 0 0 1 0 0 0 0 1 0 0 0 0 1 0 0 0 1 0"/>
</filter>
<mask id="mask0">
  <g filter="url(#alpha)">
<rect x="0" y="0" width="70" height="70" style="fill:rgb(0%,0%,0%);fill-opacity:0.101961;stroke:none;"/>
  </g>
</mask>
<clipPath id="clip1">
  <rect x="0" y="0" width="70" height="70"/>
</clipPath>
<g id="surface5" clip-path="url(#clip1)">
<path style=" stroke:none;fill-rule:nonzero;fill:rgb(0%,0%,0%);fill-opacity:1;" d="M 35.242188 17.5 L 17.5 17.5 L 17.5 53.957031 L 35.242188 53.957031 C 36.71875 53.953125 37.910156 52.757813 37.917969 51.285156 L 37.917969 20.171875 C 37.910156 18.699219 36.71875 17.503906 35.242188 17.5 Z M 35.242188 17.5 "/>
</g>
<mask id="mask1">
  <g filter="url(#alpha)">
<rect x="0" y="0" width="70" height="70" style="fill:rgb(0%,0%,0%);fill-opacity:0.2;stroke:none;"/>
  </g>
</mask>
<clipPath id="clip2">
  <rect x="0" y="0" width="70" height="70"/>
</clipPath>
<g id="surface8" clip-path="url(#clip2)">
<path style=" stroke:none;fill-rule:nonzero;fill:rgb(0%,0%,0%);fill-opacity:1;" d="M 33.785156 18.957031 L 17.5 18.957031 L 17.5 55.417969 L 33.785156 55.417969 C 35.257813 55.410156 36.453125 54.21875 36.457031 52.742188 L 36.457031 21.632813 C 36.453125 20.15625 35.257813 18.964844 33.785156 18.957031 Z M 33.785156 18.957031 "/>
</g>
<mask id="mask2">
  <g filter="url(#alpha)">
<rect x="0" y="0" width="70" height="70" style="fill:rgb(0%,0%,0%);fill-opacity:0.2;stroke:none;"/>
  </g>
</mask>
<clipPath id="clip3">
  <rect x="0" y="0" width="70" height="70"/>
</clipPath>
<g id="surface11" clip-path="url(#clip3)">
<path style=" stroke:none;fill-rule:nonzero;fill:rgb(0%,0%,0%);fill-opacity:1;" d="M 33.785156 18.957031 L 17.5 18.957031 L 17.5 52.5 L 33.785156 52.5 C 35.257813 52.496094 36.453125 51.300781 36.457031 49.828125 L 36.457031 21.632813 C 36.453125 20.15625 35.257813 18.964844 33.785156 18.957031 Z M 33.785156 18.957031 "/>
</g>
<mask id="mask3">
  <g filter="url(#alpha)">
<rect x="0" y="0" width="70" height="70" style="fill:rgb(0%,0%,0%);fill-opacity:0.2;stroke:none;"/>
  </g>
</mask>
<clipPath id="clip4">
  <rect x="0" y="0" width="70" height="70"/>
</clipPath>
<g id="surface14" clip-path="url(#clip4)">
<path style=" stroke:none;fill-rule:nonzero;fill:rgb(0%,0%,0%);fill-opacity:1;" d="M 32.328125 18.957031 L 17.5 18.957031 L 17.5 52.5 L 32.328125 52.5 C 33.800781 52.496094 34.996094 51.300781 35 49.828125 L 35 21.632813 C 34.996094 20.15625 33.800781 18.964844 32.328125 18.957031 Z M 32.328125 18.957031 "/>
</g>
<linearGradient id="linear0" gradientUnits="userSpaceOnUse" x1="5.822" y1="11.568" x2="20.178" y2="36.432" gradientTransform="matrix(1.458333,0,0,1.458333,0,0)">
<stop offset="0" style="stop-color:rgb(9.411765%,53.333333%,30.980392%);stop-opacity:1;"/>
<stop offset="0.5" style="stop-color:rgb(6.666667%,49.411765%,26.27451%);stop-opacity:1;"/>
<stop offset="1" style="stop-color:rgb(4.313725%,40%,19.215686%);stop-opacity:1;"/>
</linearGradient>
</defs>
<g id="surface1">
<path style=" stroke:none;fill-rule:nonzero;fill:rgb(9.411765%,36.078431%,21.568627%);fill-opacity:1;" d="M 42.292969 33.542969 L 17.5 29.167969 L 17.5 61.492188 C 17.5 62.96875 18.695313 64.167969 20.171875 64.167969 L 62.953125 64.167969 C 64.429688 64.167969 65.625 62.96875 65.625 61.492188 L 65.625 49.582031 Z M 42.292969 33.542969 "/>
<path style=" stroke:none;fill-rule:nonzero;fill:rgb(12.941176%,63.921569%,40%);fill-opacity:1;" d="M 42.292969 5.832031 L 20.171875 5.832031 C 18.695313 5.832031 17.5 7.03125 17.5 8.507813 L 17.5 20.417969 L 42.292969 35 L 55.417969 39.375 L 65.625 35 L 65.625 20.417969 Z M 42.292969 5.832031 "/>
<path style=" stroke:none;fill-rule:nonzero;fill:rgb(6.27451%,48.627451%,25.490196%);fill-opacity:1;" d="M 17.5 20.417969 L 42.292969 20.417969 L 42.292969 35 L 17.5 35 Z M 17.5 20.417969 "/>
<use xlink:href="#surface5" mask="url(#mask0)"/>
<use xlink:href="#surface8" mask="url(#mask1)"/>
<use xlink:href="#surface11" mask="url(#mask2)"/>
<use xlink:href="#surface14" mask="url(#mask3)"/>
<path style=" stroke:none;fill-rule:nonzero;fill:url(#linear0);" d="M 5.589844 18.957031 L 32.328125 18.957031 C 33.804688 18.957031 35 20.15625 35 21.632813 L 35 48.367188 C 35 49.84375 33.804688 51.042969 32.328125 51.042969 L 5.589844 51.042969 C 4.113281 51.042969 2.917969 49.84375 2.917969 48.367188 L 2.917969 21.632813 C 2.917969 20.15625 4.113281 18.957031 5.589844 18.957031 Z M 5.589844 18.957031 "/>
<path style=" stroke:none;fill-rule:nonzero;fill:rgb(100%,100%,100%);fill-opacity:1;" d="M 11.195313 43.6875 L 16.820313 34.976563 L 11.667969 26.308594 L 15.8125 26.308594 L 18.621094 31.851563 C 18.882813 32.378906 19.058594 32.769531 19.15625 33.027344 L 19.191406 33.027344 C 19.378906 32.605469 19.574219 32.199219 19.777344 31.804688 L 22.78125 26.3125 L 26.585938 26.3125 L 21.304688 34.925781 L 26.722656 43.6875 L 22.671875 43.6875 L 19.425781 37.605469 C 19.273438 37.347656 19.140625 37.074219 19.035156 36.792969 L 18.988281 36.792969 C 18.894531 37.070313 18.769531 37.332031 18.613281 37.582031 L 15.269531 43.6875 Z M 11.195313 43.6875 "/>
<path style=" stroke:none;fill-rule:nonzero;fill:rgb(20%,76.862745%,50.588235%);fill-opacity:1;" d="M 62.953125 5.832031 L 42.292969 5.832031 L 42.292969 20.417969 L 65.625 20.417969 L 65.625 8.507813 C 65.625 7.03125 64.429688 5.832031 62.953125 5.832031 Z M 62.953125 5.832031 "/>
<path style=" stroke:none;fill-rule:nonzero;fill:rgb(6.27451%,48.627451%,25.490196%);fill-opacity:1;" d="M 42.292969 35 L 65.625 35 L 65.625 49.582031 L 42.292969 49.582031 Z M 42.292969 35 "/>
</g>
</svg>
