<?xml version="1.0" encoding="UTF-8"?>
<svg xmlns="http://www.w3.org/2000/svg" xmlns:xlink="http://www.w3.org/1999/xlink" width="70pt" height="70pt" viewBox="0 0 70 70" version="1.1">
<defs>
<linearGradient id="linear0" gradientUnits="userSpaceOnUse" x1="8.144" y1="13.837" x2="8.144" y2="6.11" gradientTransform="matrix(3.888889,0,0,3.888889,0,0)">
<stop offset="0" style="stop-color:rgb(19.607843%,74.509804%,86.666667%);stop-opacity:1;"/>
<stop offset="0.175" style="stop-color:rgb(19.607843%,79.215686%,91.764706%);stop-opacity:1;"/>
<stop offset="0.41" style="stop-color:rgb(19.607843%,82.352941%,94.901961%);stop-opacity:1;"/>
<stop offset="0.775" style="stop-color:rgb(19.607843%,83.137255%,96.078431%);stop-opacity:1;"/>
</linearGradient>
</defs>
<g id="surface1">
<path style=" stroke:none;fill-rule:nonzero;fill:url(#linear0);" d="M 17.828125 23.761719 L 45.515625 23.761719 C 46.167969 23.761719 46.695313 24.289063 46.695313 24.9375 L 46.695313 52.628906 C 46.695313 53.277344 46.167969 53.808594 45.515625 53.808594 L 17.828125 53.808594 C 17.175781 53.808594 16.648438 53.277344 16.648438 52.628906 L 16.648438 24.9375 C 16.648438 24.289063 17.175781 23.761719 17.828125 23.761719 Z M 17.828125 23.761719 "/>
<path style=" stroke:none;fill-rule:nonzero;fill:rgb(46.666667%,22.745098%,86.27451%);fill-opacity:1;" d="M 65.699219 2.566406 L 37.308594 2.566406 C 36.664063 2.566406 36.144531 3.089844 36.144531 3.734375 L 36.144531 8.894531 C 36.144531 9.539063 36.664063 10.0625 37.308594 10.0625 L 58.195313 10.0625 C 58.820313 10.0625 59.421875 10.308594 59.863281 10.75 C 60.304688 11.191406 60.550781 11.792969 60.550781 12.417969 L 60.550781 33.644531 C 60.550781 34.289063 61.074219 34.808594 61.714844 34.808594 L 66.890625 34.808594 C 67.535156 34.808594 68.054688 34.289063 68.054688 33.644531 L 68.054688 4.921875 C 68.054688 3.621094 67 2.566406 65.699219 2.566406 Z M 65.699219 2.566406 "/>
<path style=" stroke:none;fill-rule:nonzero;fill:rgb(70.196078%,70.196078%,70.196078%);fill-opacity:1;" d="M 55.738281 39.757813 L 55.738281 58.445313 C 55.738281 59.632813 54.777344 60.59375 53.59375 60.59375 L 10.929688 60.59375 C 9.742188 60.59375 8.78125 59.632813 8.78125 58.445313 L 8.78125 18.167969 C 8.78125 16.984375 9.742188 16.023438 10.929688 16.023438 L 32.316406 16.023438 C 32.960938 16.023438 33.484375 15.5 33.484375 14.855469 L 33.484375 10.363281 C 33.484375 9.71875 32.960938 9.195313 32.316406 9.195313 L 4.089844 9.195313 C 2.910156 9.195313 1.949219 10.152344 1.945313 11.332031 L 1.945313 65.285156 C 1.945313 66.472656 2.90625 67.433594 4.089844 67.433594 L 60.429688 67.433594 C 61.617188 67.433594 62.578125 66.472656 62.578125 65.285156 L 62.578125 39.757813 C 62.578125 39.113281 62.058594 38.589844 61.414063 38.589844 L 56.917969 38.589844 C 56.605469 38.585938 56.304688 38.707031 56.085938 38.925781 C 55.863281 39.144531 55.738281 39.445313 55.738281 39.757813 Z M 55.738281 39.757813 "/>
</g>
</svg>
