<?xml version="1.0" encoding="UTF-8"?>
<svg xmlns="http://www.w3.org/2000/svg" xmlns:xlink="http://www.w3.org/1999/xlink" width="70pt" height="70pt" viewBox="0 0 70 70" version="1.1">
<defs>
<linearGradient id="linear0" gradientUnits="userSpaceOnUse" x1="7.981" y1="16.737" x2="7.981" y2="0.724" gradientTransform="matrix(3.888889,0,0,3.888889,0,0)">
<stop offset="0" style="stop-color:rgb(0%,47.058824%,83.137255%);stop-opacity:1;"/>
<stop offset="1" style="stop-color:rgb(36.862745%,62.745098%,93.72549%);stop-opacity:1;"/>
</linearGradient>
</defs>
<g id="surface1">
<path style=" stroke:none;fill-rule:nonzero;fill:rgb(0%,47.058824%,83.137255%);fill-opacity:1;" d="M 58.820313 31.707031 C 58.820313 49.984375 36.753906 64.664063 31.949219 67.644531 C 31.390625 67.992188 30.683594 67.992188 30.125 67.644531 C 25.324219 64.664063 3.253906 49.964844 3.253906 31.707031 L 3.253906 9.722656 C 3.257813 8.777344 4.015625 8.003906 4.960938 7.984375 C 22.128906 7.53125 18.175781 0 31.039063 0 C 43.898438 0 39.949219 7.53125 57.117188 8 C 58.0625 8.023438 58.816406 8.792969 58.820313 9.738281 Z M 58.820313 31.707031 "/>
<path style=" stroke:none;fill-rule:nonzero;fill:url(#linear0);" d="M 56.515625 31.890625 C 56.515625 48.632813 36.296875 62.113281 31.878906 64.847656 C 31.363281 65.167969 30.714844 65.167969 30.199219 64.847656 C 25.800781 62.117188 5.5625 48.636719 5.5625 31.890625 L 5.5625 11.75 C 5.5625 10.882813 6.253906 10.175781 7.117188 10.152344 C 22.867188 9.722656 19.242188 2.816406 31.039063 2.816406 C 42.832031 2.816406 39.203125 9.726563 54.953125 10.152344 C 55.820313 10.175781 56.507813 10.882813 56.507813 11.75 Z M 56.515625 31.890625 "/>
<path style=" stroke:none;fill-rule:nonzero;fill:rgb(46.27451%,73.72549%,17.647059%);fill-opacity:1;" d="M 66.746094 49.710938 C 66.746094 60.917969 57.660156 70 46.457031 70 C 35.25 70 26.167969 60.917969 26.167969 49.710938 C 26.167969 38.507813 35.25 29.421875 46.457031 29.421875 C 57.660156 29.421875 66.746094 38.507813 66.746094 49.710938 Z M 66.746094 49.710938 "/>
<path style=" stroke:none;fill-rule:nonzero;fill:rgb(100%,100%,100%);fill-opacity:1;" d="M 31.964844 47.804688 C 31.804688 47.902344 31.605469 47.933594 31.421875 47.882813 C 31.238281 47.835938 31.078125 47.71875 30.984375 47.554688 L 30.125 46.105469 C 29.921875 45.765625 30.035156 45.324219 30.375 45.121094 L 37.1875 41.082031 C 37.347656 40.984375 37.546875 40.957031 37.730469 41.003906 C 37.914063 41.050781 38.074219 41.171875 38.167969 41.335938 L 42.210938 48.144531 C 42.308594 48.308594 42.335938 48.503906 42.289063 48.6875 C 42.242188 48.875 42.121094 49.03125 41.957031 49.128906 L 40.511719 49.988281 C 40.167969 50.1875 39.730469 50.074219 39.527344 49.734375 L 38.328125 47.710938 C 38.054688 48.828125 37.988281 49.984375 38.140625 51.125 C 38.292969 52.265625 38.675781 53.367188 39.265625 54.355469 C 39.683594 55.078125 40.207031 55.734375 40.820313 56.300781 C 41.429688 56.855469 42.113281 57.328125 42.847656 57.707031 C 43.585938 58.082031 44.371094 58.351563 45.179688 58.511719 C 45.789063 58.628906 46.410156 58.6875 47.03125 58.679688 C 47.398438 58.683594 47.703125 58.964844 47.730469 59.328125 L 48.058594 62.828125 C 46.832031 62.941406 45.59375 62.875 44.382813 62.628906 C 43.191406 62.390625 42.03125 61.992188 40.945313 61.441406 C 39.863281 60.890625 38.859375 60.191406 37.972656 59.363281 C 35.773438 57.3125 34.359375 54.566406 33.964844 51.585938 C 33.738281 49.855469 33.863281 48.097656 34.328125 46.414063 Z M 48.519531 41.195313 C 49.328125 41.359375 50.113281 41.632813 50.851563 42.011719 C 51.585938 42.386719 52.265625 42.863281 52.875 43.417969 C 54.347656 44.769531 55.300781 46.59375 55.5625 48.574219 C 55.714844 49.714844 55.652344 50.871094 55.378906 51.988281 L 54.179688 49.964844 C 53.976563 49.625 53.539063 49.511719 53.195313 49.710938 L 51.75 50.570313 C 51.585938 50.667969 51.464844 50.824219 51.417969 51.011719 C 51.371094 51.195313 51.398438 51.390625 51.496094 51.554688 L 55.539063 58.367188 C 55.742188 58.707031 56.179688 58.820313 56.519531 58.617188 L 63.332031 54.578125 C 63.496094 54.480469 63.613281 54.320313 63.660156 54.136719 C 63.710938 53.953125 63.679688 53.757813 63.582031 53.59375 L 62.722656 52.144531 C 62.519531 51.804688 62.082031 51.695313 61.738281 51.898438 L 59.382813 53.292969 C 59.847656 51.613281 59.972656 49.855469 59.746094 48.125 C 59.351563 45.144531 57.9375 42.398438 55.738281 40.347656 C 54.847656 39.523438 53.847656 38.824219 52.765625 38.273438 C 51.679688 37.722656 50.519531 37.324219 49.328125 37.085938 C 48.359375 36.890625 47.375 36.808594 46.390625 36.839844 C 46.195313 36.847656 46.015625 36.9375 45.890625 37.085938 C 45.761719 37.230469 45.703125 37.425781 45.722656 37.617188 L 45.976563 40.378906 C 46.007813 40.746094 46.3125 41.03125 46.683594 41.03125 C 47.300781 41.027344 47.914063 41.089844 48.519531 41.222656 Z M 48.519531 41.195313 "/>
</g>
</svg>
