<?xml version="1.0" encoding="UTF-8"?>
<svg xmlns="http://www.w3.org/2000/svg" xmlns:xlink="http://www.w3.org/1999/xlink" width="70pt" height="70pt" viewBox="0 0 70 70" version="1.1">
<defs>
<linearGradient id="linear0" gradientUnits="userSpaceOnUse" x1="11.246" y1="18" x2="11.246" y2="3.281" gradientTransform="matrix(3.888889,0,0,3.888889,0,0)">
<stop offset="0" style="stop-color:rgb(0%,47.058824%,83.137255%);stop-opacity:1;"/>
<stop offset="0.817" style="stop-color:rgb(36.862745%,62.745098%,93.72549%);stop-opacity:1;"/>
</linearGradient>
</defs>
<g id="surface1">
<path style=" stroke:none;fill-rule:nonzero;fill:rgb(36.862745%,62.745098%,93.72549%);fill-opacity:1;" d="M 4.191406 1.300781 L 43.507813 1.300781 L 43.507813 46.742188 L 4.191406 46.742188 Z M 4.191406 1.300781 "/>
<path style=" stroke:none;fill-rule:nonzero;fill:rgb(0%,47.058824%,83.137255%);fill-opacity:1;" d="M 43.507813 48.039063 L 4.191406 48.039063 C 3.476563 48.039063 2.894531 47.457031 2.894531 46.742188 L 2.894531 1.300781 C 2.890625 0.953125 3.027344 0.625 3.273438 0.378906 C 3.515625 0.136719 3.847656 0 4.191406 0 L 43.507813 0 C 43.851563 0 44.183594 0.136719 44.425781 0.378906 C 44.667969 0.625 44.804688 0.953125 44.804688 1.300781 L 44.804688 46.742188 C 44.804688 47.457031 44.226563 48.039063 43.507813 48.039063 Z M 5.488281 45.441406 L 42.210938 45.441406 L 42.210938 2.597656 L 5.488281 2.597656 Z M 5.488281 45.441406 "/>
<path style=" stroke:none;fill-rule:nonzero;fill:rgb(51.372549%,72.54902%,97.647059%);fill-opacity:1;" d="M 11.707031 7.457031 L 51.023438 7.457031 L 51.023438 52.902344 L 11.707031 52.902344 Z M 11.707031 7.457031 "/>
<path style=" stroke:none;fill-rule:nonzero;fill:rgb(0%,47.058824%,83.137255%);fill-opacity:1;" d="M 51.023438 54.199219 L 11.707031 54.199219 C 10.988281 54.199219 10.410156 53.617188 10.40625 52.902344 L 10.40625 7.457031 C 10.410156 6.742188 10.988281 6.164063 11.707031 6.160156 L 51.023438 6.160156 C 51.738281 6.160156 52.320313 6.742188 52.320313 7.457031 L 52.320313 52.890625 C 52.324219 53.234375 52.1875 53.570313 51.945313 53.816406 C 51.699219 54.0625 51.367188 54.199219 51.023438 54.199219 Z M 13.003906 51.601563 L 49.726563 51.601563 L 49.726563 8.757813 L 13.003906 8.757813 Z M 13.003906 51.601563 "/>
<path style=" stroke:none;fill-rule:nonzero;fill:rgb(100%,100%,100%);fill-opacity:1;" d="M 46.984375 13.183594 L 22.625 13.183594 C 21.558594 13.195313 20.699219 14.0625 20.699219 15.128906 L 20.699219 67.667969 C 20.699219 68.734375 21.558594 69.601563 22.625 69.609375 L 64.84375 69.609375 C 65.90625 69.597656 66.765625 68.730469 66.765625 67.667969 L 66.765625 32.875 C 66.765625 31.8125 65.90625 30.945313 64.84375 30.933594 L 50.84375 30.933594 C 49.785156 30.921875 48.929688 30.066406 48.917969 29.007813 L 48.917969 15.113281 C 48.910156 14.050781 48.050781 13.191406 46.984375 13.183594 Z M 46.984375 13.183594 "/>
<path style=" stroke:none;fill-rule:nonzero;fill:url(#linear0);" d="M 46.09375 15.644531 L 46.09375 28.839844 C 46.097656 31.515625 48.269531 33.683594 50.945313 33.683594 L 64.238281 33.683594 L 64.238281 67.125 L 23.242188 67.125 L 23.242188 15.644531 L 46.09375 15.644531 M 47.027344 12.757813 L 22.3125 12.757813 C 21.238281 12.757813 20.367188 13.628906 20.367188 14.703125 L 20.367188 68.054688 C 20.367188 69.128906 21.238281 70 22.3125 70 L 65.15625 70 C 66.226563 70 67.097656 69.128906 67.097656 68.054688 L 67.097656 32.75 C 67.097656 31.675781 66.226563 30.804688 65.15625 30.804688 L 50.945313 30.804688 C 49.871094 30.804688 49 29.933594 49 28.859375 L 49 14.710938 C 49 13.636719 48.128906 12.765625 47.054688 12.765625 Z M 47.027344 12.757813 "/>
<path style=" stroke:none;fill-rule:nonzero;fill:rgb(0%,47.058824%,83.137255%);fill-opacity:1;" d="M 66.359375 31.183594 L 48.308594 13.183594 L 48.308594 27.851563 C 48.296875 29.679688 49.769531 31.171875 51.597656 31.183594 Z M 66.359375 31.183594 "/>
<path style=" stroke:none;fill-rule:nonzero;fill:rgb(36.862745%,62.745098%,93.72549%);fill-opacity:1;" d="M 29.75 38.820313 L 57.714844 38.820313 C 58.773438 38.820313 59.632813 39.675781 59.632813 40.734375 L 59.632813 41.167969 C 59.632813 42.226563 58.773438 43.085938 57.714844 43.085938 L 29.75 43.085938 C 28.691406 43.085938 27.832031 42.226563 27.832031 41.167969 L 27.832031 40.734375 C 27.832031 39.675781 28.691406 38.820313 29.75 38.820313 Z M 29.75 38.820313 "/>
<path style=" stroke:none;fill-rule:nonzero;fill:rgb(36.862745%,62.745098%,93.72549%);fill-opacity:1;" d="M 29.75 46.464844 L 57.714844 46.464844 C 58.773438 46.464844 59.632813 47.324219 59.632813 48.382813 L 59.632813 48.8125 C 59.632813 49.871094 58.773438 50.730469 57.714844 50.730469 L 29.75 50.730469 C 28.691406 50.730469 27.832031 49.871094 27.832031 48.8125 L 27.832031 48.382813 C 27.832031 47.324219 28.691406 46.464844 29.75 46.464844 Z M 29.75 46.464844 "/>
<path style=" stroke:none;fill-rule:nonzero;fill:rgb(36.862745%,62.745098%,93.72549%);fill-opacity:1;" d="M 29.75 54.105469 L 45.957031 54.105469 C 47.019531 54.105469 47.875 54.964844 47.875 56.023438 L 47.875 56.453125 C 47.875 57.515625 47.019531 58.371094 45.957031 58.371094 L 29.75 58.371094 C 28.691406 58.371094 27.832031 57.515625 27.832031 56.453125 L 27.832031 56.023438 C 27.832031 54.964844 28.691406 54.105469 29.75 54.105469 Z M 29.75 54.105469 "/>
</g>
</svg>
