<?xml version="1.0" encoding="UTF-8"?>
<svg xmlns="http://www.w3.org/2000/svg" xmlns:xlink="http://www.w3.org/1999/xlink" width="70pt" height="70pt" viewBox="0 0 70 70" version="1.1">
<defs>
<linearGradient id="linear0" gradientUnits="userSpaceOnUse" x1="9" y1="18" x2="9" y2="0" gradientTransform="matrix(3.888889,0,0,3.888889,0,0)">
<stop offset="0" style="stop-color:rgb(0%,47.058824%,83.137255%);stop-opacity:1;"/>
<stop offset="0.817" style="stop-color:rgb(36.862745%,62.745098%,93.72549%);stop-opacity:1;"/>
</linearGradient>
</defs>
<g id="surface1">
<path style=" stroke:none;fill-rule:nonzero;fill:rgb(100%,100%,100%);fill-opacity:1;" d="M 38.976563 0.519531 L 9.1875 0.519531 C 8.5625 0.519531 7.960938 0.769531 7.519531 1.210938 C 7.078125 1.652344 6.832031 2.253906 6.832031 2.878906 L 6.832031 67.121094 C 6.832031 67.746094 7.078125 68.347656 7.519531 68.789063 C 7.960938 69.230469 8.5625 69.480469 9.1875 69.480469 L 60.8125 69.480469 C 62.109375 69.46875 63.148438 68.414063 63.148438 67.121094 L 63.148438 24.605469 C 63.148438 23.3125 62.109375 22.257813 60.8125 22.25 L 43.679688 22.25 C 42.386719 22.238281 41.347656 21.1875 41.347656 19.894531 L 41.347656 2.878906 C 41.351563 2.25 41.105469 1.644531 40.660156 1.199219 C 40.214844 0.757813 39.605469 0.511719 38.976563 0.519531 Z M 38.976563 0.519531 "/>
<path style=" stroke:none;fill-rule:nonzero;fill:url(#linear0);" d="M 37.890625 3.53125 L 37.890625 19.667969 C 37.890625 22.933594 40.535156 25.582031 43.800781 25.589844 L 60.054688 25.589844 L 60.054688 66.46875 L 9.945313 66.46875 L 9.945313 3.53125 L 37.890625 3.53125 M 39.027344 0 L 8.804688 0 C 8.171875 0 7.5625 0.253906 7.113281 0.699219 C 6.667969 1.148438 6.414063 1.757813 6.417969 2.390625 L 6.417969 67.609375 C 6.414063 68.242188 6.667969 68.851563 7.113281 69.300781 C 7.5625 69.746094 8.171875 70 8.804688 70 L 61.195313 70 C 61.828125 70 62.4375 69.746094 62.886719 69.300781 C 63.332031 68.851563 63.585938 68.242188 63.582031 67.609375 L 63.582031 24.445313 C 63.582031 23.125 62.515625 22.058594 61.195313 22.058594 L 43.800781 22.058594 C 42.480469 22.054688 41.414063 20.984375 41.417969 19.667969 L 41.417969 2.390625 C 41.417969 1.757813 41.167969 1.148438 40.71875 0.699219 C 40.269531 0.253906 39.664063 0 39.027344 0 Z M 39.027344 0 "/>
<path style=" stroke:none;fill-rule:nonzero;fill:rgb(0%,47.058824%,83.137255%);fill-opacity:1;" d="M 62.671875 22.53125 L 40.59375 0.519531 L 40.59375 18.457031 C 40.578125 20.695313 42.378906 22.519531 44.617188 22.53125 Z M 62.671875 22.53125 "/>
<path style=" stroke:none;fill-rule:nonzero;fill:rgb(36.862745%,62.745098%,93.72549%);fill-opacity:1;" d="M 17.902344 31.875 L 52.09375 31.875 C 53.390625 31.875 54.441406 32.921875 54.441406 34.21875 L 54.441406 34.742188 C 54.441406 36.039063 53.390625 37.089844 52.09375 37.089844 L 17.902344 37.089844 C 16.605469 37.089844 15.554688 36.039063 15.554688 34.742188 L 15.554688 34.21875 C 15.554688 32.921875 16.605469 31.875 17.902344 31.875 Z M 17.902344 31.875 "/>
<path style=" stroke:none;fill-rule:nonzero;fill:rgb(36.862745%,62.745098%,93.72549%);fill-opacity:1;" d="M 17.902344 41.21875 L 52.09375 41.21875 C 53.390625 41.21875 54.441406 42.269531 54.441406 43.5625 L 54.441406 44.089844 C 54.441406 45.382813 53.390625 46.433594 52.09375 46.433594 L 17.902344 46.433594 C 16.605469 46.433594 15.554688 45.382813 15.554688 44.089844 L 15.554688 43.5625 C 15.554688 42.269531 16.605469 41.21875 17.902344 41.21875 Z M 17.902344 41.21875 "/>
<path style=" stroke:none;fill-rule:nonzero;fill:rgb(36.862745%,62.745098%,93.72549%);fill-opacity:1;" d="M 17.902344 50.5625 L 37.71875 50.5625 C 39.011719 50.5625 40.0625 51.613281 40.0625 52.910156 L 40.0625 53.433594 C 40.0625 54.726563 39.011719 55.777344 37.71875 55.777344 L 17.902344 55.777344 C 16.605469 55.777344 15.554688 54.726563 15.554688 53.433594 L 15.554688 52.910156 C 15.554688 51.613281 16.605469 50.5625 17.902344 50.5625 Z M 17.902344 50.5625 "/>
</g>
</svg>
