<?xml version="1.0" encoding="UTF-8"?>
<svg xmlns="http://www.w3.org/2000/svg" xmlns:xlink="http://www.w3.org/1999/xlink" width="70pt" height="70pt" viewBox="0 0 70 70" version="1.1">
<defs>
<linearGradient id="linear0" gradientUnits="userSpaceOnUse" x1="9.252" y1="0.485" x2="8.842" y2="16.966" gradientTransform="matrix(3.888889,0,0,3.888889,0,0)">
<stop offset="0" style="stop-color:rgb(100%,83.137255%,0%);stop-opacity:1;"/>
<stop offset="0.415" style="stop-color:rgb(100%,81.568627%,0%);stop-opacity:1;"/>
<stop offset="0.845" style="stop-color:rgb(100%,76.470588%,0.392157%);stop-opacity:1;"/>
<stop offset="1" style="stop-color:rgb(100%,74.117647%,0.784314%);stop-opacity:1;"/>
</linearGradient>
</defs>
<g id="surface1">
<path style=" stroke:none;fill-rule:nonzero;fill:rgb(87.45098%,64.705882%,0%);fill-opacity:1;" d="M 68.363281 12.765625 L 37.828125 12.765625 C 37.503906 12.769531 37.191406 12.671875 36.921875 12.496094 L 28.199219 6.691406 C 27.929688 6.511719 27.613281 6.417969 27.292969 6.417969 L 1.636719 6.417969 C 1.203125 6.414063 0.785156 6.585938 0.480469 6.894531 C 0.171875 7.199219 0 7.617188 0 8.050781 L 0 61.949219 C 0 62.382813 0.171875 62.800781 0.480469 63.105469 C 0.785156 63.414063 1.203125 63.585938 1.636719 63.582031 L 68.363281 63.582031 C 68.796875 63.585938 69.214844 63.414063 69.519531 63.105469 C 69.828125 62.800781 70 62.382813 70 61.949219 L 70 14.390625 C 69.992188 13.488281 69.261719 12.765625 68.363281 12.765625 Z M 68.363281 12.765625 "/>
<path style=" stroke:none;fill-rule:nonzero;fill:rgb(100%,100%,100%);fill-opacity:1;" d="M 7.03125 9.546875 L 21.601563 9.546875 C 21.972656 9.546875 22.273438 9.847656 22.273438 10.214844 L 22.273438 12.058594 C 22.273438 12.429688 21.972656 12.726563 21.601563 12.726563 L 7.03125 12.726563 C 6.660156 12.726563 6.363281 12.429688 6.363281 12.058594 L 6.363281 10.214844 C 6.363281 9.847656 6.660156 9.546875 7.03125 9.546875 Z M 7.03125 9.546875 "/>
<path style=" stroke:none;fill-rule:nonzero;fill:url(#linear0);" d="M 68.363281 12.6875 L 34.828125 12.6875 C 34.390625 12.6875 33.972656 12.859375 33.664063 13.167969 L 28.28125 18.5625 C 27.972656 18.871094 27.550781 19.042969 27.113281 19.039063 L 1.636719 19.039063 C 1.203125 19.039063 0.785156 19.210938 0.480469 19.515625 C 0.171875 19.824219 0 20.238281 0 20.671875 L 0 61.871094 C 0.00390625 62.773438 0.734375 63.503906 1.636719 63.5 L 68.363281 63.5 C 69.265625 63.503906 69.996094 62.773438 70 61.871094 L 70 14.324219 C 70 13.890625 69.828125 13.472656 69.519531 13.167969 C 69.214844 12.859375 68.796875 12.6875 68.363281 12.6875 Z M 68.363281 12.6875 "/>
</g>
</svg>
