<?xml version="1.0" encoding="UTF-8"?>
<svg xmlns="http://www.w3.org/2000/svg" xmlns:xlink="http://www.w3.org/1999/xlink" width="70pt" height="70pt" viewBox="0 0 70 70" version="1.1">
<defs>
<linearGradient id="linear0" gradientUnits="userSpaceOnUse" x1="9.252" y1="0.485" x2="8.842" y2="16.966" gradientTransform="matrix(3.888889,0,0,3.888889,0,0)">
<stop offset="0" style="stop-color:rgb(100%,83.137255%,0%);stop-opacity:1;"/>
<stop offset="1" style="stop-color:rgb(100%,74.117647%,0.784314%);stop-opacity:1;"/>
</linearGradient>
<linearGradient id="linear1" gradientUnits="userSpaceOnUse" x1="9.252" y1="0.485" x2="8.842" y2="16.966" gradientTransform="matrix(3.888889,0,0,3.888889,0,0)">
<stop offset="0" style="stop-color:rgb(100%,83.137255%,0%);stop-opacity:1;"/>
<stop offset="1" style="stop-color:rgb(100%,74.117647%,0.784314%);stop-opacity:1;"/>
</linearGradient>
<radialGradient id="radial0" gradientUnits="userSpaceOnUse" cx="2073.6" cy="3109.478" fx="2073.6" fy="3109.478" r="26.184" gradientTransform="matrix(0.583333,0,0,0.583333,-1174.607778,-1774.546667)">
<stop offset="0.183" style="stop-color:rgb(36.862745%,62.745098%,93.72549%);stop-opacity:1;"/>
<stop offset="1" style="stop-color:rgb(0%,47.058824%,83.137255%);stop-opacity:1;"/>
</radialGradient>
<linearGradient id="linear2" gradientUnits="userSpaceOnUse" x1="6.874" y1="11.261" x2="6.86" y2="9.431" gradientTransform="matrix(3.888889,0,0,3.888889,0,0)">
<stop offset="0" style="stop-color:rgb(80%,80%,80%);stop-opacity:1;"/>
<stop offset="0.123" style="stop-color:rgb(84.313725%,84.313725%,84.313725%);stop-opacity:1;"/>
<stop offset="1" style="stop-color:rgb(98.823529%,98.823529%,98.823529%);stop-opacity:1;"/>
</linearGradient>
<linearGradient id="linear3" gradientUnits="userSpaceOnUse" x1="9.524" y1="13.091" x2="9.524" y2="11.45" gradientTransform="matrix(3.888889,0,0,3.888889,0,0)">
<stop offset="0" style="stop-color:rgb(80%,80%,80%);stop-opacity:1;"/>
<stop offset="0.123" style="stop-color:rgb(84.313725%,84.313725%,84.313725%);stop-opacity:1;"/>
<stop offset="1" style="stop-color:rgb(98.823529%,98.823529%,98.823529%);stop-opacity:1;"/>
</linearGradient>
<filter id="alpha" filterUnits="objectBoundingBox" x="0%" y="0%" width="100%" height="100%">
  <feColorMatrix type="matrix" in="SourceGraphic" values="0 0 0 0 1 0 0 0 0 1 0 0 0 0 1 0 0 0 1 0"/>
</filter>
<mask id="mask0">
  <g filter="url(#alpha)">
<rect x="0" y="0" width="70" height="70" style="fill:rgb(0%,0%,0%);fill-opacity:0.54902;stroke:none;"/>
  </g>
</mask>
<clipPath id="clip1">
  <rect x="0" y="0" width="70" height="70"/>
</clipPath>
<g id="surface5" clip-path="url(#clip1)">
<path style=" stroke:none;fill-rule:nonzero;fill:rgb(94.901961%,94.901961%,94.901961%);fill-opacity:1;" d="M 21.777344 46.996094 C 22.117188 47.570313 22.492188 48.125 22.898438 48.652344 C 23.210938 49.058594 23.542969 49.449219 23.894531 49.820313 C 24.328125 47.6875 24.980469 45.601563 25.835938 43.597656 C 24.875 43.433594 23.980469 42.980469 23.277344 42.300781 C 22.664063 43.828125 22.164063 45.398438 21.777344 46.996094 Z M 21.777344 46.996094 "/>
</g>
<mask id="mask1">
  <g filter="url(#alpha)">
<rect x="0" y="0" width="70" height="70" style="fill:rgb(0%,0%,0%);fill-opacity:0.54902;stroke:none;"/>
  </g>
</mask>
<clipPath id="clip2">
  <rect x="0" y="0" width="70" height="70"/>
</clipPath>
<g id="surface8" clip-path="url(#clip2)">
<path style=" stroke:none;fill-rule:nonzero;fill:rgb(94.901961%,94.901961%,94.901961%);fill-opacity:1;" d="M 25.042969 34.132813 C 24.410156 32.429688 23.992188 30.648438 23.808594 28.839844 C 23.054688 29.640625 22.390625 30.519531 21.828125 31.460938 C 22.039063 32.902344 22.382813 34.324219 22.851563 35.703125 C 23.421875 34.984375 24.179688 34.441406 25.042969 34.132813 Z M 25.042969 34.132813 "/>
</g>
<mask id="mask2">
  <g filter="url(#alpha)">
<rect x="0" y="0" width="70" height="70" style="fill:rgb(0%,0%,0%);fill-opacity:0.54902;stroke:none;"/>
  </g>
</mask>
<clipPath id="clip3">
  <rect x="0" y="0" width="70" height="70"/>
</clipPath>
<g id="surface11" clip-path="url(#clip3)">
<path style=" stroke:none;fill-rule:nonzero;fill:rgb(94.901961%,94.901961%,94.901961%);fill-opacity:1;" d="M 30.273438 42.101563 C 29.5625 42.867188 28.625 43.382813 27.59375 43.574219 C 28.398438 44.417969 29.269531 45.1875 30.199219 45.886719 C 31.351563 46.75 32.582031 47.503906 33.878906 48.128906 C 33.855469 47.992188 33.839844 47.855469 33.832031 47.714844 C 33.832031 46.859375 34.179688 46.035156 34.796875 45.4375 C 33.152344 44.527344 31.632813 43.40625 30.273438 42.101563 Z M 30.273438 42.101563 "/>
</g>
<mask id="mask3">
  <g filter="url(#alpha)">
<rect x="0" y="0" width="70" height="70" style="fill:rgb(0%,0%,0%);fill-opacity:0.54902;stroke:none;"/>
  </g>
</mask>
<clipPath id="clip4">
  <rect x="0" y="0" width="70" height="70"/>
</clipPath>
<g id="surface14" clip-path="url(#clip4)">
<path style=" stroke:none;fill-rule:nonzero;fill:rgb(94.901961%,94.901961%,94.901961%);fill-opacity:1;" d="M 40.21875 47.523438 C 40.21875 47.589844 40.21875 47.652344 40.21875 47.714844 C 40.21875 48.550781 39.890625 49.351563 39.308594 49.945313 C 41.324219 50.34375 43.382813 50.492188 45.4375 50.382813 C 46.210938 49.65625 46.902344 48.84375 47.507813 47.96875 C 46.730469 48.054688 45.953125 48.097656 45.171875 48.097656 C 43.503906 48.101563 41.84375 47.910156 40.21875 47.523438 Z M 40.21875 47.523438 "/>
</g>
<mask id="mask4">
  <g filter="url(#alpha)">
<rect x="0" y="0" width="70" height="70" style="fill:rgb(0%,0%,0%);fill-opacity:0.54902;stroke:none;"/>
  </g>
</mask>
<clipPath id="clip5">
  <rect x="0" y="0" width="70" height="70"/>
</clipPath>
<g id="surface17" clip-path="url(#clip5)">
<path style=" stroke:none;fill-rule:nonzero;fill:rgb(94.901961%,94.901961%,94.901961%);fill-opacity:1;" d="M 42.0625 37.417969 C 39.972656 35.882813 38.015625 34.179688 36.203125 32.328125 C 39.511719 30.660156 43.15625 29.765625 46.859375 29.714844 C 46.082031 28.742188 45.183594 27.871094 44.1875 27.117188 C 41.285156 27.304688 38.433594 27.976563 35.753906 29.109375 C 35.171875 29.355469 34.652344 29.726563 34.09375 30.023438 L 34.042969 29.964844 C 32.675781 28.34375 31.480469 26.582031 30.476563 24.714844 C 29.8125 24.921875 29.164063 25.171875 28.53125 25.46875 C 29.574219 27.453125 30.824219 29.320313 32.253906 31.046875 C 30.871094 31.9375 29.589844 32.980469 28.4375 34.15625 C 29.441406 34.535156 30.289063 35.230469 30.859375 36.136719 C 31.925781 35.109375 33.097656 34.195313 34.359375 33.414063 C 36.386719 35.535156 38.597656 37.46875 40.96875 39.199219 C 41.132813 38.503906 41.515625 37.878906 42.0625 37.417969 Z M 42.0625 37.417969 "/>
</g>
<mask id="mask5">
  <g filter="url(#alpha)">
<rect x="0" y="0" width="70" height="70" style="fill:rgb(0%,0%,0%);fill-opacity:0.54902;stroke:none;"/>
  </g>
</mask>
<clipPath id="clip6">
  <rect x="0" y="0" width="70" height="70"/>
</clipPath>
<g id="surface20" clip-path="url(#clip6)">
<path style=" stroke:none;fill-rule:nonzero;fill:rgb(94.901961%,94.901961%,94.901961%);fill-opacity:1;" d="M 49.425781 41.789063 L 49.371094 41.757813 L 48.835938 41.472656 L 48.734375 41.417969 L 48.257813 41.152344 L 48.140625 41.085938 L 47.574219 40.761719 C 47.382813 41.425781 46.980469 42.007813 46.429688 42.425781 L 47.101563 42.8125 L 47.253906 42.898438 L 47.878906 43.246094 L 47.9375 43.28125 C 48.445313 43.550781 48.960938 43.828125 49.492188 44.097656 C 49.707031 43.441406 49.878906 42.773438 50.003906 42.097656 Z M 49.425781 41.789063 "/>
</g>
</defs>
<g id="surface1">
<path style=" stroke:none;fill-rule:nonzero;fill:rgb(87.45098%,64.705882%,0%);fill-opacity:1;" d="M 68.363281 12.765625 L 37.828125 12.765625 C 37.503906 12.769531 37.191406 12.671875 36.921875 12.496094 L 28.199219 6.691406 C 27.929688 6.511719 27.613281 6.417969 27.292969 6.417969 L 1.636719 6.417969 C 1.203125 6.414063 0.785156 6.585938 0.480469 6.894531 C 0.171875 7.199219 0 7.617188 0 8.050781 L 0 61.949219 C 0 62.382813 0.171875 62.800781 0.480469 63.105469 C 0.785156 63.414063 1.203125 63.585938 1.636719 63.582031 L 68.363281 63.582031 C 68.796875 63.585938 69.214844 63.414063 69.519531 63.105469 C 69.828125 62.800781 70 62.382813 70 61.949219 L 70 14.390625 C 69.992188 13.488281 69.261719 12.765625 68.363281 12.765625 Z M 68.363281 12.765625 "/>
<path style=" stroke:none;fill-rule:nonzero;fill:rgb(100%,100%,100%);fill-opacity:1;" d="M 7.03125 9.546875 L 21.601563 9.546875 C 21.972656 9.546875 22.273438 9.847656 22.273438 10.214844 L 22.273438 12.058594 C 22.273438 12.429688 21.972656 12.726563 21.601563 12.726563 L 7.03125 12.726563 C 6.660156 12.726563 6.363281 12.429688 6.363281 12.058594 L 6.363281 10.214844 C 6.363281 9.847656 6.660156 9.546875 7.03125 9.546875 Z M 7.03125 9.546875 "/>
<path style=" stroke:none;fill-rule:nonzero;fill:url(#linear0);" d="M 68.363281 12.6875 L 34.828125 12.6875 C 34.390625 12.6875 33.972656 12.859375 33.664063 13.167969 L 28.28125 18.5625 C 27.972656 18.871094 27.550781 19.042969 27.113281 19.039063 L 1.636719 19.039063 C 1.203125 19.039063 0.785156 19.210938 0.480469 19.515625 C 0.171875 19.824219 0 20.238281 0 20.671875 L 0 61.871094 C 0.00390625 62.773438 0.734375 63.503906 1.636719 63.5 L 68.363281 63.5 C 69.265625 63.503906 69.996094 62.773438 70 61.871094 L 70 14.324219 C 70 13.890625 69.828125 13.472656 69.519531 13.167969 C 69.214844 12.859375 68.796875 12.6875 68.363281 12.6875 Z M 68.363281 12.6875 "/>
<path style=" stroke:none;fill-rule:nonzero;fill:rgb(96.862745%,55.294118%,11.764706%);fill-opacity:1;" d="M 48 31.734375 L 48 46.949219 L 34.847656 54.597656 L 34.847656 39.355469 Z M 48 31.734375 "/>
<path style=" stroke:none;fill-rule:nonzero;fill:rgb(100%,70.196078%,30.196078%);fill-opacity:1;" d="M 48 31.734375 L 34.851563 39.378906 L 21.699219 31.730469 L 34.851563 24.082031 Z M 48 31.734375 "/>
<path style=" stroke:none;fill-rule:nonzero;fill:rgb(98.039216%,63.529412%,11.372549%);fill-opacity:1;" d="M 34.847656 39.378906 L 34.847656 54.597656 L 21.699219 46.949219 L 21.699219 31.734375 Z M 34.847656 39.378906 "/>
<path style=" stroke:none;fill-rule:nonzero;fill:rgb(87.45098%,64.705882%,0%);fill-opacity:1;" d="M 68.363281 12.765625 L 37.828125 12.765625 C 37.503906 12.769531 37.191406 12.671875 36.921875 12.496094 L 28.199219 6.691406 C 27.929688 6.511719 27.613281 6.417969 27.292969 6.417969 L 1.636719 6.417969 C 1.203125 6.414063 0.785156 6.585938 0.480469 6.894531 C 0.171875 7.199219 0 7.617188 0 8.050781 L 0 61.949219 C 0 62.382813 0.171875 62.800781 0.480469 63.105469 C 0.785156 63.414063 1.203125 63.585938 1.636719 63.582031 L 68.363281 63.582031 C 68.796875 63.585938 69.214844 63.414063 69.519531 63.105469 C 69.828125 62.800781 70 62.382813 70 61.949219 L 70 14.390625 C 69.992188 13.488281 69.261719 12.765625 68.363281 12.765625 Z M 68.363281 12.765625 "/>
<path style=" stroke:none;fill-rule:nonzero;fill:rgb(100%,100%,100%);fill-opacity:1;" d="M 7.03125 9.546875 L 21.601563 9.546875 C 21.972656 9.546875 22.273438 9.847656 22.273438 10.214844 L 22.273438 12.058594 C 22.273438 12.429688 21.972656 12.726563 21.601563 12.726563 L 7.03125 12.726563 C 6.660156 12.726563 6.363281 12.429688 6.363281 12.058594 L 6.363281 10.214844 C 6.363281 9.847656 6.660156 9.546875 7.03125 9.546875 Z M 7.03125 9.546875 "/>
<path style=" stroke:none;fill-rule:nonzero;fill:url(#linear1);" d="M 68.363281 12.6875 L 34.828125 12.6875 C 34.390625 12.6875 33.972656 12.859375 33.664063 13.167969 L 28.28125 18.5625 C 27.972656 18.871094 27.550781 19.042969 27.113281 19.039063 L 1.636719 19.039063 C 1.203125 19.039063 0.785156 19.210938 0.480469 19.515625 C 0.171875 19.824219 0 20.238281 0 20.671875 L 0 61.871094 C 0.00390625 62.773438 0.734375 63.503906 1.636719 63.5 L 68.363281 63.5 C 69.265625 63.503906 69.996094 62.773438 70 61.871094 L 70 14.324219 C 70 13.890625 69.828125 13.472656 69.519531 13.167969 C 69.214844 12.859375 68.796875 12.6875 68.363281 12.6875 Z M 68.363281 12.6875 "/>
<path style=" stroke:none;fill-rule:nonzero;fill:url(#radial0);" d="M 44.359375 51.394531 C 40.054688 54.84375 34.226563 55.703125 29.113281 53.648438 C 23.996094 51.589844 20.382813 46.933594 19.664063 41.464844 C 18.945313 36 21.230469 30.566406 25.640625 27.257813 L 25.796875 27.140625 C 32.492188 22.015625 42.078125 23.289063 47.207031 29.984375 C 52.332031 36.683594 51.058594 46.269531 44.359375 51.394531 "/>
<path style=" stroke:none;fill-rule:nonzero;fill:url(#linear2);" d="M 31.601563 38.753906 C 31.601563 41.464844 29.402344 43.660156 26.691406 43.660156 C 23.984375 43.660156 21.785156 41.464844 21.785156 38.753906 C 21.785156 36.042969 23.984375 33.84375 26.691406 33.84375 C 29.402344 33.84375 31.601563 36.042969 31.601563 38.753906 Z M 31.601563 38.753906 "/>
<path style=" stroke:none;fill-rule:nonzero;fill:url(#linear3);" d="M 40.226563 47.71875 C 40.226563 49.480469 38.800781 50.910156 37.039063 50.910156 C 35.277344 50.910156 33.847656 49.480469 33.847656 47.71875 C 33.847656 45.960938 35.277344 44.53125 37.039063 44.53125 C 38.800781 44.53125 40.226563 45.960938 40.226563 47.71875 Z M 40.226563 47.71875 "/>
<path style=" stroke:none;fill-rule:nonzero;fill:rgb(100%,100%,100%);fill-opacity:1;" d="M 47.695313 39.808594 C 47.695313 41.675781 46.179688 43.195313 44.308594 43.195313 C 42.4375 43.195313 40.921875 41.675781 40.921875 39.808594 C 40.921875 37.9375 42.4375 36.417969 44.308594 36.417969 C 46.179688 36.417969 47.695313 37.9375 47.695313 39.808594 Z M 47.695313 39.808594 "/>
<use xlink:href="#surface5" mask="url(#mask0)"/>
<use xlink:href="#surface8" mask="url(#mask1)"/>
<use xlink:href="#surface11" mask="url(#mask2)"/>
<use xlink:href="#surface14" mask="url(#mask3)"/>
<use xlink:href="#surface17" mask="url(#mask4)"/>
<use xlink:href="#surface20" mask="url(#mask5)"/>
<path style=" stroke:none;fill-rule:nonzero;fill:rgb(100%,100%,100%);fill-opacity:1;" d="M 31.601563 38.753906 C 31.601563 41.464844 29.402344 43.660156 26.691406 43.660156 C 23.984375 43.660156 21.785156 41.464844 21.785156 38.753906 C 21.785156 36.042969 23.984375 33.84375 26.691406 33.84375 C 29.402344 33.84375 31.601563 36.042969 31.601563 38.753906 Z M 31.601563 38.753906 "/>
<path style=" stroke:none;fill-rule:nonzero;fill:rgb(100%,100%,100%);fill-opacity:1;" d="M 40.226563 47.71875 C 40.226563 49.480469 38.800781 50.910156 37.039063 50.910156 C 35.277344 50.910156 33.847656 49.480469 33.847656 47.71875 C 33.847656 45.960938 35.277344 44.53125 37.039063 44.53125 C 38.800781 44.53125 40.226563 45.960938 40.226563 47.71875 Z M 40.226563 47.71875 "/>
</g>
</svg>
