<?xml version="1.0" encoding="UTF-8"?>
<svg xmlns="http://www.w3.org/2000/svg" xmlns:xlink="http://www.w3.org/1999/xlink" width="70pt" height="70pt" viewBox="0 0 70 70" version="1.1">
<defs>
<linearGradient id="linear0" gradientUnits="userSpaceOnUse" x1="9" y1="12.43" x2="9" y2="1.26" gradientTransform="matrix(3.888889,0,0,3.888889,0,0)">
<stop offset="0" style="stop-color:rgb(0%,47.058824%,83.137255%);stop-opacity:1;"/>
<stop offset="0.82" style="stop-color:rgb(36.862745%,62.745098%,93.72549%);stop-opacity:1;"/>
</linearGradient>
<linearGradient id="linear1" gradientUnits="userSpaceOnUse" x1="9" y1="16.74" x2="9" y2="12.43" gradientTransform="matrix(3.888889,0,0,3.888889,0,0)">
<stop offset="0.15" style="stop-color:rgb(80%,80%,80%);stop-opacity:1;"/>
<stop offset="1" style="stop-color:rgb(43.921569%,43.921569%,43.921569%);stop-opacity:1;"/>
</linearGradient>
</defs>
<g id="surface1">
<path style=" stroke:none;fill-rule:nonzero;fill:url(#linear0);" d="M 4.589844 4.898438 L 65.371094 4.898438 C 66.574219 4.898438 67.550781 5.875 67.550781 7.078125 L 67.550781 46.160156 C 67.550781 47.363281 66.574219 48.339844 65.371094 48.339844 L 4.589844 48.339844 C 3.386719 48.339844 2.410156 47.363281 2.410156 46.160156 L 2.410156 7.078125 C 2.410156 5.875 3.386719 4.898438 4.589844 4.898438 Z M 4.589844 4.898438 "/>
<path style=" stroke:none;fill-rule:nonzero;fill:rgb(31.372549%,90.196078%,100%);fill-opacity:1;" d="M 45.851563 24.65625 L 45.851563 37.292969 L 35 43.632813 L 35 30.996094 Z M 45.851563 24.65625 "/>
<path style=" stroke:none;fill-rule:nonzero;fill:rgb(61.176471%,92.156863%,100%);fill-opacity:1;" d="M 35 30.996094 L 35 43.632813 L 24.148438 37.292969 L 24.148438 24.65625 Z M 35 30.996094 "/>
<path style=" stroke:none;fill-rule:nonzero;fill:rgb(76.470588%,94.509804%,100%);fill-opacity:1;" d="M 24.148438 37.292969 L 35 30.996094 L 35 43.632813 Z M 24.148438 37.292969 "/>
<path style=" stroke:none;fill-rule:nonzero;fill:rgb(61.176471%,92.156863%,100%);fill-opacity:1;" d="M 45.851563 37.292969 L 35 30.996094 L 35 43.632813 Z M 45.851563 37.292969 "/>
<path style=" stroke:none;fill-rule:nonzero;fill:url(#linear1);" d="M 48.066406 61.484375 C 41.609375 60.472656 41.378906 55.804688 41.378906 48.339844 L 28.621094 48.339844 C 28.621094 55.804688 28.390625 60.472656 21.933594 61.484375 C 20.144531 61.789063 18.804688 63.289063 18.707031 65.101563 L 51.292969 65.101563 C 51.195313 63.289063 49.855469 61.789063 48.066406 61.484375 Z M 48.066406 61.484375 "/>
<path style=" stroke:none;fill-rule:nonzero;fill:rgb(76.470588%,94.509804%,100%);fill-opacity:1;" d="M 43.285156 24.1875 C 40.640625 24.945313 37.835938 24.945313 35.195313 24.1875 L 35 23.996094 L 34.261719 24.265625 C 31.578125 24.875 28.777344 24.671875 26.210938 23.683594 L 24.421875 24.734375 L 35 31.109375 L 45.851563 24.734375 L 44.371094 23.878906 Z M 43.285156 24.1875 "/>
<path style=" stroke:none;fill-rule:nonzero;fill:rgb(100%,79.215686%,0%);fill-opacity:1;" d="M 48.535156 19.445313 C 48.183594 18.316406 46.785156 16.722656 41.417969 18.355469 C 39.117188 19.132813 37.046875 20.46875 35.390625 22.246094 C 37.890625 18.75 41.632813 16.34375 45.851563 15.515625 L 41.144531 15.285156 L 42.777344 12.132813 C 39.011719 14.300781 36.222656 17.839844 35 22.011719 C 35 22.011719 35 22.359375 35 22.515625 C 33.746094 16.425781 30.066406 11.101563 24.8125 7.777344 L 26.40625 11.976563 L 19.871094 11.976563 C 24.789063 13.382813 29.148438 16.277344 32.355469 20.261719 C 31.207031 19.238281 29.890625 18.421875 28.464844 17.851563 C 26.703125 16.917969 24.671875 16.613281 22.710938 16.996094 C 22.054688 17.234375 21.53125 17.742188 21.273438 18.394531 C 20.804688 19.484375 20.882813 21.621094 26.054688 23.683594 C 28.621094 24.671875 31.421875 24.875 34.105469 24.265625 L 35 23.996094 L 35.3125 23.996094 C 37.953125 24.75 40.757813 24.75 43.398438 23.996094 C 45.335938 23.578125 47.085938 22.542969 48.378906 21.039063 C 48.609375 20.539063 48.664063 19.976563 48.535156 19.445313 Z M 26.832031 22.050781 C 23.800781 20.84375 22.710938 19.601563 22.945313 18.976563 C 22.992188 18.800781 23.152344 18.675781 23.332031 18.667969 C 23.722656 18.667969 24.964844 18.316406 27.804688 19.484375 C 29.574219 20.207031 31.136719 21.355469 32.355469 22.828125 C 30.480469 22.980469 28.59375 22.714844 26.832031 22.050781 Z M 46.667969 20.300781 C 45.609375 21.390625 44.257813 22.148438 42.777344 22.476563 C 40.945313 23 39.015625 23.09375 37.140625 22.75 C 38.507813 21.421875 40.15625 20.414063 41.960938 19.792969 C 45.070313 18.820313 46.667969 19.09375 46.898438 19.792969 C 46.902344 19.988281 46.816406 20.175781 46.667969 20.300781 Z M 46.667969 20.300781 "/>
</g>
</svg>
