<?xml version="1.0" encoding="UTF-8"?>
<svg xmlns="http://www.w3.org/2000/svg" xmlns:xlink="http://www.w3.org/1999/xlink" width="70pt" height="70pt" viewBox="0 0 70 70" version="1.1">
<defs>
<linearGradient id="linear0" gradientUnits="userSpaceOnUse" x1="9" y1="297.5" x2="9" y2="280.5" gradientTransform="matrix(3.888889,0,0,3.888889,0,-1088.888889)">
<stop offset="0" style="stop-color:rgb(19.607843%,74.509804%,86.666667%);stop-opacity:1;"/>
<stop offset="1" style="stop-color:rgb(19.607843%,83.137255%,96.078431%);stop-opacity:1;"/>
</linearGradient>
</defs>
<g id="surface1">
<path style=" stroke:none;fill-rule:nonzero;fill:url(#linear0);" d="M 68.054688 38.5 L 68.054688 31.109375 L 66.890625 30.722656 L 58.722656 28 L 56.777344 22.945313 L 61.054688 14.390625 L 55.609375 8.945313 L 54.445313 9.332031 L 47.054688 13.222656 L 42 11.277344 L 38.5 1.945313 L 31.109375 1.945313 L 30.722656 3.109375 L 28 10.890625 L 22.945313 13.222656 L 14.390625 8.945313 L 8.945313 14.390625 L 9.332031 15.554688 L 13.222656 22.945313 L 11.277344 28 L 1.945313 31.5 L 1.945313 38.890625 L 3.109375 39.277344 L 11.277344 42 L 13.222656 47.054688 L 8.945313 55.609375 L 14.390625 61.054688 L 15.554688 60.667969 L 22.945313 56.777344 L 28 58.722656 L 31.5 67.667969 L 38.890625 67.667969 L 39.277344 66.5 L 42 58.332031 L 47.054688 56.390625 L 55.609375 60.667969 L 61.054688 55.222656 L 60.667969 54.445313 L 56.777344 47.054688 L 58.722656 42 Z M 68.054688 38.5 "/>
<path style=" stroke:none;fill-rule:nonzero;fill:rgb(100%,100%,100%);fill-opacity:1;" d="M 47.832031 25.277344 L 44.722656 28 C 46.800781 30.289063 47.851563 33.332031 47.632813 36.417969 C 47.414063 39.5 45.9375 42.363281 43.554688 44.332031 C 41.269531 46.417969 38.226563 47.472656 35.140625 47.253906 C 32.050781 47.03125 29.191406 45.554688 27.222656 43.167969 C 23.332031 38.859375 23.332031 32.308594 27.222656 28 L 27.609375 28 L 29.945313 29.945313 L 30.332031 29.945313 L 30.332031 29.554688 L 29.554688 21.777344 C 29.554688 21.390625 29.167969 21.390625 28.777344 21.390625 L 21.390625 22.554688 C 21.175781 22.554688 21 22.730469 21 22.945313 L 23.332031 24.890625 L 23.332031 25.277344 C 19.691406 29.503906 18.605469 35.363281 20.5 40.613281 C 22.390625 45.863281 26.960938 49.6875 32.464844 50.617188 C 37.964844 51.550781 43.542969 49.445313 47.054688 45.109375 C 52.703125 39.828125 53.050781 30.984375 47.832031 25.277344 Z M 47.832031 25.277344 "/>
</g>
</svg>
