<?xml version="1.0" encoding="UTF-8"?>
<svg xmlns="http://www.w3.org/2000/svg" xmlns:xlink="http://www.w3.org/1999/xlink" width="70pt" height="70pt" viewBox="0 0 70 70" version="1.1">
<defs>
<linearGradient id="linear0" gradientUnits="userSpaceOnUse" x1="-245.439" y1="803.355" x2="-245.439" y2="815.481" gradientTransform="matrix(2.749444,2.749444,2.749444,-2.749444,-1520.252222,2926.229444)">
<stop offset="0" style="stop-color:rgb(93.72549%,44.313725%,0%);stop-opacity:1;"/>
<stop offset="0.82" style="stop-color:rgb(96.862745%,55.294118%,11.764706%);stop-opacity:1;"/>
</linearGradient>
</defs>
<g id="surface1">
<path style=" stroke:none;fill-rule:nonzero;fill:rgb(60%,60%,60%);fill-opacity:1;" d="M 36.167969 57.367188 C 36.167969 56.769531 33.78125 56.769531 33.78125 57.367188 C 33.9375 59.15625 33.339844 60.929688 32.132813 62.261719 C 30.925781 63.589844 29.214844 64.355469 27.421875 64.367188 L 42.515625 64.367188 C 40.722656 64.351563 39.015625 63.585938 37.8125 62.257813 C 36.605469 60.929688 36.007813 59.15625 36.167969 57.367188 Z M 36.167969 57.367188 "/>
<path style=" stroke:none;fill-rule:nonzero;fill:rgb(63.921569%,63.921569%,63.921569%);fill-opacity:1;" d="M 51.859375 4.277344 C 52.726563 3.410156 54.128906 3.410156 54.996094 4.277344 L 55.097656 4.386719 C 66.128906 17.222656 65.402344 36.394531 53.433594 48.359375 C 41.460938 60.324219 22.289063 61.042969 9.457031 50.003906 C 8.554688 49.195313 8.46875 47.804688 9.265625 46.890625 L 9.363281 46.792969 C 10.1875 45.953125 11.519531 45.898438 12.40625 46.667969 C 23.480469 56.132813 39.972656 55.488281 50.273438 45.1875 C 60.578125 34.886719 61.230469 18.398438 51.769531 7.320313 C 50.996094 6.4375 51.035156 5.109375 51.859375 4.277344 Z M 51.859375 4.277344 "/>
<path style=" stroke:none;fill-rule:nonzero;fill:rgb(63.921569%,63.921569%,63.921569%);fill-opacity:1;" d="M 46.457031 68.054688 L 23.511719 68.054688 C 22.488281 68.054688 21.660156 67.226563 21.660156 66.203125 C 21.660156 65.183594 22.488281 64.351563 23.511719 64.351563 L 46.457031 64.351563 C 47.476563 64.355469 48.304688 65.183594 48.304688 66.203125 C 48.304688 67.226563 47.476563 68.054688 46.457031 68.054688 Z M 46.457031 68.054688 "/>
<path style=" stroke:none;fill-rule:nonzero;fill:url(#linear0);" d="M 54.1875 25.523438 C 54.1875 38.542969 43.632813 49.101563 30.609375 49.101563 C 17.585938 49.101563 7.03125 38.542969 7.03125 25.523438 C 7.03125 12.5 17.585938 1.945313 30.609375 1.945313 C 43.632813 1.945313 54.1875 12.5 54.1875 25.523438 Z M 54.1875 25.523438 "/>
<path style=" stroke:none;fill-rule:nonzero;fill:rgb(94.901961%,94.901961%,94.901961%);fill-opacity:1;" d="M 16.140625 37.003906 L 45.546875 37.003906 C 45.957031 37 46.332031 36.78125 46.535156 36.425781 C 46.738281 36.070313 46.730469 35.632813 46.523438 35.28125 L 31.824219 10.566406 C 31.617188 10.226563 31.246094 10.019531 30.851563 10.019531 C 30.453125 10.019531 30.085938 10.226563 29.878906 10.566406 L 15.167969 35.28125 C 14.957031 35.632813 14.953125 36.066406 15.152344 36.421875 C 15.355469 36.78125 15.730469 37 16.140625 37.003906 Z M 16.140625 37.003906 "/>
<path style=" stroke:none;fill-rule:nonzero;fill:rgb(96.862745%,55.294118%,11.764706%);fill-opacity:1;" d="M 32.097656 29.441406 L 29.585938 29.441406 C 29.28125 29.457031 29.019531 29.226563 28.996094 28.921875 L 28.726563 17.464844 C 28.730469 17.3125 28.796875 17.171875 28.90625 17.070313 C 29.015625 16.964844 29.164063 16.914063 29.3125 16.921875 L 32.371094 16.921875 C 32.523438 16.914063 32.667969 16.964844 32.777344 17.070313 C 32.890625 17.171875 32.953125 17.3125 32.957031 17.464844 L 32.691406 28.921875 C 32.664063 29.226563 32.402344 29.457031 32.097656 29.441406 Z M 32.097656 29.441406 "/>
<path style=" stroke:none;fill-rule:nonzero;fill:rgb(96.862745%,55.294118%,11.764706%);fill-opacity:1;" d="M 32.847656 32.863281 C 32.847656 33.972656 31.949219 34.871094 30.84375 34.871094 C 29.734375 34.871094 28.835938 33.972656 28.835938 32.863281 C 28.835938 31.757813 29.734375 30.859375 30.84375 30.859375 C 31.949219 30.859375 32.847656 31.757813 32.847656 32.863281 Z M 32.847656 32.863281 "/>
</g>
</svg>
