<?xml version="1.0" encoding="UTF-8"?>
<svg xmlns="http://www.w3.org/2000/svg" xmlns:xlink="http://www.w3.org/1999/xlink" width="70pt" height="70pt" viewBox="0 0 70 70" version="1.1">
<defs>
<linearGradient id="linear0" gradientUnits="userSpaceOnUse" x1="-223.179" y1="749.615" x2="-223.179" y2="761.741" gradientTransform="matrix(2.749444,2.749444,2.749444,-2.749444,-1433.689444,2717.240556)">
<stop offset="0" style="stop-color:rgb(70.196078%,10.588235%,10.588235%);stop-opacity:1;"/>
<stop offset="0.82" style="stop-color:rgb(90.196078%,13.72549%,13.72549%);stop-opacity:1;"/>
</linearGradient>
</defs>
<g id="surface1">
<path style=" stroke:none;fill-rule:nonzero;fill:rgb(60%,60%,60%);fill-opacity:1;" d="M 36.167969 57.367188 C 36.167969 56.769531 33.78125 56.769531 33.78125 57.367188 C 33.9375 59.15625 33.339844 60.929688 32.132813 62.261719 C 30.925781 63.589844 29.214844 64.355469 27.421875 64.367188 L 42.515625 64.367188 C 40.722656 64.351563 39.015625 63.585938 37.8125 62.257813 C 36.605469 60.929688 36.007813 59.15625 36.167969 57.367188 Z M 36.167969 57.367188 "/>
<path style=" stroke:none;fill-rule:nonzero;fill:rgb(63.921569%,63.921569%,63.921569%);fill-opacity:1;" d="M 51.859375 4.277344 C 52.726563 3.410156 54.128906 3.410156 54.996094 4.277344 L 55.097656 4.386719 C 66.128906 17.222656 65.402344 36.394531 53.433594 48.359375 C 41.460938 60.324219 22.289063 61.042969 9.457031 50.003906 C 8.554688 49.195313 8.46875 47.804688 9.265625 46.890625 L 9.363281 46.792969 C 10.1875 45.953125 11.519531 45.898438 12.40625 46.667969 C 23.480469 56.132813 39.972656 55.488281 50.273438 45.1875 C 60.578125 34.886719 61.230469 18.398438 51.769531 7.320313 C 50.996094 6.4375 51.035156 5.109375 51.859375 4.277344 Z M 51.859375 4.277344 "/>
<path style=" stroke:none;fill-rule:nonzero;fill:rgb(63.921569%,63.921569%,63.921569%);fill-opacity:1;" d="M 46.457031 68.054688 L 23.511719 68.054688 C 22.488281 68.054688 21.660156 67.226563 21.660156 66.203125 C 21.660156 65.183594 22.488281 64.351563 23.511719 64.351563 L 46.457031 64.351563 C 47.476563 64.355469 48.304688 65.183594 48.304688 66.203125 C 48.304688 67.226563 47.476563 68.054688 46.457031 68.054688 Z M 46.457031 68.054688 "/>
<path style=" stroke:none;fill-rule:nonzero;fill:url(#linear0);" d="M 54.1875 25.523438 C 54.1875 38.542969 43.632813 49.101563 30.609375 49.101563 C 17.585938 49.101563 7.03125 38.542969 7.03125 25.523438 C 7.03125 12.5 17.585938 1.945313 30.609375 1.945313 C 43.632813 1.945313 54.1875 12.5 54.1875 25.523438 Z M 54.1875 25.523438 "/>
<path style=" stroke:none;fill-rule:nonzero;fill:rgb(94.901961%,94.901961%,94.901961%);fill-opacity:1;" d="M 32.632813 31.519531 L 28.21875 31.519531 C 27.683594 31.542969 27.226563 31.136719 27.1875 30.601563 L 26.710938 10.519531 C 26.722656 10.253906 26.835938 10.003906 27.03125 9.824219 C 27.222656 9.644531 27.484375 9.550781 27.746094 9.5625 L 33.101563 9.5625 C 33.367188 9.550781 33.625 9.644531 33.820313 9.824219 C 34.015625 10.003906 34.128906 10.253906 34.136719 10.519531 L 33.664063 30.601563 C 33.621094 31.136719 33.167969 31.542969 32.632813 31.519531 Z M 32.632813 31.519531 "/>
<path style=" stroke:none;fill-rule:nonzero;fill:rgb(94.901961%,94.901961%,94.901961%);fill-opacity:1;" d="M 33.941406 37.515625 C 33.941406 39.460938 32.367188 41.035156 30.421875 41.035156 C 28.480469 41.035156 26.902344 39.460938 26.902344 37.515625 C 26.902344 35.574219 28.480469 33.996094 30.421875 33.996094 C 32.367188 33.996094 33.941406 35.574219 33.941406 37.515625 Z M 33.941406 37.515625 "/>
</g>
</svg>
