<?xml version="1.0" encoding="UTF-8"?>
<svg xmlns="http://www.w3.org/2000/svg" xmlns:xlink="http://www.w3.org/1999/xlink" width="70pt" height="70pt" viewBox="0 0 70 70" version="1.1">
<defs>
<linearGradient id="linear0" gradientUnits="userSpaceOnUse" x1="-234.309" y1="776.485" x2="-234.309" y2="788.611" gradientTransform="matrix(2.749444,2.749444,2.749444,-2.749444,-1476.968889,2821.735)">
<stop offset="0" style="stop-color:rgb(36.862745%,58.823529%,14.117647%);stop-opacity:1;"/>
<stop offset="0.82" style="stop-color:rgb(46.27451%,73.72549%,17.647059%);stop-opacity:1;"/>
</linearGradient>
</defs>
<g id="surface1">
<path style=" stroke:none;fill-rule:nonzero;fill:rgb(60%,60%,60%);fill-opacity:1;" d="M 36.167969 57.367188 C 36.167969 56.769531 33.78125 56.769531 33.78125 57.367188 C 33.9375 59.15625 33.339844 60.929688 32.132813 62.261719 C 30.925781 63.589844 29.214844 64.355469 27.421875 64.367188 L 42.515625 64.367188 C 40.722656 64.351563 39.015625 63.585938 37.8125 62.257813 C 36.605469 60.929688 36.007813 59.15625 36.167969 57.367188 Z M 36.167969 57.367188 "/>
<path style=" stroke:none;fill-rule:nonzero;fill:rgb(63.921569%,63.921569%,63.921569%);fill-opacity:1;" d="M 51.859375 4.277344 C 52.726563 3.410156 54.128906 3.410156 54.996094 4.277344 L 55.097656 4.386719 C 66.128906 17.222656 65.402344 36.394531 53.433594 48.359375 C 41.460938 60.324219 22.289063 61.042969 9.457031 50.003906 C 8.554688 49.195313 8.46875 47.804688 9.265625 46.890625 L 9.363281 46.792969 C 10.1875 45.953125 11.519531 45.898438 12.40625 46.667969 C 23.480469 56.132813 39.972656 55.488281 50.273438 45.1875 C 60.578125 34.886719 61.230469 18.398438 51.769531 7.320313 C 50.996094 6.4375 51.035156 5.109375 51.859375 4.277344 Z M 51.859375 4.277344 "/>
<path style=" stroke:none;fill-rule:nonzero;fill:rgb(63.921569%,63.921569%,63.921569%);fill-opacity:1;" d="M 46.457031 68.054688 L 23.511719 68.054688 C 22.488281 68.054688 21.660156 67.226563 21.660156 66.203125 C 21.660156 65.183594 22.488281 64.351563 23.511719 64.351563 L 46.457031 64.351563 C 47.476563 64.355469 48.304688 65.183594 48.304688 66.203125 C 48.304688 67.226563 47.476563 68.054688 46.457031 68.054688 Z M 46.457031 68.054688 "/>
<path style=" stroke:none;fill-rule:nonzero;fill:url(#linear0);" d="M 54.1875 25.523438 C 54.1875 38.542969 43.632813 49.101563 30.609375 49.101563 C 17.585938 49.101563 7.03125 38.542969 7.03125 25.523438 C 7.03125 12.5 17.585938 1.945313 30.609375 1.945313 C 43.632813 1.945313 54.1875 12.5 54.1875 25.523438 Z M 54.1875 25.523438 "/>
<path style=" stroke:none;fill-rule:nonzero;fill:rgb(100%,100%,100%);fill-opacity:1;" d="M 28.195313 33.429688 L 26.03125 35.597656 C 25.660156 35.964844 25.0625 35.964844 24.691406 35.597656 L 16.089844 26.992188 C 15.71875 26.621094 15.71875 26.023438 16.089844 25.65625 L 17.585938 24.15625 C 17.957031 23.789063 18.554688 23.789063 18.921875 24.15625 Z M 28.195313 33.429688 "/>
<path style=" stroke:none;fill-rule:nonzero;fill:rgb(94.901961%,94.901961%,94.901961%);fill-opacity:1;" d="M 24.738281 35.609375 L 22.570313 33.441406 L 42.371094 13.644531 C 42.738281 13.273438 43.335938 13.273438 43.707031 13.644531 L 45.203125 15.144531 C 45.574219 15.511719 45.574219 16.109375 45.203125 16.480469 L 26.070313 35.613281 C 25.703125 35.980469 25.101563 35.980469 24.734375 35.613281 Z M 24.738281 35.609375 "/>
</g>
</svg>
