<?xml version="1.0" encoding="UTF-8"?>
<svg xmlns="http://www.w3.org/2000/svg" xmlns:xlink="http://www.w3.org/1999/xlink" width="70pt" height="70pt" viewBox="0 0 70 70" version="1.1">
<defs>
<radialGradient id="radial0" gradientUnits="userSpaceOnUse" cx="9" cy="9" fx="9" fy="9" r="8.5" gradientTransform="matrix(3.888889,0,0,3.888889,0,0)">
<stop offset="0" style="stop-color:rgb(31.372549%,90.196078%,100%);stop-opacity:1;"/>
<stop offset="0.333" style="stop-color:rgb(28.627451%,86.666667%,96.862745%);stop-opacity:1;"/>
<stop offset="0.876" style="stop-color:rgb(21.568627%,77.254902%,89.019608%);stop-opacity:1;"/>
<stop offset="1" style="stop-color:rgb(19.607843%,74.509804%,86.666667%);stop-opacity:1;"/>
</radialGradient>
</defs>
<g id="surface1">
<path style=" stroke:none;fill-rule:nonzero;fill:url(#radial0);" d="M 68.054688 35 C 68.054688 53.257813 53.257813 68.054688 35 68.054688 C 16.742188 68.054688 1.945313 53.257813 1.945313 35 C 1.945313 16.742188 16.742188 1.945313 35 1.945313 C 53.257813 1.945313 68.054688 16.742188 68.054688 35 Z M 68.054688 35 "/>
<path style=" stroke:none;fill-rule:nonzero;fill:rgb(9.803922%,54.117647%,70.196078%);fill-opacity:1;" d="M 61.292969 35 C 61.292969 49.519531 49.519531 61.292969 35 61.292969 C 20.480469 61.292969 8.707031 49.519531 8.707031 35 C 8.707031 20.480469 20.480469 8.707031 35 8.707031 C 49.519531 8.707031 61.292969 20.480469 61.292969 35 Z M 61.292969 35 "/>
<path style=" stroke:none;fill-rule:nonzero;fill:rgb(100%,100%,100%);fill-opacity:1;" d="M 26.894531 33.589844 L 42.535156 38.152344 L 40.539063 18.234375 C 40.507813 17.953125 40.3125 17.71875 40.039063 17.640625 C 39.769531 17.558594 39.476563 17.652344 39.300781 17.875 Z M 26.894531 33.589844 "/>
<path style=" stroke:none;fill-rule:nonzero;fill:rgb(31.372549%,90.196078%,100%);fill-opacity:1;" d="M 42.621094 37.859375 L 26.980469 33.289063 L 28.980469 53.210938 C 29.007813 53.492188 29.207031 53.726563 29.476563 53.808594 C 29.75 53.886719 30.039063 53.792969 30.214844 53.574219 Z M 42.621094 37.859375 "/>
</g>
</svg>
