<?xml version="1.0" encoding="UTF-8"?>
<svg xmlns="http://www.w3.org/2000/svg" xmlns:xlink="http://www.w3.org/1999/xlink" width="70pt" height="70pt" viewBox="0 0 70 70" version="1.1">
<defs>
<linearGradient id="linear0" gradientUnits="userSpaceOnUse" x1="8.67" y1="8.09" x2="8.67" y2="20.18" gradientTransform="matrix(3.888889,0,0,3.888889,0,0)">
<stop offset="0.22" style="stop-color:rgb(19.607843%,83.137255%,96.078431%);stop-opacity:1;"/>
<stop offset="1" style="stop-color:rgb(9.803922%,54.117647%,70.196078%);stop-opacity:1;"/>
</linearGradient>
<filter id="alpha" filterUnits="objectBoundingBox" x="0%" y="0%" width="100%" height="100%">
  <feColorMatrix type="matrix" in="SourceGraphic" values="0 0 0 0 1 0 0 0 0 1 0 0 0 0 1 0 0 0 1 0"/>
</filter>
<mask id="mask0">
  <g filter="url(#alpha)">
<rect x="0" y="0" width="70" height="70" style="fill:rgb(0%,0%,0%);fill-opacity:0.8;stroke:none;"/>
  </g>
</mask>
<clipPath id="clip1">
  <rect x="0" y="0" width="70" height="70"/>
</clipPath>
<g id="surface5" clip-path="url(#clip1)">
<path style=" stroke:none;fill-rule:nonzero;fill:rgb(100%,100%,100%);fill-opacity:1;" d="M 33.753906 39.394531 C 30.703125 39.414063 27.714844 38.535156 25.160156 36.867188 L 33.679688 59.109375 L 42.15625 37.023438 C 39.632813 38.582031 36.722656 39.402344 33.753906 39.394531 Z M 33.753906 39.394531 "/>
</g>
<linearGradient id="linear1" gradientUnits="userSpaceOnUse" x1="8.33" y1="1.61" x2="9.21" y2="12.59" gradientTransform="matrix(3.888889,0,0,3.888889,0,0)">
<stop offset="0.22" style="stop-color:rgb(19.607843%,83.137255%,96.078431%);stop-opacity:1;"/>
<stop offset="1" style="stop-color:rgb(9.803922%,54.117647%,70.196078%);stop-opacity:1;"/>
</linearGradient>
</defs>
<g id="surface1">
<path style=" stroke:none;fill-rule:nonzero;fill:url(#linear0);" d="M 56.972656 70 C 58.339844 70.050781 59.671875 69.546875 60.660156 68.601563 C 61.648438 67.65625 62.210938 66.351563 62.222656 64.984375 L 62.222656 64.359375 C 60.238281 48.535156 51.179688 35.660156 33.949219 35.660156 C 16.722656 35.660156 7.195313 46.667969 5.445313 64.398438 C 5.28125 65.746094 5.667969 67.097656 6.519531 68.152344 C 7.367188 69.207031 8.605469 69.875 9.957031 70 Z M 56.972656 70 "/>
<use xlink:href="#surface5" mask="url(#mask0)"/>
<path style=" stroke:none;fill-rule:nonzero;fill:url(#linear1);" d="M 49.621094 23.527344 C 49.621094 32.289063 42.519531 39.394531 33.753906 39.394531 C 24.992188 39.394531 17.890625 32.289063 17.890625 23.527344 C 17.890625 14.765625 24.992188 7.660156 33.753906 7.660156 C 42.519531 7.660156 49.621094 14.765625 49.621094 23.527344 Z M 49.621094 23.527344 "/>
<path style=" stroke:none;fill-rule:nonzero;fill:rgb(46.27451%,46.27451%,46.27451%);fill-opacity:1;" d="M 57.554688 28.117188 C 58.121094 24.820313 58 21.445313 57.207031 18.199219 C 54.582031 7.753906 45.339844 0.320313 34.570313 0 C 26.308594 -0.613281 18.425781 3.578125 14.3125 10.773438 C 13.640625 11.835938 13.953125 13.242188 15.011719 13.921875 C 15.980469 14.535156 17.261719 14.257813 17.890625 13.300781 C 21.207031 7.4375 27.578125 3.980469 34.300781 4.394531 C 42.925781 4.628906 50.410156 10.414063 52.8125 18.707031 C 53.566406 21.480469 53.738281 24.378906 53.316406 27.222656 C 52.308594 27.632813 51.535156 28.472656 51.214844 29.515625 L 50.167969 33.015625 C 49.585938 34.9375 50.660156 36.96875 52.578125 37.566406 C 54.542969 38.03125 56.535156 36.917969 57.167969 35 L 58.214844 31.5 C 58.589844 30.332031 58.339844 29.058594 57.554688 28.117188 Z M 57.554688 28.117188 "/>
</g>
</svg>
