<?xml version="1.0" encoding="UTF-8"?>
<svg xmlns="http://www.w3.org/2000/svg" xmlns:xlink="http://www.w3.org/1999/xlink" width="70pt" height="70pt" viewBox="0 0 70 70" version="1.1">
<defs>
<linearGradient id="linear0" gradientUnits="userSpaceOnUse" x1="8.8" y1="12.87" x2="8.8" y2="0.87" gradientTransform="matrix(3.888889,0,0,3.888889,0,0)">
<stop offset="0" style="stop-color:rgb(0%,47.058824%,83.137255%);stop-opacity:1;"/>
<stop offset="0.82" style="stop-color:rgb(36.862745%,62.745098%,93.72549%);stop-opacity:1;"/>
</linearGradient>
<linearGradient id="linear1" gradientUnits="userSpaceOnUse" x1="8.81" y1="17.5" x2="8.81" y2="12.87" gradientTransform="matrix(3.888889,0,0,3.888889,0,0)">
<stop offset="0" style="stop-color:rgb(7.843137%,56.470588%,87.45098%);stop-opacity:1;"/>
<stop offset="0.98" style="stop-color:rgb(12.156863%,33.72549%,63.921569%);stop-opacity:1;"/>
</linearGradient>
</defs>
<g id="surface1">
<path style=" stroke:none;fill-rule:nonzero;fill:url(#linear0);" d="M 1.554688 3.382813 L 66.890625 3.382813 C 68.175781 3.382813 69.222656 4.429688 69.222656 5.714844 L 69.222656 47.714844 C 69.222656 49.003906 68.175781 50.050781 66.890625 50.050781 L 1.554688 50.050781 C 0.265625 50.050781 -0.777344 49.003906 -0.777344 47.714844 L -0.777344 5.714844 C -0.777344 4.429688 0.265625 3.382813 1.554688 3.382813 Z M 1.554688 3.382813 "/>
<path style=" stroke:none;fill-rule:nonzero;fill:rgb(31.372549%,90.196078%,100%);fill-opacity:1;" d="M 45.890625 19.910156 L 45.890625 33.484375 L 34.222656 40.328125 L 34.222656 26.714844 Z M 45.890625 19.910156 "/>
<path style=" stroke:none;fill-rule:nonzero;fill:rgb(76.470588%,94.509804%,100%);fill-opacity:1;" d="M 45.890625 19.910156 L 34.261719 26.753906 L 22.554688 19.910156 L 34.261719 13.105469 Z M 45.890625 19.910156 "/>
<path style=" stroke:none;fill-rule:nonzero;fill:rgb(61.176471%,92.156863%,100%);fill-opacity:1;" d="M 34.222656 26.753906 L 34.222656 40.328125 L 22.554688 33.484375 L 22.554688 19.910156 Z M 34.222656 26.753906 "/>
<path style=" stroke:none;fill-rule:nonzero;fill:rgb(76.470588%,94.509804%,100%);fill-opacity:1;" d="M 22.554688 33.484375 L 34.222656 26.714844 L 34.222656 40.328125 Z M 22.554688 33.484375 "/>
<path style=" stroke:none;fill-rule:nonzero;fill:rgb(61.176471%,92.156863%,100%);fill-opacity:1;" d="M 45.890625 33.484375 L 34.222656 26.714844 L 34.222656 40.328125 Z M 45.890625 33.484375 "/>
<path style=" stroke:none;fill-rule:nonzero;fill:url(#linear1);" d="M 48.261719 64.167969 C 41.339844 63.078125 41.066406 58.101563 41.105469 50.050781 L 27.222656 50.050781 C 27.222656 58.101563 27.222656 63.078125 20.183594 64.167969 C 18.21875 64.402344 16.746094 66.078125 16.761719 68.054688 L 51.761719 68.054688 C 51.671875 66.089844 50.207031 64.460938 48.261719 64.167969 Z M 48.261719 64.167969 "/>
<path style=" stroke:none;fill-rule:nonzero;fill:rgb(100%,100%,100%);fill-opacity:1;" d="M 18.199219 8.050781 L 7.503906 8.050781 C 6.089844 8.050781 4.9375 9.199219 4.9375 10.617188 L 4.9375 21.351563 C 4.9375 22.058594 5.511719 22.632813 6.222656 22.632813 L 7.078125 22.632813 C 7.785156 22.632813 8.359375 22.058594 8.359375 21.351563 L 8.359375 11.433594 L 18.199219 11.433594 C 18.894531 11.414063 19.445313 10.84375 19.445313 10.148438 L 19.445313 9.332031 C 19.445313 8.640625 18.894531 8.070313 18.199219 8.050781 Z M 18.199219 8.050781 "/>
<path style=" stroke:none;fill-rule:nonzero;fill:rgb(100%,100%,100%);fill-opacity:1;" d="M 18.199219 41.726563 L 8.320313 41.726563 L 8.320313 31.890625 C 8.320313 31.179688 7.746094 30.605469 7.039063 30.605469 L 6.222656 30.605469 C 5.511719 30.605469 4.9375 31.179688 4.9375 31.890625 L 4.9375 42.777344 C 4.929688 43.464844 5.195313 44.128906 5.675781 44.617188 C 6.160156 45.109375 6.816406 45.382813 7.503906 45.382813 L 18.199219 45.382813 C 18.574219 45.367188 18.921875 45.191406 19.160156 44.902344 C 19.394531 44.613281 19.5 44.238281 19.445313 43.867188 L 19.445313 43.011719 C 19.445313 42.316406 18.894531 41.75 18.199219 41.726563 Z M 18.199219 41.726563 "/>
<path style=" stroke:none;fill-rule:nonzero;fill:rgb(100%,100%,100%);fill-opacity:1;" d="M 61.09375 8.167969 L 50.554688 8.167969 C 49.847656 8.167969 49.273438 8.742188 49.273438 9.449219 L 49.273438 10.265625 C 49.238281 10.625 49.359375 10.984375 49.605469 11.25 C 49.847656 11.515625 50.195313 11.667969 50.554688 11.667969 L 60.394531 11.667969 L 60.394531 21.429688 C 60.394531 22.136719 60.96875 22.710938 61.679688 22.710938 L 62.570313 22.710938 C 63.28125 22.710938 63.855469 22.136719 63.855469 21.429688 L 63.855469 10.734375 C 63.859375 10.015625 63.5625 9.332031 63.035156 8.847656 C 62.511719 8.359375 61.808594 8.113281 61.09375 8.167969 Z M 61.09375 8.167969 "/>
<path style=" stroke:none;fill-rule:nonzero;fill:rgb(100%,100%,100%);fill-opacity:1;" d="M 62.417969 30.683594 L 61.601563 30.683594 C 60.890625 30.683594 60.316406 31.257813 60.316406 31.964844 L 60.316406 41.84375 L 50.554688 41.84375 C 49.847656 41.84375 49.273438 42.417969 49.273438 43.128906 L 49.273438 43.984375 C 49.273438 44.691406 49.847656 45.265625 50.554688 45.265625 L 61.25 45.265625 C 62.675781 45.265625 63.835938 44.125 63.855469 42.699219 L 63.855469 31.964844 C 63.859375 31.597656 63.703125 31.246094 63.425781 31 C 63.152344 30.753906 62.78125 30.636719 62.417969 30.683594 Z M 62.417969 30.683594 "/>
</g>
</svg>
