<?xml version="1.0" encoding="UTF-8"?>
<svg xmlns="http://www.w3.org/2000/svg" xmlns:xlink="http://www.w3.org/1999/xlink" width="70pt" height="70pt" viewBox="0 0 70 70" version="1.1">
<defs>
<linearGradient id="linear0" gradientUnits="userSpaceOnUse" x1="9" y1="3.12" x2="9" y2="14.88" gradientTransform="matrix(3.888889,0,0,3.888889,0,0)">
<stop offset="0" style="stop-color:rgb(19.607843%,83.137255%,96.078431%);stop-opacity:1;"/>
<stop offset="0.228" style="stop-color:rgb(19.215686%,81.568627%,94.509804%);stop-opacity:1;"/>
<stop offset="0.463" style="stop-color:rgb(17.254902%,76.470588%,90.196078%);stop-opacity:1;"/>
<stop offset="0.703" style="stop-color:rgb(14.509804%,68.627451%,83.137255%);stop-opacity:1;"/>
<stop offset="0.944" style="stop-color:rgb(10.980392%,57.254902%,72.941176%);stop-opacity:1;"/>
<stop offset="1" style="stop-color:rgb(9.803922%,54.117647%,70.196078%);stop-opacity:1;"/>
</linearGradient>
</defs>
<g id="surface1">
<path style=" stroke:none;fill-rule:nonzero;fill:url(#linear0);" d="M 4.167969 12.132813 L 65.832031 12.132813 C 67.058594 12.132813 68.054688 13.128906 68.054688 14.359375 L 68.054688 55.640625 C 68.054688 56.871094 67.058594 57.867188 65.832031 57.867188 L 4.167969 57.867188 C 2.941406 57.867188 1.945313 56.871094 1.945313 55.640625 L 1.945313 14.359375 C 1.945313 13.128906 2.941406 12.132813 4.167969 12.132813 Z M 4.167969 12.132813 "/>
<path style=" stroke:none;fill-rule:nonzero;fill:rgb(52.54902%,83.921569%,20%);fill-opacity:1;" d="M 67.910156 38.546875 L 63.136719 34.222656 C 61.136719 32.515625 58.191406 32.515625 56.195313 34.222656 L 30.441406 57.867188 L 65.832031 57.867188 C 67.058594 57.867188 68.054688 56.871094 68.054688 55.640625 L 68.054688 38.53125 Z M 67.910156 38.546875 "/>
<path style=" stroke:none;fill-rule:nonzero;fill:rgb(70.588235%,92.54902%,21.176471%);fill-opacity:1;" d="M 61.015625 57.867188 L 40.761719 39.46875 C 39.222656 38.152344 36.953125 38.152344 35.414063 39.46875 L 15.167969 57.867188 Z M 61.015625 57.867188 "/>
<path style=" stroke:none;fill-rule:nonzero;fill:rgb(100%,100%,100%);fill-opacity:1;" d="M 35 30.535156 C 34.921875 27.5625 32.691406 25.089844 29.746094 24.703125 C 29.558594 20.535156 26.058594 17.289063 21.886719 17.417969 C 18.558594 17.367188 15.558594 19.410156 14.390625 22.523438 C 10.847656 22.945313 8.152344 25.902344 8.058594 29.46875 C 8.210938 33.507813 11.605469 36.660156 15.644531 36.515625 C 15.871094 36.515625 16.09375 36.515625 16.3125 36.484375 L 28.597656 36.484375 C 28.707031 36.484375 28.816406 36.46875 28.921875 36.4375 C 32.203125 36.417969 34.882813 33.8125 35 30.535156 Z M 35 30.535156 "/>
</g>
</svg>
