<?xml version="1.0" encoding="UTF-8"?>
<svg xmlns="http://www.w3.org/2000/svg" xmlns:xlink="http://www.w3.org/1999/xlink" width="70pt" height="70pt" viewBox="0 0 70 70" version="1.1">
<defs>
<linearGradient id="linear0" gradientUnits="userSpaceOnUse" x1="9" y1="17.4" x2="9" y2="0.4" gradientTransform="matrix(3.888889,0,0,3.888889,0,0)">
<stop offset="0" style="stop-color:rgb(0%,47.058824%,83.137255%);stop-opacity:1;"/>
<stop offset="0.82" style="stop-color:rgb(36.862745%,62.745098%,93.72549%);stop-opacity:1;"/>
</linearGradient>
</defs>
<g id="surface1">
<path style=" stroke:none;fill-rule:nonzero;fill:url(#linear0);" d="M 54.445313 18.667969 C 54.003906 8.824219 45.699219 1.183594 35.855469 1.554688 C 28.046875 1.414063 21 6.214844 18.277344 13.535156 C 9.972656 14.546875 3.648438 21.464844 3.382813 29.828125 C 3.761719 39.296875 11.722656 46.683594 21.195313 46.355469 L 32.589844 46.355469 L 32.589844 56.582031 C 32.589844 56.863281 32.363281 57.089844 32.082031 57.089844 L 26.367188 57.089844 C 26.167969 57.09375 25.988281 57.21875 25.914063 57.402344 C 25.835938 57.589844 25.878906 57.800781 26.015625 57.945313 L 35.621094 67.550781 C 35.90625 67.816406 36.347656 67.816406 36.632813 67.550781 L 46.238281 57.945313 C 46.378906 57.800781 46.417969 57.589844 46.34375 57.402344 C 46.265625 57.21875 46.089844 57.09375 45.890625 57.089844 L 40.132813 57.089844 C 40.003906 57.089844 39.878906 57.035156 39.789063 56.9375 C 39.699219 56.84375 39.65625 56.714844 39.667969 56.582031 L 39.667969 46.277344 L 51.566406 46.277344 C 51.824219 46.320313 52.085938 46.320313 52.34375 46.277344 C 60.046875 46.242188 66.34375 40.128906 66.617188 32.433594 C 66.476563 25.484375 61.324219 19.65625 54.445313 18.667969 Z M 54.445313 18.667969 "/>
<path style=" stroke:none;fill-rule:nonzero;fill:rgb(100%,100%,100%);fill-opacity:1;" d="M 18.9375 31.8125 L 28.542969 22.246094 C 28.671875 22.09375 28.855469 22.007813 29.050781 22.007813 C 29.246094 22.007813 29.429688 22.09375 29.554688 22.246094 L 39.160156 31.8125 C 39.292969 31.945313 39.34375 32.140625 39.285156 32.320313 C 39.226563 32.5 39.074219 32.632813 38.890625 32.667969 L 33.09375 32.667969 C 32.816406 32.667969 32.589844 32.894531 32.589844 33.171875 L 32.589844 46.277344 L 25.550781 46.277344 L 25.550781 33.171875 C 25.550781 32.894531 25.324219 32.667969 25.042969 32.667969 L 19.445313 32.667969 C 19.214844 32.75 18.960938 32.65625 18.835938 32.449219 C 18.714844 32.238281 18.757813 31.972656 18.9375 31.8125 Z M 18.9375 31.8125 "/>
</g>
</svg>
