<?xml version="1.0" encoding="UTF-8"?>
<svg xmlns="http://www.w3.org/2000/svg" xmlns:xlink="http://www.w3.org/1999/xlink" width="70pt" height="70pt" viewBox="0 0 70 70" version="1.1">
<defs>
<linearGradient id="linear0" gradientUnits="userSpaceOnUse" x1="8.56" y1="17.59" x2="8.56" y2="0.59" gradientTransform="matrix(3.888889,0,0,3.888889,0,0)">
<stop offset="0" style="stop-color:rgb(9.803922%,53.333333%,85.098039%);stop-opacity:1;"/>
<stop offset="0.22" style="stop-color:rgb(12.941176%,55.294118%,86.27451%);stop-opacity:1;"/>
<stop offset="0.56" style="stop-color:rgb(21.568627%,61.176471%,89.803922%);stop-opacity:1;"/>
<stop offset="0.9" style="stop-color:rgb(32.941176%,68.235294%,94.117647%);stop-opacity:1;"/>
</linearGradient>
</defs>
<g id="surface1">
<path style=" stroke:none;fill-rule:nonzero;fill:url(#linear0);" d="M 53.550781 61.484375 C 39.117188 72.671875 18.34375 70.042969 7.15625 55.609375 C -4.035156 41.179688 -1.40625 20.40625 13.027344 9.214844 L 13.378906 8.984375 C 27.882813 -1.84375 48.402344 1.007813 59.402344 15.386719 C 70.402344 29.761719 67.792969 50.3125 53.550781 61.484375 "/>
<path style=" stroke:none;fill-rule:nonzero;fill:rgb(100%,100%,100%);fill-opacity:1;" d="M 33.289063 23.996094 C 32.011719 24.042969 30.765625 23.582031 29.828125 22.710938 C 28.945313 21.9375 28.460938 20.808594 28.503906 19.640625 C 28.460938 18.46875 28.945313 17.339844 29.828125 16.566406 C 30.820313 15.820313 32.050781 15.460938 33.289063 15.554688 C 34.546875 15.492188 35.785156 15.910156 36.75 16.722656 C 37.644531 17.488281 38.144531 18.617188 38.109375 19.792969 C 38.15625 20.984375 37.65625 22.132813 36.75 22.90625 C 35.78125 23.707031 34.539063 24.097656 33.289063 23.996094 Z M 35.777344 55.300781 L 30.683594 55.300781 C 29.78125 55.300781 29.050781 54.570313 29.050781 53.667969 L 29.050781 29.90625 C 29.050781 29.003906 29.78125 28.273438 30.683594 28.273438 L 35.777344 28.273438 C 36.679688 28.273438 37.410156 29.003906 37.410156 29.90625 L 37.410156 53.667969 C 37.410156 54.570313 36.679688 55.300781 35.777344 55.300781 Z M 35.777344 55.300781 "/>
</g>
</svg>
