<?xml version="1.0" encoding="UTF-8"?>
<svg xmlns="http://www.w3.org/2000/svg" xmlns:xlink="http://www.w3.org/1999/xlink" width="70pt" height="70pt" viewBox="0 0 70 70" version="1.1">
<defs>
<filter id="alpha" filterUnits="objectBoundingBox" x="0%" y="0%" width="100%" height="100%">
  <feColorMatrix type="matrix" in="SourceGraphic" values="0 0 0 0 1 0 0 0 0 1 0 0 0 0 1 0 0 0 1 0"/>
</filter>
<mask id="mask0">
  <g filter="url(#alpha)">
<rect x="0" y="0" width="70" height="70" style="fill:rgb(0%,0%,0%);fill-opacity:0.501961;stroke:none;"/>
  </g>
</mask>
<clipPath id="clip1">
  <rect x="0" y="0" width="70" height="70"/>
</clipPath>
<g id="surface5" clip-path="url(#clip1)">
<path style=" stroke:none;fill-rule:nonzero;fill:rgb(60%,60%,60%);fill-opacity:1;" d="M 5.105469 6.789063 L 9.914063 6.789063 L 9.914063 20.222656 C 9.914063 20.8125 9.4375 21.289063 8.847656 21.289063 L 4.039063 21.289063 C 3.453125 21.289063 2.976563 20.8125 2.976563 20.222656 L 2.976563 8.921875 C 2.976563 7.742188 3.929688 6.789063 5.105469 6.789063 Z M 5.105469 6.789063 "/>
</g>
<mask id="mask1">
  <g filter="url(#alpha)">
<rect x="0" y="0" width="70" height="70" style="fill:rgb(0%,0%,0%);fill-opacity:0.501961;stroke:none;"/>
  </g>
</mask>
<clipPath id="clip2">
  <rect x="0" y="0" width="70" height="70"/>
</clipPath>
<g id="surface8" clip-path="url(#clip2)">
<path style=" stroke:none;fill-rule:nonzero;fill:rgb(60%,60%,60%);fill-opacity:1;" d="M 59.386719 6.789063 L 64.195313 6.789063 C 65.371094 6.789063 66.324219 7.742188 66.324219 8.921875 L 66.324219 20.222656 C 66.324219 20.8125 65.847656 21.289063 65.257813 21.289063 L 60.453125 21.289063 C 59.863281 21.289063 59.386719 20.8125 59.386719 20.222656 Z M 59.386719 6.789063 "/>
</g>
<mask id="mask2">
  <g filter="url(#alpha)">
<rect x="0" y="0" width="70" height="70" style="fill:rgb(0%,0%,0%);fill-opacity:0.501961;stroke:none;"/>
  </g>
</mask>
<clipPath id="clip3">
  <rect x="0" y="0" width="70" height="70"/>
</clipPath>
<g id="surface11" clip-path="url(#clip3)">
<path style=" stroke:none;fill-rule:nonzero;fill:rgb(60%,60%,60%);fill-opacity:1;" d="M 4.039063 48.710938 L 8.851563 48.710938 C 9.441406 48.710938 9.917969 49.1875 9.917969 49.777344 L 9.917969 63.210938 L 5.105469 63.210938 C 3.929688 63.210938 2.976563 62.257813 2.976563 61.078125 L 2.976563 49.777344 C 2.976563 49.1875 3.453125 48.710938 4.039063 48.710938 Z M 4.039063 48.710938 "/>
</g>
<mask id="mask3">
  <g filter="url(#alpha)">
<rect x="0" y="0" width="70" height="70" style="fill:rgb(0%,0%,0%);fill-opacity:0.501961;stroke:none;"/>
  </g>
</mask>
<clipPath id="clip4">
  <rect x="0" y="0" width="70" height="70"/>
</clipPath>
<g id="surface14" clip-path="url(#clip4)">
<path style=" stroke:none;fill-rule:nonzero;fill:rgb(60%,60%,60%);fill-opacity:1;" d="M 60.453125 48.710938 L 65.257813 48.710938 C 65.847656 48.710938 66.324219 49.1875 66.324219 49.777344 L 66.324219 61.082031 C 66.324219 62.257813 65.371094 63.214844 64.195313 63.214844 L 59.386719 63.214844 L 59.386719 49.777344 C 59.386719 49.1875 59.863281 48.710938 60.453125 48.710938 Z M 60.453125 48.710938 "/>
</g>
<linearGradient id="linear0" gradientUnits="userSpaceOnUse" x1="-1803.596" y1="-323.82" x2="-1810.471" y2="-323.82" gradientTransform="matrix(0.000000000000000238,3.888889,-3.888889,0.000000000000000238,-1242.336667,7061.856667)">
<stop offset="0" style="stop-color:rgb(46.666667%,22.745098%,86.27451%);stop-opacity:1;"/>
<stop offset="1" style="stop-color:rgb(65.098039%,47.843137%,95.686275%);stop-opacity:1;"/>
</linearGradient>
<linearGradient id="linear1" gradientUnits="userSpaceOnUse" x1="-1803.596" y1="-333.097" x2="-1810.471" y2="-333.097" gradientTransform="matrix(0.000000000000000238,3.888889,-3.888889,0.000000000000000238,-1242.336667,7061.856667)">
<stop offset="0" style="stop-color:rgb(10.588235%,57.647059%,92.156863%);stop-opacity:1;"/>
<stop offset="1" style="stop-color:rgb(41.960784%,72.54902%,94.901961%);stop-opacity:1;"/>
</linearGradient>
</defs>
<g id="surface1">
<path style=" stroke:none;fill-rule:nonzero;fill:rgb(60%,60%,60%);fill-opacity:1;" d="M 5.105469 6.789063 L 9.914063 6.789063 L 9.914063 20.222656 C 9.914063 20.8125 9.4375 21.289063 8.847656 21.289063 L 4.039063 21.289063 C 3.453125 21.289063 2.976563 20.8125 2.976563 20.222656 L 2.976563 8.921875 C 2.976563 7.742188 3.929688 6.789063 5.105469 6.789063 Z M 5.105469 6.789063 "/>
<use xlink:href="#surface5" mask="url(#mask0)"/>
<path style=" stroke:none;fill-rule:nonzero;fill:rgb(60%,60%,60%);fill-opacity:1;" d="M 59.386719 6.789063 L 64.195313 6.789063 C 65.371094 6.789063 66.324219 7.742188 66.324219 8.921875 L 66.324219 20.222656 C 66.324219 20.8125 65.847656 21.289063 65.257813 21.289063 L 60.453125 21.289063 C 59.863281 21.289063 59.386719 20.8125 59.386719 20.222656 Z M 59.386719 6.789063 "/>
<use xlink:href="#surface8" mask="url(#mask1)"/>
<path style=" stroke:none;fill-rule:nonzero;fill:rgb(58.039216%,58.039216%,58.039216%);fill-opacity:1;" d="M 66.324219 8.902344 L 66.324219 13.566406 L 2.976563 13.566406 L 2.976563 8.902344 C 2.976563 7.734375 3.921875 6.789063 5.085938 6.789063 L 64.199219 6.789063 C 64.761719 6.785156 65.300781 7.007813 65.699219 7.402344 C 66.101563 7.800781 66.324219 8.339844 66.324219 8.902344 Z M 66.324219 8.902344 "/>
<path style=" stroke:none;fill-rule:nonzero;fill:rgb(60%,60%,60%);fill-opacity:1;" d="M 4.039063 48.710938 L 8.851563 48.710938 C 9.441406 48.710938 9.917969 49.1875 9.917969 49.777344 L 9.917969 63.210938 L 5.105469 63.210938 C 3.929688 63.210938 2.976563 62.257813 2.976563 61.078125 L 2.976563 49.777344 C 2.976563 49.1875 3.453125 48.710938 4.039063 48.710938 Z M 4.039063 48.710938 "/>
<use xlink:href="#surface11" mask="url(#mask2)"/>
<path style=" stroke:none;fill-rule:nonzero;fill:rgb(60%,60%,60%);fill-opacity:1;" d="M 60.453125 48.710938 L 65.257813 48.710938 C 65.847656 48.710938 66.324219 49.1875 66.324219 49.777344 L 66.324219 61.082031 C 66.324219 62.257813 65.371094 63.214844 64.195313 63.214844 L 59.386719 63.214844 L 59.386719 49.777344 C 59.386719 49.1875 59.863281 48.710938 60.453125 48.710938 Z M 60.453125 48.710938 "/>
<use xlink:href="#surface14" mask="url(#mask3)"/>
<path style=" stroke:none;fill-rule:nonzero;fill:rgb(58.039216%,58.039216%,58.039216%);fill-opacity:1;" d="M 2.976563 61.097656 L 2.976563 56.433594 L 66.324219 56.433594 L 66.324219 61.097656 C 66.324219 62.265625 65.378906 63.210938 64.214844 63.210938 L 5.085938 63.210938 C 3.921875 63.210938 2.976563 62.265625 2.976563 61.097656 Z M 2.976563 61.097656 "/>
<path style=" stroke:none;fill-rule:nonzero;fill:url(#linear0);" d="M 19.402344 21.328125 L 31.554688 33.480469 C 31.828125 33.75 31.980469 34.121094 31.980469 34.503906 C 31.980469 34.890625 31.828125 35.257813 31.554688 35.527344 L 19.402344 47.683594 C 19.21875 47.867188 18.9375 47.925781 18.695313 47.824219 C 18.453125 47.722656 18.296875 47.484375 18.296875 47.222656 L 18.296875 39.753906 C 18.296875 39.582031 18.230469 39.414063 18.109375 39.292969 C 17.988281 39.171875 17.824219 39.101563 17.652344 39.101563 L 2.460938 39.101563 C 2.324219 39.105469 2.191406 39.050781 2.09375 38.953125 C 1.996094 38.855469 1.945313 38.722656 1.945313 38.585938 L 1.945313 30.417969 C 1.945313 30.28125 2 30.152344 2.097656 30.054688 C 2.191406 29.957031 2.324219 29.90625 2.460938 29.90625 L 17.652344 29.90625 C 17.824219 29.90625 17.988281 29.835938 18.109375 29.714844 C 18.230469 29.59375 18.296875 29.429688 18.296875 29.257813 L 18.296875 21.777344 C 18.296875 21.515625 18.457031 21.28125 18.699219 21.183594 C 18.941406 21.085938 19.21875 21.140625 19.402344 21.328125 Z M 19.402344 21.328125 "/>
<path style=" stroke:none;fill-rule:nonzero;fill:url(#linear1);" d="M 55.480469 21.328125 L 67.632813 33.480469 C 68.195313 34.046875 68.195313 34.960938 67.632813 35.527344 L 55.480469 47.683594 C 55.292969 47.867188 55.015625 47.925781 54.773438 47.824219 C 54.53125 47.722656 54.371094 47.484375 54.375 47.222656 L 54.375 39.753906 C 54.375 39.394531 54.082031 39.101563 53.726563 39.101563 L 38.535156 39.101563 C 38.398438 39.101563 38.265625 39.046875 38.171875 38.949219 C 38.074219 38.855469 38.019531 38.722656 38.023438 38.585938 L 38.023438 30.417969 C 38.019531 30.28125 38.074219 30.152344 38.171875 30.054688 C 38.265625 29.957031 38.398438 29.902344 38.535156 29.902344 L 53.726563 29.902344 C 54.082031 29.902344 54.375 29.609375 54.375 29.253906 L 54.375 21.777344 C 54.375 21.515625 54.535156 21.28125 54.777344 21.183594 C 55.019531 21.085938 55.296875 21.140625 55.480469 21.328125 Z M 55.480469 21.328125 "/>
</g>
</svg>
