<?xml version="1.0" encoding="UTF-8"?>
<svg xmlns="http://www.w3.org/2000/svg" xmlns:xlink="http://www.w3.org/1999/xlink" width="70pt" height="70pt" viewBox="0 0 70 70" version="1.1">
<defs>
<linearGradient id="linear0" gradientUnits="userSpaceOnUse" x1="8.693" y1="12.726" x2="8.693" y2="0.705" gradientTransform="matrix(3.888889,0,0,3.888889,0,0)">
<stop offset="0" style="stop-color:rgb(0%,47.058824%,83.137255%);stop-opacity:1;"/>
<stop offset="0.105" style="stop-color:rgb(7.843137%,50.196078%,85.490196%);stop-opacity:1;"/>
<stop offset="0.306" style="stop-color:rgb(20.392157%,55.686275%,89.019608%);stop-opacity:1;"/>
<stop offset="0.5" style="stop-color:rgb(29.411765%,59.607843%,91.764706%);stop-opacity:1;"/>
<stop offset="0.682" style="stop-color:rgb(34.901961%,61.960784%,93.333333%);stop-opacity:1;"/>
<stop offset="0.84" style="stop-color:rgb(36.862745%,62.745098%,93.72549%);stop-opacity:1;"/>
</linearGradient>
</defs>
<g id="surface1">
<path style=" stroke:none;fill-rule:nonzero;fill:url(#linear0);" d="M 66.785156 34.847656 C 66.5625 27.59375 61.117188 21.566406 53.921875 20.609375 C 53.492188 10.390625 44.910156 2.417969 34.683594 2.742188 C 26.550781 2.59375 19.207031 7.601563 16.375 15.230469 C 7.699219 16.277344 1.089844 23.507813 0.820313 32.242188 C 1.199219 42.128906 9.507813 49.84375 19.394531 49.488281 C 19.941406 49.488281 20.488281 49.460938 21.027344 49.421875 L 51.105469 49.421875 C 51.367188 49.414063 51.628906 49.375 51.882813 49.300781 C 59.921875 49.257813 66.496094 42.882813 66.785156 34.847656 Z M 66.785156 34.847656 "/>
<path style=" stroke:none;fill-rule:nonzero;fill:rgb(100%,100%,100%);fill-opacity:1;" d="M 40.519531 24.808594 C 40.519531 27.636719 38.222656 29.933594 35.394531 29.933594 C 32.5625 29.933594 30.265625 27.636719 30.265625 24.808594 C 30.265625 21.976563 32.5625 19.683594 35.394531 19.683594 C 38.222656 19.683594 40.519531 21.976563 40.519531 24.808594 Z M 40.519531 24.808594 "/>
<path style=" stroke:none;fill-rule:nonzero;fill:rgb(100%,100%,100%);fill-opacity:1;" d="M 53.472656 29.9375 C 53.472656 27.65625 51.632813 25.808594 49.363281 25.808594 C 47.089844 25.808594 45.25 27.65625 45.25 29.9375 C 45.25 32.21875 47.089844 34.066406 49.363281 34.066406 C 51.632813 34.066406 53.472656 32.21875 53.472656 29.9375 Z M 53.472656 29.9375 "/>
<path style=" stroke:none;fill-rule:nonzero;fill:rgb(100%,100%,100%);fill-opacity:1;" d="M 43.386719 14.058594 C 43.386719 15.644531 42.101563 16.929688 40.519531 16.929688 C 38.933594 16.929688 37.648438 15.644531 37.648438 14.058594 C 37.648438 12.472656 38.933594 11.1875 40.519531 11.1875 C 42.101563 11.1875 43.386719 12.472656 43.386719 14.058594 Z M 43.386719 14.058594 "/>
<path style=" stroke:none;fill-rule:nonzero;fill:rgb(31.372549%,90.196078%,100%);fill-opacity:1;" d="M 67.828125 67.277344 L 33.996094 67.277344 C 32.917969 67.277344 32.285156 65.554688 32.894531 64.667969 L 44.5625 47.679688 C 44.71875 47.449219 44.800781 47.175781 44.800781 46.898438 L 44.800781 35.667969 C 44.796875 35.296875 44.496094 34.996094 44.125 35 L 43.496094 35 C 42.757813 35 42.160156 34.402344 42.160156 33.664063 L 42.160156 33.054688 C 42.160156 32.316406 42.757813 31.71875 43.496094 31.71875 L 58.332031 31.71875 C 59.070313 31.71875 59.671875 32.316406 59.671875 33.054688 L 59.671875 33.660156 C 59.671875 34.015625 59.53125 34.355469 59.28125 34.605469 C 59.03125 34.859375 58.6875 35 58.332031 35 L 57.707031 35 C 57.335938 35 57.039063 35.300781 57.039063 35.667969 L 57.039063 46.925781 C 57.035156 47.203125 57.117188 47.476563 57.277344 47.703125 L 68.941406 64.667969 C 69.546875 65.535156 68.90625 67.277344 67.828125 67.277344 Z M 67.828125 67.277344 "/>
<path style=" stroke:none;fill-rule:nonzero;fill:rgb(100%,100%,100%);fill-opacity:1;" d="M 37.902344 62.71875 L 46.757813 49.808594 C 47.128906 49.269531 47.324219 48.632813 47.324219 47.976563 L 47.324219 42.777344 C 47.324219 42.207031 47.785156 41.746094 48.355469 41.746094 L 53.378906 41.746094 C 53.949219 41.746094 54.410156 42.207031 54.410156 42.777344 L 54.410156 48.332031 C 54.410156 48.773438 54.546875 49.203125 54.796875 49.5625 L 63.839844 62.71875 C 63.996094 62.957031 64.015625 63.261719 63.882813 63.511719 C 63.75 63.765625 63.492188 63.925781 63.207031 63.929688 L 38.535156 63.929688 C 38.25 63.925781 37.992188 63.765625 37.859375 63.511719 C 37.726563 63.261719 37.742188 62.957031 37.902344 62.71875 Z M 37.902344 62.71875 "/>
<path style=" stroke:none;fill-rule:nonzero;fill:rgb(52.54902%,83.921569%,20%);fill-opacity:1;" d="M 46.46875 58.464844 L 48.269531 62.632813 C 48.308594 62.734375 48.410156 62.796875 48.515625 62.792969 C 48.625 62.789063 48.71875 62.71875 48.75 62.613281 L 50.632813 57.035156 C 50.664063 56.933594 50.753906 56.863281 50.859375 56.855469 C 50.960938 56.847656 51.0625 56.902344 51.109375 56.996094 L 52.640625 59.917969 C 52.6875 59.996094 52.773438 60.046875 52.867188 60.046875 C 52.957031 60.046875 53.042969 59.996094 53.089844 59.917969 L 55.136719 56.457031 C 55.183594 56.378906 55.269531 56.328125 55.363281 56.332031 L 59.472656 56.332031 L 58.636719 55.121094 C 58.589844 55.050781 58.507813 55.007813 58.421875 55.007813 L 54.609375 55.007813 C 54.515625 55.007813 54.429688 55.054688 54.382813 55.132813 L 53.160156 57.203125 C 53.117188 57.285156 53.03125 57.335938 52.9375 57.335938 C 52.839844 57.335938 52.753906 57.285156 52.710938 57.203125 L 50.839844 53.644531 C 50.792969 53.550781 50.695313 53.496094 50.589844 53.503906 C 50.484375 53.511719 50.394531 53.582031 50.363281 53.683594 L 48.609375 58.925781 C 48.578125 59.027344 48.484375 59.097656 48.375 59.101563 C 48.269531 59.109375 48.167969 59.042969 48.128906 58.945313 L 46.625 55.445313 C 46.582031 55.355469 46.492188 55.296875 46.390625 55.296875 C 46.292969 55.296875 46.203125 55.355469 46.160156 55.445313 L 44.027344 59.332031 C 43.980469 59.414063 43.890625 59.464844 43.796875 59.464844 L 40.296875 59.464844 C 40.210938 59.464844 40.132813 59.507813 40.082031 59.578125 L 39.25 60.789063 L 44.566406 60.789063 C 44.660156 60.789063 44.75 60.738281 44.796875 60.65625 L 46.003906 58.457031 C 46.050781 58.371094 46.140625 58.3125 46.238281 58.316406 C 46.339844 58.316406 46.425781 58.375 46.46875 58.464844 Z M 46.46875 58.464844 "/>
</g>
</svg>
