<?xml version="1.0" encoding="UTF-8"?>
<svg xmlns="http://www.w3.org/2000/svg" xmlns:xlink="http://www.w3.org/1999/xlink" width="70pt" height="70pt" viewBox="0 0 70 70" version="1.1">
<defs>
<linearGradient id="linear0" gradientUnits="userSpaceOnUse" x1="3.565" y1="17" x2="3.565" y2="3.753" gradientTransform="matrix(3.888889,0,0,3.888889,0,0)">
<stop offset="0" style="stop-color:rgb(99.607843%,63.137255%,10.588235%);stop-opacity:1;"/>
<stop offset="0.127" style="stop-color:rgb(99.607843%,67.45098%,9.803922%);stop-opacity:1;"/>
<stop offset="0.562" style="stop-color:rgb(100%,79.607843%,7.058824%);stop-opacity:1;"/>
<stop offset="0.804" style="stop-color:rgb(100%,84.313725%,5.882353%);stop-opacity:1;"/>
</linearGradient>
<linearGradient id="linear1" gradientUnits="userSpaceOnUse" x1="9" y1="17" x2="9" y2="3.753" gradientTransform="matrix(3.888889,0,0,3.888889,0,0)">
<stop offset="0" style="stop-color:rgb(36.862745%,58.823529%,14.117647%);stop-opacity:1;"/>
<stop offset="0.546" style="stop-color:rgb(42.745098%,67.843137%,16.470588%);stop-opacity:1;"/>
<stop offset="0.999" style="stop-color:rgb(46.27451%,73.72549%,17.647059%);stop-opacity:1;"/>
</linearGradient>
<linearGradient id="linear2" gradientUnits="userSpaceOnUse" x1="14.435" y1="17" x2="14.435" y2="3.753" gradientTransform="matrix(3.888889,0,0,3.888889,0,0)">
<stop offset="0" style="stop-color:rgb(10.588235%,57.647059%,92.156863%);stop-opacity:1;"/>
<stop offset="1" style="stop-color:rgb(41.960784%,72.54902%,94.901961%);stop-opacity:1;"/>
</linearGradient>
</defs>
<g id="surface1">
<path style=" stroke:none;fill-rule:nonzero;fill:url(#linear0);" d="M 7.328125 14.59375 L 20.402344 14.59375 C 21.511719 14.59375 22.410156 15.496094 22.410156 16.605469 L 22.410156 64.101563 C 22.410156 65.210938 21.511719 66.109375 20.402344 66.109375 L 7.328125 66.109375 C 6.214844 66.109375 5.316406 65.210938 5.316406 64.101563 L 5.316406 16.605469 C 5.316406 15.496094 6.214844 14.59375 7.328125 14.59375 Z M 7.328125 14.59375 "/>
<path style=" stroke:none;fill-rule:nonzero;fill:url(#linear1);" d="M 28.460938 14.59375 L 41.539063 14.59375 C 42.648438 14.59375 43.546875 15.496094 43.546875 16.605469 L 43.546875 64.101563 C 43.546875 65.210938 42.648438 66.109375 41.539063 66.109375 L 28.460938 66.109375 C 27.351563 66.109375 26.453125 65.210938 26.453125 64.101563 L 26.453125 16.605469 C 26.453125 15.496094 27.351563 14.59375 28.460938 14.59375 Z M 28.460938 14.59375 "/>
<path style=" stroke:none;fill-rule:nonzero;fill:url(#linear2);" d="M 49.601563 14.59375 L 62.675781 14.59375 C 63.789063 14.59375 64.6875 15.496094 64.6875 16.605469 L 64.6875 64.101563 C 64.6875 65.210938 63.789063 66.109375 62.675781 66.109375 L 49.601563 66.109375 C 48.492188 66.109375 47.59375 65.210938 47.59375 64.101563 L 47.59375 16.605469 C 47.59375 15.496094 48.492188 14.59375 49.601563 14.59375 Z M 49.601563 14.59375 "/>
<path style=" stroke:none;fill-rule:nonzero;fill:rgb(98.039216%,63.529412%,11.372549%);fill-opacity:1;" d="M 6.289063 3.890625 L 21.4375 3.890625 C 21.976563 3.890625 22.410156 4.324219 22.410156 4.863281 L 22.410156 16.03125 L 5.300781 16.03125 L 5.300781 4.863281 C 5.300781 4.605469 5.40625 4.355469 5.589844 4.171875 C 5.777344 3.988281 6.027344 3.886719 6.289063 3.890625 Z M 6.289063 3.890625 "/>
<path style=" stroke:none;fill-rule:nonzero;fill:rgb(52.54902%,83.921569%,20%);fill-opacity:1;" d="M 27.429688 3.890625 L 42.570313 3.890625 C 43.109375 3.890625 43.546875 4.324219 43.546875 4.863281 L 43.546875 16.03125 L 26.445313 16.03125 L 26.445313 4.863281 C 26.445313 4.605469 26.546875 4.355469 26.734375 4.171875 C 26.917969 3.988281 27.167969 3.886719 27.429688 3.890625 Z M 27.429688 3.890625 "/>
<path style=" stroke:none;fill-rule:nonzero;fill:rgb(36.862745%,62.745098%,93.72549%);fill-opacity:1;" d="M 48.5625 3.890625 L 63.707031 3.890625 C 64.246094 3.890625 64.683594 4.324219 64.683594 4.863281 L 64.683594 16.03125 L 47.574219 16.03125 L 47.574219 4.863281 C 47.574219 4.601563 47.675781 4.351563 47.863281 4.167969 C 48.050781 3.984375 48.304688 3.882813 48.5625 3.890625 Z M 48.5625 3.890625 "/>
</g>
</svg>
