<?xml version="1.0" encoding="UTF-8"?>
<svg xmlns="http://www.w3.org/2000/svg" xmlns:xlink="http://www.w3.org/1999/xlink" width="70pt" height="70pt" viewBox="0 0 70 70" version="1.1">
<defs>
<linearGradient id="linear0" gradientUnits="userSpaceOnUse" x1="8.668" y1="-2.386" x2="15.243" y2="15.46" gradientTransform="matrix(3.888889,0,0,3.888889,0,0)">
<stop offset="0" style="stop-color:rgb(41.960784%,72.54902%,94.901961%);stop-opacity:1;"/>
<stop offset="1" style="stop-color:rgb(10.588235%,57.647059%,92.156863%);stop-opacity:1;"/>
</linearGradient>
</defs>
<g id="surface1">
<path style=" stroke:none;fill-rule:nonzero;fill:url(#linear0);" d="M 68.546875 26.410156 L 68.546875 2.796875 C 68.546875 2.570313 68.457031 2.355469 68.296875 2.195313 C 68.140625 2.035156 67.921875 1.945313 67.699219 1.945313 L 44.085938 1.945313 C 43.738281 1.941406 43.425781 2.148438 43.292969 2.46875 C 43.164063 2.785156 43.238281 3.152344 43.480469 3.394531 L 50.417969 10.332031 C 50.75 10.664063 50.75 11.203125 50.417969 11.535156 L 21.949219 40.003906 C 21.789063 40.164063 21.699219 40.378906 21.699219 40.605469 C 21.699219 40.832031 21.789063 41.046875 21.949219 41.207031 L 29.285156 48.546875 C 29.617188 48.875 30.152344 48.875 30.484375 48.546875 L 58.957031 20.074219 C 59.113281 19.914063 59.332031 19.824219 59.558594 19.824219 C 59.785156 19.824219 60 19.914063 60.160156 20.074219 L 67.09375 27.007813 C 67.335938 27.253906 67.703125 27.328125 68.019531 27.195313 C 68.339844 27.0625 68.546875 26.753906 68.546875 26.410156 Z M 68.546875 26.410156 "/>
<path style=" stroke:none;fill-rule:nonzero;fill:rgb(70.196078%,70.196078%,70.196078%);fill-opacity:1;" d="M 51.203125 42.460938 L 51.203125 59.746094 C 51.203125 60.84375 50.316406 61.730469 49.21875 61.730469 L 9.761719 61.730469 C 9.234375 61.730469 8.730469 61.523438 8.355469 61.148438 C 7.984375 60.777344 7.777344 60.273438 7.777344 59.746094 L 7.777344 22.496094 C 7.777344 21.96875 7.984375 21.464844 8.355469 21.09375 C 8.730469 20.71875 9.234375 20.511719 9.761719 20.511719 L 29.53125 20.511719 C 30.132813 20.511719 30.621094 20.023438 30.621094 19.421875 L 30.621094 15.277344 C 30.621094 14.675781 30.132813 14.1875 29.53125 14.1875 L 3.4375 14.1875 C 2.910156 14.1875 2.40625 14.394531 2.035156 14.769531 C 1.660156 15.140625 1.453125 15.648438 1.453125 16.175781 L 1.453125 66.066406 C 1.453125 66.59375 1.660156 67.101563 2.035156 67.472656 C 2.40625 67.847656 2.910156 68.054688 3.4375 68.054688 L 55.550781 68.054688 C 56.644531 68.054688 57.535156 67.164063 57.535156 66.066406 L 57.535156 42.460938 C 57.535156 41.863281 57.046875 41.375 56.445313 41.375 L 52.292969 41.375 C 51.691406 41.375 51.203125 41.863281 51.203125 42.460938 Z M 51.203125 42.460938 "/>
</g>
</svg>
