<?xml version="1.0" encoding="UTF-8"?>
<svg xmlns="http://www.w3.org/2000/svg" xmlns:xlink="http://www.w3.org/1999/xlink" width="70pt" height="70pt" viewBox="0 0 70 70" version="1.1">
<defs>
<linearGradient id="linear0" gradientUnits="userSpaceOnUse" x1="54.259" y1="17.732" x2="54.259" y2="12.155" gradientTransform="matrix(3.888889,0,0,3.888889,-187.440556,3.589444)">
<stop offset="0" style="stop-color:rgb(46.27451%,73.72549%,17.647059%);stop-opacity:1;"/>
<stop offset="0.192" style="stop-color:rgb(49.803922%,79.607843%,18.823529%);stop-opacity:1;"/>
<stop offset="0.42" style="stop-color:rgb(51.764706%,82.745098%,19.607843%);stop-opacity:1;"/>
<stop offset="0.775" style="stop-color:rgb(52.54902%,83.921569%,20%);stop-opacity:1;"/>
</linearGradient>
<linearGradient id="linear1" gradientUnits="userSpaceOnUse" x1="8.267" y1="14.714" x2="8.267" y2="1.379" gradientTransform="matrix(3.888889,0,0,3.888889,0,0)">
<stop offset="0" style="stop-color:rgb(9.803922%,53.333333%,85.098039%);stop-opacity:1;"/>
<stop offset="0.9" style="stop-color:rgb(32.941176%,68.235294%,94.117647%);stop-opacity:1;"/>
</linearGradient>
</defs>
<g id="surface1">
<path style=" stroke:none;fill-rule:nonzero;fill:rgb(0%,35.686275%,63.137255%);fill-opacity:1;" d="M 11.203125 5.417969 L 15.285156 0.679688 C 15.660156 0.25 16.203125 0 16.777344 0 L 55.867188 0 C 56.648438 -0.078125 57.421875 0.1875 57.992188 0.722656 C 58.566406 1.257813 58.878906 2.011719 58.855469 2.796875 L 58.855469 51.585938 C 58.855469 52.144531 58.621094 52.675781 58.207031 53.050781 L 53.808594 57.0625 L 13.847656 57.0625 L 11.144531 55.925781 Z M 11.203125 5.417969 "/>
<path style=" stroke:none;fill-rule:nonzero;fill:rgb(100%,100%,100%);fill-opacity:1;" d="M 14.484375 5.394531 L 16.984375 2.546875 C 17.316406 2.164063 17.796875 1.945313 18.304688 1.945313 L 54.832031 1.945313 C 55.300781 1.945313 55.746094 2.128906 56.074219 2.460938 C 56.402344 2.789063 56.589844 3.238281 56.585938 3.703125 L 56.585938 50.097656 C 56.589844 50.589844 56.382813 51.0625 56.015625 51.394531 L 52.125 54.949219 Z M 14.484375 5.394531 "/>
<path style=" stroke:none;fill-rule:nonzero;fill:url(#linear0);" d="M 29.765625 50.167969 L 17.359375 50.167969 C 16.992188 50.167969 16.695313 50.46875 16.695313 50.835938 L 16.695313 69.609375 C 16.695313 69.738281 16.769531 69.855469 16.882813 69.910156 C 17 69.964844 17.136719 69.949219 17.234375 69.871094 L 23.355469 65.074219 C 23.398438 65.042969 23.445313 65.023438 23.496094 65.015625 L 23.472656 65.015625 L 30.433594 59.570313 L 30.433594 50.828125 C 30.429688 50.460938 30.132813 50.167969 29.765625 50.167969 Z M 29.765625 50.167969 "/>
<path style=" stroke:none;fill-rule:nonzero;fill:rgb(46.27451%,73.72549%,17.647059%);fill-opacity:1;" d="M 23.472656 64.992188 L 30.433594 59.546875 L 30.433594 69.65625 C 30.433594 69.785156 30.363281 69.898438 30.246094 69.957031 C 30.132813 70.011719 30 70 29.898438 69.921875 Z M 23.472656 64.992188 "/>
<path style=" stroke:none;fill-rule:nonzero;fill:url(#linear1);" d="M 51.855469 5.363281 L 11.332031 5.363281 C 11.230469 5.363281 11.144531 5.445313 11.144531 5.550781 L 11.144531 55.925781 C 11.144531 56.640625 11.726563 57.222656 12.441406 57.222656 L 51.855469 57.222656 C 52.570313 57.222656 53.152344 56.640625 53.152344 55.925781 L 53.152344 6.65625 C 53.152344 5.941406 52.570313 5.363281 51.855469 5.363281 Z M 51.855469 5.363281 "/>
<path style=" stroke:none;fill-rule:nonzero;fill:rgb(100%,100%,100%);fill-opacity:1;" d="M 23.5625 23.886719 L 23.5625 37.667969 L 20.609375 37.667969 L 20.609375 27.222656 C 20.429688 27.371094 20.238281 27.5 20.03125 27.609375 C 19.804688 27.742188 19.566406 27.859375 19.324219 27.957031 C 19.070313 28.0625 18.8125 28.148438 18.546875 28.222656 C 18.285156 28.292969 18.015625 28.34375 17.746094 28.378906 L 17.746094 25.90625 C 18.5 25.691406 19.230469 25.398438 19.925781 25.039063 C 20.578125 24.707031 21.199219 24.316406 21.78125 23.875 Z M 23.5625 23.886719 "/>
<path style=" stroke:none;fill-rule:nonzero;fill:rgb(100%,100%,100%);fill-opacity:1;" d="M 32.277344 37.90625 C 29.066406 37.90625 27.460938 35.652344 27.464844 31.140625 C 27.34375 29.269531 27.804688 27.402344 28.777344 25.800781 C 29.636719 24.578125 31.058594 23.882813 32.550781 23.960938 C 35.683594 23.960938 37.25 26.25 37.25 30.835938 C 37.367188 32.671875 36.917969 34.503906 35.96875 36.082031 C 35.136719 37.289063 33.742188 37.980469 32.277344 37.90625 Z M 32.410156 26.238281 C 31.113281 26.238281 30.464844 27.851563 30.464844 31.078125 C 30.464844 34.121094 31.09375 35.640625 32.355469 35.640625 C 33.617188 35.640625 34.238281 34.070313 34.222656 30.929688 C 34.222656 27.792969 33.621094 26.226563 32.414063 26.226563 Z M 32.410156 26.238281 "/>
<path style=" stroke:none;fill-rule:nonzero;fill:rgb(100%,100%,100%);fill-opacity:1;" d="M 45.71875 23.886719 L 45.71875 37.667969 L 42.753906 37.667969 L 42.753906 27.222656 C 42.574219 27.371094 42.378906 27.5 42.175781 27.609375 C 41.949219 27.742188 41.710938 27.859375 41.46875 27.957031 C 41.214844 28.0625 40.953125 28.148438 40.6875 28.222656 C 40.429688 28.292969 40.160156 28.34375 39.890625 28.378906 L 39.890625 25.90625 C 40.644531 25.691406 41.375 25.398438 42.074219 25.039063 C 42.722656 24.707031 43.34375 24.316406 43.925781 23.875 Z M 45.71875 23.886719 "/>
</g>
</svg>
