<?xml version="1.0" encoding="UTF-8"?>
<svg xmlns="http://www.w3.org/2000/svg" xmlns:xlink="http://www.w3.org/1999/xlink" width="70pt" height="70pt" viewBox="0 0 70 70" version="1.1">
<defs>
<linearGradient id="linear0" gradientUnits="userSpaceOnUse" x1="8.825" y1="0.575" x2="9.011" y2="17.633" gradientTransform="matrix(3.888889,0,0,3.888889,0,0)">
<stop offset="0" style="stop-color:rgb(19.607843%,83.137255%,96.078431%);stop-opacity:1;"/>
<stop offset="0.321" style="stop-color:rgb(19.215686%,81.960784%,95.294118%);stop-opacity:1;"/>
<stop offset="0.999" style="stop-color:rgb(9.803922%,54.117647%,70.196078%);stop-opacity:1;"/>
<stop offset="1" style="stop-color:rgb(9.803922%,54.117647%,70.196078%);stop-opacity:1;"/>
</linearGradient>
<linearGradient id="linear1" gradientUnits="userSpaceOnUse" x1="8.975" y1="15.908" x2="8.975" y2="11.933" gradientTransform="matrix(3.888889,0,0,3.888889,0,0)">
<stop offset="0" style="stop-color:rgb(21.568627%,76.078431%,69.411765%);stop-opacity:1;"/>
<stop offset="0.908" style="stop-color:rgb(25.882353%,90.980392%,79.215686%);stop-opacity:1;"/>
</linearGradient>
<linearGradient id="linear2" gradientUnits="userSpaceOnUse" x1="9.958" y1="11.782" x2="9.958" y2="9.422" gradientTransform="matrix(3.888889,0,0,3.888889,0,0)">
<stop offset="0" style="stop-color:rgb(21.568627%,76.078431%,69.411765%);stop-opacity:1;"/>
<stop offset="0.908" style="stop-color:rgb(25.882353%,90.980392%,79.215686%);stop-opacity:1;"/>
</linearGradient>
<linearGradient id="linear3" gradientUnits="userSpaceOnUse" x1="8.598" y1="9.072" x2="8.598" y2="7.674" gradientTransform="matrix(3.888889,0,0,3.888889,0,0)">
<stop offset="0" style="stop-color:rgb(21.568627%,76.078431%,69.411765%);stop-opacity:1;"/>
<stop offset="0.908" style="stop-color:rgb(25.882353%,90.980392%,79.215686%);stop-opacity:1;"/>
</linearGradient>
</defs>
<g id="surface1">
<path style=" stroke:none;fill-rule:nonzero;fill:url(#linear0);" d="M 66.464844 68.054688 L 3.535156 68.054688 C 1.53125 68.054688 0.351563 64.851563 1.484375 63.203125 L 23.171875 31.589844 C 23.453125 31.175781 23.605469 30.683594 23.605469 30.183594 L 23.605469 9.289063 C 23.605469 8.601563 23.046875 8.046875 22.359375 8.046875 L 21.195313 8.046875 C 20.535156 8.046875 19.898438 7.785156 19.433594 7.316406 C 18.964844 6.851563 18.703125 6.21875 18.707031 5.558594 L 18.707031 4.433594 C 18.707031 3.773438 18.96875 3.140625 19.4375 2.671875 C 19.902344 2.207031 20.539063 1.945313 21.199219 1.945313 L 48.808594 1.945313 C 50.183594 1.945313 51.296875 3.058594 51.296875 4.433594 L 51.296875 5.558594 C 51.300781 6.21875 51.039063 6.851563 50.570313 7.316406 C 50.101563 7.785156 49.46875 8.046875 48.808594 8.046875 L 47.644531 8.046875 C 46.957031 8.046875 46.398438 8.601563 46.398438 9.289063 L 46.398438 30.230469 C 46.398438 30.734375 46.550781 31.226563 46.832031 31.644531 L 68.527344 63.199219 C 69.648438 64.851563 68.46875 68.054688 66.464844 68.054688 Z M 66.464844 68.054688 "/>
<path style=" stroke:none;fill-rule:nonzero;fill:rgb(100%,100%,100%);fill-opacity:1;" d="M 10.78125 59.613281 L 27.261719 35.59375 C 27.945313 34.589844 28.3125 33.402344 28.316406 32.1875 L 28.316406 22.511719 C 28.324219 21.460938 29.179688 20.609375 30.230469 20.609375 L 39.566406 20.609375 C 40.621094 20.609375 41.480469 21.46875 41.480469 22.523438 L 41.480469 32.84375 C 41.480469 33.664063 41.726563 34.460938 42.191406 35.136719 L 59.019531 59.613281 C 59.316406 60.050781 59.351563 60.617188 59.109375 61.085938 C 58.863281 61.558594 58.382813 61.855469 57.851563 61.863281 L 11.964844 61.863281 C 11.433594 61.863281 10.941406 61.566406 10.695313 61.097656 C 10.445313 60.625 10.480469 60.054688 10.78125 59.613281 Z M 10.78125 59.613281 "/>
<path style=" stroke:none;fill-rule:nonzero;fill:url(#linear1);" d="M 17.65625 49.589844 C 23.765625 45.5625 31.605469 45.246094 38.019531 48.769531 C 39.6875 49.597656 41.476563 50.164063 43.316406 50.445313 C 46.144531 50.835938 49.761719 50.738281 51.050781 48 L 59.457031 59.890625 C 59.726563 60.273438 59.761719 60.773438 59.546875 61.191406 C 59.328125 61.605469 58.898438 61.867188 58.429688 61.867188 L 11.375 61.867188 C 10.90625 61.867188 10.476563 61.605469 10.261719 61.1875 C 10.046875 60.773438 10.082031 60.273438 10.351563 59.890625 Z M 17.65625 49.589844 "/>
<path style=" stroke:none;fill-rule:nonzero;fill:url(#linear2);" d="M 43.3125 41.230469 C 43.3125 43.765625 41.261719 45.820313 38.726563 45.820313 C 36.191406 45.820313 34.136719 43.765625 34.136719 41.230469 C 34.136719 38.695313 36.191406 36.640625 38.726563 36.640625 C 41.261719 36.640625 43.3125 38.695313 43.3125 41.230469 Z M 43.3125 41.230469 "/>
<path style=" stroke:none;fill-rule:nonzero;fill:url(#linear3);" d="M 36.15625 32.5625 C 36.15625 34.0625 34.9375 35.28125 33.4375 35.28125 C 31.933594 35.28125 30.71875 34.0625 30.71875 32.5625 C 30.71875 31.058594 31.933594 29.84375 33.4375 29.84375 C 34.9375 29.84375 36.15625 31.058594 36.15625 32.5625 Z M 36.15625 32.5625 "/>
</g>
</svg>
