<?xml version="1.0" encoding="UTF-8"?>
<svg xmlns="http://www.w3.org/2000/svg" xmlns:xlink="http://www.w3.org/1999/xlink" width="70pt" height="70pt" viewBox="0 0 70 70" version="1.1">
<defs>
<linearGradient id="linear0" gradientUnits="userSpaceOnUse" x1="7.863" y1="0" x2="7.863" y2="12.81" gradientTransform="matrix(3.888889,0,0,3.888889,0,0)">
<stop offset="0" style="stop-color:rgb(71.764706%,47.843137%,95.686275%);stop-opacity:1;"/>
<stop offset="0.621" style="stop-color:rgb(54.901961%,30.980392%,89.411765%);stop-opacity:1;"/>
<stop offset="0.997" style="stop-color:rgb(46.666667%,22.745098%,86.27451%);stop-opacity:1;"/>
</linearGradient>
</defs>
<g id="surface1">
<path style=" stroke:none;fill-rule:nonzero;fill:rgb(19.607843%,74.509804%,86.666667%);fill-opacity:1;" d="M 39.113281 50.199219 C 39.113281 54.984375 35.234375 58.863281 30.449219 58.863281 C 25.664063 58.863281 21.785156 54.984375 21.785156 50.199219 C 21.785156 45.414063 25.664063 41.535156 30.449219 41.535156 C 35.234375 41.535156 39.113281 45.414063 39.113281 50.199219 Z M 39.113281 50.199219 "/>
<path style=" stroke:none;fill-rule:nonzero;fill:rgb(31.372549%,90.196078%,100%);fill-opacity:1;" d="M 30.449219 64.132813 C 22.75 64.132813 16.507813 57.894531 16.507813 50.195313 C 16.507813 42.496094 22.75 36.253906 30.449219 36.257813 C 38.144531 36.257813 44.386719 42.5 44.382813 50.199219 C 44.375 57.890625 38.140625 64.125 30.449219 64.132813 Z M 30.449219 38.628906 C 24.058594 38.617188 18.867188 43.792969 18.859375 50.183594 C 18.855469 56.578125 24.03125 61.761719 30.425781 61.765625 C 36.816406 61.769531 42 56.589844 42 50.199219 C 41.992188 43.820313 36.828125 38.644531 30.449219 38.628906 Z M 30.449219 38.628906 "/>
<path style=" stroke:none;fill-rule:nonzero;fill:rgb(61.176471%,92.156863%,100%);fill-opacity:1;" d="M 30.449219 70 C 19.511719 70.003906 10.640625 61.136719 10.640625 50.195313 C 10.640625 39.253906 19.507813 30.386719 30.449219 30.386719 C 41.386719 30.386719 50.253906 39.257813 50.253906 50.199219 C 50.234375 61.128906 41.378906 69.984375 30.449219 70 Z M 30.449219 32.761719 C 20.820313 32.757813 13.007813 40.5625 13.007813 50.195313 C 13.007813 59.828125 20.8125 67.636719 30.445313 67.636719 C 40.074219 67.636719 47.882813 59.828125 47.882813 50.199219 C 47.875 40.574219 40.074219 32.773438 30.449219 32.761719 Z M 30.449219 32.761719 "/>
<path style=" stroke:none;fill-rule:nonzero;fill:url(#linear0);" d="M 30.578125 0 C 26.527344 0.125 22.699219 1.867188 19.941406 4.835938 C 17.1875 7.804688 15.734375 11.753906 15.914063 15.800781 C 15.914063 22.691406 24.660156 38.832031 28.644531 48.519531 C 28.964844 49.304688 29.726563 49.820313 30.574219 49.820313 C 31.421875 49.820313 32.183594 49.304688 32.503906 48.519531 C 36.480469 38.769531 45.246094 22.460938 45.246094 15.804688 C 45.515625 7.40625 38.972656 0.355469 30.578125 0 Z M 30.578125 21.390625 C 26.976563 21.390625 24.054688 18.464844 24.058594 14.863281 C 24.058594 11.261719 26.984375 8.339844 30.585938 8.34375 C 34.191406 8.351563 37.105469 11.277344 37.101563 14.878906 C 37.097656 18.476563 34.175781 21.390625 30.578125 21.390625 Z M 30.578125 21.390625 "/>
</g>
</svg>
