<?xml version="1.0" encoding="UTF-8"?>
<svg xmlns="http://www.w3.org/2000/svg" xmlns:xlink="http://www.w3.org/1999/xlink" width="70pt" height="70pt" viewBox="0 0 70 70" version="1.1">
<defs>
<linearGradient id="linear0" gradientUnits="userSpaceOnUse" x1="9" y1="17.79" x2="9" y2="1.82" gradientTransform="matrix(3.888889,-0.000000000000000009,0.000000000000000009,3.888889,-0.0137949,-0.00571404)">
<stop offset="0" style="stop-color:rgb(14.509804%,50.980392%,46.666667%);stop-opacity:1;"/>
<stop offset="0.42" style="stop-color:rgb(28.627451%,64.313725%,59.607843%);stop-opacity:1;"/>
<stop offset="0.78" style="stop-color:rgb(37.647059%,72.941176%,67.843137%);stop-opacity:1;"/>
<stop offset="1" style="stop-color:rgb(40.784314%,76.078431%,70.980392%);stop-opacity:1;"/>
</linearGradient>
</defs>
<g id="surface1">
<path style=" stroke:none;fill-rule:nonzero;fill:url(#linear0);" d="M 2.570313 33.433594 L 33.398438 2.605469 C 34.261719 1.742188 35.667969 1.742188 36.53125 2.605469 L 67.359375 33.433594 C 68.222656 34.296875 68.222656 35.703125 67.359375 36.566406 L 36.53125 67.394531 C 35.667969 68.257813 34.261719 68.257813 33.398438 67.394531 L 2.570313 36.566406 C 1.707031 35.703125 1.707031 34.296875 2.570313 33.433594 Z M 2.570313 33.433594 "/>
<path style=" stroke:none;fill-rule:nonzero;fill:rgb(100%,100%,100%);fill-opacity:1;" d="M 27.417969 18.199219 L 34.726563 10.890625 C 34.878906 10.742188 35.121094 10.742188 35.273438 10.890625 L 42.777344 18.199219 C 42.90625 18.296875 42.949219 18.46875 42.882813 18.617188 C 42.820313 18.765625 42.664063 18.847656 42.503906 18.820313 L 38.035156 18.820313 C 37.820313 18.820313 37.644531 18.996094 37.644531 19.210938 L 37.644531 28.660156 C 37.644531 28.855469 37.488281 29.011719 37.292969 29.011719 L 32.746094 29.011719 C 32.644531 29.023438 32.546875 28.992188 32.472656 28.921875 C 32.398438 28.855469 32.355469 28.761719 32.355469 28.660156 L 32.355469 19.210938 C 32.355469 19.011719 32.203125 18.84375 32.003906 18.820313 L 27.6875 18.820313 C 27.546875 18.808594 27.425781 18.71875 27.371094 18.589844 C 27.3125 18.460938 27.332031 18.3125 27.417969 18.199219 Z M 42.777344 51.800781 L 35.273438 59.109375 C 35.121094 59.257813 34.878906 59.257813 34.726563 59.109375 L 27.417969 51.800781 C 27.332031 51.6875 27.3125 51.539063 27.371094 51.410156 C 27.425781 51.28125 27.546875 51.191406 27.6875 51.179688 L 32.003906 51.179688 C 32.203125 51.15625 32.355469 50.988281 32.355469 50.789063 L 32.355469 41.339844 C 32.355469 41.238281 32.398438 41.144531 32.472656 41.078125 C 32.546875 41.007813 32.644531 40.976563 32.746094 40.988281 L 37.292969 40.988281 C 37.488281 40.988281 37.644531 41.144531 37.644531 41.339844 L 37.644531 50.789063 C 37.644531 51.003906 37.820313 51.179688 38.035156 51.179688 L 42.3125 51.179688 C 42.484375 51.050781 42.726563 51.082031 42.855469 51.253906 C 42.984375 51.425781 42.949219 51.671875 42.777344 51.800781 Z M 20.765625 42.15625 L 20.765625 37.878906 C 20.75 37.671875 20.585938 37.507813 20.378906 37.488281 L 10.929688 37.488281 C 10.726563 37.488281 10.558594 37.339844 10.539063 37.140625 L 10.539063 32.589844 C 10.558594 32.382813 10.722656 32.21875 10.929688 32.199219 L 20.378906 32.199219 C 20.578125 32.199219 20.746094 32.050781 20.765625 31.851563 L 20.765625 27.535156 C 20.707031 27.367188 20.777344 27.179688 20.9375 27.097656 C 21.097656 27.019531 21.292969 27.074219 21.390625 27.222656 L 28.699219 34.609375 C 28.769531 34.675781 28.808594 34.769531 28.808594 34.863281 C 28.808594 34.960938 28.769531 35.050781 28.699219 35.117188 L 21.390625 42.429688 C 21.289063 42.554688 21.117188 42.597656 20.972656 42.535156 C 20.824219 42.46875 20.738281 42.3125 20.765625 42.15625 Z M 49.234375 27.535156 L 49.234375 31.851563 C 49.253906 32.050781 49.421875 32.199219 49.621094 32.199219 L 59.070313 32.199219 C 59.277344 32.21875 59.441406 32.382813 59.460938 32.589844 L 59.460938 37.140625 C 59.441406 37.339844 59.273438 37.488281 59.070313 37.488281 L 49.621094 37.488281 C 49.414063 37.507813 49.25 37.671875 49.234375 37.878906 L 49.234375 42.15625 C 49.261719 42.3125 49.175781 42.46875 49.027344 42.535156 C 48.882813 42.597656 48.710938 42.554688 48.609375 42.429688 L 41.300781 35 C 41.230469 34.933594 41.191406 34.84375 41.191406 34.746094 C 41.191406 34.652344 41.230469 34.558594 41.300781 34.496094 L 48.609375 27.222656 C 48.707031 27.074219 48.902344 27.019531 49.0625 27.097656 C 49.222656 27.179688 49.292969 27.367188 49.234375 27.535156 Z M 49.234375 27.535156 "/>
</g>
</svg>
