<?xml version="1.0" encoding="UTF-8"?>
<svg xmlns="http://www.w3.org/2000/svg" xmlns:xlink="http://www.w3.org/1999/xlink" width="70pt" height="70pt" viewBox="0 0 70 70" version="1.1">
<defs>
<linearGradient id="linear0" gradientUnits="userSpaceOnUse" x1="7.63" y1="15.34" x2="7.63" y2="5.84" gradientTransform="matrix(3.888889,0,0,3.888889,0,0)">
<stop offset="0" style="stop-color:rgb(80%,80%,80%);stop-opacity:1;"/>
<stop offset="0.15" style="stop-color:rgb(85.490196%,85.490196%,85.490196%);stop-opacity:1;"/>
<stop offset="0.44" style="stop-color:rgb(93.333333%,93.333333%,93.333333%);stop-opacity:1;"/>
<stop offset="0.72" style="stop-color:rgb(98.431373%,98.431373%,98.431373%);stop-opacity:1;"/>
<stop offset="1" style="stop-color:rgb(100%,100%,100%);stop-opacity:1;"/>
</linearGradient>
</defs>
<g id="surface1">
<path style=" stroke:none;fill-rule:nonzero;fill:rgb(31.372549%,90.196078%,100%);fill-opacity:1;" d="M 58.332031 18.550781 L 54.445313 18.550781 L 54.445313 68.328125 L 58.332031 60.820313 Z M 58.332031 18.550781 "/>
<path style=" stroke:none;fill-rule:nonzero;fill:rgb(61.176471%,92.156863%,100%);fill-opacity:1;" d="M 58.332031 60.785156 L 54.445313 68.289063 L 58.332031 65.179688 L 63.117188 61.484375 Z M 58.332031 60.785156 "/>
<path style=" stroke:none;fill-rule:nonzero;fill:rgb(63.921569%,63.921569%,63.921569%);fill-opacity:1;" d="M 32.628906 11.121094 C 32.753906 7.78125 35.546875 5.164063 38.890625 5.25 C 40.507813 5.1875 42.085938 5.769531 43.277344 6.871094 C 44.464844 7.972656 45.167969 9.503906 45.226563 11.121094 L 45.226563 18.550781 L 48.261719 18.550781 L 48.261719 11.121094 C 48.132813 6.074219 43.9375 2.085938 38.890625 2.214844 C 33.855469 2.109375 29.683594 6.089844 29.554688 11.121094 L 29.554688 18.550781 L 32.589844 18.550781 Z M 32.628906 11.121094 "/>
<path style=" stroke:none;fill-rule:nonzero;fill:rgb(46.27451%,46.27451%,46.27451%);fill-opacity:1;" d="M 23.332031 11.121094 C 23.460938 7.765625 26.273438 5.140625 29.632813 5.25 C 33 5.140625 35.824219 7.757813 35.972656 11.121094 L 35.972656 18.550781 L 38.890625 18.550781 L 38.890625 11.121094 C 38.742188 6.128906 34.628906 2.171875 29.632813 2.214844 C 24.601563 2.109375 20.425781 6.089844 20.300781 11.121094 L 20.300781 18.550781 L 23.332031 18.550781 Z M 23.332031 11.121094 "/>
<path style=" stroke:none;fill-rule:nonzero;fill:rgb(19.607843%,74.509804%,86.666667%);fill-opacity:1;" d="M 54.132813 18.550781 L 54.132813 68.328125 L 5.640625 64.476563 L 7.117188 18.550781 Z M 54.132813 18.550781 "/>
<path style=" stroke:none;fill-rule:nonzero;fill:rgb(19.607843%,74.509804%,86.666667%);fill-opacity:1;" d="M 58.140625 18.550781 L 58.140625 60.820313 L 62.921875 61.523438 L 61.484375 18.550781 Z M 58.140625 18.550781 "/>
<path style=" stroke:none;fill-rule:nonzero;fill:url(#linear0);" d="M 47.40625 47.871094 C 47.292969 43.789063 44.429688 40.300781 40.445313 39.394531 C 40.273438 33.691406 35.792969 29.058594 30.101563 28.699219 C 25.757813 28.316406 21.703125 30.902344 20.222656 35 C 15.527344 35.347656 11.90625 39.277344 11.9375 43.984375 C 12.027344 49.53125 16.359375 54.082031 21.894531 54.445313 L 22.75 54.445313 L 38.929688 55.535156 L 39.355469 55.535156 C 41.445313 55.605469 43.476563 54.835938 44.992188 53.394531 C 46.503906 51.953125 47.375 49.960938 47.40625 47.871094 Z M 47.40625 47.871094 "/>
</g>
</svg>
