<?xml version="1.0" encoding="UTF-8"?>
<svg xmlns="http://www.w3.org/2000/svg" xmlns:xlink="http://www.w3.org/1999/xlink" width="70pt" height="70pt" viewBox="0 0 70 70" version="1.1">
<defs>
<linearGradient id="linear0" gradientUnits="userSpaceOnUse" x1="9" y1="19.049" x2="9" y2="1.048" gradientTransform="matrix(3.888889,0,0,3.888889,0,0)">
<stop offset="0.2" style="stop-color:rgb(0%,47.058824%,83.137255%);stop-opacity:1;"/>
<stop offset="0.287" style="stop-color:rgb(7.45098%,50.196078%,85.490196%);stop-opacity:1;"/>
<stop offset="0.495" style="stop-color:rgb(23.529412%,56.862745%,89.803922%);stop-opacity:1;"/>
<stop offset="0.659" style="stop-color:rgb(33.333333%,61.176471%,92.54902%);stop-opacity:1;"/>
<stop offset="0.759" style="stop-color:rgb(36.862745%,62.745098%,93.72549%);stop-opacity:1;"/>
</linearGradient>
<filter id="alpha" filterUnits="objectBoundingBox" x="0%" y="0%" width="100%" height="100%">
  <feColorMatrix type="matrix" in="SourceGraphic" values="0 0 0 0 1 0 0 0 0 1 0 0 0 0 1 0 0 0 1 0"/>
</filter>
<mask id="mask0">
  <g filter="url(#alpha)">
<rect x="0" y="0" width="70" height="70" style="fill:rgb(0%,0%,0%);fill-opacity:0.94902;stroke:none;"/>
  </g>
</mask>
<clipPath id="clip1">
  <rect x="0" y="0" width="70" height="70"/>
</clipPath>
<g id="surface5" clip-path="url(#clip1)">
<path style=" stroke:none;fill-rule:nonzero;fill:rgb(100%,100%,100%);fill-opacity:1;" d="M 9.726563 10.800781 L 22.703125 10.800781 C 23.003906 10.800781 23.246094 11.042969 23.246094 11.34375 L 23.246094 23.351563 C 23.246094 23.652344 23.003906 23.898438 22.703125 23.898438 L 9.726563 23.898438 C 9.425781 23.898438 9.183594 23.652344 9.183594 23.351563 L 9.183594 11.34375 C 9.183594 11.042969 9.425781 10.800781 9.726563 10.800781 Z M 9.726563 10.800781 "/>
<path style=" stroke:none;fill-rule:nonzero;fill:rgb(100%,100%,100%);fill-opacity:1;" d="M 28.511719 10.800781 L 41.492188 10.800781 C 41.792969 10.800781 42.035156 11.042969 42.035156 11.34375 L 42.035156 23.351563 C 42.035156 23.652344 41.792969 23.898438 41.492188 23.898438 L 28.511719 23.898438 C 28.210938 23.898438 27.96875 23.652344 27.96875 23.351563 L 27.96875 11.34375 C 27.96875 11.042969 28.210938 10.800781 28.511719 10.800781 Z M 28.511719 10.800781 "/>
<path style=" stroke:none;fill-rule:nonzero;fill:rgb(100%,100%,100%);fill-opacity:1;" d="M 47.300781 10.800781 L 60.277344 10.800781 C 60.578125 10.800781 60.820313 11.042969 60.820313 11.34375 L 60.820313 23.351563 C 60.820313 23.652344 60.578125 23.898438 60.277344 23.898438 L 47.300781 23.898438 C 47 23.898438 46.757813 23.652344 46.757813 23.351563 L 46.757813 11.34375 C 46.757813 11.042969 47 10.800781 47.300781 10.800781 Z M 47.300781 10.800781 "/>
</g>
<mask id="mask1">
  <g filter="url(#alpha)">
<rect x="0" y="0" width="70" height="70" style="fill:rgb(0%,0%,0%);fill-opacity:0.45098;stroke:none;"/>
  </g>
</mask>
<clipPath id="clip2">
  <rect x="0" y="0" width="70" height="70"/>
</clipPath>
<g id="surface8" clip-path="url(#clip2)">
<path style=" stroke:none;fill-rule:nonzero;fill:rgb(100%,100%,100%);fill-opacity:1;" d="M 9.726563 28.3125 L 41.28125 28.3125 C 41.582031 28.3125 41.824219 28.554688 41.824219 28.855469 L 41.824219 40.863281 C 41.824219 41.164063 41.582031 41.410156 41.28125 41.410156 L 9.726563 41.410156 C 9.425781 41.410156 9.183594 41.164063 9.183594 40.863281 L 9.183594 28.855469 C 9.183594 28.554688 9.425781 28.3125 9.726563 28.3125 Z M 9.726563 28.3125 "/>
</g>
<mask id="mask2">
  <g filter="url(#alpha)">
<rect x="0" y="0" width="70" height="70" style="fill:rgb(0%,0%,0%);fill-opacity:0.901961;stroke:none;"/>
  </g>
</mask>
<clipPath id="clip3">
  <rect x="0" y="0" width="70" height="70"/>
</clipPath>
<g id="surface11" clip-path="url(#clip3)">
<path style=" stroke:none;fill-rule:nonzero;fill:rgb(100%,100%,100%);fill-opacity:1;" d="M 47.246094 28.3125 L 60.222656 28.3125 C 60.523438 28.3125 60.769531 28.554688 60.769531 28.855469 L 60.769531 40.863281 C 60.769531 41.164063 60.523438 41.410156 60.222656 41.410156 L 47.246094 41.410156 C 46.945313 41.410156 46.703125 41.164063 46.703125 40.863281 L 46.703125 28.855469 C 46.703125 28.554688 46.945313 28.3125 47.246094 28.3125 Z M 47.246094 28.3125 "/>
</g>
<mask id="mask3">
  <g filter="url(#alpha)">
<rect x="0" y="0" width="70" height="70" style="fill:rgb(0%,0%,0%);fill-opacity:0.74902;stroke:none;"/>
  </g>
</mask>
<clipPath id="clip4">
  <rect x="0" y="0" width="70" height="70"/>
</clipPath>
<g id="surface14" clip-path="url(#clip4)">
<path style=" stroke:none;fill-rule:nonzero;fill:rgb(100%,100%,100%);fill-opacity:1;" d="M 9.726563 46.097656 L 59.917969 46.097656 C 60.21875 46.097656 60.460938 46.34375 60.460938 46.644531 L 60.460938 58.652344 C 60.460938 58.953125 60.21875 59.195313 59.917969 59.195313 L 9.726563 59.195313 C 9.425781 59.195313 9.183594 58.953125 9.183594 58.652344 L 9.183594 46.644531 C 9.183594 46.34375 9.425781 46.097656 9.726563 46.097656 Z M 9.726563 46.097656 "/>
</g>
</defs>
<g id="surface1">
<path style=" stroke:none;fill-rule:nonzero;fill:url(#linear0);" d="M 5.964844 3.890625 L 64.035156 3.890625 C 65.179688 3.890625 66.109375 4.820313 66.109375 5.964844 L 66.109375 64.035156 C 66.109375 65.179688 65.179688 66.109375 64.035156 66.109375 L 5.964844 66.109375 C 4.820313 66.109375 3.890625 65.179688 3.890625 64.035156 L 3.890625 5.964844 C 3.890625 4.820313 4.820313 3.890625 5.964844 3.890625 Z M 5.964844 3.890625 "/>
<use xlink:href="#surface5" mask="url(#mask0)"/>
<use xlink:href="#surface8" mask="url(#mask1)"/>
<use xlink:href="#surface11" mask="url(#mask2)"/>
<use xlink:href="#surface14" mask="url(#mask3)"/>
</g>
</svg>
