<?xml version="1.0" encoding="UTF-8"?>
<svg xmlns="http://www.w3.org/2000/svg" xmlns:xlink="http://www.w3.org/1999/xlink" width="70pt" height="70pt" viewBox="0 0 70 70" version="1.1">
<defs>
<radialGradient id="radial0" gradientUnits="userSpaceOnUse" cx="6.61" cy="45.13" fx="6.61" fy="45.13" r="6.4" gradientTransform="matrix(3.655556,0,0,3.655556,19.6,-139.572222)">
<stop offset="0" style="stop-color:rgb(36.862745%,62.745098%,93.72549%);stop-opacity:1;"/>
<stop offset="0.28" style="stop-color:rgb(35.686275%,62.352941%,93.333333%);stop-opacity:1;"/>
<stop offset="0.47" style="stop-color:rgb(32.156863%,60.784314%,92.54902%);stop-opacity:1;"/>
<stop offset="0.64" style="stop-color:rgb(26.27451%,58.039216%,90.588235%);stop-opacity:1;"/>
<stop offset="0.79" style="stop-color:rgb(17.647059%,54.509804%,88.235294%);stop-opacity:1;"/>
<stop offset="0.93" style="stop-color:rgb(6.666667%,49.803922%,85.098039%);stop-opacity:1;"/>
<stop offset="1" style="stop-color:rgb(0%,47.058824%,83.137255%);stop-opacity:1;"/>
</radialGradient>
</defs>
<g id="surface1">
<path style=" stroke:none;fill-rule:nonzero;fill:rgb(9.803922%,54.117647%,70.196078%);fill-opacity:1;" d="M 2.660156 63.640625 L 15.390625 50.910156 C 16.347656 49.953125 17.898438 49.953125 18.855469 50.910156 L 19.074219 51.128906 C 20.03125 52.085938 20.03125 53.636719 19.074219 54.59375 L 6.34375 67.324219 C 5.386719 68.28125 3.835938 68.28125 2.878906 67.324219 L 2.660156 67.105469 C 1.703125 66.148438 1.703125 64.597656 2.660156 63.640625 Z M 2.660156 63.640625 "/>
<path style=" stroke:none;fill-rule:nonzero;fill:url(#radial0);" d="M 66.109375 16.917969 C 65.351563 15.054688 64.375 13.292969 63.195313 11.667969 C 55.144531 0.945313 39.921875 -1.214844 29.207031 6.84375 L 28.972656 7.039063 C 24.753906 10.285156 21.730469 14.839844 20.378906 19.988281 C 20.378906 20.84375 19.988281 21.699219 19.871094 22.554688 C 18.707031 30.410156 21.453125 38.335938 27.222656 43.789063 C 27.488281 44.066406 27.773438 44.328125 28.078125 44.566406 L 28.933594 45.265625 C 30.074219 46.160156 31.296875 46.941406 32.589844 47.601563 L 32.976563 47.832031 L 33.640625 48.105469 L 34.183594 48.378906 L 34.765625 48.609375 L 35.390625 48.84375 L 35.933594 49.039063 L 36.710938 49.273438 L 37.140625 49.273438 L 38.265625 49.582031 L 39.511719 49.855469 L 39.820313 49.855469 C 40.144531 49.875 40.472656 49.875 40.792969 49.855469 L 46.707031 49.855469 C 47.703125 49.734375 48.691406 49.542969 49.660156 49.273438 C 52.785156 48.4375 55.707031 46.980469 58.253906 44.996094 C 59.898438 43.71875 61.375 42.242188 62.648438 40.601563 C 67.859375 33.851563 69.171875 24.875 66.109375 16.917969 Z M 60.472656 13.300781 L 55.726563 13.300781 C 54.9375 10.980469 53.78125 8.800781 52.304688 6.84375 C 55.574219 8.25 58.425781 10.472656 60.589844 13.300781 Z M 45.265625 5.523438 C 48.609375 6.988281 51.15625 9.824219 52.265625 13.300781 L 45.265625 13.300781 Z M 45.265625 16.566406 L 53.316406 16.566406 C 54.058594 19.242188 54.492188 21.996094 54.601563 24.773438 L 45.265625 24.773438 Z M 45.265625 27.882813 L 54.601563 27.882813 C 54.496094 30.671875 54.0625 33.4375 53.316406 36.128906 L 45.382813 36.128906 L 45.382813 27.726563 Z M 33.132813 22.320313 C 33.320313 20.324219 33.683594 18.34375 34.222656 16.410156 L 42.273438 16.410156 L 42.273438 24.617188 L 32.976563 24.617188 C 33.015625 23.839844 33.054688 23.0625 33.132813 22.320313 Z M 42.273438 5.367188 L 42.273438 13.144531 L 35.3125 13.144531 C 36.394531 9.664063 38.933594 6.828125 42.273438 5.367188 Z M 30.878906 9.488281 C 32.207031 8.503906 33.644531 7.671875 35.15625 7 C 33.6875 8.976563 32.53125 11.164063 31.734375 13.496094 L 27.222656 13.496094 C 28.273438 12.015625 29.5 10.667969 30.878906 9.488281 Z M 25.082031 16.410156 L 31.109375 16.410156 C 30.671875 18.121094 30.359375 19.863281 30.179688 21.621094 C 30.179688 22.59375 29.984375 23.605469 29.984375 24.617188 L 22.75 24.617188 C 22.886719 23.632813 23.082031 22.660156 23.332031 21.699219 C 23.703125 19.875 24.289063 18.097656 25.082031 16.410156 Z M 22.75 27.726563 L 29.867188 27.726563 C 29.964844 30.515625 30.382813 33.28125 31.109375 35.972656 L 25.082031 35.972656 C 23.742188 33.414063 22.949219 30.609375 22.75 27.726563 Z M 27.222656 39.160156 L 31.929688 39.160156 C 32.71875 41.480469 33.871094 43.660156 35.351563 45.617188 C 32.136719 44.191406 29.335938 41.96875 27.222656 39.160156 Z M 42.351563 46.9375 C 39.011719 45.480469 36.472656 42.640625 35.390625 39.160156 L 42.351563 39.160156 Z M 42.351563 35.894531 L 34.222656 35.894531 C 33.488281 33.203125 33.070313 30.4375 32.976563 27.648438 L 42.273438 27.648438 L 42.273438 35.972656 Z M 48.300781 45.304688 C 47.480469 46.046875 46.511719 46.601563 45.460938 46.9375 L 45.460938 39.160156 L 52.460938 39.160156 C 51.523438 41.523438 50.074219 43.644531 48.222656 45.382813 Z M 56.777344 42.777344 C 55.40625 43.847656 53.902344 44.738281 52.304688 45.421875 C 53.78125 43.464844 54.9375 41.285156 55.726563 38.964844 L 60.589844 38.964844 C 59.488281 40.398438 58.207031 41.679688 56.777344 42.777344 Z M 62.535156 35.855469 L 56.699219 35.855469 C 57.351563 33.152344 57.730469 30.390625 57.828125 27.609375 L 64.867188 27.609375 C 64.695313 30.53125 63.898438 33.382813 62.535156 35.972656 Z M 57.828125 24.617188 C 57.726563 21.851563 57.347656 19.101563 56.699219 16.410156 L 62.570313 16.410156 C 63.890625 18.964844 64.683594 21.753906 64.90625 24.617188 Z M 57.828125 24.617188 "/>
<path style=" stroke:none;fill-rule:nonzero;fill:rgb(31.372549%,90.196078%,100%);fill-opacity:1;" d="M 40.445313 42.542969 C 40.445313 51.222656 33.410156 58.253906 24.734375 58.253906 C 16.054688 58.253906 9.023438 51.222656 9.023438 42.542969 C 9.023438 33.867188 16.054688 26.832031 24.734375 26.832031 C 33.410156 26.832031 40.445313 33.867188 40.445313 42.542969 Z M 40.445313 42.542969 "/>
<path style=" stroke:none;fill-rule:nonzero;fill:rgb(100%,100%,100%);fill-opacity:1;" d="M 37.023438 42.273438 C 37.023438 49.082031 31.503906 54.601563 24.695313 54.601563 C 17.886719 54.601563 12.367188 49.082031 12.367188 42.273438 C 12.367188 35.464844 17.886719 29.945313 24.695313 29.945313 C 31.503906 29.945313 37.023438 35.464844 37.023438 42.273438 Z M 37.023438 42.273438 "/>
<path style=" stroke:none;fill-rule:nonzero;fill:rgb(46.27451%,73.72549%,17.647059%);fill-opacity:1;" d="M 18.355469 42.542969 L 21.464844 49.777344 L 24.617188 40.484375 L 27.222656 45.773438 L 30.449219 40.328125 L 35.464844 40.328125 C 35.351563 39.707031 35.195313 39.097656 35 38.5 L 29.59375 38.5 L 27.496094 42.039063 L 24.265625 35.894531 L 21.273438 44.722656 L 18.550781 38.460938 L 15.207031 44.566406 L 13.417969 44.566406 C 13.550781 45.191406 13.746094 45.804688 14 46.394531 L 16.253906 46.394531 Z M 18.355469 42.542969 "/>
</g>
</svg>
