<?xml version="1.0" encoding="UTF-8"?>
<svg xmlns="http://www.w3.org/2000/svg" xmlns:xlink="http://www.w3.org/1999/xlink" width="70pt" height="70pt" viewBox="0 0 70 70" version="1.1">
<g id="surface1">
<path style=" stroke:none;fill-rule:nonzero;fill:rgb(1.176471%,39.215686%,72.156863%);fill-opacity:1;" d="M 40.832031 39.375 C 40.832031 39.375 53.746094 30.546875 54.023438 30.566406 C 52.144531 23.226563 46.109375 17.6875 38.636719 16.4375 C 31.164063 15.1875 23.65625 18.464844 19.492188 24.792969 L 19.6875 24.792969 Z M 40.832031 39.375 "/>
<path style=" stroke:none;fill-rule:nonzero;fill:rgb(5.882353%,47.058824%,83.137255%);fill-opacity:1;" d="M 27.730469 27.074219 C 25.316406 25.578125 22.527344 24.785156 19.6875 24.792969 L 19.492188 24.792969 C 13.824219 24.867188 8.664063 28.0625 6.074219 33.105469 C 3.484375 38.144531 3.886719 44.203125 7.125 48.855469 L 27.707031 46.667969 L 40.589844 34.773438 Z M 27.730469 27.074219 "/>
<path style=" stroke:none;fill-rule:nonzero;fill:rgb(7.843137%,56.470588%,87.45098%);fill-opacity:1;" d="M 54.023438 30.566406 C 53.746094 30.546875 53.464844 30.535156 53.183594 30.535156 C 51.488281 30.535156 49.808594 30.882813 48.25 31.554688 L 40.589844 34.777344 L 49.582031 45.207031 L 64.136719 48.878906 C 66.144531 45.15625 66.121094 40.667969 64.074219 36.964844 C 62.03125 33.261719 58.242188 30.851563 54.023438 30.566406 Z M 54.023438 30.566406 "/>
<path style=" stroke:none;fill-rule:nonzero;fill:rgb(15.686275%,65.882353%,91.764706%);fill-opacity:1;" d="M 53.269531 42.371094 L 50.09375 40.472656 L 42.8125 36.113281 L 40.589844 34.78125 L 34.730469 37.25 L 23.5 41.972656 L 18.464844 44.085938 L 7.125 48.855469 C 9.984375 52.96875 14.679688 55.417969 19.6875 55.417969 L 53.183594 55.417969 C 57.757813 55.417969 61.964844 52.90625 64.136719 48.878906 Z M 53.269531 42.371094 "/>
</g>
</svg>
