<?xml version="1.0" encoding="UTF-8"?>
<svg xmlns="http://www.w3.org/2000/svg" xmlns:xlink="http://www.w3.org/1999/xlink" width="70pt" height="70pt" viewBox="0 0 70 70" version="1.1">
<defs>
<linearGradient id="linear0" gradientUnits="userSpaceOnUse" x1="8.15" y1="17.5" x2="8.15" y2="2.09" gradientTransform="matrix(3.888889,0,0,3.888889,0,0)">
<stop offset="0" style="stop-color:rgb(9.803922%,53.333333%,85.098039%);stop-opacity:1;"/>
<stop offset="0.9" style="stop-color:rgb(32.941176%,68.235294%,94.117647%);stop-opacity:1;"/>
</linearGradient>
</defs>
<g id="surface1">
<path style=" stroke:none;fill-rule:nonzero;fill:rgb(0%,35.686275%,63.137255%);fill-opacity:1;" d="M 7.503906 8.207031 L 12.210938 2.722656 C 12.652344 2.21875 13.292969 1.9375 13.960938 1.945313 L 59.109375 1.945313 C 60.011719 1.855469 60.910156 2.15625 61.570313 2.773438 C 62.234375 3.394531 62.597656 4.265625 62.570313 5.171875 L 62.570313 61.5625 C 62.566406 62.203125 62.285156 62.816406 61.792969 63.234375 L 56.738281 67.859375 L 10.578125 67.859375 L 7.429688 66.578125 Z M 7.503906 8.207031 "/>
<path style=" stroke:none;fill-rule:nonzero;fill:rgb(100%,100%,100%);fill-opacity:1;" d="M 11.316406 8.167969 L 14.195313 4.898438 C 14.535156 4.492188 15.023438 4.238281 15.554688 4.199219 L 57.90625 4.199219 C 59.023438 4.199219 59.929688 5.105469 59.929688 6.222656 L 59.929688 59.8125 C 59.933594 60.386719 59.691406 60.941406 59.265625 61.328125 L 54.753906 65.410156 Z M 11.316406 8.167969 "/>
<path style=" stroke:none;fill-rule:nonzero;fill:url(#linear0);" d="M 54.445313 8.128906 L 7.777344 8.128906 C 7.648438 8.128906 7.542969 8.230469 7.542969 8.359375 L 7.542969 66.695313 C 7.566406 67.515625 8.238281 68.171875 9.0625 68.171875 L 54.445313 68.171875 C 55.261719 68.171875 55.921875 67.511719 55.921875 66.695313 L 55.921875 9.644531 C 55.921875 8.820313 55.265625 8.148438 54.445313 8.128906 Z M 54.445313 8.128906 "/>
<path style=" stroke:none;fill-rule:nonzero;fill:rgb(100%,100%,100%);fill-opacity:1;" d="M 19.445313 24.109375 L 42.855469 24.109375 C 43.457031 24.109375 43.945313 24.597656 43.945313 25.199219 L 43.945313 32.277344 C 43.945313 32.878906 43.457031 33.367188 42.855469 33.367188 L 19.445313 33.367188 C 18.84375 33.367188 18.355469 32.878906 18.355469 32.277344 L 18.355469 25.199219 C 18.355469 24.597656 18.84375 24.109375 19.445313 24.109375 Z M 19.445313 24.109375 "/>
</g>
</svg>
