<?xml version="1.0" encoding="UTF-8"?>
<svg xmlns="http://www.w3.org/2000/svg" xmlns:xlink="http://www.w3.org/1999/xlink" width="70pt" height="70pt" viewBox="0 0 70 70" version="1.1">
<defs>
<linearGradient id="linear0" gradientUnits="userSpaceOnUse" x1="7.123" y1="0" x2="7.123" y2="13.962" gradientTransform="matrix(3.888889,0,0,3.888889,0,0)">
<stop offset="0" style="stop-color:rgb(0%,47.058824%,83.137255%);stop-opacity:1;"/>
<stop offset="1" style="stop-color:rgb(0%,35.686275%,63.137255%);stop-opacity:1;"/>
</linearGradient>
</defs>
<g id="surface1">
<path style=" stroke:none;fill-rule:nonzero;fill:url(#linear0);" d="M 54.847656 27.148438 C 54.847656 42.140625 42.695313 54.296875 27.699219 54.296875 C 12.707031 54.296875 0.550781 42.140625 0.550781 27.148438 C 0.550781 12.15625 12.707031 0 27.699219 0 C 42.695313 0 54.847656 12.15625 54.847656 27.148438 Z M 54.847656 27.148438 "/>
<path style=" stroke:none;fill-rule:nonzero;fill:rgb(0%,47.058824%,83.137255%);fill-opacity:1;" d="M 68.855469 43.414063 C 68.855469 57.769531 57.21875 69.410156 42.863281 69.410156 C 28.507813 69.410156 16.871094 57.769531 16.871094 43.414063 C 16.871094 29.058594 28.507813 17.421875 42.863281 17.421875 C 57.21875 17.421875 68.855469 29.058594 68.855469 43.414063 Z M 68.855469 43.414063 "/>
<path style=" stroke:none;fill-rule:nonzero;fill:rgb(51.372549%,72.54902%,97.647059%);fill-opacity:1;" d="M 69.449219 42.542969 L 69.40625 42.542969 C 68.925781 28.042969 56.910156 16.605469 42.402344 16.84375 C 27.894531 17.082031 16.257813 28.910156 16.257813 43.417969 C 16.257813 57.929688 27.894531 69.757813 42.402344 69.996094 C 56.910156 70.234375 68.925781 58.796875 69.40625 44.292969 L 69.449219 44.292969 Z M 58.421875 42.542969 C 58.402344 38.753906 57.675781 35 56.285156 31.476563 L 64.625 31.476563 C 66.496094 34.875 67.535156 38.667969 67.667969 42.542969 Z M 18.074219 44.292969 L 27.664063 44.292969 C 27.699219 48.089844 28.445313 51.84375 29.859375 55.367188 L 21.109375 55.367188 C 19.238281 51.964844 18.199219 48.171875 18.074219 44.292969 Z M 42.511719 29.726563 L 32.792969 29.726563 C 35.253906 25.824219 38.578125 22.542969 42.511719 20.136719 Z M 44.261719 20.140625 C 48.097656 22.527344 51.285156 25.820313 53.550781 29.726563 L 44.261719 29.726563 Z M 42.511719 31.476563 L 42.511719 42.542969 L 29.410156 42.542969 C 29.4375 38.71875 30.292969 34.941406 31.921875 31.476563 Z M 27.660156 42.542969 L 18.074219 42.542969 C 18.199219 38.667969 19.238281 34.875 21.105469 31.476563 L 30 31.476563 C 28.492188 34.972656 27.695313 38.738281 27.660156 42.542969 Z M 29.414063 44.292969 L 42.511719 44.292969 L 42.511719 55.367188 L 31.824219 55.367188 C 30.28125 51.875 29.460938 48.109375 29.414063 44.292969 Z M 42.511719 57.128906 L 42.511719 67.277344 C 38.441406 64.757813 35.058594 61.265625 32.667969 57.121094 Z M 44.261719 57.128906 L 53.410156 57.128906 C 51.167969 61.035156 48.035156 64.359375 44.261719 66.828125 Z M 44.261719 55.375 L 44.261719 44.292969 L 56.671875 44.292969 C 56.628906 48.109375 55.808594 51.875 54.265625 55.367188 Z M 44.261719 42.539063 L 44.261719 31.476563 L 54.375 31.476563 C 55.875 34.976563 56.652344 38.738281 56.667969 42.542969 Z M 63.558594 29.707031 L 55.449219 29.707031 C 53.078125 25.207031 49.5625 21.410156 45.253906 18.707031 C 52.707031 19.433594 59.429688 23.484375 63.558594 29.726563 Z M 41.609375 18.667969 C 37.164063 21.394531 33.472656 25.199219 30.882813 29.726563 L 22.167969 29.726563 C 26.523438 23.160156 33.742188 19.054688 41.609375 18.667969 Z M 22.167969 57.121094 L 30.722656 57.121094 C 33.054688 61.574219 36.476563 65.363281 40.671875 68.136719 C 33.148438 67.46875 26.339844 63.414063 22.167969 57.121094 Z M 45.460938 68.109375 C 49.636719 65.339844 53.046875 61.558594 55.371094 57.121094 L 63.535156 57.121094 C 59.449219 63.292969 52.828125 67.320313 45.46875 68.109375 Z M 64.613281 55.367188 L 56.230469 55.367188 C 57.644531 51.84375 58.386719 48.089844 58.421875 44.292969 L 67.667969 44.292969 C 67.535156 48.171875 66.492188 51.964844 64.621094 55.367188 Z M 64.613281 55.367188 "/>
<path style=" stroke:none;fill-rule:nonzero;fill:rgb(25.882353%,90.980392%,79.215686%);fill-opacity:1;" d="M 42.898438 37.660156 C 42.003906 37.664063 41.125 37.871094 40.320313 38.257813 L 24.609375 18.90625 C 26.382813 16.441406 26.074219 13.042969 23.886719 10.933594 C 21.699219 8.824219 18.296875 8.640625 15.894531 10.503906 C 13.492188 12.363281 12.820313 15.707031 14.316406 18.351563 C 15.816406 20.996094 19.027344 22.140625 21.859375 21.039063 L 37.722656 40.59375 C 37.144531 41.527344 36.835938 42.605469 36.828125 43.703125 C 36.828125 47.046875 39.539063 49.757813 42.882813 49.757813 C 46.226563 49.757813 48.9375 47.046875 48.9375 43.703125 C 48.9375 40.359375 46.226563 37.648438 42.882813 37.648438 Z M 42.898438 37.660156 "/>
</g>
</svg>
