<?xml version="1.0" encoding="UTF-8"?>
<svg xmlns="http://www.w3.org/2000/svg" xmlns:xlink="http://www.w3.org/1999/xlink" width="70pt" height="70pt" viewBox="0 0 70 70" version="1.1">
<g id="surface1">
<path style=" stroke:none;fill-rule:nonzero;fill:rgb(9.411765%,36.078431%,21.568627%);fill-opacity:1;" d="M 26.25 64.167969 L 26.25 32.082031 L 8.75 32.082031 L 8.75 64.167969 C 8.75 65.917969 9.917969 67.082031 11.667969 67.082031 L 23.332031 67.082031 C 25.082031 67.082031 26.25 65.917969 26.25 64.167969 Z M 26.25 64.167969 "/>
<path style=" stroke:none;fill-rule:nonzero;fill:rgb(20%,76.862745%,50.588235%);fill-opacity:1;" d="M 58.332031 43.75 L 43.75 43.75 L 32.957031 21 L 43.75 2.917969 L 58.332031 2.917969 C 60.082031 2.917969 61.25 4.082031 61.25 5.832031 L 61.25 40.832031 C 61.25 42.582031 60.082031 43.75 58.332031 43.75 Z M 58.332031 43.75 "/>
<path style=" stroke:none;fill-rule:nonzero;fill:rgb(6.27451%,48.627451%,25.490196%);fill-opacity:1;" d="M 43.75 2.917969 L 11.667969 2.917969 C 9.917969 2.917969 8.75 4.082031 8.75 5.832031 L 8.75 35 L 26.25 35 L 26.25 55.417969 L 40.832031 55.417969 C 42.582031 55.417969 43.75 54.25 43.75 52.5 Z M 43.75 2.917969 "/>
<path style=" stroke:none;fill-rule:nonzero;fill:rgb(12.941176%,63.921569%,40%);fill-opacity:1;" d="M 26.25 2.917969 L 43.75 2.917969 L 43.75 26.25 L 26.25 26.25 Z M 26.25 2.917969 "/>
</g>
</svg>
