<?xml version="1.0" encoding="UTF-8"?>
<svg xmlns="http://www.w3.org/2000/svg" xmlns:xlink="http://www.w3.org/1999/xlink" width="70pt" height="70pt" viewBox="0 0 70 70" version="1.1">
<defs>
<linearGradient id="linear0" gradientUnits="userSpaceOnUse" x1="9" y1="15.834" x2="9" y2="5.788" gradientTransform="matrix(3.888889,0,0,3.888889,0,0)">
<stop offset="0" style="stop-color:rgb(19.607843%,74.509804%,86.666667%);stop-opacity:1;"/>
<stop offset="0.175" style="stop-color:rgb(19.607843%,79.215686%,91.764706%);stop-opacity:1;"/>
<stop offset="0.41" style="stop-color:rgb(19.607843%,82.352941%,94.901961%);stop-opacity:1;"/>
<stop offset="0.775" style="stop-color:rgb(19.607843%,83.137255%,96.078431%);stop-opacity:1;"/>
</linearGradient>
</defs>
<g id="surface1">
<path style=" stroke:none;fill-rule:nonzero;fill:url(#linear0);" d="M 1.945313 22.507813 L 68.054688 22.507813 L 68.054688 59.367188 C 68.054688 60.585938 67.066406 61.578125 65.847656 61.578125 L 4.152344 61.578125 C 2.933594 61.578125 1.945313 60.585938 1.945313 59.367188 Z M 1.945313 22.507813 "/>
<path style=" stroke:none;fill-rule:nonzero;fill:rgb(0%,47.058824%,83.137255%);fill-opacity:1;" d="M 4.164063 8.421875 L 65.835938 8.421875 C 67.054688 8.421875 68.042969 9.414063 68.042969 10.632813 L 68.042969 22.507813 L 1.945313 22.507813 L 1.945313 10.632813 C 1.945313 10.042969 2.179688 9.480469 2.59375 9.066406 C 3.011719 8.652344 3.578125 8.421875 4.164063 8.421875 Z M 4.164063 8.421875 "/>
<path style=" stroke:none;fill-rule:nonzero;fill:rgb(94.901961%,94.901961%,94.901961%);fill-opacity:1;" d="M 10.984375 31.027344 L 12.421875 29.585938 C 12.675781 29.332031 13.085938 29.332031 13.339844 29.585938 L 23.964844 40.179688 C 24.472656 40.6875 24.472656 41.511719 23.964844 42.023438 L 22.53125 43.460938 L 10.988281 31.949219 C 10.734375 31.695313 10.734375 31.285156 10.988281 31.03125 Z M 10.984375 31.027344 "/>
<path style=" stroke:none;fill-rule:nonzero;fill:rgb(90.196078%,90.196078%,90.196078%);fill-opacity:1;" d="M 12.632813 52.515625 L 11.195313 51.078125 C 10.941406 50.824219 10.9375 50.414063 11.191406 50.160156 L 22.535156 38.785156 L 23.972656 40.214844 C 24.484375 40.726563 24.484375 41.550781 23.976563 42.058594 L 13.542969 52.523438 C 13.289063 52.777344 12.878906 52.777344 12.625 52.523438 Z M 12.632813 52.515625 "/>
<path style=" stroke:none;fill-rule:nonzero;fill:rgb(94.901961%,94.901961%,94.901961%);fill-opacity:1;" d="M 29.214844 49.15625 L 45.503906 49.15625 C 46.128906 49.15625 46.636719 49.664063 46.636719 50.289063 L 46.636719 51.957031 C 46.636719 52.582031 46.128906 53.085938 45.503906 53.085938 L 29.214844 53.085938 C 28.589844 53.085938 28.082031 52.582031 28.082031 51.957031 L 28.082031 50.289063 C 28.082031 49.664063 28.589844 49.15625 29.214844 49.15625 Z M 29.214844 49.15625 "/>
</g>
</svg>
