<?xml version="1.0" encoding="UTF-8"?>
<svg xmlns="http://www.w3.org/2000/svg" xmlns:xlink="http://www.w3.org/1999/xlink" width="70pt" height="70pt" viewBox="0 0 70 70" version="1.1">
<defs>
<linearGradient id="linear0" gradientUnits="userSpaceOnUse" x1="8.886" y1="12.654" x2="8.886" y2="6.632" gradientTransform="matrix(3.888889,0,0,3.888889,0,0)">
<stop offset="0" style="stop-color:rgb(9.803922%,53.333333%,85.098039%);stop-opacity:1;"/>
<stop offset="0.218" style="stop-color:rgb(12.941176%,55.294118%,86.27451%);stop-opacity:1;"/>
<stop offset="0.559" style="stop-color:rgb(21.568627%,61.176471%,89.803922%);stop-opacity:1;"/>
<stop offset="0.9" style="stop-color:rgb(32.941176%,68.235294%,94.117647%);stop-opacity:1;"/>
</linearGradient>
</defs>
<g id="surface1">
<path style=" stroke:none;fill-rule:nonzero;fill:url(#linear0);" d="M 34.558594 49.210938 C 46.464844 40.679688 46.863281 35.699219 46.917969 34.140625 C 46.992188 31.960938 46.691406 26.261719 40.941406 25.8125 C 38.113281 25.582031 35.488281 27.292969 34.558594 29.972656 C 33.625 27.292969 31 25.582031 28.171875 25.8125 C 22.421875 26.261719 22.121094 31.960938 22.195313 34.140625 C 22.246094 35.695313 22.644531 40.679688 34.558594 49.210938 "/>
<path style=" stroke:none;fill-rule:nonzero;fill:rgb(70.196078%,70.196078%,70.196078%);fill-opacity:1;" d="M 49.34375 20.652344 C 45.75 17.046875 41.835938 13.769531 37.652344 10.867188 C 36.769531 11.394531 35.882813 11.953125 35 12.542969 C 39.429688 15.507813 43.550781 18.90625 47.308594 22.6875 C 51.078125 26.445313 54.464844 30.570313 57.410156 35 C 58.011719 34.09375 58.578125 33.183594 59.109375 32.277344 C 56.207031 28.121094 52.9375 24.230469 49.34375 20.652344 Z M 49.34375 20.652344 "/>
<path style=" stroke:none;fill-rule:nonzero;fill:rgb(70.196078%,70.196078%,70.196078%);fill-opacity:1;" d="M 22.691406 47.304688 C 18.921875 43.550781 15.535156 39.425781 12.585938 35 C 11.988281 35.90625 11.417969 36.808594 10.890625 37.722656 C 13.792969 41.882813 17.0625 45.777344 20.65625 49.359375 C 24.234375 52.945313 28.125 56.210938 32.277344 59.109375 C 33.179688 58.574219 34.085938 58.007813 35 57.40625 C 30.570313 54.460938 26.445313 51.074219 22.691406 47.304688 Z M 22.691406 47.304688 "/>
<path style=" stroke:none;fill-rule:nonzero;fill:rgb(70.196078%,70.196078%,70.196078%);fill-opacity:1;" d="M 60.902344 35 C 60.339844 35.898438 59.738281 36.800781 59.109375 37.722656 C 65.382813 48.269531 67.15625 58.128906 62.632813 62.648438 C 58.113281 67.171875 48.246094 65.398438 37.707031 59.128906 C 36.804688 59.757813 35.898438 60.351563 34.984375 60.914063 C 40.996094 65.089844 48.023438 67.5625 55.324219 68.070313 C 58.765625 68.25 62.128906 67.027344 64.65625 64.683594 C 70.449219 58.878906 68.59375 47.257813 60.902344 35 Z M 60.902344 35 "/>
<path style=" stroke:none;fill-rule:nonzero;fill:rgb(70.196078%,70.196078%,70.196078%);fill-opacity:1;" d="M 10.890625 32.277344 C 4.617188 21.742188 2.84375 11.882813 7.367188 7.363281 C 9.359375 5.582031 11.984375 4.671875 14.652344 4.839844 C 17.742188 4.925781 20.792969 5.542969 23.671875 6.664063 C 26.6875 7.792969 29.59375 9.199219 32.347656 10.867188 C 33.230469 10.257813 34.117188 9.679688 35 9.125 C 31.738281 7.050781 28.273438 5.324219 24.65625 3.964844 C 16.175781 0.855469 9.308594 1.347656 5.332031 5.328125 C -0.449219 11.113281 1.40625 22.734375 9.097656 35 C 9.660156 34.097656 10.261719 33.195313 10.890625 32.277344 Z M 10.890625 32.277344 "/>
<path style=" stroke:none;fill-rule:nonzero;fill:rgb(36.862745%,62.745098%,93.72549%);fill-opacity:1;" d="M 14.660156 68.054688 C 11.21875 68.234375 7.855469 67.011719 5.328125 64.667969 C -2.722656 56.621094 4.023438 37.289063 20.65625 20.652344 C 27.617188 13.414063 36.03125 7.726563 45.34375 3.964844 C 53.824219 0.855469 60.691406 1.351563 64.667969 5.328125 C 72.710938 13.371094 65.976563 32.703125 49.34375 49.339844 C 37.457031 61.21875 24.195313 68.054688 14.660156 68.054688 Z M 55.347656 4.839844 C 52.257813 4.925781 49.207031 5.542969 46.328125 6.664063 C 37.410156 10.28125 29.355469 15.742188 22.691406 22.6875 C 7.710938 37.667969 0.691406 55.957031 7.367188 62.628906 C 14.039063 69.304688 32.328125 62.285156 47.308594 47.304688 C 62.289063 32.324219 69.308594 14.03125 62.632813 7.363281 C 60.640625 5.582031 58.015625 4.671875 55.347656 4.839844 Z M 55.347656 4.839844 "/>
<path style=" stroke:none;fill-rule:nonzero;fill:rgb(70.196078%,70.196078%,70.196078%);fill-opacity:1;" d="M 10.890625 32.289063 L 13.578125 36.457031 L 11.425781 38.46875 L 8.152344 33.441406 Z M 10.890625 32.289063 "/>
<path style=" stroke:none;fill-rule:nonzero;fill:rgb(70.196078%,70.196078%,70.196078%);fill-opacity:1;" d="M 59.109375 37.703125 L 56.257813 33.296875 L 58.613281 31.460938 L 61.613281 36.152344 Z M 59.109375 37.703125 "/>
</g>
</svg>
