<?xml version="1.0" encoding="UTF-8"?>
<svg xmlns="http://www.w3.org/2000/svg" xmlns:xlink="http://www.w3.org/1999/xlink" width="70pt" height="70pt" viewBox="0 0 70 70" version="1.1">
<defs>
<linearGradient id="linear0" gradientUnits="userSpaceOnUse" x1="9" y1="19.682" x2="9" y2="1.099" gradientTransform="matrix(3.888889,0,0,3.888889,0,0)">
<stop offset="0" style="stop-color:rgb(46.27451%,73.72549%,17.647059%);stop-opacity:1;"/>
<stop offset="0.192" style="stop-color:rgb(49.803922%,79.607843%,18.823529%);stop-opacity:1;"/>
<stop offset="0.42" style="stop-color:rgb(51.764706%,82.745098%,19.607843%);stop-opacity:1;"/>
<stop offset="0.775" style="stop-color:rgb(52.54902%,83.921569%,20%);stop-opacity:1;"/>
</linearGradient>
</defs>
<g id="surface1">
<path style=" stroke:none;fill-rule:nonzero;fill:url(#linear0);" d="M 55.667969 1.945313 L 14.332031 1.945313 C 13.101563 1.945313 12.105469 2.941406 12.101563 4.171875 L 12.101563 66.730469 C 12.105469 67.15625 12.347656 67.542969 12.730469 67.730469 C 13.113281 67.917969 13.570313 67.867188 13.90625 67.605469 L 34.3125 51.613281 C 34.449219 51.511719 34.605469 51.445313 34.769531 51.414063 L 34.699219 51.359375 L 57.898438 33.277344 L 57.898438 4.171875 C 57.894531 2.941406 56.898438 1.945313 55.667969 1.945313 Z M 55.667969 1.945313 "/>
<path style=" stroke:none;fill-rule:nonzero;fill:rgb(46.27451%,73.72549%,17.647059%);fill-opacity:1;" d="M 34.699219 51.359375 L 57.898438 33.277344 L 57.898438 66.9375 C 57.898438 67.363281 57.65625 67.753906 57.273438 67.9375 C 56.890625 68.125 56.4375 68.082031 56.101563 67.820313 Z M 34.699219 51.359375 "/>
</g>
</svg>
