<?xml version="1.0" encoding="UTF-8"?>
<svg xmlns="http://www.w3.org/2000/svg" xmlns:xlink="http://www.w3.org/1999/xlink" width="70pt" height="70pt" viewBox="0 0 70 70" version="1.1">
<g id="surface1">
<path style=" stroke:none;fill-rule:nonzero;fill:rgb(12.156863%,33.72549%,63.921569%);fill-opacity:1;" d="M 50.640625 65.191406 C 42.511719 64.105469 42.648438 58.878906 42.6875 50.414063 L 27.460938 50.414063 C 27.5 58.890625 27.632813 64.117188 19.503906 65.191406 C 17.492188 65.339844 15.875 66.910156 15.675781 68.917969 L 54.492188 68.917969 C 54.28125 66.90625 52.65625 65.335938 50.640625 65.191406 Z M 50.640625 65.191406 "/>
<path style=" stroke:none;fill-rule:nonzero;fill:rgb(7.843137%,56.470588%,87.45098%);fill-opacity:1;" d="M 2.371094 1.082031 L 67.628906 1.082031 C 68.9375 1.082031 70 2.144531 70 3.453125 L 70 48.28125 C 70 49.589844 68.9375 50.652344 67.628906 50.652344 L 2.371094 50.652344 C 1.0625 50.652344 0 49.589844 0 48.28125 L 0 3.453125 C 0 2.144531 1.0625 1.082031 2.371094 1.082031 Z M 2.371094 1.082031 "/>
<path style=" stroke:none;fill-rule:nonzero;fill:rgb(100%,100%,100%);fill-opacity:1;" d="M 5.21875 4.917969 L 64.683594 4.917969 C 65.339844 4.917969 65.871094 5.449219 65.871094 6.105469 L 65.871094 44.863281 C 65.871094 45.515625 65.339844 46.046875 64.683594 46.046875 L 5.21875 46.046875 C 4.5625 46.046875 4.03125 45.515625 4.03125 44.863281 L 4.03125 6.105469 C 4.03125 5.449219 4.5625 4.917969 5.21875 4.917969 Z M 5.21875 4.917969 "/>
<path style=" stroke:none;fill-rule:nonzero;fill:rgb(46.27451%,73.72549%,17.647059%);fill-opacity:1;" d="M 46.972656 18.097656 C 46.765625 18.101563 46.574219 18.210938 46.46875 18.386719 L 42.851563 24.5 C 42.746094 24.683594 42.546875 24.792969 42.335938 24.789063 C 42.125 24.78125 41.929688 24.664063 41.832031 24.476563 L 36.296875 13.925781 C 36.183594 13.71875 35.964844 13.597656 35.730469 13.617188 C 35.496094 13.636719 35.296875 13.789063 35.222656 14.011719 L 30.019531 29.457031 C 29.9375 29.6875 29.726563 29.84375 29.488281 29.851563 C 29.246094 29.863281 29.023438 29.722656 28.925781 29.5 L 24.425781 19.074219 C 24.339844 18.867188 24.140625 18.730469 23.917969 18.71875 C 23.691406 18.710938 23.484375 18.828125 23.375 19.023438 L 17.179688 30.300781 C 17.078125 30.488281 16.882813 30.605469 16.667969 30.605469 L 4.03125 30.605469 L 4.03125 34.332031 L 18.867188 34.332031 C 19.082031 34.332031 19.28125 34.214844 19.382813 34.027344 L 22.972656 27.503906 C 23.082031 27.308594 23.289063 27.191406 23.511719 27.203125 C 23.734375 27.214844 23.933594 27.347656 24.023438 27.554688 L 29.351563 39.910156 C 29.449219 40.132813 29.671875 40.273438 29.914063 40.265625 C 30.152344 40.253906 30.363281 40.097656 30.441406 39.867188 L 35.972656 23.453125 C 36.046875 23.234375 36.246094 23.078125 36.480469 23.058594 C 36.710938 23.039063 36.933594 23.160156 37.042969 23.367188 L 41.636719 32.117188 C 41.738281 32.304688 41.929688 32.425781 42.140625 32.429688 C 42.355469 32.4375 42.550781 32.328125 42.660156 32.144531 L 48.609375 22.113281 C 48.714844 21.933594 48.90625 21.824219 49.113281 21.824219 L 65.890625 21.824219 L 65.890625 18.097656 Z M 46.972656 18.097656 "/>
</g>
</svg>
