<?xml version="1.0" encoding="UTF-8"?>
<svg xmlns="http://www.w3.org/2000/svg" xmlns:xlink="http://www.w3.org/1999/xlink" width="70pt" height="70pt" viewBox="0 0 70 70" version="1.1">
<defs>
<linearGradient id="linear0" gradientUnits="userSpaceOnUse" x1="0.072" y1="12.971" x2="12.822" y2="12.971" gradientTransform="matrix(3.888876,0.00997745,-0.00997745,3.888876,10.048889,-10.99)">
<stop offset="0" style="stop-color:rgb(0%,35.686275%,63.137255%);stop-opacity:1;"/>
<stop offset="0.068" style="stop-color:rgb(0%,37.647059%,66.27451%);stop-opacity:1;"/>
<stop offset="0.356" style="stop-color:rgb(0%,44.313725%,78.431373%);stop-opacity:1;"/>
<stop offset="0.517" style="stop-color:rgb(0%,47.058824%,83.137255%);stop-opacity:1;"/>
<stop offset="0.642" style="stop-color:rgb(0%,45.490196%,80.392157%);stop-opacity:1;"/>
<stop offset="0.82" style="stop-color:rgb(0%,41.568627%,73.333333%);stop-opacity:1;"/>
<stop offset="1" style="stop-color:rgb(0%,35.686275%,63.137255%);stop-opacity:1;"/>
</linearGradient>
</defs>
<g id="surface1">
<path style=" stroke:none;fill-rule:nonzero;fill:url(#linear0);" d="M 35.039063 20.007813 C 21.347656 19.972656 10.257813 15.902344 10.269531 10.914063 L 10.144531 58.960938 C 10.144531 63.90625 21.035156 67.949219 34.574219 68.050781 L 34.914063 68.050781 C 48.605469 68.085938 59.71875 64.074219 59.730469 59.082031 L 59.855469 11.035156 C 59.84375 16.03125 48.730469 20.042969 35.039063 20.007813 Z M 35.039063 20.007813 "/>
<path style=" stroke:none;fill-rule:nonzero;fill:rgb(90.196078%,90.196078%,90.196078%);fill-opacity:1;" d="M 59.855469 11.039063 C 59.855469 16.027344 48.730469 20.042969 35.039063 20.007813 C 21.347656 19.972656 10.257813 15.902344 10.269531 10.914063 C 10.28125 5.921875 21.390625 1.910156 35.085938 1.945313 C 48.78125 1.980469 59.867188 6.050781 59.855469 11.039063 "/>
<path style=" stroke:none;fill-rule:nonzero;fill:rgb(31.372549%,90.196078%,100%);fill-opacity:1;" d="M 54.054688 10.292969 C 54.054688 13.46875 45.53125 16.015625 35.039063 15.988281 C 24.546875 15.960938 16.050781 13.371094 16.058594 10.195313 C 16.066406 7.023438 24.582031 4.476563 35.078125 4.503906 C 45.574219 4.53125 54.074219 7.121094 54.066406 10.292969 "/>
<path style=" stroke:none;fill-rule:nonzero;fill:rgb(9.803922%,54.117647%,70.196078%);fill-opacity:1;" d="M 35.058594 11.570313 C 29.953125 11.4375 24.863281 12.160156 20 13.707031 C 24.847656 15.335938 29.941406 16.105469 35.050781 15.988281 C 40.160156 16.132813 45.253906 15.386719 50.109375 13.785156 C 45.25 12.210938 40.164063 11.460938 35.058594 11.570313 Z M 35.058594 11.570313 "/>
<path style=" stroke:none;fill-rule:nonzero;fill:rgb(100%,100%,100%);fill-opacity:1;" d="M 32.355469 50.683594 L 30.015625 53.027344 C 29.617188 53.421875 28.96875 53.421875 28.574219 53.027344 L 19.265625 43.71875 C 19.070313 43.527344 18.960938 43.265625 18.960938 42.996094 C 18.960938 42.722656 19.066406 42.464844 19.257813 42.269531 L 20.882813 40.648438 C 21.28125 40.25 21.925781 40.25 22.324219 40.648438 Z M 32.355469 50.683594 "/>
<path style=" stroke:none;fill-rule:nonzero;fill:rgb(94.901961%,94.901961%,94.901961%);fill-opacity:1;" d="M 28.605469 53.039063 L 26.265625 50.699219 L 47.671875 29.289063 C 48.070313 28.890625 48.714844 28.890625 49.113281 29.289063 L 50.734375 30.914063 C 51.132813 31.308594 51.132813 31.957031 50.734375 32.351563 L 30.050781 53.039063 C 29.859375 53.230469 29.601563 53.339844 29.328125 53.339844 C 29.058594 53.339844 28.796875 53.230469 28.605469 53.039063 Z M 28.605469 53.039063 "/>
</g>
</svg>
