<?xml version="1.0" encoding="UTF-8"?>
<svg xmlns="http://www.w3.org/2000/svg" xmlns:xlink="http://www.w3.org/1999/xlink" width="70pt" height="70pt" viewBox="0 0 70 70" version="1.1">
<g id="surface1">
<path style=" stroke:none;fill-rule:nonzero;fill:rgb(58.039216%,58.039216%,58.039216%);fill-opacity:1;" d="M 0 60.667969 C -0.0078125 60.914063 0.128906 61.140625 0.351563 61.25 L 5.09375 63.972656 L 13.144531 68.640625 C 13.46875 68.820313 13.878906 68.71875 14.078125 68.40625 L 16.800781 63.660156 C 17.027344 63.421875 17.027344 63.046875 16.800781 62.804688 L 7.078125 57.285156 C 6.882813 57.152344 6.765625 56.933594 6.765625 56.699219 L 6.765625 13.300781 C 6.765625 13.066406 6.882813 12.847656 7.078125 12.714844 L 16.527344 7.273438 C 16.679688 7.199219 16.792969 7.0625 16.847656 6.902344 C 16.898438 6.742188 16.882813 6.566406 16.800781 6.417969 L 14.078125 1.554688 C 13.878906 1.242188 13.46875 1.140625 13.144531 1.320313 L 5.367188 5.910156 L 0.3125 8.75 C 0.0898438 8.859375 -0.046875 9.085938 -0.0390625 9.332031 Z M 0 60.667969 "/>
<path style=" stroke:none;fill-rule:nonzero;fill:rgb(63.921569%,63.921569%,63.921569%);fill-opacity:1;" d="M 16.722656 6.339844 L 14.078125 1.554688 C 13.925781 1.320313 13.652344 1.199219 13.378906 1.246094 C 13.277344 1.207031 13.167969 1.207031 13.066406 1.246094 L 5.289063 5.832031 L 0.234375 8.75 L 0 8.945313 L 0 9.253906 L 6.765625 13.144531 C 6.765625 12.910156 6.882813 12.691406 7.078125 12.5625 L 16.527344 7.117188 C 16.679688 7.042969 16.792969 6.910156 16.847656 6.746094 C 16.898438 6.585938 16.882813 6.410156 16.800781 6.261719 Z M 16.722656 63.660156 L 14 68.40625 C 13.847656 68.640625 13.574219 68.761719 13.300781 68.714844 L 12.988281 68.714844 L 5.210938 64.128906 L 0.15625 61.210938 L -0.078125 60.976563 L -0.078125 60.667969 L 6.6875 56.777344 C 6.6875 57.011719 6.804688 57.230469 7 57.359375 L 16.449219 62.804688 C 16.730469 62.972656 16.832031 63.332031 16.683594 63.621094 Z M 16.722656 63.660156 "/>
<path style=" stroke:none;fill-rule:nonzero;fill:rgb(58.039216%,58.039216%,58.039216%);fill-opacity:1;" d="M 70 9.332031 C 70.007813 9.085938 69.871094 8.859375 69.648438 8.75 L 64.90625 6.027344 L 56.855469 1.359375 C 56.53125 1.179688 56.121094 1.28125 55.921875 1.59375 L 53.199219 6.339844 C 53.101563 6.476563 53.066406 6.648438 53.101563 6.8125 C 53.140625 6.972656 53.246094 7.113281 53.394531 7.195313 L 62.84375 12.640625 C 63.039063 12.769531 63.15625 12.988281 63.15625 13.222656 L 63.15625 56.660156 C 63.15625 56.894531 63.039063 57.113281 62.84375 57.246094 L 53.394531 62.6875 C 53.242188 62.761719 53.128906 62.898438 53.074219 63.058594 C 53.023438 63.21875 53.042969 63.394531 53.121094 63.542969 L 55.84375 68.289063 C 56.042969 68.601563 56.453125 68.703125 56.777344 68.523438 L 64.554688 63.933594 L 69.457031 61.09375 C 69.675781 60.988281 69.816406 60.757813 69.804688 60.511719 L 69.804688 9.332031 Z M 70 9.332031 "/>
<path style=" stroke:none;fill-rule:nonzero;fill:rgb(63.921569%,63.921569%,63.921569%);fill-opacity:1;" d="M 53.277344 63.660156 L 56 68.40625 C 56.152344 68.640625 56.425781 68.761719 56.699219 68.714844 L 57.011719 68.714844 L 64.789063 64.128906 L 69.6875 61.289063 L 70.078125 61.054688 C 70.117188 60.957031 70.117188 60.84375 70.078125 60.746094 L 63.3125 56.855469 C 63.3125 57.089844 63.195313 57.308594 63 57.4375 L 53.550781 62.882813 C 53.320313 63.054688 53.226563 63.351563 53.316406 63.621094 Z M 53.277344 6.339844 L 56 1.554688 C 56.152344 1.320313 56.425781 1.199219 56.699219 1.246094 C 56.800781 1.207031 56.910156 1.207031 57.011719 1.246094 L 64.789063 5.832031 L 69.6875 8.671875 L 70.078125 8.90625 C 70.117188 9.003906 70.117188 9.117188 70.078125 9.214844 L 63.3125 13.105469 C 63.3125 12.871094 63.195313 12.652344 63 12.523438 L 53.550781 7.195313 C 53.398438 7.121094 53.28125 6.984375 53.230469 6.824219 C 53.179688 6.664063 53.195313 6.488281 53.277344 6.339844 Z M 53.277344 6.339844 "/>
<path style=" stroke:none;fill-rule:nonzero;fill:rgb(60%,60%,60%);fill-opacity:1;" d="M 33.132813 50.167969 C 33.132813 50.480469 33.003906 50.777344 32.777344 50.992188 C 32.546875 51.207031 32.238281 51.316406 31.929688 51.292969 L 13.105469 51.292969 C 12.796875 51.316406 12.492188 51.210938 12.257813 51.007813 C 12.023438 50.804688 11.882813 50.515625 11.859375 50.207031 L 11.859375 19.679688 C 11.871094 19.367188 12.003906 19.074219 12.230469 18.863281 C 12.457031 18.652344 12.757813 18.539063 13.066406 18.550781 L 31.890625 18.550781 C 32.203125 18.527344 32.507813 18.636719 32.738281 18.851563 C 32.964844 19.066406 33.09375 19.363281 33.09375 19.679688 Z M 33.132813 50.167969 "/>
<path style=" stroke:none;fill-rule:nonzero;fill:rgb(0%,18.823529%,40.392157%);fill-opacity:1;" d="M 15.011719 32.550781 C 14.980469 31.910156 15.203125 31.285156 15.632813 30.808594 C 16.0625 30.335938 16.664063 30.050781 17.304688 30.023438 L 27.882813 30.023438 C 29.222656 30.085938 30.261719 31.210938 30.214844 32.550781 C 30.25 33.199219 30.019531 33.835938 29.582031 34.316406 C 29.144531 34.800781 28.535156 35.085938 27.882813 35.117188 L 17.304688 35.117188 C 15.984375 35.035156 14.964844 33.914063 15.011719 32.589844 Z M 15.011719 25.003906 C 14.945313 23.667969 15.96875 22.523438 17.304688 22.4375 L 27.882813 22.4375 C 28.535156 22.46875 29.144531 22.757813 29.582031 23.238281 C 30.019531 23.71875 30.25 24.355469 30.214844 25.003906 C 30.261719 26.34375 29.222656 27.46875 27.882813 27.535156 L 17.304688 27.535156 C 15.984375 27.449219 14.964844 26.328125 15.011719 25.003906 Z M 15.011719 25.003906 "/>
<path style=" stroke:none;fill-rule:nonzero;fill:rgb(31.372549%,90.196078%,100%);fill-opacity:1;" d="M 19.679688 25.003906 C 19.679688 25.949219 18.910156 26.714844 17.964844 26.714844 C 17.023438 26.714844 16.253906 25.949219 16.253906 25.003906 C 16.253906 24.058594 17.023438 23.292969 17.964844 23.292969 C 18.910156 23.292969 19.679688 24.058594 19.679688 25.003906 Z M 19.679688 25.003906 "/>
<path style=" stroke:none;fill-rule:nonzero;fill:rgb(31.372549%,90.196078%,100%);fill-opacity:1;" d="M 19.679688 32.550781 C 19.679688 33.496094 18.910156 34.261719 17.964844 34.261719 C 17.023438 34.261719 16.253906 33.496094 16.253906 32.550781 C 16.253906 31.605469 17.023438 30.839844 17.964844 30.839844 C 18.910156 30.839844 19.679688 31.605469 19.679688 32.550781 Z M 19.679688 32.550781 "/>
<path style=" stroke:none;fill-rule:nonzero;fill:rgb(60%,60%,60%);fill-opacity:1;" d="M 58.644531 50.167969 C 58.644531 50.480469 58.515625 50.777344 58.289063 50.992188 C 58.058594 51.207031 57.75 51.316406 57.4375 51.292969 L 38.617188 51.292969 C 38.308594 51.316406 38 51.210938 37.769531 51.007813 C 37.535156 50.804688 37.390625 50.515625 37.371094 50.207031 L 37.371094 19.679688 C 37.382813 19.367188 37.515625 19.074219 37.742188 18.863281 C 37.96875 18.652344 38.269531 18.539063 38.578125 18.550781 L 57.398438 18.550781 C 57.710938 18.527344 58.015625 18.632813 58.25 18.835938 C 58.480469 19.039063 58.625 19.328125 58.644531 19.640625 Z M 58.644531 50.167969 "/>
<path style=" stroke:none;fill-rule:nonzero;fill:rgb(0%,18.823529%,40.392157%);fill-opacity:1;" d="M 40.445313 32.550781 C 40.421875 31.21875 41.449219 30.105469 42.777344 30.023438 L 53.355469 30.023438 C 54.695313 30.085938 55.734375 31.210938 55.6875 32.550781 C 55.71875 33.199219 55.492188 33.835938 55.054688 34.316406 C 54.617188 34.800781 54.003906 35.085938 53.355469 35.117188 L 42.777344 35.117188 C 42.128906 35.085938 41.515625 34.800781 41.078125 34.316406 C 40.640625 33.835938 40.414063 33.199219 40.445313 32.550781 Z M 40.445313 25.003906 C 40.398438 23.660156 41.433594 22.523438 42.777344 22.4375 L 53.355469 22.4375 C 54.003906 22.46875 54.617188 22.757813 55.054688 23.238281 C 55.492188 23.71875 55.71875 24.355469 55.6875 25.003906 C 55.734375 26.34375 54.695313 27.46875 53.355469 27.535156 L 42.777344 27.535156 C 41.449219 27.449219 40.421875 26.335938 40.445313 25.003906 Z M 40.445313 25.003906 "/>
<path style=" stroke:none;fill-rule:nonzero;fill:rgb(31.372549%,90.196078%,100%);fill-opacity:1;" d="M 45.1875 25.003906 C 45.1875 25.949219 44.421875 26.714844 43.476563 26.714844 C 42.53125 26.714844 41.765625 25.949219 41.765625 25.003906 C 41.765625 24.058594 42.53125 23.292969 43.476563 23.292969 C 44.421875 23.292969 45.1875 24.058594 45.1875 25.003906 Z M 45.1875 25.003906 "/>
<path style=" stroke:none;fill-rule:nonzero;fill:rgb(31.372549%,90.196078%,100%);fill-opacity:1;" d="M 45.1875 32.550781 C 45.1875 33.496094 44.421875 34.261719 43.476563 34.261719 C 42.53125 34.261719 41.765625 33.496094 41.765625 32.550781 C 41.765625 31.605469 42.53125 30.839844 43.476563 30.839844 C 44.421875 30.839844 45.1875 31.605469 45.1875 32.550781 Z M 45.1875 32.550781 "/>
</g>
</svg>
