<?xml version="1.0" encoding="UTF-8"?>
<svg xmlns="http://www.w3.org/2000/svg" xmlns:xlink="http://www.w3.org/1999/xlink" width="70pt" height="70pt" viewBox="0 0 70 70" version="1.1">
<defs>
<linearGradient id="linear0" gradientUnits="userSpaceOnUse" x1="8.47" y1="2.89" x2="14.96" y2="9.62" gradientTransform="matrix(3.888889,0,0,3.888889,0,0)">
<stop offset="0" style="stop-color:rgb(87.45098%,64.705882%,0%);stop-opacity:1;"/>
<stop offset="0.28" style="stop-color:rgb(93.72549%,71.764706%,0%);stop-opacity:1;"/>
<stop offset="0.51" style="stop-color:rgb(100%,79.215686%,0%);stop-opacity:1;"/>
<stop offset="1" style="stop-color:rgb(88.235294%,65.882353%,0%);stop-opacity:1;"/>
</linearGradient>
<linearGradient id="linear1" gradientUnits="userSpaceOnUse" x1="6.86" y1="11.19" x2="-0.99" y2="18.81" gradientTransform="matrix(3.888889,0,0,3.888889,0,0)">
<stop offset="0" style="stop-color:rgb(98.039216%,63.529412%,11.372549%);stop-opacity:1;"/>
<stop offset="0.24" style="stop-color:rgb(97.647059%,61.568627%,10.196078%);stop-opacity:1;"/>
<stop offset="0.51" style="stop-color:rgb(96.470588%,56.470588%,7.058824%);stop-opacity:1;"/>
<stop offset="0.8" style="stop-color:rgb(94.509804%,47.45098%,1.960784%);stop-opacity:1;"/>
<stop offset="0.88" style="stop-color:rgb(93.72549%,44.313725%,0%);stop-opacity:1;"/>
</linearGradient>
</defs>
<g id="surface1">
<path style=" stroke:none;fill-rule:nonzero;fill:rgb(96.862745%,55.294118%,11.764706%);fill-opacity:1;" d="M 15.828125 40.601563 C 12.449219 38.027344 8.394531 36.488281 4.160156 36.167969 C 3.765625 36.199219 3.382813 36.011719 3.164063 35.679688 C 2.945313 35.347656 2.925781 34.921875 3.109375 34.570313 C 4.566406 31.960938 6.570313 29.691406 8.984375 27.921875 C 13.8125 24.105469 20.191406 22.871094 26.09375 24.617188 C 26.960938 24.796875 27.78125 25.15625 28.503906 25.667969 Z M 15.828125 40.601563 "/>
<path style=" stroke:none;fill-rule:nonzero;fill:rgb(96.862745%,55.294118%,11.764706%);fill-opacity:1;" d="M 29.945313 54.679688 L 44.878906 42 C 45.378906 42.742188 45.734375 43.574219 45.929688 44.449219 C 47.632813 50.359375 46.390625 56.730469 42.582031 61.5625 C 40.816406 63.945313 38.542969 65.90625 35.933594 67.316406 C 35.554688 67.53125 35.085938 67.5 34.738281 67.238281 C 34.394531 66.976563 34.234375 66.53125 34.339844 66.109375 C 33.972656 61.964844 32.449219 58.003906 29.945313 54.679688 Z M 29.945313 54.679688 "/>
<path style=" stroke:none;fill-rule:nonzero;fill:rgb(98.823529%,81.960784%,8.627451%);fill-opacity:1;" d="M 67.589844 1.050781 C 46.164063 7.488281 27.726563 21.324219 15.554688 40.09375 L 29.90625 54.445313 C 48.675781 42.273438 62.511719 23.835938 68.949219 2.410156 C 69.042969 2.027344 68.929688 1.625 68.652344 1.347656 C 68.375 1.070313 67.972656 0.957031 67.589844 1.050781 Z M 67.589844 1.050781 "/>
<path style=" stroke:none;fill-rule:nonzero;fill:url(#linear0);" d="M 67.589844 1.050781 C 46.164063 7.488281 27.726563 21.324219 15.554688 40.09375 L 29.90625 54.445313 C 48.675781 42.273438 62.511719 23.835938 68.949219 2.410156 C 69.042969 2.027344 68.929688 1.625 68.652344 1.347656 C 68.375 1.070313 67.972656 0.957031 67.589844 1.050781 Z M 67.589844 1.050781 "/>
<path style=" stroke:none;fill-rule:nonzero;fill:rgb(0%,47.058824%,83.137255%);fill-opacity:1;" d="M 67.589844 1.050781 C 61.578125 2.78125 55.773438 5.167969 50.285156 8.167969 L 61.949219 19.832031 C 64.914063 14.300781 67.261719 8.457031 68.949219 2.410156 C 69.042969 2.027344 68.929688 1.625 68.652344 1.347656 C 68.375 1.070313 67.972656 0.957031 67.589844 1.050781 Z M 67.589844 1.050781 "/>
<path style=" stroke:none;fill-rule:nonzero;fill:url(#linear1);" d="M 1.011719 67.820313 C 1.90625 56.992188 7.152344 46.988281 15.554688 40.09375 L 29.90625 54.445313 C 23.011719 62.847656 13.007813 68.09375 2.179688 68.988281 C 1.863281 69.011719 1.550781 68.898438 1.328125 68.671875 C 1.101563 68.449219 0.988281 68.136719 1.011719 67.820313 Z M 1.011719 67.820313 "/>
<path style=" stroke:none;fill-rule:nonzero;fill:rgb(87.45098%,64.705882%,0%);fill-opacity:1;" d="M 51.839844 25.589844 C 51.839844 29.691406 48.511719 33.015625 44.410156 33.015625 C 40.308594 33.015625 36.984375 29.691406 36.984375 25.589844 C 36.984375 21.488281 40.308594 18.160156 44.410156 18.160156 C 48.511719 18.160156 51.839844 21.488281 51.839844 25.589844 Z M 51.839844 25.589844 "/>
<path style=" stroke:none;fill-rule:nonzero;fill:rgb(94.901961%,94.901961%,94.901961%);fill-opacity:1;" d="M 49.972656 25.589844 C 49.972656 28.660156 47.484375 31.148438 44.410156 31.148438 C 41.339844 31.148438 38.851563 28.660156 38.851563 25.589844 C 38.851563 22.515625 41.339844 20.027344 44.410156 20.027344 C 47.484375 20.027344 49.972656 22.515625 49.972656 25.589844 Z M 49.972656 25.589844 "/>
<path style=" stroke:none;fill-rule:nonzero;fill:rgb(81.960784%,34.901961%,0%);fill-opacity:1;" d="M 20.066406 52.851563 C 18.558594 54.027344 16.78125 54.816406 14.894531 55.144531 C 15.246094 53.261719 16.019531 51.480469 17.148438 49.933594 L 31.109375 35.933594 L 34.027344 38.851563 Z M 20.066406 52.851563 "/>
</g>
</svg>
