<?xml version="1.0" encoding="UTF-8"?>
<svg xmlns="http://www.w3.org/2000/svg" xmlns:xlink="http://www.w3.org/1999/xlink" width="70pt" height="70pt" viewBox="0 0 70 70" version="1.1">
<defs>
<linearGradient id="linear0" gradientUnits="userSpaceOnUse" x1="6.11" y1="12.5" x2="6.11" y2="9.42" gradientTransform="matrix(3.888889,0,0,3.888889,0,0)">
<stop offset="0" style="stop-color:rgb(43.529412%,29.411765%,69.803922%);stop-opacity:1;"/>
<stop offset="1" style="stop-color:rgb(77.647059%,60.392157%,92.156863%);stop-opacity:1;"/>
</linearGradient>
<linearGradient id="linear1" gradientUnits="userSpaceOnUse" x1="12.06" y1="12.5" x2="12.06" y2="9.42" gradientTransform="matrix(3.888889,0,0,3.888889,0,0)">
<stop offset="0" style="stop-color:rgb(43.529412%,29.411765%,69.803922%);stop-opacity:1;"/>
<stop offset="1" style="stop-color:rgb(77.647059%,60.392157%,92.156863%);stop-opacity:1;"/>
</linearGradient>
<filter id="alpha" filterUnits="objectBoundingBox" x="0%" y="0%" width="100%" height="100%">
  <feColorMatrix type="matrix" in="SourceGraphic" values="0 0 0 0 1 0 0 0 0 1 0 0 0 0 1 0 0 0 1 0"/>
</filter>
<mask id="mask0">
  <g filter="url(#alpha)">
<rect x="0" y="0" width="70" height="70" style="fill:rgb(0%,0%,0%);fill-opacity:0.501961;stroke:none;"/>
  </g>
</mask>
<clipPath id="clip1">
  <rect x="0" y="0" width="70" height="70"/>
</clipPath>
<g id="surface5" clip-path="url(#clip1)">
<path style=" stroke:none;fill-rule:nonzero;fill:rgb(60%,60%,60%);fill-opacity:1;" d="M 4.472656 4.9375 L 9.488281 4.9375 L 9.488281 18.9375 C 9.488281 19.5625 8.984375 20.066406 8.359375 20.066406 L 3.382813 20.066406 C 2.761719 20.066406 2.253906 19.5625 2.253906 18.9375 L 2.253906 7.273438 C 2.222656 6.664063 2.441406 6.070313 2.863281 5.628906 C 3.28125 5.1875 3.863281 4.9375 4.472656 4.9375 Z M 4.472656 4.9375 "/>
</g>
<mask id="mask1">
  <g filter="url(#alpha)">
<rect x="0" y="0" width="70" height="70" style="fill:rgb(0%,0%,0%);fill-opacity:0.501961;stroke:none;"/>
  </g>
</mask>
<clipPath id="clip2">
  <rect x="0" y="0" width="70" height="70"/>
</clipPath>
<g id="surface8" clip-path="url(#clip2)">
<path style=" stroke:none;fill-rule:nonzero;fill:rgb(60%,60%,60%);fill-opacity:1;" d="M 61.132813 4.9375 L 66.109375 4.9375 C 67.335938 4.9375 68.328125 5.929688 68.328125 7.15625 L 68.328125 18.820313 C 68.328125 19.445313 67.824219 19.949219 67.199219 19.949219 L 62.222656 19.949219 C 61.597656 19.949219 61.09375 19.445313 61.09375 18.820313 L 61.09375 4.9375 Z M 61.132813 4.9375 "/>
</g>
<mask id="mask2">
  <g filter="url(#alpha)">
<rect x="0" y="0" width="70" height="70" style="fill:rgb(0%,0%,0%);fill-opacity:0.501961;stroke:none;"/>
  </g>
</mask>
<clipPath id="clip3">
  <rect x="0" y="0" width="70" height="70"/>
</clipPath>
<g id="surface11" clip-path="url(#clip3)">
<path style=" stroke:none;fill-rule:nonzero;fill:rgb(60%,60%,60%);fill-opacity:1;" d="M 3.382813 48.6875 L 8.398438 48.6875 C 9.023438 48.6875 9.527344 49.195313 9.527344 49.816406 L 9.527344 63.816406 L 4.472656 63.816406 C 3.246094 63.816406 2.253906 62.824219 2.253906 61.601563 L 2.253906 49.933594 C 2.222656 49.613281 2.328125 49.296875 2.542969 49.058594 C 2.757813 48.820313 3.0625 48.6875 3.382813 48.6875 Z M 3.382813 48.6875 "/>
</g>
<mask id="mask3">
  <g filter="url(#alpha)">
<rect x="0" y="0" width="70" height="70" style="fill:rgb(0%,0%,0%);fill-opacity:0.501961;stroke:none;"/>
  </g>
</mask>
<clipPath id="clip4">
  <rect x="0" y="0" width="70" height="70"/>
</clipPath>
<g id="surface14" clip-path="url(#clip4)">
<path style=" stroke:none;fill-rule:nonzero;fill:rgb(60%,60%,60%);fill-opacity:1;" d="M 62.222656 48.6875 L 67.277344 48.6875 C 67.902344 48.6875 68.40625 49.195313 68.40625 49.816406 L 68.40625 61.484375 C 68.40625 62.707031 67.414063 63.699219 66.1875 63.699219 L 61.132813 63.699219 L 61.132813 49.699219 C 61.191406 49.136719 61.65625 48.707031 62.222656 48.6875 Z M 62.222656 48.6875 "/>
</g>
</defs>
<g id="surface1">
<path style=" stroke:none;fill-rule:nonzero;fill:rgb(58.039216%,58.039216%,58.039216%);fill-opacity:1;" d="M 48.144531 41.960938 L 36.554688 23.371094 L 35.503906 24.035156 L 34.496094 23.371094 L 22.867188 41.960938 L 25.238281 43.398438 L 35.503906 26.949219 L 45.8125 43.4375 Z M 48.144531 41.960938 "/>
<path style=" stroke:none;fill-rule:nonzero;fill:rgb(52.54902%,83.921569%,20%);fill-opacity:1;" d="M 41.300781 24.148438 C 41.300781 27.457031 38.617188 30.140625 35.3125 30.140625 C 32.003906 30.140625 29.320313 27.457031 29.320313 24.148438 C 29.320313 20.84375 32.003906 18.160156 35.3125 18.160156 C 38.617188 18.160156 41.300781 20.84375 41.300781 24.148438 Z M 41.300781 24.148438 "/>
<path style=" stroke:none;fill-rule:nonzero;fill:url(#linear0);" d="M 29.75 42.621094 C 29.75 45.929688 27.070313 48.609375 23.761719 48.609375 C 20.453125 48.609375 17.773438 45.929688 17.773438 42.621094 C 17.773438 39.316406 20.453125 36.632813 23.761719 36.632813 C 27.070313 36.632813 29.75 39.316406 29.75 42.621094 Z M 29.75 42.621094 "/>
<path style=" stroke:none;fill-rule:nonzero;fill:url(#linear1);" d="M 52.890625 42.621094 C 52.890625 45.929688 50.207031 48.609375 46.898438 48.609375 C 43.59375 48.609375 40.910156 45.929688 40.910156 42.621094 C 40.910156 39.316406 43.59375 36.632813 46.898438 36.632813 C 50.207031 36.632813 52.890625 39.316406 52.890625 42.621094 Z M 52.890625 42.621094 "/>
<path style=" stroke:none;fill-rule:nonzero;fill:rgb(60%,60%,60%);fill-opacity:1;" d="M 4.472656 4.9375 L 9.488281 4.9375 L 9.488281 18.9375 C 9.488281 19.5625 8.984375 20.066406 8.359375 20.066406 L 3.382813 20.066406 C 2.761719 20.066406 2.253906 19.5625 2.253906 18.9375 L 2.253906 7.273438 C 2.222656 6.664063 2.441406 6.070313 2.863281 5.628906 C 3.28125 5.1875 3.863281 4.9375 4.472656 4.9375 Z M 4.472656 4.9375 "/>
<use xlink:href="#surface5" mask="url(#mask0)"/>
<path style=" stroke:none;fill-rule:nonzero;fill:rgb(60%,60%,60%);fill-opacity:1;" d="M 61.132813 4.9375 L 66.109375 4.9375 C 67.335938 4.9375 68.328125 5.929688 68.328125 7.15625 L 68.328125 18.820313 C 68.328125 19.445313 67.824219 19.949219 67.199219 19.949219 L 62.222656 19.949219 C 61.597656 19.949219 61.09375 19.445313 61.09375 18.820313 L 61.09375 4.9375 Z M 61.132813 4.9375 "/>
<use xlink:href="#surface8" mask="url(#mask1)"/>
<path style=" stroke:none;fill-rule:nonzero;fill:rgb(58.039216%,58.039216%,58.039216%);fill-opacity:1;" d="M 68.367188 7.15625 L 68.367188 12.054688 L 2.253906 12.054688 L 2.253906 7.15625 C 2.253906 5.929688 3.246094 4.9375 4.472656 4.9375 L 66.148438 4.9375 C 67.375 4.9375 68.367188 5.929688 68.367188 7.15625 Z M 68.367188 7.15625 "/>
<path style=" stroke:none;fill-rule:nonzero;fill:rgb(60%,60%,60%);fill-opacity:1;" d="M 3.382813 48.6875 L 8.398438 48.6875 C 9.023438 48.6875 9.527344 49.195313 9.527344 49.816406 L 9.527344 63.816406 L 4.472656 63.816406 C 3.246094 63.816406 2.253906 62.824219 2.253906 61.601563 L 2.253906 49.933594 C 2.222656 49.613281 2.328125 49.296875 2.542969 49.058594 C 2.757813 48.820313 3.0625 48.6875 3.382813 48.6875 Z M 3.382813 48.6875 "/>
<use xlink:href="#surface11" mask="url(#mask2)"/>
<path style=" stroke:none;fill-rule:nonzero;fill:rgb(60%,60%,60%);fill-opacity:1;" d="M 62.222656 48.6875 L 67.277344 48.6875 C 67.902344 48.6875 68.40625 49.195313 68.40625 49.816406 L 68.40625 61.484375 C 68.40625 62.707031 67.414063 63.699219 66.1875 63.699219 L 61.132813 63.699219 L 61.132813 49.699219 C 61.191406 49.136719 61.65625 48.707031 62.222656 48.6875 Z M 62.222656 48.6875 "/>
<use xlink:href="#surface14" mask="url(#mask3)"/>
<path style=" stroke:none;fill-rule:nonzero;fill:rgb(58.039216%,58.039216%,58.039216%);fill-opacity:1;" d="M 2.253906 61.640625 L 2.253906 56.738281 L 68.367188 56.738281 L 68.367188 61.640625 C 68.367188 62.863281 67.375 63.855469 66.148438 63.855469 L 4.472656 63.855469 C 3.246094 63.855469 2.253906 62.863281 2.253906 61.640625 Z M 2.253906 61.640625 "/>
</g>
</svg>
