<?xml version="1.0" encoding="UTF-8"?>
<svg xmlns="http://www.w3.org/2000/svg" xmlns:xlink="http://www.w3.org/1999/xlink" width="70pt" height="70pt" viewBox="0 0 70 70" version="1.1">
<defs>
<linearGradient id="linear0" gradientUnits="userSpaceOnUse" x1="9" y1="15.379" x2="9" y2="2.798" gradientTransform="matrix(3.888889,0,0,3.888889,0,0)">
<stop offset="0" style="stop-color:rgb(0%,47.058824%,83.137255%);stop-opacity:1;"/>
<stop offset="0.156" style="stop-color:rgb(7.45098%,50.196078%,85.490196%);stop-opacity:1;"/>
<stop offset="0.528" style="stop-color:rgb(23.529412%,56.862745%,89.803922%);stop-opacity:1;"/>
<stop offset="0.822" style="stop-color:rgb(33.333333%,61.176471%,92.54902%);stop-opacity:1;"/>
<stop offset="1" style="stop-color:rgb(36.862745%,62.745098%,93.72549%);stop-opacity:1;"/>
</linearGradient>
<linearGradient id="linear1" gradientUnits="userSpaceOnUse" x1="-416.202" y1="-210.743" x2="-416.202" y2="-217.833" gradientTransform="matrix(3.888889,0,0,-3.888889,1661.045556,-800.17)">
<stop offset="0" style="stop-color:rgb(76.470588%,94.509804%,100%);stop-opacity:1;"/>
<stop offset="0.107" style="stop-color:rgb(74.509804%,93.72549%,99.607843%);stop-opacity:1;"/>
<stop offset="0.765" style="stop-color:rgb(19.607843%,74.509804%,86.666667%);stop-opacity:1;"/>
</linearGradient>
<filter id="alpha" filterUnits="objectBoundingBox" x="0%" y="0%" width="100%" height="100%">
  <feColorMatrix type="matrix" in="SourceGraphic" values="0 0 0 0 1 0 0 0 0 1 0 0 0 0 1 0 0 0 1 0"/>
</filter>
<mask id="mask0">
  <g filter="url(#alpha)">
<rect x="0" y="0" width="70" height="70" style="fill:rgb(0%,0%,0%);fill-opacity:0.8;stroke:none;"/>
  </g>
</mask>
<clipPath id="clip1">
  <rect x="0" y="0" width="70" height="70"/>
</clipPath>
<g id="surface5" clip-path="url(#clip1)">
<path style=" stroke:none;fill-rule:nonzero;fill:rgb(61.176471%,92.156863%,100%);fill-opacity:1;" d="M 40.234375 34.257813 L 40.234375 47.886719 L 28.453125 54.734375 L 28.453125 41.085938 Z M 40.234375 34.257813 "/>
</g>
<mask id="mask1">
  <g filter="url(#alpha)">
<rect x="0" y="0" width="70" height="70" style="fill:rgb(0%,0%,0%);fill-opacity:0.85098;stroke:none;"/>
  </g>
</mask>
<clipPath id="clip2">
  <rect x="0" y="0" width="70" height="70"/>
</clipPath>
<g id="surface8" clip-path="url(#clip2)">
<path style=" stroke:none;fill-rule:nonzero;fill:rgb(61.176471%,92.156863%,100%);fill-opacity:1;" d="M 40.234375 34.226563 L 28.453125 41.070313 L 16.675781 34.222656 L 28.453125 27.375 Z M 40.234375 34.226563 "/>
</g>
</defs>
<g id="surface1">
<path style=" stroke:none;fill-rule:nonzero;fill:url(#linear0);" d="M 69.515625 44.484375 C 69.285156 36.890625 63.585938 30.578125 56.054688 29.574219 C 55.589844 18.886719 46.617188 10.558594 35.921875 10.890625 C 27.40625 10.730469 19.722656 15.96875 16.757813 23.953125 C 7.679688 25.050781 0.765625 32.617188 0.484375 41.757813 C 0.882813 52.105469 9.582031 60.179688 19.929688 59.808594 C 20.507813 59.808594 21.078125 59.78125 21.640625 59.734375 L 53.117188 59.734375 C 53.398438 59.730469 53.675781 59.6875 53.945313 59.609375 C 62.347656 59.546875 69.207031 52.878906 69.515625 44.484375 Z M 69.515625 44.484375 "/>
<path style=" stroke:none;fill-rule:nonzero;fill:url(#linear1);" d="M 32.554688 37.601563 L 41.5 20.015625 C 41.695313 19.636719 42.085938 19.398438 42.511719 19.398438 C 42.941406 19.398438 43.332031 19.636719 43.527344 20.015625 L 52.433594 36.816406 C 53.082031 37.863281 53.394531 39.085938 53.335938 40.316406 C 53.335938 44.003906 48.484375 46.988281 42.492188 46.988281 C 36.503906 46.988281 31.652344 44.003906 31.652344 40.316406 C 31.65625 39.339844 31.972656 38.386719 32.554688 37.601563 Z M 32.554688 37.601563 "/>
<path style=" stroke:none;fill-rule:nonzero;fill:rgb(100%,100%,100%);fill-opacity:1;" d="M 32.554688 37.75 C 31.820313 39.230469 31.640625 39.480469 31.640625 40.4375 C 31.644531 40.625 31.660156 40.816406 31.6875 41.003906 C 31.6875 41.078125 31.6875 41.148438 31.6875 41.222656 L 31.738281 41.222656 C 32.28125 44.074219 35.75 46.375 40.25 46.957031 L 40.25 46.382813 C 35.972656 45.8125 32.6875 43.660156 32.277344 40.996094 C 32.453125 38.324219 35.695313 35.449219 40.25 34.808594 L 40.25 34.472656 L 40.160156 34.523438 L 39.773438 34.304688 C 37.265625 34.683594 34.960938 35.886719 33.214844 37.722656 L 33.277344 37.601563 L 36.046875 32.15625 L 35.546875 31.871094 L 32.554688 37.773438 Z M 32.554688 37.75 "/>
<use xlink:href="#surface5" mask="url(#mask0)"/>
<use xlink:href="#surface8" mask="url(#mask1)"/>
<path style=" stroke:none;fill-rule:nonzero;fill:rgb(61.176471%,92.156863%,100%);fill-opacity:1;" d="M 28.453125 41.082031 L 28.453125 54.714844 L 16.675781 47.867188 L 16.675781 34.238281 Z M 28.453125 41.082031 "/>
<path style=" stroke:none;fill-rule:nonzero;fill:rgb(100%,100%,100%);fill-opacity:1;" d="M 28.453125 55.066406 L 16.398438 48.066406 L 16.398438 34.09375 L 28.453125 27.09375 L 40.511719 34.09375 L 40.511719 48.050781 Z M 16.960938 47.722656 L 28.453125 54.40625 L 39.945313 47.722656 L 39.945313 34.425781 L 28.453125 27.738281 L 16.960938 34.421875 Z M 16.960938 47.722656 "/>
<path style=" stroke:none;fill-rule:nonzero;fill:rgb(100%,100%,100%);fill-opacity:1;" d="M 53.324219 40.285156 C 53.382813 39.054688 53.070313 37.832031 52.421875 36.785156 L 43.515625 19.984375 C 43.320313 19.605469 42.929688 19.367188 42.5 19.367188 C 42.074219 19.367188 41.683594 19.605469 41.488281 19.984375 L 35.546875 31.699219 L 36.046875 31.984375 L 42 20.273438 C 42.09375 20.078125 42.292969 19.953125 42.507813 19.957031 C 42.722656 19.953125 42.917969 20.074219 43.015625 20.261719 L 51.921875 37.0625 L 51.921875 37.109375 C 52.277344 37.65625 52.515625 38.269531 52.621094 38.914063 C 50.117188 35.675781 46.210938 33.832031 42.121094 33.949219 C 41.328125 33.949219 40.535156 34.019531 39.757813 34.15625 L 40.144531 34.371094 L 40.234375 34.320313 L 40.234375 34.65625 C 40.863281 34.566406 41.5 34.523438 42.136719 34.523438 C 47.863281 34.523438 52.492188 37.941406 52.707031 40.863281 C 52.210938 43.976563 47.816406 46.386719 42.480469 46.386719 C 41.730469 46.386719 40.980469 46.332031 40.234375 46.230469 L 40.234375 46.8125 C 40.980469 46.90625 41.730469 46.957031 42.480469 46.957031 C 48.039063 46.957031 52.613281 44.386719 53.242188 41.070313 L 53.296875 41.070313 C 53.296875 41.003906 53.296875 40.9375 53.277344 40.871094 C 53.308594 40.679688 53.324219 40.480469 53.324219 40.285156 Z M 53.324219 40.285156 "/>
</g>
</svg>
