<?xml version="1.0" encoding="UTF-8"?>
<svg xmlns="http://www.w3.org/2000/svg" xmlns:xlink="http://www.w3.org/1999/xlink" width="70pt" height="70pt" viewBox="0 0 70 70" version="1.1">
<defs>
<radialGradient id="radial0" gradientUnits="userSpaceOnUse" cx="8.81" cy="9" fx="8.81" fy="9" r="8.41" gradientTransform="matrix(3.888889,0,0,3.888889,0,0)">
<stop offset="0" style="stop-color:rgb(47.45098%,33.72549%,72.941176%);stop-opacity:1;"/>
<stop offset="0.69" style="stop-color:rgb(44.705882%,30.588235%,70.588235%);stop-opacity:1;"/>
<stop offset="0.87" style="stop-color:rgb(43.529412%,29.411765%,69.803922%);stop-opacity:1;"/>
</radialGradient>
<radialGradient id="radial1" gradientUnits="userSpaceOnUse" cx="8.8" cy="9.11" fx="8.8" fy="9.11" r="1.19" gradientTransform="matrix(3.888889,0,0,3.888889,0,0)">
<stop offset="0" style="stop-color:rgb(49.803922%,49.803922%,49.803922%);stop-opacity:1;"/>
<stop offset="1" style="stop-color:rgb(36.862745%,36.862745%,36.862745%);stop-opacity:1;"/>
</radialGradient>
</defs>
<g id="surface1">
<path style=" stroke:none;fill-rule:nonzero;fill:rgb(69.019608%,69.019608%,69.019608%);fill-opacity:1;" d="M 67.394531 35.3125 C 67.394531 53.566406 52.59375 68.367188 34.339844 68.367188 C 16.082031 68.367188 1.285156 53.566406 1.285156 35.3125 C 1.285156 17.054688 16.082031 2.253906 34.339844 2.253906 C 52.59375 2.253906 67.394531 17.054688 67.394531 35.3125 Z M 67.394531 35.3125 "/>
<path style=" stroke:none;fill-rule:nonzero;fill:rgb(100%,100%,100%);fill-opacity:1;" d="M 62.339844 35.195313 C 62.339844 50.703125 49.769531 63.273438 34.261719 63.273438 C 18.753906 63.273438 6.183594 50.703125 6.183594 35.195313 C 6.183594 19.6875 18.753906 7.117188 34.261719 7.117188 C 49.769531 7.117188 62.339844 19.6875 62.339844 35.195313 Z M 62.339844 35.195313 "/>
<path style=" stroke:none;fill-rule:nonzero;fill:rgb(47.843137%,47.843137%,47.843137%);fill-opacity:1;" d="M 47.554688 20.722656 L 51.046875 17.230469 L 52.171875 18.359375 L 48.679688 21.851563 Z M 47.554688 20.722656 "/>
<path style=" stroke:none;fill-rule:nonzero;fill:rgb(47.843137%,47.843137%,47.843137%);fill-opacity:1;" d="M 53.707031 34.496094 L 58.644531 34.496094 L 58.644531 36.089844 L 53.707031 36.089844 Z M 53.707031 34.496094 "/>
<path style=" stroke:none;fill-rule:nonzero;fill:rgb(47.843137%,47.843137%,47.843137%);fill-opacity:1;" d="M 47.300781 49.585938 L 48.429688 48.460938 L 51.921875 51.953125 L 50.796875 53.078125 Z M 47.300781 49.585938 "/>
<path style=" stroke:none;fill-rule:nonzero;fill:rgb(47.843137%,47.843137%,47.843137%);fill-opacity:1;" d="M 33.367188 54.792969 L 34.960938 54.792969 L 34.960938 59.734375 L 33.367188 59.734375 Z M 33.367188 54.792969 "/>
<path style=" stroke:none;fill-rule:nonzero;fill:rgb(47.843137%,47.843137%,47.843137%);fill-opacity:1;" d="M 15.949219 18.203125 L 17.074219 17.078125 L 20.566406 20.570313 L 19.441406 21.695313 Z M 15.949219 18.203125 "/>
<path style=" stroke:none;fill-rule:nonzero;fill:rgb(47.843137%,47.843137%,47.843137%);fill-opacity:1;" d="M 16.167969 52.117188 L 19.660156 48.625 L 20.789063 49.75 L 17.296875 53.242188 Z M 16.167969 52.117188 "/>
<path style=" stroke:none;fill-rule:nonzero;fill:rgb(47.843137%,47.843137%,47.843137%);fill-opacity:1;" d="M 9.332031 34.496094 L 14.273438 34.496094 L 14.273438 36.089844 L 9.332031 36.089844 Z M 9.332031 34.496094 "/>
<path style=" stroke:none;fill-rule:nonzero;fill:url(#radial0);" d="M 34.378906 2.253906 C 33.742188 2.253906 33.132813 2.511719 32.6875 2.964844 C 32.242188 3.417969 31.996094 4.03125 32.003906 4.667969 C 32.003906 6.003906 33.078125 7.09375 34.417969 7.117188 C 47.769531 7.140625 59.277344 16.511719 62.007813 29.582031 C 64.734375 42.652344 57.933594 55.847656 45.707031 61.207031 C 33.476563 66.570313 19.164063 62.628906 11.402344 51.769531 C 3.636719 40.90625 4.542969 26.089844 13.570313 16.253906 L 15.554688 19.132813 L 21.078125 6.84375 L 7.777344 8.398438 L 10.695313 12.289063 C -0.238281 23.5625 -1.714844 40.980469 7.164063 53.9375 C 16.039063 66.890625 32.816406 71.800781 47.277344 65.671875 C 61.738281 59.546875 69.882813 44.082031 66.753906 28.691406 C 63.621094 13.300781 50.082031 2.246094 34.378906 2.253906 Z M 34.378906 2.253906 "/>
<path style=" stroke:none;fill-rule:nonzero;fill:rgb(47.843137%,47.843137%,47.843137%);fill-opacity:1;" d="M 34.261719 11.042969 L 34.648438 11.042969 C 35.765625 11.042969 36.671875 11.949219 36.671875 13.066406 L 36.671875 34.339844 C 36.671875 35.457031 35.765625 36.359375 34.648438 36.359375 L 34.261719 36.359375 C 33.144531 36.359375 32.238281 35.457031 32.238281 34.339844 L 32.238281 13.066406 C 32.238281 11.949219 33.144531 11.042969 34.261719 11.042969 Z M 34.261719 11.042969 "/>
<path style=" stroke:none;fill-rule:nonzero;fill:rgb(47.843137%,47.843137%,47.843137%);fill-opacity:1;" d="M 46.128906 47.074219 L 45.855469 47.351563 C 45.066406 48.140625 43.785156 48.140625 42.996094 47.351563 L 34.636719 38.992188 C 33.847656 38.199219 33.847656 36.921875 34.636719 36.128906 L 34.910156 35.855469 C 35.699219 35.066406 36.980469 35.066406 37.769531 35.855469 L 46.128906 44.214844 C 46.917969 45.003906 46.917969 46.285156 46.128906 47.074219 Z M 46.128906 47.074219 "/>
<path style=" stroke:none;fill-rule:nonzero;fill:url(#radial1);" d="M 38.929688 35.3125 C 38.929688 37.886719 36.839844 39.976563 34.261719 39.976563 C 31.683594 39.976563 29.59375 37.886719 29.59375 35.3125 C 29.59375 32.734375 31.683594 30.644531 34.261719 30.644531 C 36.839844 30.644531 38.929688 32.734375 38.929688 35.3125 Z M 38.929688 35.3125 "/>
</g>
</svg>
