<?xml version="1.0" encoding="UTF-8"?>
<svg xmlns="http://www.w3.org/2000/svg" xmlns:xlink="http://www.w3.org/1999/xlink" width="70pt" height="70pt" viewBox="0 0 70 70" version="1.1">
<defs>
<linearGradient id="linear0" gradientUnits="userSpaceOnUse" x1="9" y1="15.92" x2="9" y2="3.58" gradientTransform="matrix(3.888889,0,0,3.888889,0,0)">
<stop offset="0" style="stop-color:rgb(88.627451%,47.45098%,3.137255%);stop-opacity:1;"/>
<stop offset="0.3" style="stop-color:rgb(89.803922%,49.411765%,3.921569%);stop-opacity:1;"/>
<stop offset="0.64" style="stop-color:rgb(92.941176%,54.509804%,6.666667%);stop-opacity:1;"/>
<stop offset="1" style="stop-color:rgb(98.039216%,63.529412%,11.372549%);stop-opacity:1;"/>
<stop offset="1" style="stop-color:rgb(98.039216%,63.529412%,11.372549%);stop-opacity:1;"/>
</linearGradient>
</defs>
<g id="surface1">
<path style=" stroke:none;fill-rule:nonzero;fill:rgb(93.72549%,44.313725%,0%);fill-opacity:1;" d="M 66.5 14 L 37.683594 14 C 37.375 14.011719 37.074219 13.914063 36.828125 13.726563 L 28.582031 8.246094 C 28.324219 8.089844 28.027344 8.011719 27.726563 8.011719 L 3.5 8.011719 C 2.65625 8.011719 1.964844 8.683594 1.945313 9.527344 L 1.945313 60.472656 C 1.964844 61.316406 2.65625 61.988281 3.5 61.988281 L 66.5 61.988281 C 67.34375 61.988281 68.035156 61.316406 68.054688 60.472656 L 68.054688 15.554688 C 68.054688 14.695313 67.359375 14 66.5 14 Z M 66.5 14 "/>
<path style=" stroke:none;fill-rule:nonzero;fill:rgb(100%,100%,100%);fill-opacity:1;" d="M 8.59375 10.964844 L 22.359375 10.964844 C 22.703125 10.964844 22.984375 11.246094 22.984375 11.589844 L 22.984375 13.339844 C 22.984375 13.683594 22.703125 13.960938 22.359375 13.960938 L 8.59375 13.960938 C 8.25 13.960938 7.972656 13.683594 7.972656 13.339844 L 7.972656 11.589844 C 7.972656 11.246094 8.25 10.964844 8.59375 10.964844 Z M 8.59375 10.964844 "/>
<path style=" stroke:none;fill-rule:nonzero;fill:rgb(81.960784%,34.901961%,0%);fill-opacity:1;" d="M 8.398438 10.964844 L 10.539063 10.964844 C 10.773438 10.964844 10.964844 11.15625 10.964844 11.394531 L 10.964844 13.535156 C 10.964844 13.769531 10.773438 13.960938 10.539063 13.960938 L 8.398438 13.960938 C 8.164063 13.960938 7.972656 13.769531 7.972656 13.535156 L 7.972656 11.394531 C 7.972656 11.15625 8.164063 10.964844 8.398438 10.964844 Z M 8.398438 10.964844 "/>
<path style=" stroke:none;fill-rule:nonzero;fill:url(#linear0);" d="M 66.5 13.921875 L 35 13.921875 C 34.585938 13.910156 34.1875 14.078125 33.910156 14.390625 L 28.660156 19.445313 C 28.363281 19.714844 27.976563 19.867188 27.570313 19.871094 L 3.5 19.871094 C 2.640625 19.871094 1.945313 20.570313 1.945313 21.429688 L 1.945313 60.316406 C 1.964844 61.160156 2.65625 61.832031 3.5 61.832031 L 66.5 61.832031 C 67.34375 61.832031 68.035156 61.160156 68.054688 60.316406 L 68.054688 15.554688 C 68.078125 15.128906 67.921875 14.714844 67.628906 14.40625 C 67.335938 14.097656 66.925781 13.921875 66.5 13.921875 Z M 66.5 13.921875 "/>
<path style=" stroke:none;fill-rule:nonzero;fill:rgb(100%,79.215686%,0%);fill-opacity:1;" d="M 49.933594 31.226563 L 49.933594 47.484375 L 35.972656 55.648438 L 35.972656 39.355469 Z M 49.933594 31.226563 "/>
<path style=" stroke:none;fill-rule:nonzero;fill:rgb(100%,89.411765%,32.156863%);fill-opacity:1;" d="M 49.933594 31.226563 L 35.972656 39.394531 L 21.972656 31.226563 L 35.972656 23.023438 Z M 49.933594 31.226563 "/>
<path style=" stroke:none;fill-rule:nonzero;fill:rgb(100%,83.137255%,0%);fill-opacity:1;" d="M 35.972656 39.394531 L 35.972656 55.648438 L 21.972656 47.484375 L 21.972656 31.226563 Z M 35.972656 39.394531 "/>
</g>
</svg>
