<?xml version="1.0" encoding="UTF-8"?>
<svg xmlns="http://www.w3.org/2000/svg" xmlns:xlink="http://www.w3.org/1999/xlink" width="70pt" height="70pt" viewBox="0 0 70 70" version="1.1">
<g id="surface1">
<path style=" stroke:none;fill-rule:nonzero;fill:rgb(19.607843%,74.509804%,86.666667%);fill-opacity:1;" d="M 63.816406 15.570313 L 63.816406 46.554688 L 37.042969 62.121094 L 37.042969 31.089844 Z M 63.816406 15.570313 "/>
<path style=" stroke:none;fill-rule:nonzero;fill:rgb(61.176471%,92.156863%,100%);fill-opacity:1;" d="M 63.816406 15.570313 L 37.046875 31.132813 L 10.265625 15.566406 L 37.046875 0 Z M 63.816406 15.570313 "/>
<path style=" stroke:none;fill-rule:nonzero;fill:rgb(31.372549%,90.196078%,100%);fill-opacity:1;" d="M 37.042969 31.132813 L 37.042969 62.121094 L 10.265625 46.554688 L 10.265625 15.566406 Z M 37.042969 31.132813 "/>
<path style=" stroke:none;fill-rule:nonzero;fill:rgb(61.176471%,92.156863%,100%);fill-opacity:1;" d="M 10.265625 46.554688 L 37.042969 31.089844 L 37.042969 62.121094 Z M 10.265625 46.554688 "/>
<path style=" stroke:none;fill-rule:nonzero;fill:rgb(31.372549%,90.196078%,100%);fill-opacity:1;" d="M 63.816406 46.554688 L 37.042969 31.089844 L 37.042969 62.121094 Z M 63.816406 46.554688 "/>
<path style=" stroke:none;fill-rule:nonzero;fill:rgb(46.666667%,22.745098%,86.27451%);fill-opacity:1;" d="M 50.894531 57.085938 L 37.929688 69.8125 C 37.738281 70 37.457031 70.054688 37.214844 69.949219 C 36.96875 69.84375 36.8125 69.605469 36.816406 69.339844 L 36.882813 62.261719 L 36.882813 61.832031 C 21.425781 61.6875 6.039063 53.277344 6.179688 38.410156 C 8.355469 41.742188 19.316406 50.667969 36.984375 50.855469 L 36.984375 50.726563 L 37.050781 43.652344 C 37.050781 43.386719 37.210938 43.148438 37.457031 43.050781 C 37.703125 42.949219 37.984375 43.007813 38.167969 43.199219 L 50.894531 56.167969 C 51.148438 56.421875 51.148438 56.832031 50.894531 57.085938 Z M 50.894531 57.085938 "/>
</g>
</svg>
