<?xml version="1.0" encoding="UTF-8"?>
<svg xmlns="http://www.w3.org/2000/svg" xmlns:xlink="http://www.w3.org/1999/xlink" width="70pt" height="70pt" viewBox="0 0 70 70" version="1.1">
<defs>
<linearGradient id="linear0" gradientUnits="userSpaceOnUse" x1="9.252" y1="14.005" x2="9.252" y2="-0.028" gradientTransform="matrix(3.888889,0,0,3.888889,0,7.777778)">
<stop offset="0" style="stop-color:rgb(70.196078%,70.588235%,70.588235%);stop-opacity:1;"/>
<stop offset="0.33" style="stop-color:rgb(70.196078%,70.588235%,70.588235%);stop-opacity:1;"/>
<stop offset="0.82" style="stop-color:rgb(80%,80%,79.607843%);stop-opacity:1;"/>
<stop offset="1" style="stop-color:rgb(80%,80%,79.607843%);stop-opacity:1;"/>
</linearGradient>
<linearGradient id="linear1" gradientUnits="userSpaceOnUse" x1="10.558" y1="15.244" x2="10.439" y2="17.218" gradientTransform="matrix(3.888889,0,0,3.888889,0,0)">
<stop offset="0.317" style="stop-color:rgb(20%,74.509804%,86.666667%);stop-opacity:1;"/>
<stop offset="1" style="stop-color:rgb(45.490196%,81.176471%,92.156863%);stop-opacity:1;"/>
</linearGradient>
<linearGradient id="linear2" gradientUnits="userSpaceOnUse" x1="9" y1="14.113" x2="9" y2="3.938" gradientTransform="matrix(3.888889,0,0,3.888889,0,0)">
<stop offset="0" style="stop-color:rgb(38.039216%,38.431373%,38.039216%);stop-opacity:1;"/>
<stop offset="1" style="stop-color:rgb(71.372549%,72.156863%,72.941176%);stop-opacity:1;"/>
</linearGradient>
</defs>
<g id="surface1">
<path style=" stroke:none;fill-rule:nonzero;fill:rgb(45.490196%,81.176471%,92.156863%);fill-opacity:1;" d="M 43.425781 68.902344 L 4.230469 51.265625 C 2.765625 50.65625 1.605469 49.480469 1.015625 48.003906 C 0.425781 46.53125 0.457031 44.878906 1.097656 43.425781 L 18.734375 4.230469 C 19.34375 2.765625 20.519531 1.605469 21.996094 1.015625 C 23.46875 0.425781 25.121094 0.457031 26.574219 1.097656 L 65.769531 18.734375 C 67.234375 19.34375 68.394531 20.519531 68.984375 21.996094 C 69.574219 23.46875 69.542969 25.121094 68.902344 26.574219 L 51.265625 65.769531 C 50.65625 67.234375 49.480469 68.394531 48.003906 68.984375 C 46.53125 69.574219 44.878906 69.542969 43.425781 68.902344 Z M 43.425781 68.902344 "/>
<path style=" stroke:none;fill-rule:nonzero;fill:url(#linear0);" d="M 61.832031 19.910156 L 51.265625 9.332031 C 50.25 8.265625 48.820313 7.699219 47.347656 7.777344 L 14.03125 7.777344 C 12.570313 7.746094 11.160156 8.3125 10.125 9.34375 C 9.09375 10.375 8.527344 11.785156 8.554688 13.246094 L 8.554688 56.753906 C 8.519531 58.21875 9.085938 59.636719 10.125 60.671875 C 11.160156 61.710938 12.578125 62.277344 14.042969 62.242188 L 57.945313 62.242188 C 59.410156 62.277344 60.828125 61.710938 61.863281 60.671875 C 62.902344 59.636719 63.46875 58.21875 63.433594 56.753906 L 63.433594 23.832031 C 63.40625 22.378906 62.851563 20.984375 61.875 19.910156 Z M 61.832031 19.910156 "/>
<path style=" stroke:none;fill-rule:nonzero;fill:url(#linear1);" d="M 28.96875 62.242188 L 43.355469 68.667969 C 47.890625 71.3125 51.675781 65.644531 52.808594 62.242188 "/>
<path style=" stroke:none;fill-rule:nonzero;fill:url(#linear2);" d="M 54.78125 37.234375 L 54.78125 32.726563 L 54.152344 32.488281 L 49.324219 30.90625 L 48.058594 27.816406 L 50.507813 22.59375 L 47.34375 19.445313 L 46.714844 19.757813 L 42.203125 22.058594 L 39.113281 20.789063 L 37.136719 15.34375 L 32.628906 15.34375 L 32.386719 15.945313 L 30.804688 20.773438 L 27.71875 22.042969 L 22.574219 19.589844 L 19.410156 22.753906 L 19.726563 23.386719 L 22.023438 27.894531 L 20.753906 30.984375 L 15.21875 32.960938 L 15.21875 37.472656 L 15.847656 37.710938 L 20.675781 39.292969 L 21.941406 42.378906 L 19.492188 47.601563 L 22.65625 50.765625 L 23.285156 50.449219 L 27.796875 48.15625 L 30.886719 49.421875 L 32.863281 54.863281 L 37.371094 54.863281 L 37.613281 54.230469 L 39.195313 49.402344 L 42.28125 48.136719 L 47.503906 50.589844 L 50.667969 47.425781 L 50.351563 46.792969 L 48.058594 42.28125 L 49.324219 39.191406 Z M 54.78125 37.234375 "/>
<path style=" stroke:none;fill-rule:nonzero;fill:rgb(100%,100%,100%);fill-opacity:1;" d="M 37.535156 24.46875 C 37.472656 24.433594 37.402344 24.417969 37.332031 24.417969 C 37.1875 24.433594 37.058594 24.507813 36.96875 24.625 L 28 37.671875 C 27.90625 37.808594 27.886719 37.988281 27.949219 38.140625 C 28.039063 38.292969 28.191406 38.390625 28.367188 38.402344 L 33.722656 38.402344 L 31.324219 46.277344 C 31.28125 46.375 31.277344 46.484375 31.316406 46.585938 C 31.355469 46.683594 31.433594 46.761719 31.535156 46.804688 C 31.597656 46.84375 31.667969 46.859375 31.742188 46.851563 C 31.882813 46.84375 32.015625 46.777344 32.105469 46.667969 L 41.347656 33.445313 C 41.398438 33.339844 41.449219 33.289063 41.449219 33.183594 C 41.449219 33.058594 41.398438 32.941406 41.3125 32.851563 C 41.226563 32.761719 41.105469 32.714844 40.980469 32.714844 L 35.445313 32.714844 L 37.746094 24.988281 C 37.789063 24.894531 37.792969 24.78125 37.75 24.683594 C 37.710938 24.585938 37.632813 24.507813 37.535156 24.46875 Z M 37.535156 24.46875 "/>
</g>
</svg>
