<?xml version="1.0" encoding="UTF-8"?>
<svg xmlns="http://www.w3.org/2000/svg" xmlns:xlink="http://www.w3.org/1999/xlink" width="70pt" height="70pt" viewBox="0 0 70 70" version="1.1">
<defs>
<linearGradient id="linear0" gradientUnits="userSpaceOnUse" x1="9" y1="14.633" x2="9" y2="1.875" gradientTransform="matrix(3.888889,0,0,3.888889,0,0)">
<stop offset="0" style="stop-color:rgb(0%,47.058824%,83.137255%);stop-opacity:1;"/>
<stop offset="1" style="stop-color:rgb(36.862745%,62.745098%,93.72549%);stop-opacity:1;"/>
</linearGradient>
<linearGradient id="linear1" gradientUnits="userSpaceOnUse" x1="11.443" y1="9.184" x2="11.443" y2="15.325" gradientTransform="matrix(3.888889,0,0,3.888889,0,0)">
<stop offset="0" style="stop-color:rgb(100%,100%,100%);stop-opacity:1;"/>
<stop offset="1" style="stop-color:rgb(94.901961%,94.901961%,94.901961%);stop-opacity:1;"/>
</linearGradient>
</defs>
<g id="surface1">
<path style=" stroke:none;fill-rule:nonzero;fill:url(#linear0);" d="M 70 41.367188 C 69.769531 33.664063 63.988281 27.265625 56.351563 26.25 C 55.875 15.410156 46.777344 6.960938 35.933594 7.292969 C 27.292969 7.128906 19.496094 12.445313 16.488281 20.546875 C 7.285156 21.667969 0.28125 29.339844 0 38.605469 C 0.410156 49.09375 9.21875 57.273438 19.707031 56.90625 C 20.296875 56.90625 20.875 56.878906 21.445313 56.832031 L 53.363281 56.832031 C 53.648438 56.828125 53.933594 56.785156 54.207031 56.703125 C 62.730469 56.644531 69.691406 49.882813 70 41.367188 Z M 70 41.367188 "/>
<path style=" stroke:none;fill-rule:nonzero;fill:rgb(31.372549%,90.196078%,100%);fill-opacity:1;" d="M 44.496094 32.222656 C 59.515625 32.222656 68.6875 43.398438 69.425781 58.667969 C 69.476563 59.722656 69.09375 60.757813 68.363281 61.523438 C 67.636719 62.289063 66.625 62.722656 65.566406 62.722656 L 23.433594 62.722656 C 22.378906 62.714844 21.371094 62.28125 20.644531 61.515625 C 19.914063 60.75 19.53125 59.71875 19.578125 58.664063 C 20.328125 43.398438 29.503906 32.222656 44.496094 32.222656 Z M 44.496094 32.222656 "/>
<path style=" stroke:none;fill-rule:nonzero;fill:url(#linear1);" d="M 23.433594 60.132813 C 23.085938 60.140625 22.746094 60 22.503906 59.746094 C 22.257813 59.488281 22.128906 59.144531 22.148438 58.789063 C 22.867188 44.195313 32.910156 34.808594 44.496094 34.808594 C 56.082031 34.808594 66.152344 44.195313 66.855469 58.789063 C 66.871094 59.144531 66.742188 59.488281 66.496094 59.746094 C 66.253906 60 65.917969 60.140625 65.566406 60.132813 Z M 23.433594 60.132813 "/>
<path style=" stroke:none;fill-rule:nonzero;fill:rgb(61.176471%,92.156863%,100%);fill-opacity:1;" d="M 56.582031 42.855469 C 53.597656 40.160156 49.796875 38.539063 45.785156 38.246094 L 45.785156 46.667969 C 47.621094 46.90625 49.359375 47.648438 50.804688 48.808594 Z M 56.582031 42.855469 "/>
<path style=" stroke:none;fill-rule:nonzero;fill:rgb(31.372549%,90.196078%,100%);fill-opacity:1;" d="M 32.414063 42.855469 L 38.191406 48.796875 C 39.640625 47.640625 41.375 46.902344 43.214844 46.667969 L 43.214844 38.246094 C 39.199219 38.539063 35.402344 40.160156 32.414063 42.855469 Z M 32.414063 42.855469 "/>
<path style=" stroke:none;fill-rule:nonzero;fill:rgb(61.176471%,92.156863%,100%);fill-opacity:1;" d="M 52.625 50.667969 C 53.761719 52.175781 54.476563 53.957031 54.703125 55.828125 L 62.871094 55.828125 C 62.605469 51.746094 61.042969 47.851563 58.402344 44.722656 Z M 52.625 50.667969 "/>
<path style=" stroke:none;fill-rule:nonzero;fill:rgb(19.607843%,74.509804%,86.666667%);fill-opacity:1;" d="M 36.375 50.667969 L 30.59375 44.722656 C 27.953125 47.851563 26.382813 51.742188 26.109375 55.824219 L 34.277344 55.824219 C 34.507813 53.949219 35.234375 52.171875 36.375 50.667969 Z M 36.375 50.667969 "/>
<path style=" stroke:none;fill-rule:nonzero;fill:rgb(19.607843%,74.509804%,86.666667%);fill-opacity:1;" d="M 59.539063 48.824219 C 59.28125 48.164063 58.535156 47.835938 57.875 48.09375 L 45.820313 52.902344 L 46.757813 55.296875 L 58.8125 50.492188 C 59.472656 50.230469 59.796875 49.488281 59.539063 48.824219 Z M 59.539063 48.824219 "/>
<path style=" stroke:none;fill-rule:nonzero;fill:rgb(46.27451%,46.27451%,46.27451%);fill-opacity:1;" d="M 48.011719 54.636719 C 48.011719 56.578125 46.4375 58.152344 44.496094 58.152344 C 42.554688 58.152344 40.980469 56.578125 40.980469 54.636719 C 40.980469 52.695313 42.554688 51.121094 44.496094 51.121094 C 46.4375 51.121094 48.011719 52.695313 48.011719 54.636719 Z M 48.011719 54.636719 "/>
</g>
</svg>
