<?xml version="1.0" encoding="UTF-8"?>
<svg xmlns="http://www.w3.org/2000/svg" xmlns:xlink="http://www.w3.org/1999/xlink" width="70pt" height="70pt" viewBox="0 0 70 70" version="1.1">
<defs>
<linearGradient id="linear0" gradientUnits="userSpaceOnUse" x1="9.777" y1="-1.321" x2="15.063" y2="13.028" gradientTransform="matrix(3.888889,0,0,3.888889,0,0)">
<stop offset="0" style="stop-color:rgb(41.960784%,72.54902%,94.901961%);stop-opacity:1;"/>
<stop offset="1" style="stop-color:rgb(10.588235%,57.647059%,92.156863%);stop-opacity:1;"/>
</linearGradient>
</defs>
<g id="surface1">
<path style=" stroke:none;fill-rule:nonzero;fill:url(#linear0);" d="M 66.035156 23.558594 L 66.035156 4.574219 C 66.035156 4.390625 65.960938 4.210938 65.828125 4.082031 C 65.695313 3.953125 65.515625 3.882813 65.332031 3.890625 L 46.363281 3.890625 C 46.085938 3.886719 45.835938 4.054688 45.726563 4.308594 C 45.621094 4.566406 45.683594 4.859375 45.882813 5.054688 L 51.109375 10.285156 L 51.457031 10.632813 C 51.722656 10.902344 51.722656 11.332031 51.457031 11.601563 L 28.5625 34.492188 C 28.296875 34.757813 28.296875 35.191406 28.5625 35.457031 L 34.464844 41.359375 C 34.730469 41.625 35.164063 41.625 35.433594 41.359375 L 58.332031 18.464844 C 58.601563 18.195313 59.035156 18.195313 59.300781 18.464844 L 59.648438 18.8125 L 64.867188 24.042969 C 65.0625 24.238281 65.355469 24.300781 65.613281 24.195313 C 65.871094 24.085938 66.035156 23.835938 66.035156 23.558594 Z M 66.035156 23.558594 "/>
<path style=" stroke:none;fill-rule:nonzero;fill:rgb(70.196078%,70.196078%,70.196078%);fill-opacity:1;" d="M 52.085938 36.464844 L 52.085938 50.359375 C 52.085938 51.242188 51.375 51.957031 50.492188 51.960938 L 18.769531 51.960938 C 18.34375 51.960938 17.9375 51.789063 17.640625 51.492188 C 17.339844 51.191406 17.171875 50.785156 17.171875 50.359375 L 17.171875 20.417969 C 17.171875 19.535156 17.886719 18.820313 18.769531 18.820313 L 34.664063 18.820313 C 35.148438 18.820313 35.539063 18.429688 35.539063 17.945313 L 35.539063 14.605469 C 35.539063 14.125 35.148438 13.730469 34.664063 13.730469 L 13.664063 13.730469 C 12.785156 13.734375 12.070313 14.449219 12.070313 15.328125 L 12.070313 55.449219 C 12.070313 56.328125 12.785156 57.042969 13.664063 57.042969 L 55.574219 57.042969 C 56 57.042969 56.40625 56.875 56.707031 56.578125 C 57.007813 56.277344 57.175781 55.871094 57.175781 55.449219 L 57.175781 36.464844 C 57.175781 36.234375 57.082031 36.011719 56.917969 35.847656 C 56.75 35.683594 56.527344 35.589844 56.296875 35.589844 L 52.960938 35.589844 C 52.480469 35.589844 52.085938 35.984375 52.085938 36.464844 Z M 52.085938 36.464844 "/>
<path style=" stroke:none;fill-rule:nonzero;fill:rgb(46.27451%,73.72549%,17.647059%);fill-opacity:1;" d="M 61.042969 62.105469 L 65.050781 62.105469 L 65.050781 66.109375 L 61.042969 66.109375 Z M 61.042969 62.105469 "/>
<path style=" stroke:none;fill-rule:nonzero;fill:rgb(46.27451%,73.72549%,17.647059%);fill-opacity:1;" d="M 56.960938 66.109375 L 52.890625 66.109375 L 52.890625 62.105469 L 56.972656 62.105469 Z M 48.792969 66.109375 L 44.722656 66.109375 L 44.722656 62.105469 L 48.800781 62.105469 Z M 40.628906 66.109375 L 36.554688 66.109375 L 36.554688 62.105469 L 40.640625 62.105469 Z M 32.460938 66.109375 L 28.390625 66.109375 L 28.390625 62.105469 L 32.464844 62.105469 Z M 24.292969 66.109375 L 20.222656 66.109375 L 20.222656 62.105469 L 24.304688 62.105469 Z M 16.128906 66.109375 L 12.054688 66.109375 L 12.054688 62.105469 L 16.136719 62.105469 Z M 16.128906 66.109375 "/>
<path style=" stroke:none;fill-rule:nonzero;fill:rgb(46.27451%,73.72549%,17.647059%);fill-opacity:1;" d="M 3.964844 62.105469 L 7.972656 62.105469 L 7.972656 66.109375 L 3.964844 66.109375 Z M 3.964844 62.105469 "/>
<path style=" stroke:none;fill-rule:nonzero;fill:rgb(46.27451%,73.72549%,17.647059%);fill-opacity:1;" d="M 7.972656 58.023438 L 3.964844 58.023438 L 3.964844 53.941406 L 7.972656 53.941406 Z M 7.972656 49.855469 L 3.964844 49.855469 L 3.964844 45.773438 L 7.972656 45.773438 Z M 7.972656 41.6875 L 3.964844 41.6875 L 3.964844 37.613281 L 7.972656 37.613281 Z M 7.972656 33.523438 L 3.964844 33.523438 L 3.964844 29.445313 L 7.972656 29.445313 Z M 7.972656 25.355469 L 3.964844 25.355469 L 3.964844 21.285156 L 7.972656 21.285156 Z M 7.972656 17.1875 L 3.964844 17.1875 L 3.964844 13.117188 L 7.972656 13.117188 Z M 7.972656 17.1875 "/>
<path style=" stroke:none;fill-rule:nonzero;fill:rgb(46.27451%,73.72549%,17.647059%);fill-opacity:1;" d="M 3.964844 5.03125 L 7.972656 5.03125 L 7.972656 9.039063 L 3.964844 9.039063 Z M 3.964844 5.03125 "/>
<path style=" stroke:none;fill-rule:nonzero;fill:rgb(46.27451%,73.72549%,17.647059%);fill-opacity:1;" d="M 32.464844 9.039063 L 28.390625 9.039063 L 28.390625 5.03125 L 32.464844 5.03125 Z M 24.296875 9.039063 L 20.222656 9.039063 L 20.222656 5.03125 L 24.304688 5.03125 Z M 16.132813 9.039063 L 12.054688 9.039063 L 12.054688 5.03125 L 16.136719 5.03125 Z M 16.132813 9.039063 "/>
<path style=" stroke:none;fill-rule:nonzero;fill:rgb(46.27451%,73.72549%,17.647059%);fill-opacity:1;" d="M 65.046875 58.023438 L 61.054688 58.023438 L 61.054688 53.941406 L 65.058594 53.941406 Z M 65.046875 49.855469 L 61.054688 49.855469 L 61.054688 45.773438 L 65.058594 45.773438 Z M 65.046875 41.6875 L 61.054688 41.6875 L 61.054688 37.613281 L 65.058594 37.613281 Z M 65.046875 41.6875 "/>
</g>
</svg>
