<?xml version="1.0" encoding="UTF-8"?>
<svg xmlns="http://www.w3.org/2000/svg" xmlns:xlink="http://www.w3.org/1999/xlink" width="70pt" height="70pt" viewBox="0 0 70 70" version="1.1">
<defs>
<radialGradient id="radial0" gradientUnits="userSpaceOnUse" cx="16.858" cy="14.328" fx="16.858" fy="14.328" r="8.737" gradientTransform="matrix(3.671111,0,0,3.671111,-24.157778,-20.537222)">
<stop offset="0.183" style="stop-color:rgb(36.862745%,62.745098%,93.72549%);stop-opacity:1;"/>
<stop offset="0.555" style="stop-color:rgb(36.078431%,62.352941%,93.333333%);stop-opacity:1;"/>
<stop offset="0.689" style="stop-color:rgb(33.333333%,61.176471%,92.941176%);stop-opacity:1;"/>
<stop offset="0.785" style="stop-color:rgb(29.019608%,59.215686%,91.372549%);stop-opacity:1;"/>
<stop offset="0.862" style="stop-color:rgb(22.352941%,56.470588%,89.411765%);stop-opacity:1;"/>
<stop offset="0.928" style="stop-color:rgb(13.72549%,52.941176%,87.058824%);stop-opacity:1;"/>
<stop offset="0.985" style="stop-color:rgb(3.137255%,48.235294%,83.921569%);stop-opacity:1;"/>
<stop offset="1" style="stop-color:rgb(0%,47.058824%,83.137255%);stop-opacity:1;"/>
</radialGradient>
<radialGradient id="radial1" gradientUnits="userSpaceOnUse" cx="17.97" cy="15.337" fx="17.97" fy="15.337" r="1.223" gradientTransform="matrix(3.667222,0,0,3.667222,-28.011667,-24.107222)">
<stop offset="0" style="stop-color:rgb(49.803922%,49.803922%,49.803922%);stop-opacity:1;"/>
<stop offset="1" style="stop-color:rgb(36.862745%,36.862745%,36.862745%);stop-opacity:1;"/>
</radialGradient>
</defs>
<g id="surface1">
<path style=" stroke:none;fill-rule:nonzero;fill:url(#radial0);" d="M 69.851563 32.089844 C 69.851563 49.816406 55.484375 64.183594 37.761719 64.183594 C 20.039063 64.183594 5.671875 49.816406 5.671875 32.089844 C 5.671875 14.367188 20.039063 0 37.761719 0 C 55.484375 0 69.851563 14.367188 69.851563 32.089844 Z M 69.851563 32.089844 "/>
<path style=" stroke:none;fill-rule:nonzero;fill:rgb(100%,100%,100%);fill-opacity:1;" d="M 65.828125 32.089844 C 65.828125 47.523438 53.316406 60.03125 37.886719 60.03125 C 22.453125 60.03125 9.945313 47.523438 9.945313 32.089844 C 9.945313 16.660156 22.453125 4.148438 37.886719 4.148438 C 53.316406 4.148438 65.828125 16.660156 65.828125 32.089844 Z M 65.828125 32.089844 "/>
<path style=" stroke:none;fill-rule:nonzero;fill:rgb(47.843137%,47.843137%,47.843137%);fill-opacity:1;" d="M 50.867188 17.980469 L 54.25 14.597656 L 55.34375 15.6875 L 51.957031 19.074219 Z M 50.867188 17.980469 "/>
<path style=" stroke:none;fill-rule:nonzero;fill:rgb(47.843137%,47.843137%,47.843137%);fill-opacity:1;" d="M 56.816406 31.285156 L 61.605469 31.285156 L 61.605469 32.828125 L 56.816406 32.828125 Z M 56.816406 31.285156 "/>
<path style=" stroke:none;fill-rule:nonzero;fill:rgb(47.843137%,47.843137%,47.843137%);fill-opacity:1;" d="M 50.644531 45.914063 L 51.738281 44.824219 L 55.121094 48.207031 L 54.03125 49.300781 Z M 50.644531 45.914063 "/>
<path style=" stroke:none;fill-rule:nonzero;fill:rgb(47.843137%,47.843137%,47.843137%);fill-opacity:1;" d="M 37.113281 50.917969 L 38.65625 50.917969 L 38.65625 55.703125 L 37.113281 55.703125 Z M 37.113281 50.917969 "/>
<path style=" stroke:none;fill-rule:nonzero;fill:rgb(47.843137%,47.843137%,47.843137%);fill-opacity:1;" d="M 20.265625 15.535156 L 21.359375 14.441406 L 24.742188 17.828125 L 23.652344 18.917969 Z M 20.265625 15.535156 "/>
<path style=" stroke:none;fill-rule:nonzero;fill:rgb(47.843137%,47.843137%,47.843137%);fill-opacity:1;" d="M 20.5 48.347656 L 23.882813 44.960938 L 24.976563 46.054688 L 21.589844 49.4375 Z M 20.5 48.347656 "/>
<path style=" stroke:none;fill-rule:nonzero;fill:rgb(47.843137%,47.843137%,47.843137%);fill-opacity:1;" d="M 13.863281 31.285156 L 18.652344 31.285156 L 18.652344 32.828125 L 13.863281 32.828125 Z M 13.863281 31.285156 "/>
<path style=" stroke:none;fill-rule:nonzero;fill:rgb(47.843137%,47.843137%,47.843137%);fill-opacity:1;" d="M 37.886719 8.445313 L 38.261719 8.445313 C 39.347656 8.445313 40.226563 9.324219 40.226563 10.410156 L 40.226563 31.082031 C 40.226563 32.167969 39.347656 33.046875 38.261719 33.046875 L 37.886719 33.046875 C 36.800781 33.046875 35.921875 32.167969 35.921875 31.082031 L 35.921875 10.410156 C 35.921875 9.324219 36.800781 8.445313 37.886719 8.445313 Z M 37.886719 8.445313 "/>
<path style=" stroke:none;fill-rule:nonzero;fill:rgb(47.843137%,47.843137%,47.843137%);fill-opacity:1;" d="M 49.421875 43.429688 L 49.152344 43.699219 C 48.386719 44.464844 47.148438 44.464844 46.382813 43.699219 L 38.261719 35.578125 C 37.496094 34.8125 37.496094 33.570313 38.261719 32.804688 L 38.527344 32.539063 C 39.292969 31.773438 40.535156 31.773438 41.300781 32.539063 L 49.421875 40.660156 C 50.183594 41.425781 50.183594 42.664063 49.421875 43.429688 Z M 49.421875 43.429688 "/>
<path style=" stroke:none;fill-rule:nonzero;fill:url(#radial1);" d="M 42.449219 32.035156 C 42.449219 34.546875 40.414063 36.582031 37.90625 36.582031 C 35.394531 36.582031 33.359375 34.546875 33.359375 32.035156 C 33.359375 29.527344 35.394531 27.492188 37.90625 27.492188 C 40.414063 27.492188 42.449219 29.527344 42.449219 32.035156 Z M 42.449219 32.035156 "/>
<path style=" stroke:none;fill-rule:nonzero;fill:rgb(52.54902%,83.921569%,20%);fill-opacity:1;" d="M 31.414063 0.566406 C 18.414063 3.199219 8.347656 13.523438 6.046875 26.585938 C 3.746094 39.652344 9.679688 52.792969 21 59.707031 L 22.066406 56.882813 C 22.144531 56.671875 22.328125 56.523438 22.546875 56.484375 C 22.769531 56.449219 22.992188 56.53125 23.136719 56.703125 L 31.5 66.855469 C 31.644531 67.027344 31.683594 67.265625 31.601563 67.476563 C 31.523438 67.6875 31.335938 67.839844 31.109375 67.871094 L 18.109375 70 C 17.890625 70.035156 17.667969 69.949219 17.527344 69.777344 C 17.382813 69.605469 17.34375 69.371094 17.421875 69.160156 L 18.976563 64.984375 C 10.445313 60.085938 4.15625 52.054688 1.449219 42.59375 C -1.351563 32.933594 0.421875 22.519531 6.261719 14.332031 C 12.101563 6.140625 21.367188 1.070313 31.414063 0.566406 Z M 31.414063 0.566406 "/>
</g>
</svg>
