<?xml version="1.0" encoding="UTF-8"?>
<svg xmlns="http://www.w3.org/2000/svg" xmlns:xlink="http://www.w3.org/1999/xlink" width="70pt" height="70pt" viewBox="0 0 70 70" version="1.1">
<defs>
<radialGradient id="radial0" gradientUnits="userSpaceOnUse" cx="10.629" cy="7.175" fx="10.629" fy="7.175" r="6.675" gradientTransform="matrix(3.888889,0,0,3.888889,0,0)">
<stop offset="0.225" style="stop-color:rgb(19.607843%,83.137255%,96.078431%);stop-opacity:1;"/>
<stop offset="0.59" style="stop-color:rgb(19.607843%,82.352941%,94.901961%);stop-opacity:1;"/>
<stop offset="0.825" style="stop-color:rgb(19.607843%,79.215686%,91.764706%);stop-opacity:1;"/>
<stop offset="1" style="stop-color:rgb(19.607843%,74.509804%,86.666667%);stop-opacity:1;"/>
</radialGradient>
</defs>
<g id="surface1">
<path style=" stroke:none;fill-rule:nonzero;fill:rgb(9.803922%,54.117647%,70.196078%);fill-opacity:1;" d="M 3.886719 60.785156 L 24.945313 39.726563 C 26.519531 38.15625 29.070313 38.15625 30.644531 39.726563 L 31.039063 40.125 C 32.613281 41.695313 32.613281 44.25 31.039063 45.820313 L 9.980469 66.878906 C 8.40625 68.453125 5.855469 68.453125 4.28125 66.878906 L 3.886719 66.484375 C 2.3125 64.910156 2.3125 62.359375 3.886719 60.785156 Z M 3.886719 60.785156 "/>
<path style=" stroke:none;fill-rule:nonzero;fill:url(#radial0);" d="M 67.292969 27.902344 C 67.292969 42.238281 55.671875 53.859375 41.335938 53.859375 C 27 53.859375 15.375 42.238281 15.375 27.902344 C 15.375 13.566406 27 1.945313 41.335938 1.945313 C 55.671875 1.945313 67.292969 13.566406 67.292969 27.902344 Z M 67.292969 27.902344 "/>
<path style=" stroke:none;fill-rule:nonzero;fill:rgb(100%,100%,100%);fill-opacity:1;" d="M 61.671875 27.441406 C 61.671875 38.699219 52.542969 47.828125 41.28125 47.828125 C 30.019531 47.828125 20.890625 38.699219 20.890625 27.441406 C 20.890625 16.179688 30.019531 7.050781 41.28125 7.050781 C 52.542969 7.050781 61.671875 16.179688 61.671875 27.441406 Z M 61.671875 27.441406 "/>
<path style=" stroke:none;fill-rule:nonzero;fill:rgb(76.470588%,94.509804%,100%);fill-opacity:1;" d="M 21.523438 32.484375 C 21.523438 32.484375 27.105469 4.554688 53.183594 10.890625 C 46.023438 5.578125 36.207031 5.652344 29.128906 11.070313 C 22.371094 15.921875 19.339844 24.460938 21.523438 32.484375 Z M 21.523438 32.484375 "/>
</g>
</svg>
