<?xml version="1.0" encoding="UTF-8"?>
<svg xmlns="http://www.w3.org/2000/svg" xmlns:xlink="http://www.w3.org/1999/xlink" width="70pt" height="70pt" viewBox="0 0 70 70" version="1.1">
<defs>
<linearGradient id="linear0" gradientUnits="userSpaceOnUse" x1="8.66" y1="17.12" x2="8.66" y2="1.03" gradientTransform="matrix(3.888889,0,0,3.888889,0,0)">
<stop offset="0" style="stop-color:rgb(9.803922%,53.333333%,85.098039%);stop-opacity:1;"/>
<stop offset="0.22" style="stop-color:rgb(12.941176%,55.294118%,86.27451%);stop-opacity:1;"/>
<stop offset="0.56" style="stop-color:rgb(21.568627%,61.176471%,89.803922%);stop-opacity:1;"/>
<stop offset="0.9" style="stop-color:rgb(32.941176%,68.235294%,94.117647%);stop-opacity:1;"/>
</linearGradient>
</defs>
<g id="surface1">
<path style=" stroke:none;fill-rule:nonzero;fill:url(#linear0);" d="M 33.679688 66.578125 C 65.488281 43.789063 66.578125 30.488281 66.695313 26.328125 C 66.890625 20.496094 66.109375 5.289063 50.554688 4.082031 C 43.066406 3.527344 36.140625 8.074219 33.679688 15.167969 C 31.171875 8.019531 24.15625 3.460938 16.605469 4.082031 C 1.246094 5.289063 0.429688 20.496094 0.621094 26.328125 C 0.621094 30.488281 1.867188 43.789063 33.679688 66.578125 "/>
<path style=" stroke:none;fill-rule:nonzero;fill:rgb(100%,100%,100%);fill-opacity:1;" d="M 66.695313 24.035156 L 51.140625 24.035156 C 50.9375 24.042969 50.75 24.140625 50.632813 24.304688 L 45.929688 32.433594 C 45.8125 32.613281 45.617188 32.722656 45.402344 32.722656 C 45.191406 32.722656 44.992188 32.613281 44.878906 32.433594 L 38.148438 19.640625 C 37.949219 19.21875 37.527344 18.949219 37.0625 18.949219 C 36.597656 18.949219 36.171875 19.21875 35.972656 19.640625 L 29.515625 38.890625 C 29.414063 39.109375 29.195313 39.25 28.953125 39.25 C 28.710938 39.25 28.492188 39.109375 28.390625 38.890625 L 22.867188 26.09375 C 22.660156 25.695313 22.246094 25.445313 21.796875 25.445313 C 21.347656 25.445313 20.933594 25.695313 20.726563 26.09375 L 13.183594 39.667969 C 13.078125 39.847656 12.886719 39.964844 12.679688 39.976563 L 5.523438 39.976563 C 6.59375 41.625 7.765625 43.210938 9.023438 44.722656 L 15.554688 44.722656 C 15.773438 44.738281 15.976563 44.613281 16.0625 44.410156 L 20.765625 35.738281 C 20.875 35.539063 21.085938 35.417969 21.3125 35.417969 C 21.539063 35.417969 21.746094 35.539063 21.855469 35.738281 L 28.3125 50.75 C 28.488281 51.21875 28.9375 51.53125 29.4375 51.53125 C 29.941406 51.53125 30.390625 51.21875 30.566406 50.75 L 37.371094 30.527344 C 37.457031 30.300781 37.675781 30.152344 37.917969 30.152344 C 38.15625 30.152344 38.375 30.300781 38.460938 30.527344 L 44.140625 41.300781 C 44.339844 41.679688 44.738281 41.917969 45.167969 41.917969 C 45.601563 41.917969 45.996094 41.679688 46.199219 41.300781 L 53.433594 29.128906 C 53.539063 28.945313 53.730469 28.828125 53.9375 28.816406 L 66.5 28.816406 "/>
</g>
</svg>
