<?xml version="1.0" encoding="UTF-8"?>
<svg xmlns="http://www.w3.org/2000/svg" xmlns:xlink="http://www.w3.org/1999/xlink" width="70pt" height="70pt" viewBox="0 0 70 70" version="1.1">
<defs>
<filter id="alpha" filterUnits="objectBoundingBox" x="0%" y="0%" width="100%" height="100%">
  <feColorMatrix type="matrix" in="SourceGraphic" values="0 0 0 0 1 0 0 0 0 1 0 0 0 0 1 0 0 0 1 0"/>
</filter>
<mask id="mask0">
  <g filter="url(#alpha)">
<rect x="0" y="0" width="70" height="70" style="fill:rgb(0%,0%,0%);fill-opacity:0.101961;stroke:none;"/>
  </g>
</mask>
<clipPath id="clip1">
  <rect x="0" y="0" width="70" height="70"/>
</clipPath>
<g id="surface5" clip-path="url(#clip1)">
<path style=" stroke:none;fill-rule:nonzero;fill:rgb(0%,0%,0%);fill-opacity:1;" d="M 37.917969 20.167969 L 37.917969 51.289063 C 37.910156 52.371094 37.253906 53.34375 36.253906 53.753906 C 35.9375 53.890625 35.59375 53.957031 35.246094 53.957031 L 24.804688 53.957031 C 24.792969 53.710938 24.792969 53.476563 24.792969 53.230469 C 24.785156 52.984375 24.796875 52.742188 24.820313 52.5 C 25.085938 47.839844 27.960938 43.726563 32.242188 41.867188 L 32.242188 39.15625 C 27.628906 38.425781 23.503906 35.878906 20.777344 32.082031 C 18.054688 28.289063 16.964844 23.5625 17.746094 18.957031 C 17.820313 18.464844 17.921875 17.980469 18.054688 17.5 L 35.246094 17.5 C 36.71875 17.503906 37.910156 18.695313 37.917969 20.167969 Z M 37.917969 20.167969 "/>
</g>
<mask id="mask1">
  <g filter="url(#alpha)">
<rect x="0" y="0" width="70" height="70" style="fill:rgb(0%,0%,0%);fill-opacity:0.2;stroke:none;"/>
  </g>
</mask>
<clipPath id="clip2">
  <rect x="0" y="0" width="70" height="70"/>
</clipPath>
<g id="surface8" clip-path="url(#clip2)">
<path style=" stroke:none;fill-rule:nonzero;fill:rgb(0%,0%,0%);fill-opacity:1;" d="M 33.789063 18.957031 L 17.746094 18.957031 C 16.945313 23.679688 18.113281 28.523438 20.980469 32.359375 C 23.84375 36.191406 28.160156 38.683594 32.914063 39.25 C 28.394531 41.394531 25.097656 47.484375 24.820313 52.5 C 24.796875 52.742188 24.785156 52.984375 24.789063 53.230469 C 24.789063 53.476563 24.789063 53.710938 24.804688 53.957031 C 24.832031 54.449219 24.894531 54.9375 24.996094 55.417969 L 33.789063 55.417969 C 34.871094 55.410156 35.839844 54.753906 36.253906 53.753906 C 36.386719 53.4375 36.457031 53.09375 36.457031 52.746094 L 36.457031 21.628906 C 36.453125 20.15625 35.261719 18.964844 33.789063 18.957031 Z M 33.789063 18.957031 "/>
</g>
<mask id="mask2">
  <g filter="url(#alpha)">
<rect x="0" y="0" width="70" height="70" style="fill:rgb(0%,0%,0%);fill-opacity:0.2;stroke:none;"/>
  </g>
</mask>
<clipPath id="clip3">
  <rect x="0" y="0" width="70" height="70"/>
</clipPath>
<g id="surface11" clip-path="url(#clip3)">
<path style=" stroke:none;fill-rule:nonzero;fill:rgb(0%,0%,0%);fill-opacity:1;" d="M 33.789063 18.957031 L 17.746094 18.957031 C 16.953125 23.628906 18.089844 28.425781 20.894531 32.246094 C 23.703125 36.0625 27.9375 38.578125 32.632813 39.214844 C 28.257813 41.515625 25.09375 47.589844 24.820313 52.5 L 33.789063 52.5 C 35.257813 52.488281 36.445313 51.300781 36.457031 49.832031 L 36.457031 21.628906 C 36.453125 20.15625 35.261719 18.964844 33.789063 18.957031 Z M 33.789063 18.957031 "/>
</g>
<mask id="mask3">
  <g filter="url(#alpha)">
<rect x="0" y="0" width="70" height="70" style="fill:rgb(0%,0%,0%);fill-opacity:0.2;stroke:none;"/>
  </g>
</mask>
<clipPath id="clip4">
  <rect x="0" y="0" width="70" height="70"/>
</clipPath>
<g id="surface14" clip-path="url(#clip4)">
<path style=" stroke:none;fill-rule:nonzero;fill:rgb(0%,0%,0%);fill-opacity:1;" d="M 32.332031 18.957031 L 17.746094 18.957031 C 16.21875 27.945313 21.847656 36.597656 30.683594 38.839844 C 27.339844 42.660156 25.285156 47.441406 24.820313 52.5 L 32.332031 52.5 C 33.804688 52.496094 34.996094 51.304688 35 49.832031 L 35 21.628906 C 35 20.152344 33.804688 18.960938 32.332031 18.957031 Z M 32.332031 18.957031 "/>
</g>
<linearGradient id="linear0" gradientUnits="userSpaceOnUse" x1="5.822" y1="11.568" x2="20.178" y2="36.432" gradientTransform="matrix(1.458333,0,0,1.458333,0,0)">
<stop offset="0" style="stop-color:rgb(1.960784%,56.078431%,57.254902%);stop-opacity:1;"/>
<stop offset="0.5" style="stop-color:rgb(1.176471%,51.764706%,53.72549%);stop-opacity:1;"/>
<stop offset="1" style="stop-color:rgb(0.784314%,42.745098%,44.313725%);stop-opacity:1;"/>
</linearGradient>
</defs>
<g id="surface1">
<path style=" stroke:none;fill-rule:nonzero;fill:rgb(1.176471%,42.352941%,43.921569%);fill-opacity:1;" d="M 52.5 21.875 C 52.5 31.539063 44.664063 39.375 35 39.375 C 25.335938 39.375 17.5 31.539063 17.5 21.875 C 17.5 12.210938 25.335938 4.375 35 4.375 C 44.664063 4.375 52.5 12.210938 52.5 21.875 Z M 52.5 21.875 "/>
<path style=" stroke:none;fill-rule:nonzero;fill:rgb(10.196078%,60.784314%,63.137255%);fill-opacity:1;" d="M 65.625 37.917969 C 65.625 46.777344 58.441406 53.957031 49.582031 53.957031 C 40.722656 53.957031 33.542969 46.777344 33.542969 37.917969 C 33.542969 29.058594 40.722656 21.875 49.582031 21.875 C 58.441406 21.875 65.625 29.058594 65.625 37.917969 Z M 65.625 37.917969 "/>
<path style=" stroke:none;fill-rule:nonzero;fill:rgb(21.568627%,77.647059%,81.568627%);fill-opacity:1;" d="M 49.582031 53.230469 C 49.582031 60.074219 44.035156 65.625 37.1875 65.625 C 30.339844 65.625 24.792969 60.074219 24.792969 53.230469 C 24.792969 46.382813 30.339844 40.832031 37.1875 40.832031 C 44.035156 40.832031 49.582031 46.382813 49.582031 53.230469 Z M 49.582031 53.230469 "/>
<use xlink:href="#surface5" mask="url(#mask0)"/>
<use xlink:href="#surface8" mask="url(#mask1)"/>
<use xlink:href="#surface11" mask="url(#mask2)"/>
<use xlink:href="#surface14" mask="url(#mask3)"/>
<path style=" stroke:none;fill-rule:nonzero;fill:url(#linear0);" d="M 5.589844 18.957031 L 32.328125 18.957031 C 33.804688 18.957031 35 20.15625 35 21.632813 L 35 48.367188 C 35 49.84375 33.804688 51.042969 32.328125 51.042969 L 5.589844 51.042969 C 4.113281 51.042969 2.917969 49.84375 2.917969 48.367188 L 2.917969 21.632813 C 2.917969 20.15625 4.113281 18.957031 5.589844 18.957031 Z M 5.589844 18.957031 "/>
<path style=" stroke:none;fill-rule:nonzero;fill:rgb(100%,100%,100%);fill-opacity:1;" d="M 14.855469 34.671875 C 14.230469 34.257813 13.707031 33.703125 13.328125 33.054688 C 12.957031 32.378906 12.773438 31.613281 12.792969 30.84375 C 12.761719 29.800781 13.113281 28.78125 13.785156 27.976563 C 14.488281 27.175781 15.398438 26.582031 16.417969 26.261719 C 17.578125 25.878906 18.792969 25.691406 20.015625 25.703125 C 21.621094 25.644531 23.226563 25.867188 24.753906 26.367188 L 24.753906 29.722656 C 24.089844 29.320313 23.367188 29.023438 22.613281 28.847656 C 21.792969 28.644531 20.949219 28.542969 20.105469 28.546875 C 19.214844 28.511719 18.328125 28.699219 17.527344 29.089844 C 16.910156 29.359375 16.507813 29.964844 16.507813 30.640625 C 16.503906 31.046875 16.660156 31.441406 16.945313 31.734375 C 17.277344 32.082031 17.675781 32.367188 18.109375 32.570313 C 18.597656 32.8125 19.328125 33.132813 20.296875 33.535156 C 20.40625 33.570313 20.511719 33.613281 20.609375 33.660156 C 21.566406 34.035156 22.492188 34.492188 23.371094 35.023438 C 24.035156 35.433594 24.59375 35.996094 25 36.664063 C 25.417969 37.421875 25.617188 38.277344 25.582031 39.144531 C 25.632813 40.214844 25.304688 41.269531 24.65625 42.125 C 24.011719 42.914063 23.148438 43.496094 22.175781 43.796875 C 21.035156 44.152344 19.839844 44.328125 18.640625 44.308594 C 17.566406 44.3125 16.492188 44.226563 15.433594 44.046875 C 14.539063 43.898438 13.664063 43.644531 12.832031 43.28125 L 12.832031 39.746094 C 13.628906 40.3125 14.515625 40.738281 15.457031 41 C 16.398438 41.292969 17.371094 41.449219 18.355469 41.464844 C 19.265625 41.519531 20.171875 41.328125 20.980469 40.90625 C 21.546875 40.585938 21.890625 39.980469 21.875 39.332031 C 21.878906 38.878906 21.699219 38.445313 21.378906 38.128906 C 20.980469 37.738281 20.519531 37.414063 20.011719 37.175781 C 19.429688 36.882813 18.570313 36.5 17.4375 36.023438 C 16.535156 35.660156 15.667969 35.207031 14.855469 34.671875 Z M 14.855469 34.671875 "/>
</g>
</svg>
