<?xml version="1.0" encoding="UTF-8"?>
<svg xmlns="http://www.w3.org/2000/svg" xmlns:xlink="http://www.w3.org/1999/xlink" width="70pt" height="70pt" viewBox="0 0 70 70" version="1.1">
<defs>
<linearGradient id="linear0" gradientUnits="userSpaceOnUse" x1="9" y1="1.99" x2="9" y2="14.03" gradientTransform="matrix(3.888889,0,0,3.888889,0,0)">
<stop offset="0" style="stop-color:rgb(36.862745%,62.745098%,93.72549%);stop-opacity:1;"/>
<stop offset="0.18" style="stop-color:rgb(33.333333%,61.176471%,92.54902%);stop-opacity:1;"/>
<stop offset="0.47" style="stop-color:rgb(23.529412%,56.862745%,89.803922%);stop-opacity:1;"/>
<stop offset="0.84" style="stop-color:rgb(7.45098%,50.196078%,85.490196%);stop-opacity:1;"/>
<stop offset="1" style="stop-color:rgb(0%,47.058824%,83.137255%);stop-opacity:1;"/>
</linearGradient>
<linearGradient id="linear1" gradientUnits="userSpaceOnUse" x1="9.06" y1="6.39" x2="9.06" y2="16.01" gradientTransform="matrix(3.888889,0,0,3.888889,0,0)">
<stop offset="0" style="stop-color:rgb(70.196078%,70.196078%,70.196078%);stop-opacity:1;"/>
<stop offset="0.12" style="stop-color:rgb(67.843137%,67.843137%,67.843137%);stop-opacity:1;"/>
<stop offset="0.64" style="stop-color:rgb(60.784314%,60.784314%,60.784314%);stop-opacity:1;"/>
<stop offset="1" style="stop-color:rgb(58.039216%,58.039216%,58.039216%);stop-opacity:1;"/>
</linearGradient>
</defs>
<g id="surface1">
<path style=" stroke:none;fill-rule:nonzero;fill:url(#linear0);" d="M 68.054688 39.898438 C 67.832031 32.621094 62.363281 26.578125 55.144531 25.628906 C 54.703125 15.410156 46.117188 7.449219 35.894531 7.777344 C 27.757813 7.621094 20.402344 12.605469 17.539063 20.222656 C 8.851563 21.292969 2.242188 28.542969 1.984375 37.292969 C 2.425781 47.144531 10.71875 54.796875 20.570313 54.445313 L 52.34375 54.445313 C 52.601563 54.464844 52.863281 54.464844 53.121094 54.445313 C 61.195313 54.386719 67.785156 47.96875 68.054688 39.898438 Z M 68.054688 39.898438 "/>
<path style=" stroke:none;fill-rule:nonzero;fill:url(#linear1);" d="M 46.199219 60.394531 C 46.199219 60.894531 46 61.378906 45.640625 61.726563 C 45.28125 62.078125 44.796875 62.273438 44.292969 62.261719 L 26.132813 62.261719 C 25.632813 62.273438 25.148438 62.078125 24.789063 61.726563 C 24.429688 61.378906 24.226563 60.894531 24.226563 60.394531 L 24.226563 26.714844 C 24.226563 26.214844 24.429688 25.734375 24.789063 25.382813 C 25.148438 25.03125 25.632813 24.839844 26.132813 24.851563 L 44.292969 24.851563 C 44.796875 24.839844 45.28125 25.03125 45.640625 25.382813 C 46 25.734375 46.199219 26.214844 46.199219 26.714844 Z M 46.199219 60.394531 "/>
<path style=" stroke:none;fill-rule:nonzero;fill:rgb(100%,100%,100%);fill-opacity:1;" d="M 26.832031 28.738281 L 31.109375 28.738281 L 31.109375 33.988281 L 26.832031 33.988281 Z M 33.132813 28.738281 L 37.332031 28.738281 L 37.332031 33.988281 L 33.132813 33.988281 Z M 39.433594 28.738281 L 43.632813 28.738281 L 43.632813 33.988281 L 39.433594 33.988281 Z M 26.832031 37.140625 L 31.109375 37.140625 L 31.109375 42.390625 L 26.832031 42.390625 Z M 33.132813 37.140625 L 37.332031 37.140625 L 37.332031 42.390625 L 33.132813 42.390625 Z M 39.433594 37.140625 L 43.632813 37.140625 L 43.632813 42.390625 L 39.433594 42.390625 Z M 26.832031 45.539063 L 31.109375 45.539063 L 31.109375 50.789063 L 26.832031 50.789063 Z M 33.132813 45.539063 L 37.332031 45.539063 L 37.332031 50.789063 L 33.132813 50.789063 Z M 33.132813 53.9375 L 37.332031 53.9375 L 37.332031 60.238281 L 33.132813 60.238281 Z M 39.433594 45.539063 L 43.632813 45.539063 L 43.632813 50.789063 L 39.433594 50.789063 Z M 39.433594 45.539063 "/>
</g>
</svg>
