<?xml version="1.0" encoding="UTF-8"?>
<svg xmlns="http://www.w3.org/2000/svg" xmlns:xlink="http://www.w3.org/1999/xlink" width="70pt" height="70pt" viewBox="0 0 70 70" version="1.1">
<defs>
<linearGradient id="linear0" gradientUnits="userSpaceOnUse" x1="9" y1="13.333" x2="9" y2="1.244" gradientTransform="matrix(3.888889,0,0,3.888889,0,0)">
<stop offset="0" style="stop-color:rgb(0%,47.058824%,83.137255%);stop-opacity:1;"/>
<stop offset="0.156" style="stop-color:rgb(7.45098%,50.196078%,85.490196%);stop-opacity:1;"/>
<stop offset="0.528" style="stop-color:rgb(23.529412%,56.862745%,89.803922%);stop-opacity:1;"/>
<stop offset="0.822" style="stop-color:rgb(33.333333%,61.176471%,92.54902%);stop-opacity:1;"/>
<stop offset="1" style="stop-color:rgb(36.862745%,62.745098%,93.72549%);stop-opacity:1;"/>
</linearGradient>
</defs>
<g id="surface1">
<path style=" stroke:none;fill-rule:nonzero;fill:url(#linear0);" d="M 68.054688 51.851563 L 1.945313 51.851563 L 6.546875 9.378906 C 6.824219 6.796875 9.003906 4.839844 11.601563 4.835938 L 58.394531 4.835938 C 60.992188 4.839844 63.171875 6.796875 63.449219 9.378906 Z M 68.054688 51.851563 "/>
<path style=" stroke:none;fill-rule:nonzero;fill:rgb(36.862745%,62.745098%,93.72549%);fill-opacity:1;" d="M 1.945313 51.851563 L 68.054688 51.851563 L 68.054688 60.070313 C 68.054688 62.882813 65.777344 65.164063 62.964844 65.164063 L 7.035156 65.164063 C 4.222656 65.164063 1.945313 62.882813 1.945313 60.070313 Z M 1.945313 51.851563 "/>
<path style=" stroke:none;fill-rule:nonzero;fill:rgb(94.901961%,94.901961%,94.901961%);fill-opacity:1;" d="M 58.441406 46.023438 L 11.558594 46.023438 C 11.195313 46.023438 10.851563 45.871094 10.609375 45.601563 C 10.367188 45.332031 10.25 44.972656 10.289063 44.613281 L 13.84375 11.800781 C 13.914063 11.152344 14.457031 10.664063 15.109375 10.664063 L 54.890625 10.664063 C 55.542969 10.664063 56.085938 11.152344 56.15625 11.800781 L 59.710938 44.613281 C 59.75 44.972656 59.632813 45.332031 59.390625 45.601563 C 59.148438 45.871094 58.804688 46.023438 58.441406 46.023438 Z M 58.441406 46.023438 "/>
<path style=" stroke:none;fill-rule:nonzero;fill:rgb(94.901961%,94.901961%,94.901961%);fill-opacity:1;" d="M 53.242188 59.476563 L 53.242188 56.390625 C 53.242188 55.757813 52.730469 55.246094 52.097656 55.246094 L 51.964844 55.246094 C 51.332031 55.246094 50.820313 55.757813 50.820313 56.390625 L 50.820313 59.316406 L 35.859375 59.316406 L 35.859375 56.390625 C 35.859375 55.757813 35.347656 55.246094 34.714844 55.246094 L 34.578125 55.246094 C 33.953125 55.25 33.445313 55.761719 33.445313 56.390625 L 33.445313 59.316406 L 17.664063 59.316406 L 17.664063 56.429688 C 17.664063 55.796875 17.152344 55.285156 16.519531 55.285156 L 16.382813 55.285156 C 15.753906 55.285156 15.242188 55.796875 15.242188 56.429688 L 15.242188 59.5 C 15.242188 60.761719 16.265625 61.785156 17.527344 61.785156 L 17.664063 61.785156 L 50.960938 61.746094 C 52.214844 61.746094 53.238281 60.734375 53.242188 59.476563 Z M 53.242188 59.476563 "/>
<path style=" stroke:none;fill-rule:nonzero;fill:rgb(36.862745%,62.745098%,93.72549%);fill-opacity:1;" d="M 33.363281 29.492188 L 25.046875 29.492188 C 24.789063 29.492188 24.578125 29.363281 24.578125 29.207031 C 24.578125 29.164063 24.59375 29.121094 24.621094 29.089844 L 34.609375 15.496094 C 34.722656 15.382813 34.878906 15.320313 35.039063 15.328125 L 44.875 15.328125 C 45.132813 15.328125 45.34375 15.457031 45.34375 15.617188 C 45.34375 15.679688 45.3125 15.742188 45.261719 15.78125 L 33.539063 26.417969 L 44.953125 26.417969 C 45.210938 26.417969 45.421875 26.546875 45.421875 26.703125 C 45.414063 26.785156 45.371094 26.859375 45.300781 26.898438 L 26.324219 40.511719 C 26.148438 40.585938 24.882813 41.308594 25.503906 40.207031 Z M 33.363281 29.492188 "/>
</g>
</svg>
