<?xml version="1.0" encoding="UTF-8"?>
<svg xmlns="http://www.w3.org/2000/svg" xmlns:xlink="http://www.w3.org/1999/xlink" width="70pt" height="70pt" viewBox="0 0 70 70" version="1.1">
<defs>
<linearGradient id="linear0" gradientUnits="userSpaceOnUse" x1="9" y1="13.704" x2="9" y2="1.277" gradientTransform="matrix(3.888889,0,0,3.888889,0,0)">
<stop offset="0" style="stop-color:rgb(0%,47.058824%,83.137255%);stop-opacity:1;"/>
<stop offset="0.817" style="stop-color:rgb(36.862745%,62.745098%,93.72549%);stop-opacity:1;"/>
</linearGradient>
<linearGradient id="linear1" gradientUnits="userSpaceOnUse" x1="8.999" y1="16.723" x2="8.999" y2="4.174" gradientTransform="matrix(3.888889,0,0,3.888889,0,0)">
<stop offset="0" style="stop-color:rgb(19.607843%,74.509804%,86.666667%);stop-opacity:1;"/>
<stop offset="0.113" style="stop-color:rgb(23.529412%,80%,91.372549%);stop-opacity:1;"/>
<stop offset="0.292" style="stop-color:rgb(27.843137%,85.882353%,96.078431%);stop-opacity:1;"/>
<stop offset="0.504" style="stop-color:rgb(30.588235%,89.019608%,99.215686%);stop-opacity:1;"/>
<stop offset="0.834" style="stop-color:rgb(31.372549%,90.196078%,100%);stop-opacity:1;"/>
</linearGradient>
<filter id="alpha" filterUnits="objectBoundingBox" x="0%" y="0%" width="100%" height="100%">
  <feColorMatrix type="matrix" in="SourceGraphic" values="0 0 0 0 1 0 0 0 0 1 0 0 0 0 1 0 0 0 1 0"/>
</filter>
<mask id="mask0">
  <g filter="url(#alpha)">
<rect x="0" y="0" width="70" height="70" style="fill:rgb(0%,0%,0%);fill-opacity:0.74902;stroke:none;"/>
  </g>
</mask>
<clipPath id="clip1">
  <rect x="0" y="0" width="70" height="70"/>
</clipPath>
<g id="surface5" clip-path="url(#clip1)">
<path style=" stroke:none;fill-rule:nonzero;fill:rgb(0%,47.058824%,83.137255%);fill-opacity:1;" d="M 32.484375 59.957031 C 32.683594 60.160156 32.988281 60.214844 33.246094 60.097656 C 33.503906 59.984375 33.664063 59.71875 33.652344 59.4375 L 33.652344 47.320313 C 33.652344 47.082031 33.535156 46.855469 33.335938 46.722656 C 33.121094 46.582031 32.847656 46.574219 32.625 46.699219 C 32.402344 46.824219 32.269531 47.0625 32.277344 47.320313 L 32.277344 59.4375 C 32.273438 59.632813 32.347656 59.820313 32.484375 59.957031 Z M 32.484375 59.957031 "/>
</g>
<mask id="mask1">
  <g filter="url(#alpha)">
<rect x="0" y="0" width="70" height="70" style="fill:rgb(0%,0%,0%);fill-opacity:0.74902;stroke:none;"/>
  </g>
</mask>
<clipPath id="clip2">
  <rect x="0" y="0" width="70" height="70"/>
</clipPath>
<g id="surface8" clip-path="url(#clip2)">
<path style=" stroke:none;fill-rule:nonzero;fill:rgb(0%,47.058824%,83.137255%);fill-opacity:1;" d="M 28.117188 30.785156 L 42.28125 30.785156 C 42.753906 30.785156 43.136719 31.167969 43.136719 31.640625 L 43.136719 31.804688 C 43.136719 32.277344 42.753906 32.660156 42.28125 32.660156 L 28.117188 32.660156 C 27.644531 32.660156 27.261719 32.277344 27.261719 31.804688 L 27.261719 31.644531 C 27.261719 31.167969 27.644531 30.785156 28.121094 30.785156 Z M 28.117188 30.785156 "/>
</g>
<mask id="mask2">
  <g filter="url(#alpha)">
<rect x="0" y="0" width="70" height="70" style="fill:rgb(0%,0%,0%);fill-opacity:0.74902;stroke:none;"/>
  </g>
</mask>
<clipPath id="clip3">
  <rect x="0" y="0" width="70" height="70"/>
</clipPath>
<g id="surface11" clip-path="url(#clip3)">
<path style=" stroke:none;fill-rule:nonzero;fill:rgb(0%,47.058824%,83.137255%);fill-opacity:1;" d="M 28.117188 33.832031 L 42.28125 33.832031 C 42.753906 33.832031 43.136719 34.214844 43.136719 34.6875 L 43.136719 34.847656 C 43.136719 35.324219 42.75 35.707031 42.277344 35.707031 L 28.117188 35.707031 C 27.644531 35.707031 27.261719 35.324219 27.261719 34.851563 L 27.261719 34.691406 C 27.261719 34.21875 27.644531 33.835938 28.117188 33.832031 Z M 28.117188 33.832031 "/>
</g>
</defs>
<g id="surface1">
<path style=" stroke:none;fill-rule:nonzero;fill:url(#linear0);" d="M 69.09375 38.15625 C 68.867188 30.65625 63.238281 24.421875 55.796875 23.429688 C 55.339844 12.871094 46.476563 4.640625 35.910156 4.964844 C 27.496094 4.816406 19.902344 9.996094 16.980469 17.890625 C 8.015625 18.972656 1.1875 26.441406 0.90625 35.464844 C 1.308594 45.679688 9.894531 53.640625 20.105469 53.277344 C 20.675781 53.277344 21.242188 53.25 21.796875 53.207031 L 52.890625 53.207031 C 53.167969 53.203125 53.441406 53.160156 53.710938 53.082031 C 62.003906 53.023438 68.785156 46.449219 69.09375 38.15625 Z M 69.09375 38.15625 "/>
<path style=" stroke:none;fill-rule:nonzero;fill:url(#linear1);" d="M 48.609375 35.492188 C 50.796875 33.300781 50.796875 29.75 48.609375 27.558594 L 38.953125 17.890625 C 37.90625 16.835938 36.480469 16.246094 34.996094 16.246094 C 33.511719 16.246094 32.085938 16.835938 31.039063 17.890625 L 21.390625 27.558594 C 19.203125 29.75 19.203125 33.300781 21.390625 35.492188 L 29.417969 43.554688 C 29.714844 43.851563 29.878906 44.25 29.878906 44.667969 L 29.878906 59.640625 C 29.878906 60.148438 30.078125 60.632813 30.4375 60.992188 L 34.097656 64.664063 C 34.335938 64.902344 34.65625 65.039063 34.996094 65.039063 C 35.332031 65.039063 35.652344 64.902344 35.890625 64.664063 L 39.441406 61.105469 L 39.441406 61.054688 L 41.535156 58.964844 C 41.820313 58.679688 41.820313 58.214844 41.535156 57.929688 L 40.027344 56.417969 C 39.714844 56.105469 39.714844 55.601563 40.027344 55.289063 L 41.535156 53.777344 C 41.671875 53.640625 41.75 53.453125 41.75 53.257813 C 41.75 53.0625 41.671875 52.878906 41.535156 52.742188 L 40.027344 51.226563 C 39.714844 50.917969 39.714844 50.410156 40.027344 50.101563 L 41.539063 48.585938 C 41.820313 48.300781 41.820313 47.839844 41.539063 47.554688 L 39.441406 45.449219 L 39.441406 44.671875 Z M 35 20.222656 C 36.292969 20.21875 37.457031 20.992188 37.953125 22.183594 C 38.453125 23.375 38.179688 24.75 37.269531 25.664063 C 36.355469 26.578125 34.984375 26.851563 33.792969 26.355469 C 32.597656 25.863281 31.820313 24.699219 31.824219 23.40625 C 31.820313 22.5625 32.15625 21.753906 32.75 21.15625 C 33.347656 20.558594 34.15625 20.222656 35 20.222656 Z M 35 20.222656 "/>
<use xlink:href="#surface5" mask="url(#mask0)"/>
<use xlink:href="#surface8" mask="url(#mask1)"/>
<use xlink:href="#surface11" mask="url(#mask2)"/>
</g>
</svg>
