<?xml version="1.0" encoding="UTF-8"?>
<svg xmlns="http://www.w3.org/2000/svg" xmlns:xlink="http://www.w3.org/1999/xlink" width="70pt" height="70pt" viewBox="0 0 70 70" version="1.1">
<defs>
<linearGradient id="linear0" gradientUnits="userSpaceOnUse" x1="9" y1="16.236" x2="9" y2="5.599" gradientTransform="matrix(3.888889,0,0,3.888889,0,0)">
<stop offset="0" style="stop-color:rgb(0%,35.686275%,63.137255%);stop-opacity:1;"/>
<stop offset="0.775" style="stop-color:rgb(0%,47.058824%,83.137255%);stop-opacity:1;"/>
</linearGradient>
<filter id="alpha" filterUnits="objectBoundingBox" x="0%" y="0%" width="100%" height="100%">
  <feColorMatrix type="matrix" in="SourceGraphic" values="0 0 0 0 1 0 0 0 0 1 0 0 0 0 1 0 0 0 1 0"/>
</filter>
<mask id="mask0">
  <g filter="url(#alpha)">
<rect x="0" y="0" width="70" height="70" style="fill:rgb(0%,0%,0%);fill-opacity:0.6;stroke:none;"/>
  </g>
</mask>
<clipPath id="clip1">
  <rect x="0" y="0" width="70" height="70"/>
</clipPath>
<g id="surface5" clip-path="url(#clip1)">
<path style=" stroke:none;fill-rule:nonzero;fill:rgb(36.862745%,62.745098%,93.72549%);fill-opacity:1;" d="M 7.425781 25.886719 L 63.140625 25.886719 C 64.429688 25.886719 65.472656 26.933594 65.472656 28.222656 L 65.472656 56.664063 C 65.472656 57.953125 64.429688 59 63.140625 59 L 7.425781 59 C 6.136719 59 5.089844 57.953125 5.089844 56.664063 L 5.089844 28.222656 C 5.089844 26.933594 6.136719 25.886719 7.425781 25.886719 Z M 7.425781 25.886719 "/>
</g>
<mask id="mask1">
  <g filter="url(#alpha)">
<rect x="0" y="0" width="70" height="70" style="fill:rgb(0%,0%,0%);fill-opacity:0.8;stroke:none;"/>
  </g>
</mask>
<clipPath id="clip2">
  <rect x="0" y="0" width="70" height="70"/>
</clipPath>
<g id="surface8" clip-path="url(#clip2)">
<path style=" stroke:none;fill-rule:nonzero;fill:rgb(100%,100%,100%);fill-opacity:1;" d="M 27.644531 51.398438 L 26.398438 52.644531 C 26.292969 52.75 26.148438 52.8125 26 52.8125 C 25.847656 52.8125 25.707031 52.75 25.601563 52.644531 L 16.558594 43.574219 C 16.117188 43.132813 16.117188 42.421875 16.558594 41.980469 L 17.808594 40.734375 L 27.648438 50.601563 C 27.867188 50.824219 27.867188 51.179688 27.644531 51.398438 Z M 41.851563 51.398438 L 43.101563 52.644531 C 43.207031 52.75 43.347656 52.8125 43.5 52.8125 C 43.648438 52.8125 43.792969 52.75 43.898438 52.644531 L 52.9375 43.574219 C 53.378906 43.132813 53.378906 42.421875 52.9375 41.980469 L 51.6875 40.734375 L 41.847656 50.601563 C 41.628906 50.824219 41.632813 51.179688 41.851563 51.398438 Z M 41.851563 51.398438 "/>
</g>
</defs>
<g id="surface1">
<path style=" stroke:none;fill-rule:nonzero;fill:url(#linear0);" d="M 0 21.777344 L 70 21.777344 L 70 60.804688 C 70 62.089844 68.957031 63.136719 67.667969 63.136719 L 2.332031 63.136719 C 1.042969 63.136719 0 62.089844 0 60.804688 Z M 0 21.777344 "/>
<use xlink:href="#surface5" mask="url(#mask0)"/>
<path style=" stroke:none;fill-rule:nonzero;fill:rgb(0%,35.686275%,63.137255%);fill-opacity:1;" d="M 2.332031 6.859375 L 67.667969 6.859375 C 68.957031 6.859375 70 7.90625 70 9.191406 L 70 21.777344 L 0 21.777344 L 0 9.195313 C 0 8.578125 0.246094 7.984375 0.683594 7.542969 C 1.121094 7.105469 1.714844 6.859375 2.332031 6.859375 Z M 2.332031 6.859375 "/>
<use xlink:href="#surface8" mask="url(#mask1)"/>
<path style=" stroke:none;fill-rule:nonzero;fill:rgb(100%,100%,100%);fill-opacity:1;" d="M 26.566406 32.796875 L 27.808594 34.042969 C 27.917969 34.148438 27.976563 34.292969 27.976563 34.441406 C 27.976563 34.589844 27.917969 34.734375 27.808594 34.839844 L 17.796875 44.828125 L 16.550781 43.574219 C 16.339844 43.363281 16.21875 43.078125 16.21875 42.777344 C 16.21875 42.476563 16.339844 42.191406 16.550781 41.980469 L 25.769531 32.792969 C 25.988281 32.570313 26.347656 32.574219 26.566406 32.796875 Z M 42.925781 32.796875 L 41.679688 34.042969 C 41.574219 34.148438 41.515625 34.292969 41.515625 34.441406 C 41.515625 34.589844 41.574219 34.734375 41.679688 34.839844 L 51.695313 44.828125 L 52.9375 43.578125 C 53.378906 43.136719 53.378906 42.421875 52.9375 41.980469 L 43.722656 32.796875 C 43.617188 32.6875 43.472656 32.628906 43.324219 32.628906 C 43.171875 32.632813 43.03125 32.691406 42.925781 32.800781 Z M 42.925781 32.796875 "/>
<path style=" stroke:none;fill-rule:nonzero;fill:rgb(100%,100%,100%);fill-opacity:1;" d="M 31.730469 55.855469 L 29.734375 55.222656 C 29.523438 55.152344 29.40625 54.925781 29.472656 54.710938 L 37.601563 29.320313 C 37.632813 29.21875 37.703125 29.132813 37.796875 29.082031 C 37.894531 29.03125 38.003906 29.023438 38.105469 29.0625 L 40.101563 29.699219 C 40.207031 29.730469 40.292969 29.800781 40.34375 29.894531 C 40.390625 29.992188 40.398438 30.101563 40.363281 30.203125 L 32.234375 55.609375 C 32.203125 55.710938 32.128906 55.796875 32.035156 55.839844 C 31.9375 55.886719 31.828125 55.894531 31.730469 55.855469 Z M 31.730469 55.855469 "/>
<path style=" stroke:none;fill-rule:nonzero;fill:rgb(100%,100%,100%);fill-opacity:1;" d="M 12.3125 14.960938 C 12.3125 16.59375 10.988281 17.917969 9.355469 17.917969 C 7.722656 17.917969 6.402344 16.59375 6.402344 14.960938 C 6.402344 13.328125 7.722656 12.003906 9.355469 12.003906 C 10.988281 12.003906 12.3125 13.328125 12.3125 14.960938 Z M 18.667969 12.003906 C 17.035156 12.003906 15.710938 13.328125 15.710938 14.960938 C 15.710938 16.59375 17.035156 17.917969 18.667969 17.917969 C 20.300781 17.917969 21.621094 16.59375 21.621094 14.960938 C 21.621094 13.328125 20.300781 12.003906 18.667969 12.003906 Z M 27.972656 12.003906 C 26.339844 12.003906 25.015625 13.328125 25.015625 14.960938 C 25.015625 16.59375 26.339844 17.917969 27.972656 17.917969 C 29.605469 17.917969 30.929688 16.59375 30.929688 14.960938 C 30.929688 14.175781 30.617188 13.421875 30.058594 12.867188 C 29.503906 12.3125 28.75 12.003906 27.964844 12.003906 Z M 27.972656 12.003906 "/>
</g>
</svg>
