<?xml version="1.0" encoding="UTF-8"?>
<svg xmlns="http://www.w3.org/2000/svg" xmlns:xlink="http://www.w3.org/1999/xlink" width="70pt" height="70pt" viewBox="0 0 70 70" version="1.1">
<defs>
<linearGradient id="linear0" gradientUnits="userSpaceOnUse" x1="9" y1="17.99" x2="9" y2="-1.42" gradientTransform="matrix(3.888889,0,0,3.888889,0,0)">
<stop offset="0" style="stop-color:rgb(0%,47.058824%,83.137255%);stop-opacity:1;"/>
<stop offset="0.14" style="stop-color:rgb(2.745098%,48.235294%,83.921569%);stop-opacity:1;"/>
<stop offset="0.34" style="stop-color:rgb(10.196078%,51.372549%,85.882353%);stop-opacity:1;"/>
<stop offset="0.59" style="stop-color:rgb(22.352941%,56.470588%,89.411765%);stop-opacity:1;"/>
<stop offset="0.82" style="stop-color:rgb(36.862745%,62.745098%,93.72549%);stop-opacity:1;"/>
</linearGradient>
<linearGradient id="linear1" gradientUnits="userSpaceOnUse" x1="7.97" y1="16.51" x2="7.97" y2="4.84" gradientTransform="matrix(3.888889,0,0,3.888889,0,0)">
<stop offset="0" style="stop-color:rgb(58.039216%,58.039216%,58.039216%);stop-opacity:1;"/>
<stop offset="0.31" style="stop-color:rgb(72.54902%,72.54902%,72.54902%);stop-opacity:1;"/>
<stop offset="0.77" style="stop-color:rgb(92.54902%,92.54902%,92.54902%);stop-opacity:1;"/>
<stop offset="1" style="stop-color:rgb(100%,100%,100%);stop-opacity:1;"/>
</linearGradient>
</defs>
<g id="surface1">
<path style=" stroke:none;fill-rule:nonzero;fill:url(#linear0);" d="M 70 39.859375 C 69.746094 32.164063 63.980469 25.773438 56.351563 24.734375 C 55.867188 13.902344 46.773438 5.464844 35.933594 5.792969 C 27.300781 5.660156 19.515625 10.96875 16.488281 19.054688 C 7.269531 20.136719 0.246094 27.824219 0 37.101563 C 0.402344 47.597656 9.21875 55.789063 19.714844 55.417969 L 53.355469 55.417969 C 53.640625 55.4375 53.925781 55.4375 54.210938 55.417969 C 62.808594 55.335938 69.789063 48.453125 70 39.859375 Z M 70 39.859375 "/>
<path style=" stroke:none;fill-rule:nonzero;fill:url(#linear1);" d="M 47.171875 24.109375 L 21.621094 24.109375 C 21.515625 24.125 21.410156 24.085938 21.332031 24.011719 C 21.257813 23.933594 21.21875 23.828125 21.234375 23.722656 L 21.234375 19.210938 C 21.214844 19.054688 21.109375 18.925781 20.964844 18.867188 C 20.816406 18.808594 20.652344 18.839844 20.535156 18.9375 L 12.753906 26.714844 C 12.605469 26.867188 12.605469 27.109375 12.753906 27.261719 L 20.535156 35.039063 C 20.660156 35.140625 20.832031 35.167969 20.980469 35.101563 C 21.128906 35.035156 21.226563 34.890625 21.234375 34.726563 L 21.234375 30.0625 C 21.234375 29.847656 21.40625 29.671875 21.621094 29.671875 L 25.511719 29.671875 L 25.511719 62.222656 C 25.511719 63.339844 26.417969 64.246094 27.535156 64.246094 L 46.976563 64.246094 C 48.09375 64.246094 49 63.339844 49 62.222656 L 49 26.132813 C 49.003906 25.089844 48.210938 24.210938 47.171875 24.109375 Z M 47.171875 24.109375 "/>
<path style=" stroke:none;fill-rule:nonzero;fill:rgb(0%,18.823529%,40.392157%);fill-opacity:1;" d="M 29.128906 38.1875 C 29.117188 37.503906 29.382813 36.847656 29.867188 36.363281 C 30.351563 35.878906 31.011719 35.613281 31.695313 35.621094 L 43.359375 35.621094 C 44.777344 35.621094 45.929688 36.769531 45.929688 38.1875 C 45.90625 39.589844 44.761719 40.71875 43.359375 40.714844 L 31.695313 40.714844 C 31.015625 40.726563 30.363281 40.464844 29.882813 39.988281 C 29.398438 39.515625 29.128906 38.867188 29.128906 38.1875 Z M 29.128906 38.1875 "/>
<path style=" stroke:none;fill-rule:nonzero;fill:rgb(0%,18.823529%,40.392157%);fill-opacity:1;" d="M 29.128906 30.566406 C 29.128906 29.148438 30.277344 28 31.695313 28 L 43.359375 28 C 44.769531 28.019531 45.90625 29.15625 45.929688 30.566406 C 45.90625 31.976563 44.769531 33.113281 43.359375 33.132813 L 31.695313 33.132813 C 30.277344 33.132813 29.128906 31.984375 29.128906 30.566406 Z M 29.128906 30.566406 "/>
<path style=" stroke:none;fill-rule:nonzero;fill:rgb(31.372549%,90.196078%,100%);fill-opacity:1;" d="M 33.484375 30.566406 C 33.484375 31.511719 32.71875 32.277344 31.773438 32.277344 C 30.828125 32.277344 30.0625 31.511719 30.0625 30.566406 C 30.0625 29.621094 30.828125 28.855469 31.773438 28.855469 C 32.71875 28.855469 33.484375 29.621094 33.484375 30.566406 Z M 33.484375 30.566406 "/>
<path style=" stroke:none;fill-rule:nonzero;fill:rgb(31.372549%,90.196078%,100%);fill-opacity:1;" d="M 33.484375 38.1875 C 33.484375 39.132813 32.71875 39.898438 31.773438 39.898438 C 30.828125 39.898438 30.0625 39.132813 30.0625 38.1875 C 30.0625 37.242188 30.828125 36.476563 31.773438 36.476563 C 32.71875 36.476563 33.484375 37.242188 33.484375 38.1875 Z M 33.484375 38.1875 "/>
<path style=" stroke:none;fill-rule:nonzero;fill:rgb(0%,47.058824%,83.137255%);fill-opacity:1;" d="M 38.421875 52.851563 L 30.644531 60.628906 C 30.519531 60.730469 30.347656 60.753906 30.199219 60.6875 C 30.050781 60.625 29.953125 60.480469 29.945313 60.316406 L 29.945313 55.726563 C 29.945313 55.511719 29.769531 55.339844 29.554688 55.339844 L 25.511719 55.339844 L 25.511719 49.777344 L 29.671875 49.777344 C 29.777344 49.789063 29.886719 49.753906 29.960938 49.675781 C 30.035156 49.601563 30.074219 49.496094 30.0625 49.390625 L 30.0625 44.878906 C 30.082031 44.722656 30.183594 44.589844 30.332031 44.535156 C 30.476563 44.476563 30.640625 44.503906 30.761719 44.605469 L 38.539063 52.382813 C 38.613281 52.546875 38.5625 52.738281 38.421875 52.851563 Z M 38.421875 52.851563 "/>
</g>
</svg>
