<?xml version="1.0" encoding="UTF-8"?>
<svg xmlns="http://www.w3.org/2000/svg" xmlns:xlink="http://www.w3.org/1999/xlink" width="70pt" height="70pt" viewBox="0 0 70 70" version="1.1">
<defs>
<linearGradient id="linear0" gradientUnits="userSpaceOnUse" x1="9" y1="15.834" x2="9" y2="5.788" gradientTransform="matrix(3.888889,0,0,3.888889,0,0)">
<stop offset="0" style="stop-color:rgb(0%,47.058824%,83.137255%);stop-opacity:1;"/>
<stop offset="0.502" style="stop-color:rgb(25.098039%,57.647059%,90.196078%);stop-opacity:1;"/>
<stop offset="0.775" style="stop-color:rgb(36.862745%,62.745098%,93.72549%);stop-opacity:1;"/>
</linearGradient>
<filter id="alpha" filterUnits="objectBoundingBox" x="0%" y="0%" width="100%" height="100%">
  <feColorMatrix type="matrix" in="SourceGraphic" values="0 0 0 0 1 0 0 0 0 1 0 0 0 0 1 0 0 0 1 0"/>
</filter>
<mask id="mask0">
  <g filter="url(#alpha)">
<rect x="0" y="0" width="70" height="70" style="fill:rgb(0%,0%,0%);fill-opacity:0.901961;stroke:none;"/>
  </g>
</mask>
<clipPath id="clip1">
  <rect x="0" y="0" width="70" height="70"/>
</clipPath>
<g id="surface5" clip-path="url(#clip1)">
<path style=" stroke:none;fill-rule:nonzero;fill:rgb(100%,100%,100%);fill-opacity:1;" d="M 10.0625 27.691406 L 22.054688 27.691406 C 22.660156 27.691406 23.15625 28.183594 23.15625 28.792969 L 23.15625 33.785156 C 23.15625 34.394531 22.660156 34.886719 22.054688 34.886719 L 10.0625 34.886719 C 9.453125 34.886719 8.960938 34.394531 8.960938 33.785156 L 8.960938 28.792969 C 8.960938 28.183594 9.453125 27.691406 10.0625 27.691406 Z M 10.0625 27.691406 "/>
</g>
<mask id="mask1">
  <g filter="url(#alpha)">
<rect x="0" y="0" width="70" height="70" style="fill:rgb(0%,0%,0%);fill-opacity:0.901961;stroke:none;"/>
  </g>
</mask>
<clipPath id="clip2">
  <rect x="0" y="0" width="70" height="70"/>
</clipPath>
<g id="surface8" clip-path="url(#clip2)">
<path style=" stroke:none;fill-rule:nonzero;fill:rgb(100%,100%,100%);fill-opacity:1;" d="M 29.101563 27.589844 L 41.09375 27.589844 C 41.703125 27.589844 42.195313 28.085938 42.195313 28.691406 L 42.195313 33.6875 C 42.195313 34.292969 41.703125 34.785156 41.09375 34.785156 L 29.101563 34.785156 C 28.492188 34.785156 28 34.292969 28 33.6875 L 28 28.691406 C 28 28.085938 28.492188 27.589844 29.101563 27.589844 Z M 29.101563 27.589844 "/>
</g>
<mask id="mask2">
  <g filter="url(#alpha)">
<rect x="0" y="0" width="70" height="70" style="fill:rgb(0%,0%,0%);fill-opacity:0.901961;stroke:none;"/>
  </g>
</mask>
<clipPath id="clip3">
  <rect x="0" y="0" width="70" height="70"/>
</clipPath>
<g id="surface11" clip-path="url(#clip3)">
<path style=" stroke:none;fill-rule:nonzero;fill:rgb(100%,100%,100%);fill-opacity:1;" d="M 48.140625 27.589844 L 60.132813 27.589844 C 60.742188 27.589844 61.234375 28.085938 61.234375 28.691406 L 61.234375 33.6875 C 61.234375 34.292969 60.742188 34.785156 60.132813 34.785156 L 48.140625 34.785156 C 47.53125 34.785156 47.039063 34.292969 47.039063 33.6875 L 47.039063 28.691406 C 47.039063 28.085938 47.53125 27.589844 48.140625 27.589844 Z M 48.140625 27.589844 "/>
</g>
<mask id="mask3">
  <g filter="url(#alpha)">
<rect x="0" y="0" width="70" height="70" style="fill:rgb(0%,0%,0%);fill-opacity:0.901961;stroke:none;"/>
  </g>
</mask>
<clipPath id="clip4">
  <rect x="0" y="0" width="70" height="70"/>
</clipPath>
<g id="surface14" clip-path="url(#clip4)">
<path style=" stroke:none;fill-rule:nonzero;fill:rgb(100%,100%,100%);fill-opacity:1;" d="M 10.269531 37.984375 L 22.265625 37.984375 C 22.871094 37.984375 23.363281 38.476563 23.363281 39.082031 L 23.363281 44.078125 C 23.363281 44.683594 22.871094 45.175781 22.265625 45.175781 L 10.269531 45.175781 C 9.664063 45.175781 9.171875 44.683594 9.171875 44.078125 L 9.171875 39.082031 C 9.171875 38.476563 9.664063 37.984375 10.269531 37.984375 Z M 10.269531 37.984375 "/>
</g>
</defs>
<g id="surface1">
<path style=" stroke:none;fill-rule:nonzero;fill:url(#linear0);" d="M 1.945313 22.507813 L 68.054688 22.507813 L 68.054688 59.367188 C 68.054688 60.585938 67.066406 61.578125 65.847656 61.578125 L 4.152344 61.578125 C 2.933594 61.578125 1.945313 60.585938 1.945313 59.367188 Z M 1.945313 22.507813 "/>
<path style=" stroke:none;fill-rule:nonzero;fill:rgb(0%,47.058824%,83.137255%);fill-opacity:1;" d="M 4.164063 8.421875 L 65.835938 8.421875 C 67.054688 8.421875 68.042969 9.414063 68.042969 10.632813 L 68.042969 22.507813 L 1.945313 22.507813 L 1.945313 10.632813 C 1.945313 10.042969 2.179688 9.480469 2.59375 9.066406 C 3.011719 8.652344 3.578125 8.421875 4.164063 8.421875 Z M 4.164063 8.421875 "/>
<use xlink:href="#surface5" mask="url(#mask0)"/>
<use xlink:href="#surface8" mask="url(#mask1)"/>
<use xlink:href="#surface11" mask="url(#mask2)"/>
<use xlink:href="#surface14" mask="url(#mask3)"/>
<path style=" stroke:none;fill-rule:nonzero;fill:rgb(100%,83.137255%,0%);fill-opacity:1;" d="M 29.3125 37.882813 L 41.304688 37.882813 C 41.910156 37.882813 42.40625 38.375 42.40625 38.980469 L 42.40625 43.976563 C 42.40625 44.582031 41.910156 45.074219 41.304688 45.074219 L 29.3125 45.074219 C 28.703125 45.074219 28.210938 44.582031 28.210938 43.976563 L 28.210938 38.980469 C 28.210938 38.375 28.703125 37.882813 29.3125 37.882813 Z M 29.3125 37.882813 "/>
<path style=" stroke:none;fill-rule:nonzero;fill:rgb(100%,83.137255%,0%);fill-opacity:1;" d="M 48.351563 37.882813 L 60.34375 37.882813 C 60.953125 37.882813 61.445313 38.375 61.445313 38.980469 L 61.445313 43.976563 C 61.445313 44.582031 60.953125 45.074219 60.34375 45.074219 L 48.351563 45.074219 C 47.742188 45.074219 47.25 44.582031 47.25 43.976563 L 47.25 38.980469 C 47.25 38.375 47.742188 37.882813 48.351563 37.882813 Z M 48.351563 37.882813 "/>
<path style=" stroke:none;fill-rule:nonzero;fill:rgb(100%,83.137255%,0%);fill-opacity:1;" d="M 10.269531 48.375 L 22.265625 48.375 C 22.871094 48.375 23.363281 48.867188 23.363281 49.472656 L 23.363281 54.46875 C 23.363281 55.074219 22.871094 55.566406 22.265625 55.566406 L 10.269531 55.566406 C 9.664063 55.566406 9.171875 55.074219 9.171875 54.46875 L 9.171875 49.472656 C 9.171875 48.867188 9.664063 48.375 10.269531 48.375 Z M 10.269531 48.375 "/>
<path style=" stroke:none;fill-rule:nonzero;fill:rgb(100%,83.137255%,0%);fill-opacity:1;" d="M 29.3125 48.273438 L 41.304688 48.273438 C 41.910156 48.273438 42.40625 48.765625 42.40625 49.375 L 42.40625 54.367188 C 42.40625 54.972656 41.910156 55.46875 41.304688 55.46875 L 29.3125 55.46875 C 28.703125 55.46875 28.210938 54.972656 28.210938 54.367188 L 28.210938 49.375 C 28.210938 48.765625 28.703125 48.273438 29.3125 48.273438 Z M 29.3125 48.273438 "/>
<path style=" stroke:none;fill-rule:nonzero;fill:rgb(100%,83.137255%,0%);fill-opacity:1;" d="M 48.351563 48.273438 L 60.34375 48.273438 C 60.953125 48.273438 61.445313 48.765625 61.445313 49.375 L 61.445313 54.367188 C 61.445313 54.972656 60.953125 55.46875 60.34375 55.46875 L 48.351563 55.46875 C 47.742188 55.46875 47.25 54.972656 47.25 54.367188 L 47.25 49.375 C 47.25 48.765625 47.742188 48.273438 48.351563 48.273438 Z M 48.351563 48.273438 "/>
</g>
</svg>
