<?xml version="1.0" encoding="UTF-8"?>
<svg xmlns="http://www.w3.org/2000/svg" xmlns:xlink="http://www.w3.org/1999/xlink" width="70pt" height="70pt" viewBox="0 0 70 70" version="1.1">
<defs>
<linearGradient id="linear0" gradientUnits="userSpaceOnUse" x1="9.84" y1="3.825" x2="9.84" y2="17.5" gradientTransform="matrix(3.888889,0,0,3.888889,0,0)">
<stop offset="0" style="stop-color:rgb(77.647059%,60.392157%,92.156863%);stop-opacity:1;"/>
<stop offset="1" style="stop-color:rgb(43.529412%,29.411765%,69.803922%);stop-opacity:1;"/>
</linearGradient>
</defs>
<g id="surface1">
<path style=" stroke:none;fill-rule:nonzero;fill:rgb(46.666667%,22.745098%,86.27451%);fill-opacity:1;" d="M 58.242188 9.722656 L 50.945313 2.46875 C 50.585938 2.117188 50.097656 1.925781 49.59375 1.945313 L 36.054688 2.4375 C 35.597656 2.453125 35.164063 2.640625 34.839844 2.964844 L 5.21875 32.429688 C 4.882813 32.765625 4.691406 33.222656 4.691406 33.699219 C 4.691406 34.179688 4.882813 34.636719 5.21875 34.972656 L 24.949219 54.601563 C 25.65625 55.304688 26.800781 55.304688 27.507813 54.601563 L 57.167969 25.097656 C 57.46875 24.800781 57.652344 24.402344 57.6875 23.980469 L 58.773438 11.144531 C 58.816406 10.617188 58.621094 10.09375 58.242188 9.722656 Z M 49.433594 14.53125 C 47.625 14.523438 46.164063 13.050781 46.171875 11.242188 C 46.179688 9.433594 47.648438 7.972656 49.457031 7.976563 C 51.265625 7.980469 52.730469 9.445313 52.730469 11.253906 C 52.726563 12.125 52.378906 12.960938 51.761719 13.578125 C 51.140625 14.191406 50.304688 14.535156 49.433594 14.53125 Z M 49.433594 14.53125 "/>
<path style=" stroke:none;fill-rule:nonzero;fill:rgb(20.392157%,10.196078%,43.137255%);fill-opacity:1;" d="M 49.433594 5.378906 C 46.1875 5.394531 43.570313 8.035156 43.582031 11.28125 C 43.59375 14.523438 46.230469 17.144531 49.476563 17.136719 C 52.71875 17.132813 55.34375 14.5 55.34375 11.253906 C 55.335938 8 52.6875 5.367188 49.433594 5.378906 Z M 52.667969 11.894531 C 52.351563 13.523438 50.882813 14.664063 49.230469 14.5625 C 47.574219 14.460938 46.253906 13.152344 46.140625 11.5 C 46.023438 9.847656 47.15625 8.363281 48.777344 8.039063 C 49.859375 7.804688 50.984375 8.132813 51.769531 8.910156 C 52.554688 9.691406 52.890625 10.8125 52.667969 11.894531 Z M 52.667969 11.894531 "/>
<path style=" stroke:none;fill-rule:nonzero;fill:url(#linear0);" d="M 64.78125 22.664063 L 57.476563 15.398438 C 57.121094 15.046875 56.632813 14.855469 56.132813 14.875 L 42.585938 15.363281 C 42.132813 15.382813 41.699219 15.570313 41.375 15.890625 L 11.757813 45.355469 C 11.417969 45.691406 11.226563 46.148438 11.226563 46.628906 C 11.226563 47.105469 11.417969 47.5625 11.757813 47.898438 L 31.5 67.53125 C 32.207031 68.230469 33.347656 68.230469 34.054688 67.53125 L 63.699219 38.03125 C 64 37.730469 64.183594 37.332031 64.222656 36.910156 L 65.300781 24.074219 C 65.34375 23.550781 65.15625 23.035156 64.78125 22.664063 Z M 55.96875 27.464844 C 54.160156 27.453125 52.699219 25.984375 52.707031 24.175781 C 52.710938 22.367188 54.179688 20.902344 55.988281 20.90625 C 57.796875 20.910156 59.261719 22.375 59.261719 24.183594 C 59.257813 26 57.78125 27.464844 55.96875 27.464844 Z M 55.96875 27.464844 "/>
<path style=" stroke:none;fill-rule:nonzero;fill:rgb(33.333333%,18.431373%,60%);fill-opacity:1;" d="M 55.96875 18.304688 C 52.726563 18.320313 50.105469 20.960938 50.117188 24.203125 C 50.125 27.445313 52.761719 30.070313 56.003906 30.066406 C 59.25 30.058594 61.875 27.429688 61.875 24.183594 C 61.867188 20.929688 59.222656 18.296875 55.96875 18.304688 Z M 59.199219 24.828125 C 58.886719 26.453125 57.414063 27.59375 55.761719 27.492188 C 54.109375 27.394531 52.785156 26.082031 52.671875 24.429688 C 52.558594 22.777344 53.6875 21.296875 55.3125 20.96875 C 56.390625 20.738281 57.515625 21.070313 58.296875 21.847656 C 59.082031 22.625 59.421875 23.746094 59.199219 24.828125 Z M 59.199219 24.828125 "/>
<path style=" stroke:none;fill-rule:nonzero;fill:rgb(100%,100%,100%);fill-opacity:1;" d="M 59.199219 24.828125 C 58.886719 26.453125 57.414063 27.59375 55.761719 27.492188 C 54.109375 27.394531 52.785156 26.082031 52.671875 24.429688 C 52.558594 22.777344 53.6875 21.296875 55.3125 20.96875 C 56.390625 20.738281 57.515625 21.070313 58.296875 21.847656 C 59.082031 22.625 59.421875 23.746094 59.199219 24.828125 Z M 59.199219 24.828125 "/>
<path style=" stroke:none;fill-rule:nonzero;fill:rgb(100%,100%,100%);fill-opacity:1;" d="M 52.667969 11.894531 C 52.351563 13.523438 50.882813 14.664063 49.230469 14.5625 C 47.574219 14.460938 46.253906 13.152344 46.140625 11.5 C 46.023438 9.847656 47.15625 8.363281 48.777344 8.039063 C 49.859375 7.804688 50.984375 8.132813 51.769531 8.910156 C 52.554688 9.691406 52.890625 10.8125 52.667969 11.894531 Z M 52.667969 11.894531 "/>
</g>
</svg>
