<?xml version="1.0" encoding="UTF-8"?>
<svg xmlns="http://www.w3.org/2000/svg" xmlns:xlink="http://www.w3.org/1999/xlink" width="70pt" height="70pt" viewBox="0 0 70 70" version="1.1">
<defs>
<filter id="alpha" filterUnits="objectBoundingBox" x="0%" y="0%" width="100%" height="100%">
  <feColorMatrix type="matrix" in="SourceGraphic" values="0 0 0 0 1 0 0 0 0 1 0 0 0 0 1 0 0 0 1 0"/>
</filter>
<mask id="mask0">
  <g filter="url(#alpha)">
<rect x="0" y="0" width="70" height="70" style="fill:rgb(0%,0%,0%);fill-opacity:0.101961;stroke:none;"/>
  </g>
</mask>
<clipPath id="clip1">
  <rect x="0" y="0" width="70" height="70"/>
</clipPath>
<g id="surface5" clip-path="url(#clip1)">
<path style=" stroke:none;fill-rule:nonzero;fill:rgb(0%,0%,0%);fill-opacity:1;" d="M 37.917969 27.707031 L 37.917969 51.289063 C 37.910156 52.371094 37.253906 53.34375 36.253906 53.753906 C 35.9375 53.890625 35.59375 53.957031 35.246094 53.957031 L 21.699219 53.957031 C 21.511719 53.476563 21.335938 52.996094 21.191406 52.5 C 20.679688 50.828125 20.417969 49.085938 20.417969 47.335938 L 20.417969 30.507813 C 20.382813 29 21.574219 27.746094 23.085938 27.707031 Z M 37.917969 27.707031 "/>
</g>
<mask id="mask1">
  <g filter="url(#alpha)">
<rect x="0" y="0" width="70" height="70" style="fill:rgb(0%,0%,0%);fill-opacity:0.2;stroke:none;"/>
  </g>
</mask>
<clipPath id="clip2">
  <rect x="0" y="0" width="70" height="70"/>
</clipPath>
<g id="surface8" clip-path="url(#clip2)">
<path style=" stroke:none;fill-rule:nonzero;fill:rgb(0%,0%,0%);fill-opacity:1;" d="M 36.457031 27.707031 L 36.457031 52.746094 C 36.457031 53.09375 36.390625 53.4375 36.253906 53.753906 C 35.84375 54.753906 34.871094 55.410156 33.789063 55.417969 L 22.386719 55.417969 C 22.136719 54.933594 21.902344 54.453125 21.699219 53.957031 C 21.496094 53.460938 21.335938 52.996094 21.191406 52.5 C 20.679688 50.828125 20.417969 49.085938 20.417969 47.335938 L 20.417969 30.507813 C 20.382813 29 21.574219 27.746094 23.085938 27.707031 Z M 36.457031 27.707031 "/>
</g>
<mask id="mask2">
  <g filter="url(#alpha)">
<rect x="0" y="0" width="70" height="70" style="fill:rgb(0%,0%,0%);fill-opacity:0.2;stroke:none;"/>
  </g>
</mask>
<clipPath id="clip3">
  <rect x="0" y="0" width="70" height="70"/>
</clipPath>
<g id="surface11" clip-path="url(#clip3)">
<path style=" stroke:none;fill-rule:nonzero;fill:rgb(0%,0%,0%);fill-opacity:1;" d="M 36.457031 27.707031 L 36.457031 49.832031 C 36.445313 51.300781 35.257813 52.488281 33.789063 52.5 L 21.191406 52.5 C 20.679688 50.828125 20.417969 49.085938 20.417969 47.335938 L 20.417969 30.507813 C 20.382813 29 21.574219 27.746094 23.085938 27.707031 Z M 36.457031 27.707031 "/>
</g>
<mask id="mask3">
  <g filter="url(#alpha)">
<rect x="0" y="0" width="70" height="70" style="fill:rgb(0%,0%,0%);fill-opacity:0.2;stroke:none;"/>
  </g>
</mask>
<clipPath id="clip4">
  <rect x="0" y="0" width="70" height="70"/>
</clipPath>
<g id="surface14" clip-path="url(#clip4)">
<path style=" stroke:none;fill-rule:nonzero;fill:rgb(0%,0%,0%);fill-opacity:1;" d="M 35 27.707031 L 35 49.832031 C 34.988281 51.300781 33.800781 52.488281 32.332031 52.5 L 21.191406 52.5 C 20.679688 50.828125 20.417969 49.085938 20.417969 47.335938 L 20.417969 30.507813 C 20.382813 29 21.574219 27.746094 23.085938 27.707031 Z M 35 27.707031 "/>
</g>
<mask id="mask4">
  <g filter="url(#alpha)">
<rect x="0" y="0" width="70" height="70" style="fill:rgb(0%,0%,0%);fill-opacity:0.101961;stroke:none;"/>
  </g>
</mask>
<clipPath id="clip5">
  <rect x="0" y="0" width="70" height="70"/>
</clipPath>
<g id="surface17" clip-path="url(#clip5)">
<path style=" stroke:none;fill-rule:nonzero;fill:rgb(0%,0%,0%);fill-opacity:1;" d="M 37.917969 20.167969 L 37.917969 24.761719 C 37.667969 24.777344 37.433594 24.792969 37.1875 24.792969 C 36.941406 24.792969 36.707031 24.777344 36.457031 24.761719 C 35.964844 24.730469 35.476563 24.652344 35 24.527344 C 32.046875 23.828125 29.605469 21.757813 28.4375 18.957031 C 28.234375 18.488281 28.078125 18 27.972656 17.5 L 35.246094 17.5 C 36.71875 17.503906 37.910156 18.695313 37.917969 20.167969 Z M 37.917969 20.167969 "/>
</g>
<mask id="mask5">
  <g filter="url(#alpha)">
<rect x="0" y="0" width="70" height="70" style="fill:rgb(0%,0%,0%);fill-opacity:0.2;stroke:none;"/>
  </g>
</mask>
<clipPath id="clip6">
  <rect x="0" y="0" width="70" height="70"/>
</clipPath>
<g id="surface20" clip-path="url(#clip6)">
<path style=" stroke:none;fill-rule:nonzero;fill:rgb(0%,0%,0%);fill-opacity:1;" d="M 36.457031 21.628906 L 36.457031 24.761719 C 35.964844 24.730469 35.476563 24.652344 35 24.527344 C 32.046875 23.828125 29.605469 21.757813 28.4375 18.957031 L 33.789063 18.957031 C 35.261719 18.964844 36.453125 20.15625 36.457031 21.628906 Z M 36.457031 21.628906 "/>
</g>
<mask id="mask6">
  <g filter="url(#alpha)">
<rect x="0" y="0" width="70" height="70" style="fill:rgb(0%,0%,0%);fill-opacity:0.2;stroke:none;"/>
  </g>
</mask>
<clipPath id="clip7">
  <rect x="0" y="0" width="70" height="70"/>
</clipPath>
<g id="surface23" clip-path="url(#clip7)">
<path style=" stroke:none;fill-rule:nonzero;fill:rgb(0%,0%,0%);fill-opacity:1;" d="M 36.457031 21.628906 L 36.457031 24.761719 C 35.964844 24.730469 35.476563 24.652344 35 24.527344 C 32.046875 23.828125 29.605469 21.757813 28.4375 18.957031 L 33.789063 18.957031 C 35.261719 18.964844 36.453125 20.15625 36.457031 21.628906 Z M 36.457031 21.628906 "/>
</g>
<mask id="mask7">
  <g filter="url(#alpha)">
<rect x="0" y="0" width="70" height="70" style="fill:rgb(0%,0%,0%);fill-opacity:0.2;stroke:none;"/>
  </g>
</mask>
<clipPath id="clip8">
  <rect x="0" y="0" width="70" height="70"/>
</clipPath>
<g id="surface26" clip-path="url(#clip8)">
<path style=" stroke:none;fill-rule:nonzero;fill:rgb(0%,0%,0%);fill-opacity:1;" d="M 35 21.628906 L 35 24.527344 C 32.046875 23.828125 29.605469 21.757813 28.4375 18.957031 L 32.332031 18.957031 C 33.804688 18.964844 34.996094 20.15625 35 21.628906 Z M 35 21.628906 "/>
</g>
<linearGradient id="linear0" gradientUnits="userSpaceOnUse" x1="5.822" y1="11.568" x2="20.178" y2="36.432" gradientTransform="matrix(1.458333,0,0,1.458333,0,0)">
<stop offset="0" style="stop-color:rgb(35.294118%,38.431373%,76.470588%);stop-opacity:1;"/>
<stop offset="0.5" style="stop-color:rgb(30.196078%,33.333333%,74.117647%);stop-opacity:1;"/>
<stop offset="1" style="stop-color:rgb(22.352941%,25.098039%,67.058824%);stop-opacity:1;"/>
</linearGradient>
</defs>
<g id="surface1">
<path style=" stroke:none;fill-rule:nonzero;fill:rgb(31.372549%,34.901961%,78.823529%);fill-opacity:1;" d="M 46.65625 27.707031 L 62.855469 27.707031 C 64.382813 27.707031 65.625 28.949219 65.625 30.480469 L 65.625 45.234375 C 65.625 50.855469 61.066406 55.417969 55.441406 55.417969 L 55.394531 55.417969 C 49.769531 55.417969 45.207031 50.859375 45.207031 45.234375 L 45.207031 29.15625 C 45.207031 28.355469 45.855469 27.707031 46.65625 27.707031 Z M 46.65625 27.707031 "/>
<path style=" stroke:none;fill-rule:nonzero;fill:rgb(31.372549%,34.901961%,78.823529%);fill-opacity:1;" d="M 64.167969 18.230469 C 64.167969 21.855469 61.230469 24.792969 57.605469 24.792969 C 53.980469 24.792969 51.042969 21.855469 51.042969 18.230469 C 51.042969 14.605469 53.980469 11.667969 57.605469 11.667969 C 61.230469 11.667969 64.167969 14.605469 64.167969 18.230469 Z M 64.167969 18.230469 "/>
<path style=" stroke:none;fill-rule:nonzero;fill:rgb(48.235294%,51.372549%,92.156863%);fill-opacity:1;" d="M 46.667969 15.3125 C 46.667969 20.546875 42.421875 24.792969 37.1875 24.792969 C 31.953125 24.792969 27.707031 20.546875 27.707031 15.3125 C 27.707031 10.078125 31.953125 5.832031 37.1875 5.832031 C 42.421875 5.832031 46.667969 10.078125 46.667969 15.3125 Z M 46.667969 15.3125 "/>
<path style=" stroke:none;fill-rule:nonzero;fill:rgb(48.235294%,51.372549%,92.156863%);fill-opacity:1;" d="M 49.828125 27.707031 L 23.089844 27.707031 C 21.578125 27.746094 20.382813 29 20.417969 30.511719 L 20.417969 47.339844 C 20.207031 56.414063 27.382813 63.945313 36.457031 64.167969 C 45.53125 63.945313 52.710938 56.414063 52.5 47.339844 L 52.5 30.511719 C 52.535156 29 51.339844 27.746094 49.828125 27.707031 Z M 49.828125 27.707031 "/>
<use xlink:href="#surface5" mask="url(#mask0)"/>
<use xlink:href="#surface8" mask="url(#mask1)"/>
<use xlink:href="#surface11" mask="url(#mask2)"/>
<use xlink:href="#surface14" mask="url(#mask3)"/>
<use xlink:href="#surface17" mask="url(#mask4)"/>
<use xlink:href="#surface20" mask="url(#mask5)"/>
<use xlink:href="#surface23" mask="url(#mask6)"/>
<use xlink:href="#surface26" mask="url(#mask7)"/>
<path style=" stroke:none;fill-rule:nonzero;fill:url(#linear0);" d="M 5.589844 18.957031 L 32.328125 18.957031 C 33.804688 18.957031 35 20.15625 35 21.632813 L 35 48.367188 C 35 49.84375 33.804688 51.042969 32.328125 51.042969 L 5.589844 51.042969 C 4.113281 51.042969 2.917969 49.84375 2.917969 48.367188 L 2.917969 21.632813 C 2.917969 20.15625 4.113281 18.957031 5.589844 18.957031 Z M 5.589844 18.957031 "/>
<path style=" stroke:none;fill-rule:nonzero;fill:rgb(100%,100%,100%);fill-opacity:1;" d="M 25.992188 29.132813 L 20.648438 29.132813 L 20.648438 43.6875 L 17.242188 43.6875 L 17.242188 29.132813 L 11.921875 29.132813 L 11.921875 26.3125 L 25.992188 26.3125 Z M 25.992188 29.132813 "/>
</g>
</svg>
