<?xml version="1.0" encoding="UTF-8"?>
<svg xmlns="http://www.w3.org/2000/svg" xmlns:xlink="http://www.w3.org/1999/xlink" width="70pt" height="70pt" viewBox="0 0 70 70" version="1.1">
<defs>
<linearGradient id="linear0" gradientUnits="userSpaceOnUse" x1="-40" y1="74.181" x2="-40" y2="59.819" gradientTransform="matrix(3.888889,0,0,3.888889,190.555556,-225.555556)">
<stop offset="0" style="stop-color:rgb(9.803922%,54.117647%,70.196078%);stop-opacity:1;"/>
<stop offset="0.619" style="stop-color:rgb(19.215686%,81.568627%,94.509804%);stop-opacity:1;"/>
<stop offset="1" style="stop-color:rgb(19.607843%,83.137255%,96.078431%);stop-opacity:1;"/>
</linearGradient>
</defs>
<g id="surface1">
<path style=" stroke:none;fill-rule:nonzero;fill:rgb(19.607843%,74.509804%,86.666667%);fill-opacity:1;" d="M 24.171875 1.945313 L 11.0625 1.945313 C 8.859375 1.945313 7.074219 3.730469 7.074219 5.933594 L 7.074219 19.054688 L 15.054688 19.054688 L 15.054688 9.925781 L 24.171875 9.925781 Z M 24.171875 1.945313 "/>
<path style=" stroke:none;fill-rule:nonzero;fill:rgb(19.607843%,74.509804%,86.666667%);fill-opacity:1;" d="M 58.9375 1.945313 L 45.832031 1.945313 L 45.832031 9.925781 L 54.945313 9.925781 L 54.945313 19.054688 L 62.925781 19.054688 L 62.925781 5.933594 C 62.925781 3.730469 61.140625 1.945313 58.9375 1.945313 Z M 58.9375 1.945313 "/>
<path style=" stroke:none;fill-rule:nonzero;fill:rgb(19.607843%,74.509804%,86.666667%);fill-opacity:1;" d="M 54.945313 50.945313 L 54.945313 60.0625 L 45.832031 60.0625 L 45.832031 68.054688 L 58.9375 68.054688 C 61.140625 68.054688 62.925781 66.269531 62.925781 64.066406 L 62.925781 50.945313 Z M 54.945313 50.945313 "/>
<path style=" stroke:none;fill-rule:nonzero;fill:rgb(19.607843%,74.509804%,86.666667%);fill-opacity:1;" d="M 15.054688 60.074219 L 15.054688 50.945313 L 7.074219 50.945313 L 7.074219 64.054688 C 7.070313 65.113281 7.488281 66.132813 8.238281 66.882813 C 8.988281 67.632813 10.003906 68.054688 11.0625 68.054688 L 24.171875 68.054688 L 24.171875 60.074219 Z M 15.054688 60.074219 "/>
<path style=" stroke:none;fill-rule:nonzero;fill:url(#linear0);" d="M 14.480469 62.925781 L 55.519531 62.925781 C 56.773438 62.921875 57.792969 61.902344 57.796875 60.648438 L 57.796875 9.332031 C 57.792969 8.078125 56.773438 7.058594 55.519531 7.054688 L 14.480469 7.054688 C 13.226563 7.058594 12.207031 8.078125 12.203125 9.332031 L 12.203125 60.667969 C 12.21875 61.914063 13.234375 62.921875 14.480469 62.925781 Z M 14.480469 62.925781 "/>
<path style=" stroke:none;fill-rule:nonzero;fill:rgb(100%,100%,100%);fill-opacity:1;" d="M 17.890625 58.367188 L 52.109375 58.367188 C 52.738281 58.367188 53.25 57.855469 53.25 57.230469 L 53.25 12.773438 C 53.25 12.144531 52.742188 11.632813 52.109375 11.632813 L 17.890625 11.632813 C 17.257813 11.632813 16.75 12.144531 16.75 12.773438 L 16.75 57.230469 C 16.75 57.855469 17.261719 58.367188 17.890625 58.367188 Z M 17.890625 58.367188 "/>
<path style=" stroke:none;fill-rule:nonzero;fill:rgb(36.862745%,58.823529%,14.117647%);fill-opacity:1;" d="M 25.878906 51.527344 L 44.121094 51.527344 C 44.746094 51.527344 45.257813 51.015625 45.257813 50.386719 L 45.257813 45.257813 C 45.257813 44.628906 44.746094 44.121094 44.121094 44.121094 L 25.878906 44.121094 C 25.253906 44.121094 24.742188 44.628906 24.742188 45.257813 L 24.742188 50.386719 C 24.742188 51.015625 25.253906 51.527344 25.878906 51.527344 Z M 25.878906 51.527344 "/>
<path style=" stroke:none;fill-rule:nonzero;fill:rgb(46.27451%,73.72549%,17.647059%);fill-opacity:1;" d="M 25.878906 38.707031 L 44.121094 38.707031 C 44.746094 38.703125 45.257813 38.195313 45.257813 37.566406 L 45.257813 32.4375 C 45.257813 31.808594 44.75 31.296875 44.121094 31.292969 L 25.878906 31.292969 C 25.25 31.296875 24.742188 31.808594 24.742188 32.4375 L 24.742188 37.566406 C 24.742188 38.195313 25.253906 38.703125 25.878906 38.707031 Z M 25.878906 38.707031 "/>
<path style=" stroke:none;fill-rule:nonzero;fill:rgb(52.54902%,83.921569%,20%);fill-opacity:1;" d="M 25.878906 25.878906 L 44.121094 25.878906 C 44.746094 25.878906 45.257813 25.371094 45.257813 24.742188 L 45.257813 19.613281 C 45.257813 18.984375 44.746094 18.472656 44.121094 18.472656 L 25.878906 18.472656 C 25.253906 18.472656 24.742188 18.984375 24.742188 19.613281 L 24.742188 24.742188 C 24.742188 25.371094 25.253906 25.878906 25.878906 25.878906 Z M 25.878906 25.878906 "/>
</g>
</svg>
