<?xml version="1.0" encoding="UTF-8"?>
<svg xmlns="http://www.w3.org/2000/svg" xmlns:xlink="http://www.w3.org/1999/xlink" width="70pt" height="70pt" viewBox="0 0 70 70" version="1.1">
<defs>
<linearGradient id="linear0" gradientUnits="userSpaceOnUse" x1="5.236" y1="17.5" x2="5.236" y2="13.544" gradientTransform="matrix(3.888889,0,0,3.888889,0,0)">
<stop offset="0" style="stop-color:rgb(65.098039%,47.843137%,95.686275%);stop-opacity:1;"/>
<stop offset="0.775" style="stop-color:rgb(71.764706%,58.823529%,97.647059%);stop-opacity:1;"/>
</linearGradient>
<linearGradient id="linear1" gradientUnits="userSpaceOnUse" x1="15.532" y1="9.063" x2="15.532" y2="5.107" gradientTransform="matrix(3.888889,0,0,3.888889,0,0)">
<stop offset="0" style="stop-color:rgb(65.098039%,47.843137%,95.686275%);stop-opacity:1;"/>
<stop offset="0.775" style="stop-color:rgb(71.764706%,58.823529%,97.647059%);stop-opacity:1;"/>
</linearGradient>
<linearGradient id="linear2" gradientUnits="userSpaceOnUse" x1="12.259" y1="15.541" x2="12.259" y2="11.585" gradientTransform="matrix(3.888889,0,0,3.888889,0,0)">
<stop offset="0" style="stop-color:rgb(65.098039%,47.843137%,95.686275%);stop-opacity:1;"/>
<stop offset="0.775" style="stop-color:rgb(71.764706%,58.823529%,97.647059%);stop-opacity:1;"/>
</linearGradient>
<linearGradient id="linear3" gradientUnits="userSpaceOnUse" x1="5.094" y1="9.709" x2="5.094" y2="0.5" gradientTransform="matrix(3.888889,0,0,3.888889,0,0)">
<stop offset="0" style="stop-color:rgb(65.098039%,47.843137%,95.686275%);stop-opacity:1;"/>
<stop offset="0.485" style="stop-color:rgb(68.235294%,52.941176%,96.470588%);stop-opacity:1;"/>
<stop offset="0.898" style="stop-color:rgb(71.764706%,58.823529%,97.647059%);stop-opacity:1;"/>
</linearGradient>
<linearGradient id="linear4" gradientUnits="userSpaceOnUse" x1="5.094" y1="8.264" x2="5.094" y2="1.945" gradientTransform="matrix(3.888889,0,0,3.888889,0,0)">
<stop offset="0" style="stop-color:rgb(90.196078%,90.196078%,90.196078%);stop-opacity:1;"/>
<stop offset="0.898" style="stop-color:rgb(94.901961%,94.901961%,94.901961%);stop-opacity:1;"/>
</linearGradient>
</defs>
<g id="surface1">
<path style=" stroke:none;fill-rule:nonzero;fill:rgb(46.666667%,22.745098%,86.27451%);fill-opacity:1;" d="M 16.984375 33.214844 L 22.640625 33.214844 L 22.640625 56.890625 L 16.984375 56.890625 Z M 16.984375 33.214844 "/>
<path style=" stroke:none;fill-rule:nonzero;fill:rgb(46.666667%,22.745098%,86.27451%);fill-opacity:1;" d="M 33.011719 30.382813 L 33.011719 24.726563 L 56.6875 24.726563 L 56.6875 30.382813 Z M 33.011719 30.382813 "/>
<path style=" stroke:none;fill-rule:nonzero;fill:rgb(46.666667%,22.745098%,86.27451%);fill-opacity:1;" d="M 25.703125 35.15625 L 29.703125 31.15625 L 46.445313 47.894531 L 42.441406 51.898438 Z M 25.703125 35.15625 "/>
<path style=" stroke:none;fill-rule:nonzero;fill:url(#linear0);" d="M 28.054688 60.363281 C 28.054688 64.613281 24.609375 68.054688 20.363281 68.054688 C 16.113281 68.054688 12.671875 64.613281 12.671875 60.363281 C 12.671875 56.113281 16.113281 52.671875 20.363281 52.671875 C 24.609375 52.671875 28.054688 56.113281 28.054688 60.363281 Z M 28.054688 60.363281 "/>
<path style=" stroke:none;fill-rule:nonzero;fill:url(#linear1);" d="M 68.09375 27.554688 C 68.09375 31.800781 64.652344 35.246094 60.402344 35.246094 C 56.152344 35.246094 52.710938 31.800781 52.710938 27.554688 C 52.710938 23.304688 56.152344 19.859375 60.402344 19.859375 C 64.652344 19.859375 68.09375 23.304688 68.09375 27.554688 Z M 68.09375 27.554688 "/>
<path style=" stroke:none;fill-rule:nonzero;fill:url(#linear2);" d="M 55.367188 52.746094 C 55.367188 56.992188 51.921875 60.4375 47.675781 60.4375 C 43.425781 60.4375 39.980469 56.992188 39.980469 52.746094 C 39.980469 48.496094 43.425781 45.054688 47.675781 45.054688 C 51.921875 45.054688 55.367188 48.496094 55.367188 52.746094 Z M 55.367188 52.746094 "/>
<path style=" stroke:none;fill-rule:nonzero;fill:url(#linear3);" d="M 37.71875 19.851563 C 37.71875 29.742188 29.699219 37.761719 19.808594 37.761719 C 9.917969 37.761719 1.902344 29.742188 1.902344 19.851563 C 1.902344 9.960938 9.917969 1.945313 19.808594 1.945313 C 29.699219 1.945313 37.71875 9.960938 37.71875 19.851563 Z M 37.71875 19.851563 "/>
<path style=" stroke:none;fill-rule:nonzero;fill:url(#linear4);" d="M 32.097656 19.851563 C 32.097656 26.640625 26.597656 32.140625 19.808594 32.140625 C 13.023438 32.140625 7.519531 26.640625 7.519531 19.851563 C 7.519531 13.066406 13.023438 7.5625 19.808594 7.5625 C 26.597656 7.5625 32.097656 13.066406 32.097656 19.851563 Z M 32.097656 19.851563 "/>
</g>
</svg>
