<?xml version="1.0" encoding="UTF-8"?>
<svg xmlns="http://www.w3.org/2000/svg" xmlns:xlink="http://www.w3.org/1999/xlink" width="70pt" height="70pt" viewBox="0 0 70 70" version="1.1">
<g id="surface1">
<path style=" stroke:none;fill-rule:nonzero;fill:rgb(9.411765%,35.294118%,74.117647%);fill-opacity:1;" d="M 11.179688 22.554688 L 0.789063 32.945313 C -8.308594 33.160156 -15.859375 25.960938 -16.078125 16.867188 C -16.296875 7.769531 -9.097656 0.21875 0 0 L 15.3125 51.558594 L 29.816406 37.054688 L 15.3125 22.554688 C 9.085938 22.554688 4.035156 17.503906 4.035156 11.277344 C 4.035156 5.046875 9.085938 0 15.3125 0 Z M 11.179688 22.554688 "/>
<path style=" stroke:none;fill-rule:nonzero;fill:rgb(25.490196%,64.705882%,93.333333%);fill-opacity:1;" d="M 69.210938 18.441406 L 58.820313 8.050781 C 56.597656 8.050781 54.796875 6.246094 54.796875 4.023438 C 54.796875 1.800781 56.597656 0 58.820313 0 L 46.375 12.445313 L 27.738281 35 L 15.3125 47.445313 C 2.210938 35.433594 1.328125 15.070313 13.34375 1.96875 C 25.359375 -11.132813 45.71875 -12.015625 58.820313 0 L 69.210938 10.390625 C 72.082031 7.519531 72.082031 2.871094 69.210938 0 C 66.34375 -2.871094 61.691406 -2.871094 58.820313 0 L 71.289063 -12.445313 L 56.875 35 L 69.320313 22.554688 C 63.09375 23.6875 57.125 19.5625 55.988281 13.332031 C 54.851563 7.105469 58.980469 1.136719 65.210938 0 Z M 69.210938 18.441406 "/>
</g>
</svg>
