<?xml version="1.0" encoding="UTF-8"?>
<svg xmlns="http://www.w3.org/2000/svg" xmlns:xlink="http://www.w3.org/1999/xlink" width="70pt" height="70pt" viewBox="0 0 70 70" version="1.1">
<defs>
<linearGradient id="linear0" gradientUnits="userSpaceOnUse" x1="9" y1="16.431" x2="9" y2="4.559" gradientTransform="matrix(3.888889,0,0,3.888889,0,0)">
<stop offset="0" style="stop-color:rgb(0%,47.058824%,83.137255%);stop-opacity:1;"/>
<stop offset="0.156" style="stop-color:rgb(7.45098%,50.196078%,85.490196%);stop-opacity:1;"/>
<stop offset="0.528" style="stop-color:rgb(23.529412%,56.862745%,89.803922%);stop-opacity:1;"/>
<stop offset="0.822" style="stop-color:rgb(33.333333%,61.176471%,92.54902%);stop-opacity:1;"/>
<stop offset="1" style="stop-color:rgb(36.862745%,62.745098%,93.72549%);stop-opacity:1;"/>
</linearGradient>
</defs>
<g id="surface1">
<path style=" stroke:none;fill-rule:nonzero;fill:rgb(63.921569%,63.921569%,63.921569%);fill-opacity:1;" d="M 51.082031 18.117188 L 47.773438 18.117188 L 47.773438 9.417969 C 47.742188 9.414063 47.707031 9.414063 47.675781 9.417969 L 22.730469 9.417969 C 22.695313 9.414063 22.664063 9.414063 22.628906 9.417969 L 22.628906 18.117188 L 19.324219 18.117188 L 19.324219 9.25 C 19.398438 7.445313 20.921875 6.035156 22.730469 6.101563 L 47.675781 6.101563 C 49.484375 6.035156 51.003906 7.445313 51.082031 9.25 Z M 51.082031 18.117188 "/>
<path style=" stroke:none;fill-rule:nonzero;fill:url(#linear0);" d="M 4.148438 17.730469 L 65.851563 17.730469 C 67.066406 17.730469 68.054688 18.714844 68.054688 19.933594 L 68.054688 61.691406 C 68.054688 62.910156 67.066406 63.898438 65.851563 63.898438 L 4.148438 63.898438 C 2.933594 63.898438 1.945313 62.910156 1.945313 61.691406 L 1.945313 19.933594 C 1.945313 18.714844 2.933594 17.730469 4.148438 17.730469 Z M 4.148438 17.730469 "/>
<path style=" stroke:none;fill-rule:nonzero;fill:rgb(61.176471%,92.156863%,100%);fill-opacity:1;" d="M 1.945313 29.53125 L 68.054688 29.53125 L 68.054688 34.628906 L 1.945313 34.628906 Z M 1.945313 29.53125 "/>
<path style=" stroke:none;fill-rule:nonzero;fill:rgb(0%,35.686275%,63.137255%);fill-opacity:1;" d="M 25.734375 34.628906 L 44.722656 34.628906 L 44.722656 40.585938 C 44.722656 41.1875 44.234375 41.675781 43.628906 41.675781 L 26.832031 41.675781 C 26.230469 41.675781 25.742188 41.1875 25.742188 40.585938 L 25.742188 34.628906 Z M 25.734375 34.628906 "/>
<path style=" stroke:none;fill-rule:nonzero;fill:rgb(51.372549%,72.54902%,97.647059%);fill-opacity:1;" d="M 1.945313 42.367188 L 1.945313 54.011719 L 20.003906 59.804688 L 23.390625 49.242188 Z M 1.945313 42.367188 "/>
<path style=" stroke:none;fill-rule:nonzero;fill:rgb(36.862745%,62.745098%,93.72549%);fill-opacity:1;" d="M 68.054688 41.785156 C 63.609375 39.503906 58.171875 40.652344 55.023438 44.53125 C 51.875 48.414063 51.875 53.96875 55.023438 57.851563 C 58.171875 61.730469 63.609375 62.878906 68.054688 60.597656 Z M 68.054688 41.785156 "/>
</g>
</svg>
