<?xml version="1.0" encoding="UTF-8"?>
<svg xmlns="http://www.w3.org/2000/svg" xmlns:xlink="http://www.w3.org/1999/xlink" width="70pt" height="70pt" viewBox="0 0 70 70" version="1.1">
<defs>
<linearGradient id="linear0" gradientUnits="userSpaceOnUse" x1="7.849" y1="12.323" x2="7.849" y2="4.229" gradientTransform="matrix(3.888889,0,0,3.888889,0,0)">
<stop offset="0" style="stop-color:rgb(0%,47.058824%,83.137255%);stop-opacity:1;"/>
<stop offset="0.502" style="stop-color:rgb(25.098039%,57.647059%,90.196078%);stop-opacity:1;"/>
<stop offset="0.775" style="stop-color:rgb(36.862745%,62.745098%,93.72549%);stop-opacity:1;"/>
</linearGradient>
<linearGradient id="linear1" gradientUnits="userSpaceOnUse" x1="10.151" y1="16.69" x2="10.151" y2="8.595" gradientTransform="matrix(3.888889,0,0,3.888889,0,0)">
<stop offset="0" style="stop-color:rgb(19.607843%,74.509804%,86.666667%);stop-opacity:1;"/>
<stop offset="0.175" style="stop-color:rgb(19.607843%,79.215686%,91.764706%);stop-opacity:1;"/>
<stop offset="0.41" style="stop-color:rgb(19.607843%,82.352941%,94.901961%);stop-opacity:1;"/>
<stop offset="0.775" style="stop-color:rgb(19.607843%,83.137255%,96.078431%);stop-opacity:1;"/>
</linearGradient>
</defs>
<g id="surface1">
<path style=" stroke:none;fill-rule:nonzero;fill:url(#linear0);" d="M 3.890625 16.445313 L 57.167969 16.445313 L 57.167969 46.144531 C 57.167969 47.128906 56.371094 47.925781 55.386719 47.925781 L 5.671875 47.925781 C 4.6875 47.925781 3.890625 47.128906 3.890625 46.144531 Z M 3.890625 16.445313 "/>
<path style=" stroke:none;fill-rule:nonzero;fill:rgb(0%,47.058824%,83.137255%);fill-opacity:1;" d="M 5.679688 5.09375 L 55.367188 5.09375 C 56.351563 5.09375 57.148438 5.890625 57.148438 6.875 L 57.148438 16.445313 L 3.890625 16.445313 L 3.890625 6.875 C 3.890625 6.402344 4.078125 5.949219 4.414063 5.613281 C 4.75 5.277344 5.203125 5.09375 5.679688 5.09375 Z M 5.679688 5.09375 "/>
<path style=" stroke:none;fill-rule:nonzero;fill:url(#linear1);" d="M 12.832031 33.445313 L 66.109375 33.445313 L 66.109375 63.144531 C 66.109375 64.128906 65.3125 64.925781 64.328125 64.925781 L 14.621094 64.925781 C 13.636719 64.925781 12.839844 64.128906 12.839844 63.144531 L 12.839844 33.445313 Z M 12.832031 33.445313 "/>
<path style=" stroke:none;fill-rule:nonzero;fill:rgb(9.803922%,54.117647%,70.196078%);fill-opacity:1;" d="M 14.632813 22.078125 L 64.320313 22.078125 C 64.796875 22.074219 65.25 22.261719 65.585938 22.59375 C 65.921875 22.929688 66.109375 23.382813 66.109375 23.855469 L 66.109375 33.445313 L 12.832031 33.445313 L 12.832031 23.855469 C 12.835938 23.378906 13.023438 22.925781 13.363281 22.589844 C 13.703125 22.257813 14.160156 22.070313 14.632813 22.078125 Z M 14.632813 22.078125 "/>
</g>
</svg>
