<?xml version="1.0" encoding="UTF-8"?>
<svg xmlns="http://www.w3.org/2000/svg" xmlns:xlink="http://www.w3.org/1999/xlink" width="70pt" height="70pt" viewBox="0 0 70 70" version="1.1">
<defs>
<radialGradient id="radial0" gradientUnits="userSpaceOnUse" cx="4649.515" cy="3578.357" fx="4649.515" fy="3578.357" r="48.597" gradientTransform="matrix(0.583333,0,0,0.583333,-2681.937222,-2058.49)">
<stop offset="0.183" style="stop-color:rgb(36.862745%,62.745098%,93.72549%);stop-opacity:1;"/>
<stop offset="1" style="stop-color:rgb(0%,47.058824%,83.137255%);stop-opacity:1;"/>
</radialGradient>
<filter id="alpha" filterUnits="objectBoundingBox" x="0%" y="0%" width="100%" height="100%">
  <feColorMatrix type="matrix" in="SourceGraphic" values="0 0 0 0 1 0 0 0 0 1 0 0 0 0 1 0 0 0 1 0"/>
</filter>
<mask id="mask0">
  <g filter="url(#alpha)">
<rect x="0" y="0" width="70" height="70" style="fill:rgb(0%,0%,0%);fill-opacity:0.6;stroke:none;"/>
  </g>
</mask>
<clipPath id="clip1">
  <rect x="0" y="0" width="70" height="70"/>
</clipPath>
<g id="surface5" clip-path="url(#clip1)">
<path style=" stroke:none;fill-rule:nonzero;fill:rgb(100%,100%,100%);fill-opacity:1;" d="M 22.585938 22.996094 C 30.609375 15.371094 41.238281 11.097656 52.304688 11.050781 C 50.859375 9.242188 49.195313 7.621094 47.351563 6.222656 C 41.960938 6.566406 36.667969 7.816406 31.695313 9.917969 C 26.570313 12.097656 21.941406 15.289063 18.082031 19.304688 C 19.945313 20.011719 21.527344 21.304688 22.585938 22.996094 Z M 22.585938 22.996094 "/>
</g>
<mask id="mask1">
  <g filter="url(#alpha)">
<rect x="0" y="0" width="70" height="70" style="fill:rgb(0%,0%,0%);fill-opacity:0.6;stroke:none;"/>
  </g>
</mask>
<clipPath id="clip2">
  <rect x="0" y="0" width="70" height="70"/>
</clipPath>
<g id="surface8" clip-path="url(#clip2)">
<path style=" stroke:none;fill-rule:nonzero;fill:rgb(100%,100%,100%);fill-opacity:1;" d="M 8.554688 34.382813 C 7.414063 37.226563 6.484375 40.152344 5.765625 43.132813 C 6.394531 44.199219 7.089844 45.226563 7.84375 46.207031 C 8.421875 46.960938 9.035156 47.679688 9.691406 48.367188 C 10.496094 44.398438 11.707031 40.519531 13.300781 36.796875 C 11.511719 36.484375 9.859375 35.644531 8.554688 34.382813 Z M 8.554688 34.382813 "/>
</g>
<mask id="mask2">
  <g filter="url(#alpha)">
<rect x="0" y="0" width="70" height="70" style="fill:rgb(0%,0%,0%);fill-opacity:0.54902;stroke:none;"/>
  </g>
</mask>
<clipPath id="clip3">
  <rect x="0" y="0" width="70" height="70"/>
</clipPath>
<g id="surface11" clip-path="url(#clip3)">
<path style=" stroke:none;fill-rule:nonzero;fill:rgb(94.901961%,94.901961%,94.901961%);fill-opacity:1;" d="M 11.816406 19.257813 C 10.640625 16.09375 9.867188 12.792969 9.519531 9.433594 C 8.121094 10.917969 6.882813 12.546875 5.832031 14.296875 C 6.226563 16.972656 6.867188 19.605469 7.742188 22.167969 C 8.800781 20.832031 10.214844 19.824219 11.816406 19.257813 Z M 11.816406 19.257813 "/>
</g>
<linearGradient id="linear0" gradientUnits="userSpaceOnUse" x1="3.844" y1="9.561" x2="3.817" y2="6.165" gradientTransform="matrix(3.888889,0,0,3.888889,0,0)">
<stop offset="0" style="stop-color:rgb(80%,80%,80%);stop-opacity:1;"/>
<stop offset="0.123" style="stop-color:rgb(84.313725%,84.313725%,84.313725%);stop-opacity:1;"/>
<stop offset="1" style="stop-color:rgb(98.823529%,98.823529%,98.823529%);stop-opacity:1;"/>
</linearGradient>
<mask id="mask3">
  <g filter="url(#alpha)">
<rect x="0" y="0" width="70" height="70" style="fill:rgb(0%,0%,0%);fill-opacity:0.54902;stroke:none;"/>
  </g>
</mask>
<clipPath id="clip4">
  <rect x="0" y="0" width="70" height="70"/>
</clipPath>
<g id="surface14" clip-path="url(#clip4)">
<path style=" stroke:none;fill-rule:nonzero;fill:rgb(94.901961%,94.901961%,94.901961%);fill-opacity:1;" d="M 28.160156 44.46875 C 28.15625 42.875 28.800781 41.347656 29.945313 40.238281 C 26.878906 38.550781 24.050781 36.46875 21.523438 34.046875 C 20.199219 35.460938 18.453125 36.417969 16.546875 36.769531 C 18.042969 38.324219 19.660156 39.753906 21.390625 41.046875 C 23.523438 42.652344 25.808594 44.046875 28.214844 45.207031 C 28.179688 44.964844 28.160156 44.714844 28.160156 44.46875 Z M 28.160156 44.46875 "/>
</g>
<mask id="mask4">
  <g filter="url(#alpha)">
<rect x="0" y="0" width="70" height="70" style="fill:rgb(0%,0%,0%);fill-opacity:0.54902;stroke:none;"/>
  </g>
</mask>
<clipPath id="clip5">
  <rect x="0" y="0" width="70" height="70"/>
</clipPath>
<g id="surface17" clip-path="url(#clip5)">
<path style=" stroke:none;fill-rule:nonzero;fill:rgb(94.901961%,94.901961%,94.901961%);fill-opacity:1;" d="M 49.164063 45.175781 C 46.070313 45.175781 42.988281 44.816406 39.976563 44.109375 C 39.976563 44.226563 39.996094 44.347656 39.996094 44.46875 C 40 46.019531 39.398438 47.503906 38.3125 48.609375 C 42.058594 49.351563 45.878906 49.625 49.6875 49.425781 C 51.121094 48.070313 52.410156 46.570313 53.527344 44.945313 C 52.078125 45.097656 50.621094 45.175781 49.164063 45.175781 Z M 49.164063 45.175781 "/>
</g>
<linearGradient id="linear1" gradientUnits="userSpaceOnUse" x1="8.763" y1="12.958" x2="8.763" y2="9.913" gradientTransform="matrix(3.888889,0,0,3.888889,0,0)">
<stop offset="0" style="stop-color:rgb(80%,80%,80%);stop-opacity:1;"/>
<stop offset="0.123" style="stop-color:rgb(84.313725%,84.313725%,84.313725%);stop-opacity:1;"/>
<stop offset="1" style="stop-color:rgb(98.823529%,98.823529%,98.823529%);stop-opacity:1;"/>
</linearGradient>
<mask id="mask5">
  <g filter="url(#alpha)">
<rect x="0" y="0" width="70" height="70" style="fill:rgb(0%,0%,0%);fill-opacity:0.701961;stroke:none;"/>
  </g>
</mask>
<clipPath id="clip6">
  <rect x="0" y="0" width="70" height="70"/>
</clipPath>
<g id="surface20" clip-path="url(#clip6)">
<path style=" stroke:none;fill-rule:nonzero;fill:rgb(94.901961%,94.901961%,94.901961%);fill-opacity:1;" d="M 41.359375 28.652344 C 41.667969 27.363281 42.382813 26.207031 43.398438 25.355469 C 37.898438 21.359375 32.902344 16.714844 28.515625 11.519531 C 25.980469 8.511719 23.761719 5.246094 21.902344 1.777344 C 20.664063 2.160156 19.453125 2.625 18.277344 3.171875 C 20.257813 6.960938 22.644531 10.523438 25.390625 13.796875 C 30.074219 19.394531 35.441406 24.382813 41.359375 28.652344 Z M 41.359375 28.652344 "/>
</g>
<mask id="mask6">
  <g filter="url(#alpha)">
<rect x="0" y="0" width="70" height="70" style="fill:rgb(0%,0%,0%);fill-opacity:0.54902;stroke:none;"/>
  </g>
</mask>
<clipPath id="clip7">
  <rect x="0" y="0" width="70" height="70"/>
</clipPath>
<g id="surface23" clip-path="url(#clip7)">
<path style=" stroke:none;fill-rule:nonzero;fill:rgb(94.901961%,94.901961%,94.901961%);fill-opacity:1;" d="M 58.132813 34.027344 C 57.742188 33.832031 57.429688 33.664063 57.0625 33.464844 L 56.960938 33.410156 C 56.625 33.234375 56.300781 33.054688 55.972656 32.875 L 55.789063 32.777344 L 54.898438 32.277344 L 54.683594 32.152344 C 54.328125 31.953125 53.976563 31.765625 53.632813 31.554688 C 53.273438 32.785156 52.527344 33.863281 51.507813 34.636719 C 51.917969 34.878906 52.332031 35.117188 52.757813 35.355469 L 53.035156 35.511719 L 54.203125 36.15625 L 54.316406 36.21875 C 55.253906 36.726563 56.210938 37.234375 57.191406 37.738281 C 57.589844 36.523438 57.90625 35.28125 58.136719 34.023438 Z M 58.132813 34.027344 "/>
</g>
<linearGradient id="linear2" gradientUnits="userSpaceOnUse" x1="3.844" y1="9.561" x2="3.817" y2="6.165" gradientTransform="matrix(3.888889,0,0,3.888889,0,0)">
<stop offset="0" style="stop-color:rgb(80%,80%,80%);stop-opacity:1;"/>
<stop offset="0.123" style="stop-color:rgb(84.313725%,84.313725%,84.313725%);stop-opacity:1;"/>
<stop offset="1" style="stop-color:rgb(98.823529%,98.823529%,98.823529%);stop-opacity:1;"/>
</linearGradient>
<linearGradient id="linear3" gradientUnits="userSpaceOnUse" x1="-105.292" y1="373.011" x2="-105.292" y2="364.165" gradientTransform="matrix(3.690556,-1.221111,1.221111,3.690556,-10.554444,-1444.706667)">
<stop offset="0" style="stop-color:rgb(19.607843%,74.509804%,86.666667%);stop-opacity:1;"/>
<stop offset="0.576" style="stop-color:rgb(19.607843%,80.784314%,93.72549%);stop-opacity:1;"/>
<stop offset="1" style="stop-color:rgb(19.607843%,83.137255%,96.078431%);stop-opacity:1;"/>
</linearGradient>
</defs>
<g id="surface1">
<path style=" stroke:none;fill-rule:nonzero;fill:url(#radial0);" d="M 47.667969 51.292969 C 35.296875 60.886719 17.488281 58.636719 7.894531 46.265625 C -1.699219 33.894531 0.550781 16.089844 12.921875 6.496094 L 13.222656 6.277344 C 25.664063 -2.894531 43.160156 -0.40625 52.554688 11.867188 C 61.949219 24.144531 59.773438 41.683594 47.667969 51.292969 "/>
<use xlink:href="#surface5" mask="url(#mask0)"/>
<use xlink:href="#surface8" mask="url(#mask1)"/>
<use xlink:href="#surface11" mask="url(#mask2)"/>
<path style=" stroke:none;fill-rule:nonzero;fill:url(#linear0);" d="M 23.988281 27.832031 C 23.988281 32.863281 19.90625 36.945313 14.875 36.945313 C 9.84375 36.945313 5.761719 32.863281 5.761719 27.832031 C 5.761719 22.800781 9.84375 18.722656 14.875 18.722656 C 19.90625 18.722656 23.988281 22.800781 23.988281 27.832031 Z M 23.988281 27.832031 "/>
<use xlink:href="#surface14" mask="url(#mask3)"/>
<use xlink:href="#surface17" mask="url(#mask4)"/>
<path style=" stroke:none;fill-rule:nonzero;fill:url(#linear1);" d="M 39.996094 44.46875 C 39.996094 47.738281 37.347656 50.386719 34.078125 50.386719 C 30.808594 50.386719 28.160156 47.738281 28.160156 44.46875 C 28.160156 41.199219 30.808594 38.550781 34.078125 38.550781 C 37.347656 38.550781 39.996094 41.199219 39.996094 44.46875 Z M 39.996094 44.46875 "/>
<use xlink:href="#surface20" mask="url(#mask5)"/>
<path style=" stroke:none;fill-rule:nonzero;fill:rgb(94.901961%,94.901961%,94.901961%);fill-opacity:1;" d="M 53.855469 29.789063 C 53.855469 33.261719 51.042969 36.078125 47.570313 36.078125 C 44.097656 36.078125 41.28125 33.261719 41.28125 29.789063 C 41.28125 26.316406 44.097656 23.5 47.570313 23.5 C 51.042969 23.5 53.855469 26.316406 53.855469 29.789063 Z M 53.855469 29.789063 "/>
<use xlink:href="#surface23" mask="url(#mask6)"/>
<path style=" stroke:none;fill-rule:nonzero;fill:url(#linear2);" d="M 23.988281 27.832031 C 23.988281 32.863281 19.90625 36.945313 14.875 36.945313 C 9.84375 36.945313 5.761719 32.863281 5.761719 27.832031 C 5.761719 22.800781 9.84375 18.722656 14.875 18.722656 C 19.90625 18.722656 23.988281 22.800781 23.988281 27.832031 Z M 23.988281 27.832031 "/>
<path style=" stroke:none;fill-rule:nonzero;fill:rgb(94.901961%,94.901961%,94.901961%);fill-opacity:1;" d="M 39.996094 44.46875 C 39.996094 47.738281 37.347656 50.386719 34.078125 50.386719 C 30.808594 50.386719 28.160156 47.738281 28.160156 44.46875 C 28.160156 41.199219 30.808594 38.550781 34.078125 38.550781 C 37.347656 38.550781 39.996094 41.199219 39.996094 44.46875 Z M 39.996094 44.46875 "/>
<path style=" stroke:none;fill-rule:nonzero;fill:url(#linear3);" d="M 68.054688 41.109375 L 66.824219 37.382813 L 61.816406 37.382813 L 59.933594 35.183594 L 60.53125 30.199219 L 57.050781 28.449219 L 53.503906 31.996094 L 50.609375 31.796875 L 47.5 27.828125 L 43.773438 29.0625 L 43.75 29.648438 L 43.75 34.066406 L 41.550781 35.953125 L 36.648438 35.34375 L 34.902344 38.820313 L 35.339844 39.253906 L 38.449219 42.367188 L 38.25 45.253906 L 34.21875 48.40625 L 35.449219 52.125 L 36.039063 52.148438 L 40.457031 52.148438 L 42.34375 54.351563 L 41.742188 59.332031 L 45.222656 61.078125 L 45.660156 60.644531 L 48.769531 57.53125 L 51.664063 57.734375 L 54.773438 61.699219 L 58.5 60.46875 L 58.523438 59.882813 L 58.523438 55.46875 L 60.726563 53.578125 L 65.707031 54.175781 L 67.457031 50.699219 L 67.019531 50.261719 L 63.910156 47.148438 L 64.113281 44.253906 Z M 53.515625 51.917969 C 49.554688 53.226563 45.285156 51.082031 43.972656 47.121094 C 42.664063 43.164063 44.8125 38.890625 48.773438 37.582031 C 52.734375 36.277344 57.003906 38.429688 58.308594 42.390625 C 59.617188 46.34375 57.46875 50.609375 53.515625 51.917969 Z M 53.515625 51.917969 "/>
<path style=" stroke:none;fill-rule:nonzero;fill:rgb(31.372549%,90.196078%,100%);fill-opacity:1;" d="M 29.605469 57.371094 L 29.605469 54.285156 L 29.167969 54.125 L 25.859375 53.039063 L 25 50.945313 L 26.683594 47.371094 L 24.5 45.183594 L 24.0625 45.402344 L 20.976563 46.957031 L 18.863281 46.089844 L 17.527344 42.390625 L 14.4375 42.390625 L 14.277344 42.820313 L 13.195313 46.125 L 11.078125 46.992188 L 7.558594 45.3125 L 5.394531 47.480469 L 5.609375 47.914063 L 7.164063 51.003906 L 6.300781 53.113281 L 2.523438 54.445313 L 2.523438 57.554688 L 2.957031 57.71875 L 6.261719 58.804688 L 7.128906 60.914063 L 5.449219 64.488281 L 7.613281 66.65625 L 8.046875 66.4375 L 11.132813 64.882813 L 13.246094 65.746094 L 14.601563 69.488281 L 17.691406 69.488281 L 17.851563 69.050781 L 18.933594 65.746094 L 21.046875 64.882813 L 24.625 66.558594 L 26.789063 64.390625 L 26.574219 63.960938 L 25.015625 60.871094 L 25.882813 58.761719 Z M 16.066406 61.855469 C 12.78125 61.859375 10.117188 59.199219 10.113281 55.914063 C 10.113281 52.628906 12.773438 49.964844 16.058594 49.964844 C 19.34375 49.964844 22.007813 52.625 22.007813 55.910156 C 22.007813 59.195313 19.347656 61.855469 16.066406 61.855469 Z M 16.066406 61.855469 "/>
<path style=" stroke:none;fill-rule:nonzero;fill:rgb(100%,100%,100%);fill-opacity:1;" d="M 58.691406 44.75 C 58.691406 48.917969 55.3125 52.296875 51.144531 52.296875 C 46.972656 52.296875 43.59375 48.917969 43.59375 44.75 C 43.59375 40.582031 46.972656 37.199219 51.144531 37.199219 C 55.3125 37.199219 58.691406 40.582031 58.691406 44.75 Z M 58.691406 44.75 "/>
<path style=" stroke:none;fill-rule:nonzero;fill:rgb(100%,100%,100%);fill-opacity:1;" d="M 22.007813 55.910156 C 22.007813 59.191406 19.347656 61.851563 16.066406 61.851563 C 12.78125 61.851563 10.121094 59.191406 10.121094 55.910156 C 10.121094 52.628906 12.78125 49.96875 16.066406 49.96875 C 19.347656 49.96875 22.007813 52.628906 22.007813 55.910156 Z M 22.007813 55.910156 "/>
</g>
</svg>
