<?xml version="1.0" encoding="UTF-8"?>
<svg xmlns="http://www.w3.org/2000/svg" xmlns:xlink="http://www.w3.org/1999/xlink" width="70pt" height="70pt" viewBox="0 0 70 70" version="1.1">
<defs>
<radialGradient id="radial0" gradientUnits="userSpaceOnUse" cx="1427.09" cy="3357.234" fx="1427.09" fy="3357.234" r="20.684" gradientTransform="matrix(0.583333,0,0,0.583333,-797.774444,-1923.409444)">
<stop offset="0.183" style="stop-color:rgb(36.862745%,62.745098%,93.72549%);stop-opacity:1;"/>
<stop offset="1" style="stop-color:rgb(0%,47.058824%,83.137255%);stop-opacity:1;"/>
</radialGradient>
<linearGradient id="linear0" gradientUnits="userSpaceOnUse" x1="7.243" y1="9.904" x2="7.232" y2="8.458" gradientTransform="matrix(3.888889,0,0,3.888889,0,0)">
<stop offset="0" style="stop-color:rgb(80%,80%,80%);stop-opacity:1;"/>
<stop offset="0.123" style="stop-color:rgb(84.313725%,84.313725%,84.313725%);stop-opacity:1;"/>
<stop offset="1" style="stop-color:rgb(98.823529%,98.823529%,98.823529%);stop-opacity:1;"/>
</linearGradient>
<linearGradient id="linear1" gradientUnits="userSpaceOnUse" x1="9.337" y1="11.349" x2="9.337" y2="10.053" gradientTransform="matrix(3.888889,0,0,3.888889,0,0)">
<stop offset="0" style="stop-color:rgb(80%,80%,80%);stop-opacity:1;"/>
<stop offset="0.123" style="stop-color:rgb(84.313725%,84.313725%,84.313725%);stop-opacity:1;"/>
<stop offset="1" style="stop-color:rgb(98.823529%,98.823529%,98.823529%);stop-opacity:1;"/>
</linearGradient>
<filter id="alpha" filterUnits="objectBoundingBox" x="0%" y="0%" width="100%" height="100%">
  <feColorMatrix type="matrix" in="SourceGraphic" values="0 0 0 0 1 0 0 0 0 1 0 0 0 0 1 0 0 0 1 0"/>
</filter>
<mask id="mask0">
  <g filter="url(#alpha)">
<rect x="0" y="0" width="70" height="70" style="fill:rgb(0%,0%,0%);fill-opacity:0.54902;stroke:none;"/>
  </g>
</mask>
<clipPath id="clip1">
  <rect x="0" y="0" width="70" height="70"/>
</clipPath>
<g id="surface5" clip-path="url(#clip1)">
<path style=" stroke:none;fill-rule:nonzero;fill:rgb(94.901961%,94.901961%,94.901961%);fill-opacity:1;" d="M 24.257813 41.046875 C 24.527344 41.5 24.824219 41.933594 25.140625 42.355469 C 25.386719 42.675781 25.644531 42.980469 25.917969 43.277344 C 26.261719 41.585938 26.777344 39.9375 27.457031 38.351563 C 26.691406 38.21875 25.988281 37.859375 25.433594 37.320313 C 24.953125 38.535156 24.5625 39.777344 24.257813 41.046875 Z M 24.257813 41.046875 "/>
</g>
<mask id="mask1">
  <g filter="url(#alpha)">
<rect x="0" y="0" width="70" height="70" style="fill:rgb(0%,0%,0%);fill-opacity:0.54902;stroke:none;"/>
  </g>
</mask>
<clipPath id="clip2">
  <rect x="0" y="0" width="70" height="70"/>
</clipPath>
<g id="surface8" clip-path="url(#clip2)">
<path style=" stroke:none;fill-rule:nonzero;fill:rgb(94.901961%,94.901961%,94.901961%);fill-opacity:1;" d="M 26.832031 30.886719 C 26.332031 29.539063 26 28.132813 25.851563 26.703125 C 25.261719 27.335938 24.738281 28.03125 24.296875 28.773438 C 24.464844 29.914063 24.734375 31.035156 25.105469 32.125 C 25.554688 31.558594 26.152344 31.128906 26.832031 30.886719 Z M 26.832031 30.886719 "/>
</g>
<mask id="mask2">
  <g filter="url(#alpha)">
<rect x="0" y="0" width="70" height="70" style="fill:rgb(0%,0%,0%);fill-opacity:0.54902;stroke:none;"/>
  </g>
</mask>
<clipPath id="clip3">
  <rect x="0" y="0" width="70" height="70"/>
</clipPath>
<g id="surface11" clip-path="url(#clip3)">
<path style=" stroke:none;fill-rule:nonzero;fill:rgb(94.901961%,94.901961%,94.901961%);fill-opacity:1;" d="M 30.96875 37.179688 C 30.40625 37.785156 29.660156 38.195313 28.847656 38.34375 C 29.484375 39.007813 30.171875 39.617188 30.910156 40.167969 C 31.820313 40.851563 32.792969 41.445313 33.8125 41.941406 C 33.800781 41.832031 33.792969 41.722656 33.789063 41.613281 C 33.792969 40.933594 34.074219 40.285156 34.566406 39.8125 C 33.257813 39.097656 32.046875 38.210938 30.96875 37.179688 Z M 30.96875 37.179688 "/>
</g>
<mask id="mask3">
  <g filter="url(#alpha)">
<rect x="0" y="0" width="70" height="70" style="fill:rgb(0%,0%,0%);fill-opacity:0.54902;stroke:none;"/>
  </g>
</mask>
<clipPath id="clip4">
  <rect x="0" y="0" width="70" height="70"/>
</clipPath>
<g id="surface14" clip-path="url(#clip4)">
<path style=" stroke:none;fill-rule:nonzero;fill:rgb(94.901961%,94.901961%,94.901961%);fill-opacity:1;" d="M 38.824219 41.460938 C 38.824219 41.515625 38.824219 41.5625 38.824219 41.613281 C 38.824219 42.273438 38.566406 42.90625 38.101563 43.375 C 39.699219 43.691406 41.324219 43.808594 42.949219 43.722656 C 43.558594 43.144531 44.105469 42.503906 44.582031 41.8125 C 43.964844 41.882813 43.34375 41.917969 42.722656 41.917969 C 41.410156 41.917969 40.101563 41.765625 38.824219 41.460938 Z M 38.824219 41.460938 "/>
</g>
<mask id="mask4">
  <g filter="url(#alpha)">
<rect x="0" y="0" width="70" height="70" style="fill:rgb(0%,0%,0%);fill-opacity:0.54902;stroke:none;"/>
  </g>
</mask>
<clipPath id="clip5">
  <rect x="0" y="0" width="70" height="70"/>
</clipPath>
<g id="surface17" clip-path="url(#clip5)">
<path style=" stroke:none;fill-rule:nonzero;fill:rgb(94.901961%,94.901961%,94.901961%);fill-opacity:1;" d="M 40.28125 33.480469 C 38.628906 32.269531 37.082031 30.921875 35.648438 29.457031 C 38.261719 28.140625 41.140625 27.433594 44.070313 27.394531 C 43.453125 26.625 42.746094 25.933594 41.960938 25.339844 C 39.667969 25.488281 37.414063 26.019531 35.296875 26.914063 C 34.832031 27.109375 34.429688 27.402344 33.984375 27.636719 L 33.945313 27.609375 C 32.863281 26.332031 31.921875 24.941406 31.128906 23.460938 C 30.597656 23.625 30.078125 23.824219 29.574219 24.058594 C 30.394531 25.625 31.382813 27.101563 32.515625 28.460938 C 31.421875 29.171875 30.410156 29.996094 29.5 30.929688 C 30.289063 31.226563 30.960938 31.769531 31.410156 32.484375 C 32.257813 31.671875 33.1875 30.953125 34.183594 30.332031 C 35.785156 32.003906 37.535156 33.527344 39.410156 34.882813 C 39.542969 34.332031 39.847656 33.839844 40.28125 33.480469 Z M 40.28125 33.480469 "/>
</g>
<mask id="mask5">
  <g filter="url(#alpha)">
<rect x="0" y="0" width="70" height="70" style="fill:rgb(0%,0%,0%);fill-opacity:0.54902;stroke:none;"/>
  </g>
</mask>
<clipPath id="clip6">
  <rect x="0" y="0" width="70" height="70"/>
</clipPath>
<g id="surface20" clip-path="url(#clip6)">
<path style=" stroke:none;fill-rule:nonzero;fill:rgb(94.901961%,94.901961%,94.901961%);fill-opacity:1;" d="M 46.09375 36.945313 L 46.046875 36.921875 L 45.628906 36.691406 L 45.550781 36.648438 L 45.160156 36.4375 L 45.066406 36.386719 L 44.621094 36.132813 C 44.46875 36.65625 44.152344 37.117188 43.71875 37.445313 L 44.246094 37.75 L 44.367188 37.816406 L 44.863281 38.089844 L 44.910156 38.117188 C 45.296875 38.332031 45.71875 38.550781 46.132813 38.765625 C 46.296875 38.246094 46.429688 37.71875 46.523438 37.183594 Z M 46.09375 36.945313 "/>
</g>
</defs>
<g id="surface1">
<path style=" stroke:none;fill-rule:nonzero;fill:rgb(70.196078%,70.196078%,70.196078%);fill-opacity:1;" d="M 12.585938 35 C 11.988281 35.90625 11.417969 36.808594 10.890625 37.722656 C 13.792969 41.882813 17.0625 45.777344 20.65625 49.359375 C 24.234375 52.945313 28.125 56.210938 32.277344 59.109375 C 33.179688 58.574219 34.085938 58.007813 35 57.40625 C 30.570313 54.457031 26.445313 51.070313 22.691406 47.296875 C 18.921875 43.542969 15.535156 39.425781 12.585938 35 Z M 12.585938 35 "/>
<path style=" stroke:none;fill-rule:nonzero;fill:rgb(70.196078%,70.196078%,70.196078%);fill-opacity:1;" d="M 7.367188 7.363281 C 9.359375 5.582031 11.984375 4.671875 14.652344 4.839844 C 17.742188 4.925781 20.792969 5.542969 23.671875 6.664063 C 26.6875 7.792969 29.59375 9.199219 32.347656 10.867188 C 33.230469 10.257813 34.117188 9.679688 35 9.125 C 31.738281 7.050781 28.273438 5.320313 24.65625 3.960938 C 16.175781 0.867188 9.308594 1.347656 5.332031 5.328125 C -0.449219 11.113281 1.40625 22.734375 9.097656 35 C 9.660156 34.101563 10.261719 33.199219 10.890625 32.277344 C 4.617188 21.742188 2.84375 11.882813 7.367188 7.363281 Z M 7.367188 7.363281 "/>
<path style=" stroke:none;fill-rule:nonzero;fill:rgb(36.862745%,62.745098%,93.72549%);fill-opacity:1;" d="M 14.660156 68.054688 C 11.21875 68.234375 7.855469 67.011719 5.328125 64.667969 C -2.722656 56.621094 4.023438 37.289063 20.65625 20.652344 C 27.617188 13.414063 36.03125 7.726563 45.34375 3.964844 C 53.824219 0.855469 60.691406 1.351563 64.667969 5.328125 C 72.710938 13.371094 65.976563 32.703125 49.34375 49.339844 C 37.457031 61.21875 24.195313 68.054688 14.660156 68.054688 Z M 55.347656 4.839844 C 52.257813 4.925781 49.207031 5.542969 46.328125 6.664063 C 37.410156 10.28125 29.355469 15.742188 22.691406 22.6875 C 7.710938 37.667969 0.691406 55.957031 7.367188 62.628906 C 14.039063 69.304688 32.328125 62.285156 47.308594 47.304688 C 62.289063 32.324219 69.308594 14.03125 62.632813 7.363281 C 60.640625 5.582031 58.015625 4.671875 55.347656 4.839844 Z M 55.347656 4.839844 "/>
<path style=" stroke:none;fill-rule:nonzero;fill:rgb(70.196078%,70.196078%,70.196078%);fill-opacity:1;" d="M 10.890625 32.289063 L 13.578125 36.457031 L 11.425781 38.46875 L 8.152344 33.441406 Z M 10.890625 32.289063 "/>
<path style=" stroke:none;fill-rule:nonzero;fill:rgb(70.196078%,70.196078%,70.196078%);fill-opacity:1;" d="M 58.527344 31.527344 C 55.777344 27.648438 52.703125 24.003906 49.34375 20.636719 C 45.746094 17.035156 41.835938 13.765625 37.652344 10.867188 C 36.769531 11.394531 35.882813 11.953125 35 12.542969 C 39.429688 15.507813 43.550781 18.90625 47.308594 22.6875 C 50.753906 26.125 53.878906 29.871094 56.640625 33.875 L 59.109375 37.722656 C 65.382813 48.269531 67.15625 58.128906 62.632813 62.648438 C 58.113281 67.171875 48.246094 65.398438 37.707031 59.128906 C 36.804688 59.757813 35.898438 60.351563 34.984375 60.914063 C 40.996094 65.089844 48.023438 67.5625 55.324219 68.070313 C 58.765625 68.25 62.128906 67.027344 64.65625 64.683594 C 70.253906 59.082031 68.640625 48.011719 61.546875 36.191406 L 61.582031 36.171875 L 61.128906 35.460938 C 61.035156 35.3125 60.964844 35.167969 60.871094 35.015625 L 60.871094 35.039063 Z M 58.527344 31.527344 "/>
<path style=" stroke:none;fill-rule:nonzero;fill:url(#radial0);" d="M 42.09375 44.519531 C 36.832031 48.601563 29.257813 47.644531 25.175781 42.382813 C 21.097656 37.117188 22.054688 29.546875 27.316406 25.464844 L 27.4375 25.371094 C 32.726563 21.320313 40.300781 22.328125 44.347656 27.617188 C 48.398438 32.910156 47.390625 40.480469 42.101563 44.53125 "/>
<path style=" stroke:none;fill-rule:nonzero;fill:url(#linear0);" d="M 32.011719 34.535156 C 32.011719 36.675781 30.277344 38.410156 28.136719 38.410156 C 25.996094 38.410156 24.257813 36.675781 24.257813 34.535156 C 24.257813 32.390625 25.996094 30.65625 28.136719 30.65625 C 30.277344 30.65625 32.011719 32.390625 32.011719 34.535156 Z M 32.011719 34.535156 "/>
<path style=" stroke:none;fill-rule:nonzero;fill:url(#linear1);" d="M 38.832031 41.613281 C 38.832031 43.007813 37.703125 44.136719 36.3125 44.136719 C 34.917969 44.136719 33.789063 43.007813 33.789063 41.613281 C 33.789063 40.222656 34.917969 39.09375 36.3125 39.09375 C 37.703125 39.09375 38.832031 40.222656 38.832031 41.613281 Z M 38.832031 41.613281 "/>
<path style=" stroke:none;fill-rule:nonzero;fill:rgb(100%,100%,100%);fill-opacity:1;" d="M 44.730469 35.367188 C 44.730469 36.84375 43.53125 38.042969 42.054688 38.042969 C 40.578125 38.042969 39.378906 36.84375 39.378906 35.367188 C 39.378906 33.886719 40.578125 32.691406 42.054688 32.691406 C 43.53125 32.691406 44.730469 33.886719 44.730469 35.367188 Z M 44.730469 35.367188 "/>
<use xlink:href="#surface5" mask="url(#mask0)"/>
<use xlink:href="#surface8" mask="url(#mask1)"/>
<use xlink:href="#surface11" mask="url(#mask2)"/>
<use xlink:href="#surface14" mask="url(#mask3)"/>
<use xlink:href="#surface17" mask="url(#mask4)"/>
<use xlink:href="#surface20" mask="url(#mask5)"/>
<path style=" stroke:none;fill-rule:nonzero;fill:rgb(100%,100%,100%);fill-opacity:1;" d="M 32.011719 34.535156 C 32.011719 36.675781 30.277344 38.410156 28.136719 38.410156 C 25.996094 38.410156 24.257813 36.675781 24.257813 34.535156 C 24.257813 32.390625 25.996094 30.65625 28.136719 30.65625 C 30.277344 30.65625 32.011719 32.390625 32.011719 34.535156 Z M 32.011719 34.535156 "/>
<path style=" stroke:none;fill-rule:nonzero;fill:rgb(100%,100%,100%);fill-opacity:1;" d="M 38.832031 41.613281 C 38.832031 43.007813 37.703125 44.136719 36.3125 44.136719 C 34.917969 44.136719 33.789063 43.007813 33.789063 41.613281 C 33.789063 40.222656 34.917969 39.09375 36.3125 39.09375 C 37.703125 39.09375 38.832031 40.222656 38.832031 41.613281 Z M 38.832031 41.613281 "/>
</g>
</svg>
