<?xml version="1.0" encoding="UTF-8"?>
<svg xmlns="http://www.w3.org/2000/svg" xmlns:xlink="http://www.w3.org/1999/xlink" width="70pt" height="70pt" viewBox="0 0 70 70" version="1.1">
<defs>
<linearGradient id="linear0" gradientUnits="userSpaceOnUse" x1="9" y1="11.576" x2="9" y2="0" gradientTransform="matrix(3.888889,0,0,3.888889,0,0)">
<stop offset="0" style="stop-color:rgb(0%,47.058824%,83.137255%);stop-opacity:1;"/>
<stop offset="0.156" style="stop-color:rgb(7.45098%,50.196078%,85.490196%);stop-opacity:1;"/>
<stop offset="0.528" style="stop-color:rgb(23.529412%,56.862745%,89.803922%);stop-opacity:1;"/>
<stop offset="0.822" style="stop-color:rgb(33.333333%,61.176471%,92.54902%);stop-opacity:1;"/>
<stop offset="1" style="stop-color:rgb(36.862745%,62.745098%,93.72549%);stop-opacity:1;"/>
</linearGradient>
</defs>
<g id="surface1">
<path style=" stroke:none;fill-rule:nonzero;fill:url(#linear0);" d="M 66.757813 30.917969 C 66.546875 23.925781 61.300781 18.121094 54.371094 17.199219 C 53.945313 7.363281 45.691406 -0.304688 35.847656 0 C 28.011719 -0.144531 20.941406 4.679688 18.210938 12.023438 C 9.859375 13.039063 3.5 20 3.242188 28.410156 C 3.609375 37.929688 11.609375 45.359375 21.132813 45.019531 C 21.660156 45.019531 22.1875 44.992188 22.707031 44.949219 L 51.667969 44.949219 C 51.929688 44.945313 52.191406 44.90625 52.445313 44.835938 C 60.171875 44.769531 66.476563 38.636719 66.757813 30.917969 Z M 66.757813 30.917969 "/>
<path style=" stroke:none;fill-rule:nonzero;fill:rgb(9.803922%,54.117647%,70.196078%);fill-opacity:1;" d="M 9.597656 49.3125 L 63.382813 49.3125 C 64.539063 49.3125 65.476563 50.25 65.476563 51.40625 C 65.476563 52.566406 64.539063 53.503906 63.382813 53.503906 L 9.597656 53.503906 C 8.441406 53.503906 7.5 52.566406 7.5 51.40625 C 7.5 50.25 8.441406 49.3125 9.597656 49.3125 Z M 9.597656 49.3125 "/>
<path style=" stroke:none;fill-rule:nonzero;fill:rgb(19.607843%,74.509804%,86.666667%);fill-opacity:1;" d="M 9.3125 57.527344 L 49.023438 57.527344 C 50.023438 57.527344 50.835938 58.339844 50.835938 59.339844 L 50.835938 59.910156 C 50.835938 60.910156 50.023438 61.71875 49.023438 61.71875 L 9.3125 61.71875 C 8.3125 61.71875 7.5 60.910156 7.5 59.910156 L 7.5 59.339844 C 7.5 58.339844 8.3125 57.527344 9.3125 57.527344 Z M 9.3125 57.527344 "/>
<path style=" stroke:none;fill-rule:nonzero;fill:rgb(31.372549%,90.196078%,100%);fill-opacity:1;" d="M 9.148438 65.6875 L 40.605469 65.6875 C 41.511719 65.6875 42.25 66.421875 42.25 67.332031 L 42.25 68.355469 C 42.25 69.261719 41.511719 70 40.605469 70 L 9.148438 70 C 8.238281 70 7.5 69.261719 7.5 68.355469 L 7.5 67.332031 C 7.5 66.421875 8.238281 65.6875 9.148438 65.6875 Z M 9.148438 65.6875 "/>
</g>
</svg>
