<?xml version="1.0" encoding="UTF-8"?>
<svg xmlns="http://www.w3.org/2000/svg" xmlns:xlink="http://www.w3.org/1999/xlink" width="70pt" height="70pt" viewBox="0 0 70 70" version="1.1">
<g id="surface1">
<path style=" stroke:none;fill-rule:nonzero;fill:rgb(15.686275%,65.882353%,91.764706%);fill-opacity:1;" d="M 25.265625 21.257813 C 24.992188 20.960938 24.941406 20.523438 25.140625 20.175781 C 25.179688 20.109375 25.226563 20.046875 25.28125 19.992188 L 43.9375 1.308594 C 44.277344 0.96875 44.742188 0.773438 45.226563 0.773438 C 45.734375 0.773438 46.222656 0.988281 46.566406 1.359375 C 52.039063 7.28125 55.984375 14.449219 58.054688 22.242188 L 46.765625 35 L 29.972656 29.742188 C 29.113281 26.574219 27.5 23.660156 25.265625 21.257813 Z M 25.265625 21.257813 "/>
<path style=" stroke:none;fill-rule:nonzero;fill:rgb(0%,47.058824%,83.137255%);fill-opacity:1;" d="M 66.996094 21.792969 C 66.804688 20.972656 66.066406 20.390625 65.226563 20.390625 C 65.066406 20.390625 64.90625 20.410156 64.753906 20.453125 L 29.96875 29.742188 C 30.894531 33.207031 30.894531 36.855469 29.976563 40.320313 L 41.574219 54.773438 L 58.089844 47.878906 L 64.742188 49.664063 C 64.898438 49.707031 65.058594 49.726563 65.21875 49.726563 C 66.058594 49.726563 66.796875 49.148438 66.988281 48.328125 C 69.015625 39.601563 69.019531 30.523438 66.996094 21.792969 Z M 66.996094 21.792969 "/>
<path style=" stroke:none;fill-rule:nonzero;fill:rgb(1.176471%,34.509804%,65.490196%);fill-opacity:1;" d="M 29.976563 40.320313 C 29.128906 43.480469 27.53125 46.386719 25.316406 48.792969 C 24.976563 49.152344 24.980469 49.722656 25.328125 50.070313 L 43.976563 68.691406 C 44.320313 69.03125 44.785156 69.226563 45.265625 69.226563 C 45.773438 69.226563 46.257813 69.011719 46.601563 68.640625 C 52.066406 62.757813 56.007813 55.628906 58.089844 47.875 Z M 29.976563 40.320313 "/>
<path style=" stroke:none;fill-rule:nonzero;fill:rgb(0%,0%,0%);fill-opacity:0.101961;" d="M 39.375 53.960938 L 39.375 18.226563 C 39.371094 16.632813 38.054688 15.316406 36.460938 15.3125 L 29.910156 15.3125 L 25.28125 19.949219 C 25.226563 20.003906 25.179688 20.0625 25.140625 20.128906 C 24.941406 20.476563 24.992188 20.917969 25.265625 21.210938 C 27.5 23.613281 29.113281 26.527344 29.972656 29.695313 L 29.976563 29.695313 L 29.96875 29.699219 C 31.785156 36.417969 30.027344 43.625 25.316406 48.75 C 24.976563 49.105469 24.980469 49.679688 25.328125 50.027344 L 32.1875 56.875 L 36.460938 56.875 C 38.054688 56.871094 39.371094 55.554688 39.375 53.960938 Z M 39.375 53.960938 "/>
<path style=" stroke:none;fill-rule:nonzero;fill:rgb(0%,0%,0%);fill-opacity:0.2;" d="M 37.1875 56.148438 L 37.1875 20.414063 C 37.183594 18.820313 35.867188 17.503906 34.273438 17.5 L 27.722656 17.5 L 25.28125 19.949219 C 25.226563 20.003906 25.179688 20.0625 25.140625 20.128906 C 24.941406 20.476563 24.992188 20.917969 25.265625 21.210938 C 27.5 23.613281 29.113281 26.527344 29.972656 29.695313 L 29.976563 29.695313 L 29.96875 29.699219 C 31.785156 36.417969 30.027344 43.625 25.316406 48.75 C 24.976563 49.105469 24.980469 49.679688 25.328125 50.027344 L 34.378906 59.058594 C 35.933594 59 37.183594 57.703125 37.1875 56.148438 Z M 37.1875 56.148438 "/>
<path style=" stroke:none;fill-rule:nonzero;fill:rgb(0%,0%,0%);fill-opacity:0.2;" d="M 37.1875 51.773438 L 37.1875 20.414063 C 37.183594 18.820313 35.867188 17.503906 34.273438 17.5 L 27.722656 17.5 L 25.28125 19.949219 C 25.226563 20.003906 25.179688 20.0625 25.140625 20.128906 C 24.941406 20.476563 24.992188 20.917969 25.265625 21.210938 C 27.5 23.613281 29.113281 26.527344 29.972656 29.695313 L 29.976563 29.695313 L 29.96875 29.699219 C 31.785156 36.417969 30.027344 43.625 25.316406 48.75 C 24.976563 49.105469 24.980469 49.679688 25.328125 50.027344 L 30 54.6875 L 34.273438 54.6875 C 35.867188 54.683594 37.183594 53.367188 37.1875 51.773438 Z M 37.1875 51.773438 "/>
<path style=" stroke:none;fill-rule:nonzero;fill:rgb(0%,0%,0%);fill-opacity:0.2;" d="M 35 51.773438 L 35 20.414063 C 34.996094 18.820313 33.679688 17.503906 32.085938 17.5 L 27.722656 17.5 L 25.28125 19.949219 C 25.226563 20.003906 25.179688 20.0625 25.140625 20.128906 C 24.941406 20.476563 24.992188 20.917969 25.265625 21.210938 C 27.5 23.613281 29.113281 26.527344 29.972656 29.695313 L 29.976563 29.695313 L 29.96875 29.699219 C 31.785156 36.417969 30.027344 43.625 25.316406 48.75 C 24.976563 49.105469 24.980469 49.679688 25.328125 50.027344 L 30 54.6875 L 32.085938 54.6875 C 33.679688 54.683594 34.996094 53.367188 35 51.773438 Z M 35 51.773438 "/>
<path style=" stroke:none;fill-rule:nonzero;fill:rgb(0%,47.058824%,83.137255%);fill-opacity:1;" d="M 2.914063 17.5 L 32.085938 17.5 C 33.683594 17.5 35 18.816406 35 20.414063 L 35 49.585938 C 35 51.183594 33.683594 52.5 32.085938 52.5 L 2.914063 52.5 C 1.316406 52.5 0 51.183594 0 49.585938 L 0 20.414063 C 0 18.816406 1.316406 17.5 2.914063 17.5 Z M 2.914063 17.5 "/>
<path style=" stroke:none;fill-rule:nonzero;fill:rgb(97.647059%,96.862745%,96.862745%);fill-opacity:1;" d="M 17.117188 33.578125 C 17.324219 34 17.488281 34.441406 17.605469 34.894531 L 17.652344 34.894531 C 17.765625 34.449219 17.925781 34.019531 18.128906 33.609375 L 22.570313 25.242188 C 22.90625 24.605469 23.574219 24.207031 24.292969 24.207031 C 25.367188 24.207031 26.246094 25.089844 26.246094 26.160156 C 26.246094 26.5 26.15625 26.835938 25.988281 27.132813 L 19.84375 37.828125 C 19.671875 38.125 19.582031 38.457031 19.582031 38.800781 L 19.582031 44.214844 C 19.582031 45.285156 18.699219 46.164063 17.632813 46.164063 L 17.234375 46.164063 C 16.160156 46.164063 15.28125 45.285156 15.28125 44.214844 L 15.28125 38.867188 C 15.28125 38.53125 15.195313 38.203125 15.03125 37.910156 L 9 27.113281 C 8.835938 26.820313 8.753906 26.492188 8.753906 26.160156 C 8.753906 25.089844 9.632813 24.207031 10.707031 24.207031 L 11.089844 24.207031 C 11.820313 24.207031 12.492188 24.617188 12.824219 25.261719 Z M 17.117188 33.578125 "/>
</g>
</svg>
